<svg xmlns="http://www.w3.org/2000/svg" xmlns:xlink="http://www.w3.org/1999/xlink" width="1241.961" height="573.252" viewBox="0 0 1241.961 573.252">
  <defs>
    <clipPath id="clip-path">
      <path id="Background" d="M20,0H413.98a0,0,0,0,1,0,0V573.224a0,0,0,0,1,0,0H20a20,20,0,0,1-20-20V20A20,20,0,0,1,20,0Z" transform="translate(0 0)" fill="#aee6e6"/>
    </clipPath>
    <clipPath id="clip-path-2">
      <path id="Trazado_873727" data-name="Trazado 873727" d="M.222.127,44.886.062l-.127,76.272L.095,76.4Z" transform="translate(75.991 69.7) rotate(152.705)" fill="none" stroke="#7d6eb2" stroke-width="1"/>
    </clipPath>
    <clipPath id="clip-path-3">
      <path id="Background-2" data-name="Background" d="M0,0H393.98a20,20,0,0,1,20,20V553.224a20,20,0,0,1-20,20H0a0,0,0,0,1,0,0V0A0,0,0,0,1,0,0Z" transform="translate(0 0)" fill="#aee6e6"/>
    </clipPath>
    <clipPath id="clip-path-4">
      <path id="Trazado_875817" data-name="Trazado 875817" d="M.127,76.272l44.664.066L44.664.066,0,0Z" transform="translate(37.083 86.916) rotate(-152.705)" fill="none" stroke="#7d6eb2" stroke-width="1"/>
    </clipPath>
    <clipPath id="clip-path-5">
      <path id="Background-3" data-name="Background" d="M0,0H392.99a20,20,0,0,1,20,20V553.224a20,20,0,0,1-20,20H0a0,0,0,0,1,0,0V0A0,0,0,0,1,0,0Z" transform="translate(0 0)" fill="#aee6e6"/>
    </clipPath>
    <clipPath id="clip-path-6">
      <path id="Trazado_873735" data-name="Trazado 873735" d="M0,0,44.673.067l.13,76.089L.13,76.089Z" transform="translate(37.105 86.766) rotate(-152.705)" fill="none" stroke="#aee6e6" stroke-width="1"/>
    </clipPath>
  </defs>
  <g id="Grupo_1102048" data-name="Grupo 1102048" transform="translate(-179.02 -1920.883)">
    <path id="Background-4" data-name="Background" d="M20,0H413.98a0,0,0,0,1,0,0V573.118a0,0,0,0,1,0,0H20a20,20,0,0,1-20-20V20A20,20,0,0,1,20,0Z" transform="translate(179.02 1920.883)" fill="#aee6e6"/>
    <path id="Background-5" data-name="Background" d="M0,0H393.98a20,20,0,0,1,20,20V553.118a20,20,0,0,1-20,20H0a0,0,0,0,1,0,0V0A0,0,0,0,1,0,0Z" transform="translate(1007 1920.883)" fill="#aee6e6"/>
    <text id="Far_far_away_behind" data-name="Far far away, behind" transform="translate(247 2186.692)" fill="#12263f" font-size="16" font-family="Roboto-Regular, Roboto"><tspan x="0" y="15">La llegada de las redes sociales ha </tspan><tspan x="0" y="39">obligado a que tanto sus usuarios desde el </tspan><tspan x="0" y="63">ámbito comercial, como sus </tspan><tspan x="0" y="87">administradores; implementen técnicas de </tspan><tspan x="0" y="111">análisis de la información que en ese tipo </tspan><tspan x="0" y="135">de plataformas es masiva y muy relevante </tspan><tspan x="0" y="159">para el proceso comercial.</tspan></text>
    <text id="Far_far_away_behind-2" data-name="Far far away, behind" transform="translate(1049 2186.692)" fill="#12263f" font-size="16" font-family="Roboto-Regular, Roboto"><tspan x="0" y="15">Nunca ene el mundo se había tenido tanta </tspan><tspan x="0" y="39">información circulando y a disposición de </tspan><tspan x="0" y="63">casi cualquier persona que tenga acceso a </tspan><tspan x="0" y="87">internet. Los datos que generan las redes </tspan><tspan x="0" y="111">sociales, los sistemas de información, los </tspan><tspan x="0" y="135">sitios web y las entidades </tspan><tspan x="0" y="159">gubernamentales y privadas permiten </tspan><tspan x="0" y="183">conocer a un nivel superior como </tspan><tspan x="0" y="207">desarrollar el proceso comercial y de </tspan><tspan x="0" y="231">marketing en cualquier empresa.</tspan></text>
    <text id="Feature_One" data-name="Feature One" transform="translate(247 2130.692)" fill="#12263f" font-size="24" font-family="Roboto-Black, Roboto" font-weight="800"><tspan x="0" y="23">Social </tspan><tspan y="23" font-family="Roboto-Regular, Roboto" font-weight="400">analytics</tspan></text>
    <text id="Feature_One-2" data-name="Feature One" transform="translate(1049 2130.692)" fill="#12263f" font-size="24" font-family="Roboto-Regular, Roboto"><tspan x="0" y="23">Big data</tspan></text>
    <path id="_12068" data-name="12068" d="M98.737,72.292c-13.285-1.834-27.318-1.386-39.407,4.421-16.765,8.052-27.775,26.309-28.2,44.9S40.4,158.479,55.36,169.523s34.7,14.959,53,11.643c18.453-3.344,35.773-14.186,45.4-30.28,6.172-10.321,9.057-23.065,5.647-34.6-2.059-6.961-6.267-13.128-11.217-18.437A82.875,82.875,0,0,0,98.737,72.292Z" transform="translate(219.145 1911.384)" fill="#26aab7"/>
    <path id="_12068-2" data-name="12068" d="M98.737,72.292c-13.285-1.834-27.318-1.386-39.407,4.421-16.765,8.052-27.775,26.309-28.2,44.9S40.4,158.479,55.36,169.523s34.7,14.959,53,11.643c18.453-3.344,35.773-14.186,45.4-30.28,6.172-10.321,9.057-23.065,5.647-34.6-2.059-6.961-6.267-13.128-11.217-18.437A82.875,82.875,0,0,0,98.737,72.292Z" transform="translate(1021.145 1911.384)" fill="#26aab7"/>
    <g id="Enmascarar_grupo_1098680" data-name="Enmascarar grupo 1098680" transform="translate(179.02 1920.883)" clip-path="url(#clip-path)">
      <g id="Grupo_1099009" data-name="Grupo 1099009" transform="matrix(0.469, -0.883, 0.883, 0.469, 9.908, 563.318)">
        <g id="Enmascarar_grupo_1098676" data-name="Enmascarar grupo 1098676" transform="translate(0 0)" clip-path="url(#clip-path-2)">
          <g id="Grupo_1099009-2" data-name="Grupo 1099009" transform="translate(-33.605 6.394)">
            <path id="Trazado_873720" data-name="Trazado 873720" d="M42.937.973C65.687.445,83.7,16.418,83.173,36.65s-19.4,37.061-42.149,37.589S.26,58.794.788,38.562,20.187,1.5,42.937.973Z" transform="translate(1.091 25.559) rotate(-16.624)" fill="none" stroke="#7d6eb2" stroke-width="2"/>
            <path id="Trazado_873721" data-name="Trazado 873721" d="M30.344-1.253C48.977-.143,64.981,16.664,66.09,36.287S52.995,70.919,34.362,69.81-.275,51.893-1.384,32.27,11.711-2.362,30.344-1.253Z" transform="translate(15.123 78.844) rotate(-85.029)" fill="none" stroke="#7d6eb2" stroke-width="2"/>
            <path id="Trazado_873722" data-name="Trazado 873722" d="M26.693-1.146c16.438,1.014,30.586,15.691,31.6,32.782S46.8,61.761,30.364,60.747-.222,45.057-1.236,27.965,10.255-2.16,26.693-1.146Z" transform="matrix(0.14, -0.99, 0.99, 0.14, 18.565, 73.645)" fill="none" stroke="#7d6eb2" stroke-width="2"/>
            <path id="Trazado_873723" data-name="Trazado 873723" d="M29.683,1.479C44.6.721,56.071,11.366,55.313,25.257S41.85,51.022,26.937,51.78.549,41.893,1.307,28,14.77,2.238,29.683,1.479Z" transform="translate(23.765 22.953)" fill="none" stroke="#7d6eb2" stroke-width="2"/>
            <path id="Trazado_873724" data-name="Trazado 873724" d="M24.615,1.012C37.21.487,46.994,9.37,46.469,20.852S35.309,42.069,22.714,42.594.335,34.236.86,22.753,12.02,1.537,24.615,1.012Z" transform="translate(26.154 30.519) rotate(-6.323)" fill="none" stroke="#7d6eb2" stroke-width="2"/>
            <path id="Trazado_873140" data-name="Trazado 873140" d="M16.766-.643c10.052.486,18.594,8.419,19.08,17.718S28.578,33.52,18.526,33.033-.068,24.614-.554,15.315,6.714-1.129,16.766-.643Z" transform="translate(28.613 54.397) rotate(-54.14)" fill="none" stroke="#7d6eb2" stroke-width="2"/>
            <path id="Trazado_873725" data-name="Trazado 873725" d="M12.365-.527C19.876-.107,26.3,6,26.725,13.115S21.4,25.655,13.886,25.235-.054,18.708-.474,11.594,4.854-.947,12.365-.527Z" transform="matrix(0.495, -0.869, 0.869, 0.495, 34.846, 54.879)" fill="none" stroke="#7d6eb2" stroke-width="2"/>
            <path id="Trazado_873726" data-name="Trazado 873726" d="M9.769.142c5.254-.079,9.448,3.622,9.369,8.267s-4.4,8.475-9.656,8.554S.035,13.34.114,8.7,4.516.221,9.769.142Z" transform="translate(40.046 44.989) rotate(-20.72)" fill="none" stroke="#7d6eb2" stroke-width="2"/>
            <path id="Trazado_873141" data-name="Trazado 873141" d="M.663,7.072C-.445,4.918.638,2.147,3.08.882S8.4.338,9.507,2.492s.025,4.926-2.418,6.19S1.769,9.227.663,7.072Z" transform="translate(46.991 44.801)" fill="none" stroke="#7d6eb2" stroke-miterlimit="10" stroke-width="2"/>
          </g>
        </g>
      </g>
      <g id="Grupo_1099010" data-name="Grupo 1099010" transform="translate(351.211 17.427)">
        <g id="Grupo_1099012" data-name="Grupo 1099012" transform="translate(0 0)">
          <path id="Trazado_873142" data-name="Trazado 873142" d="M640.186,391.326c3.11,0,3.11,2.12,6.221,2.12s3.11-2.12,6.22-2.12,3.109,2.12,6.219,2.12,3.11-2.12,6.22-2.12,3.11,2.12,6.221,2.12,3.11-2.12,6.22-2.12,3.11,2.12,6.221,2.12,3.11-2.12,6.221-2.12,3.111,2.12,6.222,2.12,3.111-2.12,6.221-2.12,3.111,2.12,6.222,2.12,3.111-2.12,6.222-2.12,3.11,2.12,6.22,2.12,3.111-2.12,6.222-2.12,3.112,2.12,6.224,2.12,3.111-2.12,6.222-2.12,3.113,2.12,6.226,2.12,3.113-2.12,6.226-2.12" transform="translate(-640.186 -391.326)" fill="none" stroke="#26aab7" stroke-miterlimit="10" stroke-width="2"/>
        </g>
        <g id="Grupo_1099013" data-name="Grupo 1099013" transform="translate(0 9.133)">
          <path id="Trazado_873143" data-name="Trazado 873143" d="M640.186,408.556c3.11,0,3.11,2.12,6.221,2.12s3.11-2.12,6.22-2.12,3.109,2.12,6.219,2.12,3.11-2.12,6.22-2.12,3.11,2.12,6.221,2.12,3.11-2.12,6.22-2.12,3.11,2.12,6.221,2.12,3.11-2.12,6.221-2.12,3.111,2.12,6.222,2.12,3.111-2.12,6.221-2.12,3.111,2.12,6.222,2.12,3.111-2.12,6.222-2.12,3.11,2.12,6.22,2.12,3.111-2.12,6.222-2.12,3.112,2.12,6.224,2.12,3.111-2.12,6.222-2.12,3.113,2.12,6.226,2.12,3.113-2.12,6.226-2.12" transform="translate(-640.186 -408.556)" fill="none" stroke="#26aab7" stroke-miterlimit="10" stroke-width="2"/>
        </g>
        <g id="Grupo_1099014" data-name="Grupo 1099014" transform="translate(0 18.266)">
          <path id="Trazado_873144" data-name="Trazado 873144" d="M640.186,425.786c3.11,0,3.11,2.12,6.221,2.12s3.11-2.12,6.22-2.12,3.109,2.12,6.219,2.12,3.11-2.12,6.22-2.12,3.11,2.12,6.221,2.12,3.11-2.12,6.22-2.12,3.11,2.12,6.221,2.12,3.11-2.12,6.221-2.12,3.111,2.12,6.222,2.12,3.111-2.12,6.221-2.12,3.111,2.12,6.222,2.12,3.111-2.12,6.222-2.12,3.11,2.12,6.22,2.12,3.111-2.12,6.222-2.12,3.112,2.12,6.224,2.12,3.111-2.12,6.222-2.12,3.113,2.12,6.226,2.12,3.113-2.12,6.226-2.12" transform="translate(-640.186 -425.786)" fill="none" stroke="#26aab7" stroke-miterlimit="10" stroke-width="2"/>
        </g>
        <g id="Grupo_1099015" data-name="Grupo 1099015" transform="translate(0 27.399)">
          <path id="Trazado_873145" data-name="Trazado 873145" d="M640.186,443.016c3.11,0,3.11,2.12,6.221,2.12s3.11-2.12,6.22-2.12,3.109,2.12,6.219,2.12,3.11-2.12,6.22-2.12,3.11,2.12,6.221,2.12,3.11-2.12,6.22-2.12,3.11,2.12,6.221,2.12,3.11-2.12,6.221-2.12,3.111,2.12,6.222,2.12,3.111-2.12,6.221-2.12,3.111,2.12,6.222,2.12,3.111-2.12,6.222-2.12,3.11,2.12,6.22,2.12,3.111-2.12,6.222-2.12,3.112,2.12,6.224,2.12,3.111-2.12,6.222-2.12,3.113,2.12,6.226,2.12,3.113-2.12,6.226-2.12" transform="translate(-640.186 -443.016)" fill="none" stroke="#26aab7" stroke-miterlimit="10" stroke-width="2"/>
        </g>
      </g>
      <path id="Shape_2" data-name="Shape 2" d="M104.292,0V65.366H0a16.021,16.021,0,0,1,2.176-1.009c3.889-1.458,8.18-1.818,11.935-3.617a22.141,22.141,0,0,0,9.1-8.583c2.319-3.709,4.234-7.593,7.808-10.411,3.927-3.1,9-4.608,13.936-5.6a22.939,22.939,0,0,0,12.633-7.124c1.852-2.07,3.281-4.448,5.1-6.545a14.558,14.558,0,0,1,8.543-4.92c3-.569,6.448-.654,8.964-2.5a8.452,8.452,0,0,0,2.955-5.3c.76-3.435.718-7.98,4.324-9.748Z" transform="translate(88.921 46.947) rotate(180)" fill="#7d6eb2"/>
    </g>
    <g id="Enmascarar_grupo_1098747" data-name="Enmascarar grupo 1098747" transform="translate(1007 1920.883)" clip-path="url(#clip-path-3)">
      <g id="Grupo_1099983" data-name="Grupo 1099983" transform="translate(-49.22 -18.496)">
        <g id="Grupo_1099977" data-name="Grupo 1099977" transform="matrix(-0.469, -0.883, 0.883, -0.469, 373.137, 620.243)">
          <g id="Enmascarar_grupo_1098746" data-name="Enmascarar grupo 1098746" transform="translate(0 0)" clip-path="url(#clip-path-4)">
            <g id="Grupo_1099976" data-name="Grupo 1099976" transform="translate(-33.354 -12.259)">
              <path id="Trazado_875808" data-name="Trazado 875808" d="M41.5,72.461c22.75.528,40.765-15.445,40.237-35.677S62.34-.278,39.59-.806-1.175,14.639-.647,34.871,18.752,71.933,41.5,72.461Z" transform="matrix(0.958, 0.286, -0.286, 0.958, 19.436, -0.88)" fill="none" stroke="#7d6eb2" stroke-width="2"/>
              <path id="Trazado_875809" data-name="Trazado 875809" d="M33.9,73.043c18.633-1.11,34.637-17.917,35.746-37.54S56.546.872,37.913,1.981,3.277,19.9,2.167,39.521,15.263,74.153,33.9,73.043Z" transform="translate(82.297 6.03) rotate(85.029)" fill="none" stroke="#7d6eb2" stroke-width="2"/>
              <path id="Trazado_875810" data-name="Trazado 875810" d="M29.9,63.739c16.438-1.014,30.586-15.691,31.6-32.782S50.012.832,33.573,1.846,2.988,17.536,1.974,34.628,13.465,64.753,29.9,63.739Z" transform="matrix(0.14, 0.99, -0.99, 0.14, 76.049, 9.022)" fill="none" stroke="#7d6eb2" stroke-width="2"/>
              <path id="Trazado_875811" data-name="Trazado 875811" d="M27.516,49.314c14.913.758,26.388-9.887,25.63-23.777S39.682-.228,24.769-.986-1.619,8.9-.861,22.791,12.6,48.556,27.516,49.314Z" transform="translate(21.895 20.885)" fill="none" stroke="#7d6eb2" stroke-width="2"/>
              <path id="Trazado_875812" data-name="Trazado 875812" d="M23.148,40.858C35.743,41.383,45.527,32.5,45,21.018S33.842-.2,21.247-.724-1.132,7.634-.607,19.116,10.553,40.333,23.148,40.858Z" transform="translate(28.184 22.66) rotate(6.323)" fill="none" stroke="#7d6eb2" stroke-width="2"/>
              <path id="Trazado_875813" data-name="Trazado 875813" d="M18.146,34.622C28.2,34.136,36.74,26.2,37.226,16.9S29.958.46,19.906.946,1.312,9.365.826,18.665,8.094,35.109,18.146,34.622Z" transform="matrix(0.586, 0.81, -0.81, 0.586, 51.305, 19.212)" fill="none" stroke="#7d6eb2" stroke-width="2"/>
              <path id="Trazado_875814" data-name="Trazado 875814" d="M13.586,26.582c7.511-.42,13.94-6.527,14.36-13.641S22.618.4,15.107.82,1.167,7.348.747,14.462,6.075,27,13.586,26.582Z" transform="translate(52.849 25.804) rotate(60.355)" fill="none" stroke="#7d6eb2" stroke-width="2"/>
              <path id="Trazado_875815" data-name="Trazado 875815" d="M9.556,16.7c5.254.079,9.448-3.622,9.369-8.267S14.523-.047,9.269-.126-.179,3.5-.1,8.142,4.3,16.616,9.556,16.7Z" transform="translate(42.164 33.97) rotate(20.72)" fill="none" stroke="#7d6eb2" stroke-width="2"/>
              <path id="Trazado_875816" data-name="Trazado 875816" d="M.273,2.049C-.834,4.2.248,6.975,2.691,8.24s5.32.544,6.427-1.61S9.142,1.7,6.7.439,1.38-.105.273,2.049Z" transform="translate(43.342 40.71)" fill="none" stroke="#7d6eb2" stroke-miterlimit="10" stroke-width="2"/>
            </g>
          </g>
        </g>
        <g id="Grupo_1099982" data-name="Grupo 1099982" transform="translate(0 35.848)">
          <g id="Grupo_1099978" data-name="Grupo 1099978" transform="translate(0 0)">
            <path id="Trazado_875818" data-name="Trazado 875818" d="M752.175,391.326c-3.11,0-3.11,2.12-6.221,2.12s-3.11-2.12-6.22-2.12-3.109,2.12-6.219,2.12-3.11-2.12-6.22-2.12-3.11,2.12-6.221,2.12-3.11-2.12-6.22-2.12-3.11,2.12-6.221,2.12-3.11-2.12-6.221-2.12-3.111,2.12-6.222,2.12-3.111-2.12-6.221-2.12-3.111,2.12-6.222,2.12-3.111-2.12-6.222-2.12-3.11,2.12-6.22,2.12-3.111-2.12-6.222-2.12-3.112,2.12-6.224,2.12-3.111-2.12-6.222-2.12-3.113,2.12-6.226,2.12-3.113-2.12-6.226-2.12" transform="translate(-640.186 -391.326)" fill="none" stroke="#26aab7" stroke-miterlimit="10" stroke-width="2"/>
          </g>
          <g id="Grupo_1099979" data-name="Grupo 1099979" transform="translate(0 9.133)">
            <path id="Trazado_875819" data-name="Trazado 875819" d="M752.175,408.556c-3.11,0-3.11,2.12-6.221,2.12s-3.11-2.12-6.22-2.12-3.109,2.12-6.219,2.12-3.11-2.12-6.22-2.12-3.11,2.12-6.221,2.12-3.11-2.12-6.22-2.12-3.11,2.12-6.221,2.12-3.11-2.12-6.221-2.12-3.111,2.12-6.222,2.12-3.111-2.12-6.221-2.12-3.111,2.12-6.222,2.12-3.111-2.12-6.222-2.12-3.11,2.12-6.22,2.12-3.111-2.12-6.222-2.12-3.112,2.12-6.224,2.12-3.111-2.12-6.222-2.12-3.113,2.12-6.226,2.12-3.113-2.12-6.226-2.12" transform="translate(-640.186 -408.556)" fill="none" stroke="#26aab7" stroke-miterlimit="10" stroke-width="2"/>
          </g>
          <g id="Grupo_1099980" data-name="Grupo 1099980" transform="translate(0 18.266)">
            <path id="Trazado_875820" data-name="Trazado 875820" d="M752.175,425.786c-3.11,0-3.11,2.12-6.221,2.12s-3.11-2.12-6.22-2.12-3.109,2.12-6.219,2.12-3.11-2.12-6.22-2.12-3.11,2.12-6.221,2.12-3.11-2.12-6.22-2.12-3.11,2.12-6.221,2.12-3.11-2.12-6.221-2.12-3.111,2.12-6.222,2.12-3.111-2.12-6.221-2.12-3.111,2.12-6.222,2.12-3.111-2.12-6.222-2.12-3.11,2.12-6.22,2.12-3.111-2.12-6.222-2.12-3.112,2.12-6.224,2.12-3.111-2.12-6.222-2.12-3.113,2.12-6.226,2.12-3.113-2.12-6.226-2.12" transform="translate(-640.186 -425.786)" fill="none" stroke="#26aab7" stroke-miterlimit="10" stroke-width="2"/>
          </g>
          <g id="Grupo_1099981" data-name="Grupo 1099981" transform="translate(0 27.399)">
            <path id="Trazado_875821" data-name="Trazado 875821" d="M752.175,443.016c-3.11,0-3.11,2.12-6.221,2.12s-3.11-2.12-6.22-2.12-3.109,2.12-6.219,2.12-3.11-2.12-6.22-2.12-3.11,2.12-6.221,2.12-3.11-2.12-6.22-2.12-3.11,2.12-6.221,2.12-3.11-2.12-6.221-2.12-3.111,2.12-6.222,2.12-3.111-2.12-6.221-2.12-3.111,2.12-6.222,2.12-3.111-2.12-6.222-2.12-3.11,2.12-6.22,2.12-3.111-2.12-6.222-2.12-3.112,2.12-6.224,2.12-3.111-2.12-6.222-2.12-3.113,2.12-6.226,2.12-3.113-2.12-6.226-2.12" transform="translate(-640.186 -443.016)" fill="none" stroke="#26aab7" stroke-miterlimit="10" stroke-width="2"/>
          </g>
        </g>
        <path id="Shape_2-2" data-name="Shape 2" d="M104.292,65.366V0H0A16.022,16.022,0,0,0,2.176,1.009c3.889,1.458,8.18,1.818,11.935,3.617a22.141,22.141,0,0,1,9.1,8.583c2.319,3.709,4.234,7.593,7.808,10.411,3.927,3.1,9,4.608,13.936,5.6a22.939,22.939,0,0,1,12.633,7.124c1.852,2.07,3.281,4.448,5.1,6.545a14.558,14.558,0,0,0,8.543,4.92c3,.569,6.448.654,8.964,2.5a8.452,8.452,0,0,1,2.955,5.3c.76,3.435.718,7.98,4.324,9.748Z" transform="translate(374.279 0)" fill="#7d6eb2"/>
      </g>
    </g>
    <g id="Rectángulo_401338" data-name="Rectángulo 401338" transform="translate(593 1920.883)" fill="#7d6eb2" stroke="#707070" stroke-width="1">
      <rect width="414" height="573.252" stroke="none"/>
      <rect x="0.5" y="0.5" width="413" height="572.252" fill="none"/>
    </g>
    <text id="Far_far_away_behind-3" data-name="Far far away, behind" transform="translate(652.995 2186.692)" fill="#fff" font-size="16" font-family="Roboto-Regular, Roboto"><tspan x="0" y="15">La llegada de los teléfonos inteligentes </tspan><tspan x="0" y="39">trajo consigo un nuevo sistema de </tspan><tspan x="0" y="63">navegación, gestión, trabajo, </tspan><tspan x="0" y="87">entrenamiento y organización. Las </tspan><tspan x="0" y="111">aplicaciones (App), al igual que los sitios </tspan><tspan x="0" y="135">web y las plataformas online, genera una </tspan><tspan x="0" y="159">gran cantidad de información y datos que, </tspan><tspan x="0" y="183">al ser organizados y analizados permiten </tspan><tspan x="0" y="207">la toma de decisiones de forma oportuna </tspan><tspan x="0" y="231">y adecuada.</tspan></text>
    <text id="Feature_One-3" data-name="Feature One" transform="translate(652.995 2130.692)" fill="#fff" font-size="24" font-family="Roboto-Regular, Roboto"><tspan x="0" y="23">Mobile analytics</tspan></text>
    <path id="_12068-3" data-name="12068" d="M98.737,72.292c-13.285-1.834-27.318-1.386-39.407,4.421-16.765,8.052-27.775,26.309-28.2,44.9S40.4,158.479,55.36,169.523s34.7,14.959,53,11.643c18.453-3.344,35.773-14.186,45.4-30.28,6.172-10.321,9.057-23.065,5.647-34.6-2.059-6.961-6.267-13.128-11.217-18.437A82.875,82.875,0,0,0,98.737,72.292Z" transform="translate(621.876 1911.384)" fill="#26aab7"/>
    <g id="Enmascarar_grupo_1098682" data-name="Enmascarar grupo 1098682" transform="translate(593.995 1920.883)" clip-path="url(#clip-path-5)">
      <g id="Grupo_1099046" data-name="Grupo 1099046" transform="matrix(-0.469, -0.883, 0.883, -0.469, 323.143, 602.486)">
        <g id="Enmascarar_grupo_1098681" data-name="Enmascarar grupo 1098681" transform="translate(0 0)" clip-path="url(#clip-path-6)">
          <g id="Grupo_1099045" data-name="Grupo 1099045" transform="translate(-33.373 -12.263)">
            <path id="Trazado_873728" data-name="Trazado 873728" d="M39.579-.8c22.752.538,41.633,17.338,42.171,37.524S64.281,72.835,41.528,72.3-.105,54.958-.643,34.772,16.827-1.341,39.579-.8Z" transform="matrix(0.958, 0.286, -0.286, 0.958, 19.395, -0.877)" fill="none" stroke="#aee6e6" stroke-width="2"/>
            <path id="Trazado_873729" data-name="Trazado 873729" d="M37.9,1.981C56.5.85,70.669,15.833,69.538,35.446S52.409,71.876,33.806,73.007,1.038,59.155,2.169,39.542,19.3,3.112,37.9,1.981Z" transform="translate(82.273 6.011) rotate(85.029)" fill="none" stroke="#aee6e6" stroke-width="2"/>
            <path id="Trazado_873730" data-name="Trazado 873730" d="M33.568,1.846C49.983.813,62.452,13.822,61.419,30.9S46.241,62.667,29.827,63.7.942,51.724,1.976,34.644,17.153,2.879,33.568,1.846Z" transform="matrix(0.14, 0.99, -0.99, 0.14, 76.026, 8.994)" fill="none" stroke="#aee6e6" stroke-width="2"/>
            <path id="Trazado_873731" data-name="Trazado 873731" d="M24.741-.98c14.909.773,27.621,12.64,28.394,26.506S42.449,50,27.54,49.232-.081,36.592-.854,22.726,9.832-1.753,24.741-.98Z" transform="translate(21.887 20.852)" fill="none" stroke="#aee6e6" stroke-width="2"/>
            <path id="Trazado_873732" data-name="Trazado 873732" d="M21.23-.72C33.823-.185,44.466,9.538,45,21s-9.24,20.316-21.833,19.781S-.068,30.52-.6,19.06,8.637-1.255,21.23-.72Z" transform="translate(28.169 22.626) rotate(6.323)" fill="none" stroke="#aee6e6" stroke-width="2"/>
            <path id="Trazado_873157" data-name="Trazado 873157" d="M18.123,34.561c10.049-.5,18.6-8.422,19.092-17.7S29.967.451,19.918.947,1.321,9.369.825,18.651,8.074,35.057,18.123,34.561Z" transform="matrix(0.586, 0.81, -0.81, 0.586, 51.273, 19.162)" fill="none" stroke="#aee6e6" stroke-width="2"/>
            <path id="Trazado_873733" data-name="Trazado 873733" d="M15.115.821C22.622.393,28.361,5.8,27.933,12.906S21.072,26.114,13.565,26.542.319,21.559.747,14.457,7.608,1.249,15.115.821Z" transform="translate(52.825 25.748) rotate(60.355)" fill="none" stroke="#aee6e6" stroke-width="2"/>
            <path id="Trazado_873734" data-name="Trazado 873734" d="M9.269-.125c5.254.081,9.579,3.9,9.66,8.537s-4.114,8.325-9.368,8.245S-.019,12.754-.1,8.12,4.014-.206,9.269-.125Z" transform="translate(42.146 33.916) rotate(20.72)" fill="none" stroke="#aee6e6" stroke-width="2"/>
            <path id="Trazado_873158" data-name="Trazado 873158" d="M.272,2.041C-.832,4.19.252,6.958,2.7,8.224s5.318.549,6.423-1.6S9.137,1.706,6.695.442,1.376-.108.272,2.041Z" transform="translate(43.332 40.646)" fill="none" stroke="#aee6e6" stroke-miterlimit="10" stroke-width="2"/>
          </g>
        </g>
      </g>
      <g id="Grupo_1099051" data-name="Grupo 1099051" transform="translate(-49.102 17.431)">
        <g id="Grupo_1099047" data-name="Grupo 1099047" transform="translate(0 0)">
          <path id="Trazado_873159" data-name="Trazado 873159" d="M751.907,391.326c-3.1,0-3.1,2.121-6.206,2.121s-3.1-2.121-6.205-2.121-3.1,2.121-6.2,2.121-3.1-2.121-6.205-2.121-3.1,2.121-6.206,2.121-3.1-2.121-6.205-2.121-3.1,2.121-6.206,2.121-3.1-2.121-6.206-2.121-3.1,2.121-6.207,2.121-3.1-2.121-6.206-2.121-3.1,2.121-6.207,2.121-3.1-2.121-6.207-2.121-3.1,2.121-6.2,2.121-3.1-2.121-6.207-2.121-3.1,2.121-6.209,2.121-3.1-2.121-6.207-2.121-3.106,2.121-6.211,2.121-3.105-2.121-6.211-2.121" transform="translate(-640.186 -391.326)" fill="none" stroke="#ffd947" stroke-miterlimit="10" stroke-width="2"/>
        </g>
        <g id="Grupo_1099048" data-name="Grupo 1099048" transform="translate(0 9.135)">
          <path id="Trazado_873160" data-name="Trazado 873160" d="M751.907,408.556c-3.1,0-3.1,2.121-6.206,2.121s-3.1-2.121-6.205-2.121-3.1,2.121-6.2,2.121-3.1-2.121-6.205-2.121-3.1,2.121-6.206,2.121-3.1-2.121-6.205-2.121-3.1,2.121-6.206,2.121-3.1-2.121-6.206-2.121-3.1,2.121-6.207,2.121-3.1-2.121-6.206-2.121-3.1,2.121-6.207,2.121-3.1-2.121-6.207-2.121-3.1,2.121-6.2,2.121-3.1-2.121-6.207-2.121-3.1,2.121-6.209,2.121-3.1-2.121-6.207-2.121-3.106,2.121-6.211,2.121-3.105-2.121-6.211-2.121" transform="translate(-640.186 -408.556)" fill="none" stroke="#ffd947" stroke-miterlimit="10" stroke-width="2"/>
        </g>
        <g id="Grupo_1099049" data-name="Grupo 1099049" transform="translate(0 18.269)">
          <path id="Trazado_873161" data-name="Trazado 873161" d="M751.907,425.786c-3.1,0-3.1,2.121-6.206,2.121s-3.1-2.121-6.205-2.121-3.1,2.121-6.2,2.121-3.1-2.121-6.205-2.121-3.1,2.121-6.206,2.121-3.1-2.121-6.205-2.121-3.1,2.121-6.206,2.121-3.1-2.121-6.206-2.121-3.1,2.121-6.207,2.121-3.1-2.121-6.206-2.121-3.1,2.121-6.207,2.121-3.1-2.121-6.207-2.121-3.1,2.121-6.2,2.121-3.1-2.121-6.207-2.121-3.1,2.121-6.209,2.121-3.1-2.121-6.207-2.121-3.106,2.121-6.211,2.121-3.105-2.121-6.211-2.121" transform="translate(-640.186 -425.786)" fill="none" stroke="#ffd947" stroke-miterlimit="10" stroke-width="2"/>
        </g>
        <g id="Grupo_1099050" data-name="Grupo 1099050" transform="translate(0 27.404)">
          <path id="Trazado_873162" data-name="Trazado 873162" d="M751.907,443.016c-3.1,0-3.1,2.121-6.206,2.121s-3.1-2.121-6.205-2.121-3.1,2.121-6.2,2.121-3.1-2.121-6.205-2.121-3.1,2.121-6.206,2.121-3.1-2.121-6.205-2.121-3.1,2.121-6.206,2.121-3.1-2.121-6.206-2.121-3.1,2.121-6.207,2.121-3.1-2.121-6.206-2.121-3.1,2.121-6.207,2.121-3.1-2.121-6.207-2.121-3.1,2.121-6.2,2.121-3.1-2.121-6.207-2.121-3.1,2.121-6.209,2.121-3.1-2.121-6.207-2.121-3.106,2.121-6.211,2.121-3.105-2.121-6.211-2.121" transform="translate(-640.186 -443.016)" fill="none" stroke="#ffd947" stroke-miterlimit="10" stroke-width="2"/>
        </g>
      </g>
      <g id="Grupo_1099984" data-name="Grupo 1099984" transform="translate(347.296 17.431)">
        <g id="Grupo_1099047-2" data-name="Grupo 1099047" transform="translate(0 0)">
          <path id="Trazado_873159-2" data-name="Trazado 873159" d="M751.907,391.326c-3.1,0-3.1,2.121-6.206,2.121s-3.1-2.121-6.205-2.121-3.1,2.121-6.2,2.121-3.1-2.121-6.205-2.121-3.1,2.121-6.206,2.121-3.1-2.121-6.205-2.121-3.1,2.121-6.206,2.121-3.1-2.121-6.206-2.121-3.1,2.121-6.207,2.121-3.1-2.121-6.206-2.121-3.1,2.121-6.207,2.121-3.1-2.121-6.207-2.121-3.1,2.121-6.2,2.121-3.1-2.121-6.207-2.121-3.1,2.121-6.209,2.121-3.1-2.121-6.207-2.121-3.106,2.121-6.211,2.121-3.105-2.121-6.211-2.121" transform="translate(-640.186 -391.326)" fill="none" stroke="#ffd947" stroke-miterlimit="10" stroke-width="2"/>
        </g>
        <g id="Grupo_1099048-2" data-name="Grupo 1099048" transform="translate(0 9.135)">
          <path id="Trazado_873160-2" data-name="Trazado 873160" d="M751.907,408.556c-3.1,0-3.1,2.121-6.206,2.121s-3.1-2.121-6.205-2.121-3.1,2.121-6.2,2.121-3.1-2.121-6.205-2.121-3.1,2.121-6.206,2.121-3.1-2.121-6.205-2.121-3.1,2.121-6.206,2.121-3.1-2.121-6.206-2.121-3.1,2.121-6.207,2.121-3.1-2.121-6.206-2.121-3.1,2.121-6.207,2.121-3.1-2.121-6.207-2.121-3.1,2.121-6.2,2.121-3.1-2.121-6.207-2.121-3.1,2.121-6.209,2.121-3.1-2.121-6.207-2.121-3.106,2.121-6.211,2.121-3.105-2.121-6.211-2.121" transform="translate(-640.186 -408.556)" fill="none" stroke="#ffd947" stroke-miterlimit="10" stroke-width="2"/>
        </g>
        <g id="Grupo_1099049-2" data-name="Grupo 1099049" transform="translate(0 18.269)">
          <path id="Trazado_873161-2" data-name="Trazado 873161" d="M751.907,425.786c-3.1,0-3.1,2.121-6.206,2.121s-3.1-2.121-6.205-2.121-3.1,2.121-6.2,2.121-3.1-2.121-6.205-2.121-3.1,2.121-6.206,2.121-3.1-2.121-6.205-2.121-3.1,2.121-6.206,2.121-3.1-2.121-6.206-2.121-3.1,2.121-6.207,2.121-3.1-2.121-6.206-2.121-3.1,2.121-6.207,2.121-3.1-2.121-6.207-2.121-3.1,2.121-6.2,2.121-3.1-2.121-6.207-2.121-3.1,2.121-6.209,2.121-3.1-2.121-6.207-2.121-3.106,2.121-6.211,2.121-3.105-2.121-6.211-2.121" transform="translate(-640.186 -425.786)" fill="none" stroke="#ffd947" stroke-miterlimit="10" stroke-width="2"/>
        </g>
        <g id="Grupo_1099050-2" data-name="Grupo 1099050" transform="translate(0 27.404)">
          <path id="Trazado_873162-2" data-name="Trazado 873162" d="M751.907,443.016c-3.1,0-3.1,2.121-6.206,2.121s-3.1-2.121-6.205-2.121-3.1,2.121-6.2,2.121-3.1-2.121-6.205-2.121-3.1,2.121-6.206,2.121-3.1-2.121-6.205-2.121-3.1,2.121-6.206,2.121-3.1-2.121-6.206-2.121-3.1,2.121-6.207,2.121-3.1-2.121-6.206-2.121-3.1,2.121-6.207,2.121-3.1-2.121-6.207-2.121-3.1,2.121-6.2,2.121-3.1-2.121-6.207-2.121-3.1,2.121-6.209,2.121-3.1-2.121-6.207-2.121-3.106,2.121-6.211,2.121-3.105-2.121-6.211-2.121" transform="translate(-640.186 -443.016)" fill="none" stroke="#ffd947" stroke-miterlimit="10" stroke-width="2"/>
        </g>
      </g>
    </g>
    <g id="investigacion-del-consumidor" transform="translate(252.146 1962.905)">
      <path id="Trazado_875934" data-name="Trazado 875934" d="M82.455,22.753a27.547,27.547,0,1,0,0,38.962,27.356,27.356,0,0,0,0-38.962ZM56.725,63.615v2.258a24.141,24.141,0,0,1-6.3-2.655V47.258h6.3Zm3.1,2.862V39.792h6.3V66.477a24.808,24.808,0,0,1-6.3,0Zm9.4-28.236V32.383h6.3V63.219a24.135,24.135,0,0,1-6.3,2.655V38.24ZM80.26,59.52Q79.477,60.3,78.636,61V30.832a1.552,1.552,0,0,0-1.552-1.552H67.677a1.552,1.552,0,0,0-1.552,1.552v5.857H58.277a1.552,1.552,0,0,0-1.552,1.552v5.914H48.87a1.552,1.552,0,0,0-1.552,1.552V61q-.839-.7-1.624-1.484a24.475,24.475,0,0,1,0-34.573h0A24.444,24.444,0,0,1,80.26,59.52Zm26.723,54.253v2.652a1.552,1.552,0,0,1-3.1,0v-2.652a1.552,1.552,0,0,1,3.1,0Zm-20.485,0v2.652a1.552,1.552,0,1,1-3.1,0v-2.652a1.552,1.552,0,0,1,3.1,0Zm21.98-10.318a9.225,9.225,0,0,0,2.4-6.177V90.454a3.815,3.815,0,0,0,0-1.309v-4.95a15.719,15.719,0,0,0-31.437,0V97.278a9.223,9.223,0,0,0,2.428,6.209c-.281.143-.553.29-.814.442-3.9,2.28-4.724,5.132-4.724,7.123v5.373a1.552,1.552,0,1,0,3.1,0v-5.373c0-2.233,1.832-3.894,4.372-5.046a9.47,9.47,0,0,0,9.22,7.358h4.556a9.466,9.466,0,0,0,9.19-7.253c2.425,1.149,4.17,2.779,4.17,4.941v5.373a1.552,1.552,0,1,0,3.1,0v-5.373c0-3.167-1.99-5.792-5.568-7.6Zm-7.175-2.172V99.267a13.1,13.1,0,0,0,3.723-5.3h1.739a4.153,4.153,0,0,0,1.012-.129v3.441a6.142,6.142,0,0,1-2.5,4.912A29.553,29.553,0,0,0,101.3,101.284ZM87.249,88.647a11.259,11.259,0,0,0,7.94-4.267,11.259,11.259,0,0,0,7.94,4.267c-.432,4.243-2.725,9.7-7.94,9.7S87.681,92.889,87.249,88.647Zm-3.109.085a18.82,18.82,0,0,0,.315,2.131h-.841a1.066,1.066,0,1,1,0-2.131Zm23.636,1.387a1.081,1.081,0,0,1-1.012.744h-.821a18.849,18.849,0,0,0,.3-2.131h.52a1.082,1.082,0,0,1,1.012.748ZM95.163,71.583a12.626,12.626,0,0,1,12.612,12.612v1.562a4.153,4.153,0,0,0-1.012-.129h-2a8.655,8.655,0,0,1-8.227-4.773,1.552,1.552,0,0,0-2.687,0,8.654,8.654,0,0,1-8.227,4.773h-2a4.155,4.155,0,0,0-1.069.144V84.2A12.629,12.629,0,0,1,95.163,71.583Zm-12.618,25.7V93.822a4.157,4.157,0,0,0,1.069.144h1.769a15.381,15.381,0,0,0,1.176,2.369,11.486,11.486,0,0,0,3.013,3.326V101.2a29.91,29.91,0,0,0-4.5,1.006,6.139,6.139,0,0,1-2.522-4.932Zm15.038,12.983H93.027a6.361,6.361,0,0,1-6.266-5.3,29.365,29.365,0,0,1,4.529-.848,1.552,1.552,0,0,0,1.384-1.543v-1.434a9.943,9.943,0,0,0,2.514.315,9.679,9.679,0,0,0,3.01-.469v1.651a1.552,1.552,0,0,0,1.364,1.54,28.15,28.15,0,0,1,4.268.854A6.356,6.356,0,0,1,97.583,110.261Zm-65.264,6.164a1.552,1.552,0,1,1-1.552-1.552A1.556,1.556,0,0,1,32.318,116.425ZM36.88,98.061v-1.05a13.1,13.1,0,0,0,3.722-5.3h1.739a4.164,4.164,0,0,0,2.218-7.693l.433-1.549c.844-3.035.064-4.371-.98-5.3,1.065-2.331,1.125-4.263.176-5.746-1.978-3.093-7.515-3-13.377-2.912h-.065c-4.07,0-9.482,1.275-12.481,4.84a8.171,8.171,0,0,0-1.829,6.856l.652,3.739a4.164,4.164,0,0,0,2.1,7.764H20.96a15.379,15.379,0,0,0,1.176,2.369,11.487,11.487,0,0,0,3.013,3.326v.581a24.074,24.074,0,0,0-8.515,2.725c-3.9,2.279-4.724,5.128-4.724,7.118v8.6a1.552,1.552,0,1,0,3.1,0v-8.6c0-3.164,3.683-5.177,7.85-6.224l2.082,6.916a1.552,1.552,0,0,0,2.515.714l3.558-3.153,3.558,3.153a1.552,1.552,0,0,0,2.516-.715l2.04-6.793c3.94,1.078,7.389,3.068,7.389,6.1v8.6a1.552,1.552,0,1,0,3.1,0v-8.6c0-4.879-4.735-8.478-12.744-9.768Zm-5.863,3.678L28.354,98.9a9.96,9.96,0,0,0,2.412.292,9.678,9.678,0,0,0,3.01-.469v.07ZM42.341,88.607H41.52a18.847,18.847,0,0,0,.3-2.131h.52a1.066,1.066,0,1,1,0,2.131Zm-23.15,0a1.065,1.065,0,1,1,0-2.131h.526a18.822,18.822,0,0,0,.315,2.131h-.841Zm2-7.3a4.688,4.688,0,0,0-1.135,1.58l-.561-3.216a5.024,5.024,0,0,1,1.147-4.326c1.908-2.269,5.88-3.735,10.118-3.735h.1c4.079-.065,9.667-.154,10.713,1.481.452.706-.009,2.008-.474,2.974a2.483,2.483,0,0,0,.748,3.332c.338.28.63.522.154,2.234l-.2.731a3.46,3.46,0,0,0-3.089-2.59c-.671-.049-1.4-.112-2.163-.178-5.492-.475-12.328-1.065-15.356,1.712Zm1.557,3.614a1.657,1.657,0,0,1,.541-1.327c1.091-1,3.515-1.3,6.2-1.3,2.293,0,4.778.215,6.789.388.778.067,1.519.131,2.2.181a.341.341,0,0,1,.324.346l-.019,1.69v.017c0,4.317-2.177,11.167-8.018,11.167s-8.019-6.85-8.019-11.167Zm4.469,20.38-1.292-4.291.136-.018,2.733,2.912Zm7.6,0-1.576-1.4,2.671-2.85.173.026Zm-12.742,6.379v4.744a1.552,1.552,0,1,1-3.1,0v-4.744a1.552,1.552,0,0,1,3.1,0Zm20.485,0v4.744a1.552,1.552,0,1,1-3.1,0v-4.744a1.552,1.552,0,0,1,3.1,0Zm74.8-58.784L106.65,44.539a1.552,1.552,0,0,0-2.507,1.223v1.515H96.822a34.7,34.7,0,0,0,.367-5.044,34.212,34.212,0,0,0-58.4-24.193,34.546,34.546,0,0,0-4.443,5.452H21.811V21.984A1.552,1.552,0,0,0,19.3,20.76L8.6,29.118a1.552,1.552,0,0,0,0,2.446L19.3,39.922A1.552,1.552,0,0,0,21.811,38.7V37.19h7.321a34.706,34.706,0,0,0-.367,5.042A34.228,34.228,0,0,0,56.241,75.777v2.9h-.428a1.552,1.552,0,0,0-1.552,1.552v2.5a1.551,1.551,0,0,0-1.376,1.541V89a1.551,1.551,0,0,0,1.376,1.541V109.28a8.7,8.7,0,1,0,17.393,0V90.543A1.551,1.551,0,0,0,73.031,89V84.27a1.551,1.551,0,0,0-1.376-1.541v-2.5A1.552,1.552,0,0,0,70.1,78.678h-.421v-2.9a33.9,33.9,0,0,0,17.486-9.358,34.528,34.528,0,0,0,4.444-5.453h12.531v1.515a1.552,1.552,0,0,0,2.507,1.223l10.708-8.364a1.552,1.552,0,0,0,0-2.446Zm-97.1-18.81a1.552,1.552,0,0,0-1.547,1.436l-6.638-5.181,6.638-5.181A1.552,1.552,0,0,0,20.26,26.6H32.531a33.783,33.783,0,0,0-2.794,7.491H20.26Zm35.73,51.735H69.928V87.45H55.989Zm12.562-4.041v.937H57.366v-.937Zm0,27.5a5.593,5.593,0,1,1-11.186,0V90.554H68.552ZM84.973,64.227a30.821,30.821,0,0,1-17.085,8.72,1.552,1.552,0,0,0-1.31,1.533v4.2H59.345v-4.2a1.552,1.552,0,0,0-1.307-1.532,31.115,31.115,0,1,1,26.935-8.721Zm22.27-4.921a1.552,1.552,0,0,0-1.548-1.44H93.425a33.768,33.768,0,0,0,2.792-7.485H105.7a1.552,1.552,0,0,0,1.548-1.442l6.638,5.181ZM32.318,111.467a1.552,1.552,0,1,1-1.552-1.552A1.556,1.556,0,0,1,32.318,111.467Zm66.9-75.828a1.549,1.549,0,1,1,1.552,1.552A1.556,1.556,0,0,1,99.216,35.639Zm4.242,0a1.552,1.552,0,1,1,1.552,1.552A1.556,1.556,0,0,1,103.458,35.639Zm4.248,0a1.549,1.549,0,1,1,1.546,1.552A1.55,1.55,0,0,1,107.706,35.639Zm4.242,0a1.552,1.552,0,1,1,1.552,1.552A1.556,1.556,0,0,1,111.948,35.639ZM25.186,50.381a1.552,1.552,0,1,1,1.552-1.552A1.555,1.555,0,0,1,25.186,50.381Zm-4.242,0A1.552,1.552,0,1,1,22.5,48.829,1.555,1.555,0,0,1,20.945,50.381Zm-4.248,0a1.552,1.552,0,1,1,1.552-1.552A1.55,1.55,0,0,1,16.7,50.381Zm-4.242,0a1.552,1.552,0,1,1,1.552-1.552,1.555,1.555,0,0,1-1.552,1.552Z" fill="#00223d"/>
      <path id="Trazado_875935" data-name="Trazado 875935" d="M159.208,363.989h.821a1.065,1.065,0,1,0,0-2.131h-.52A18.855,18.855,0,0,1,159.208,363.989Z" transform="translate(-117.688 -275.382)" fill="#fcc9c0"/>
      <path id="Trazado_875936" data-name="Trazado 875936" d="M54.732,361.856a1.065,1.065,0,1,0,0,2.131h.841a18.821,18.821,0,0,1-.315-2.131h-.526Z" transform="translate(-35.54 -275.381)" fill="#fcc9c0"/>
      <path id="Trazado_875937" data-name="Trazado 875937" d="M90.562,345.631l.019-1.69a.342.342,0,0,0-.324-.346c-.681-.05-1.423-.114-2.2-.181-2.011-.174-4.5-.388-6.789-.388-2.687,0-5.111.295-6.2,1.3a1.657,1.657,0,0,0-.541,1.327c0,4.318,2.177,11.167,8.018,11.167s8.018-6.85,8.018-11.167Z" transform="translate(-51.778 -260.725)" fill="#ffdbd3"/>
      <path id="Trazado_875938" data-name="Trazado 875938" d="M121.86,430.474l1.576,1.4,1.268-4.221-.173-.026Z" transform="translate(-88.619 -326.569)" fill="#f96353"/>
      <path id="Trazado_875939" data-name="Trazado 875939" d="M76.576,302.7c.763.066,1.491.129,2.163.178a3.459,3.459,0,0,1,3.089,2.59l.2-.731c.476-1.712.184-1.954-.154-2.234a2.483,2.483,0,0,1-.748-3.332c.465-.966.925-2.268.474-2.974-1.045-1.635-6.633-1.546-10.713-1.481h-.1c-4.239,0-8.21,1.466-10.118,3.735a5.024,5.024,0,0,0-1.147,4.326l.561,3.216a4.68,4.68,0,0,1,1.135-1.58c3.028-2.778,9.864-2.187,15.356-1.712Z" transform="translate(-40.03 -223.1)" fill="#656d78"/>
      <path id="Trazado_875940" data-name="Trazado 875940" d="M105.238,417.114a9.679,9.679,0,0,1-3.01.469,9.958,9.958,0,0,1-2.412-.292l2.663,2.837,2.76-2.945v-.07Z" transform="translate(-71.461 -318.389)" fill="#fcc9c0"/>
      <path id="Trazado_875941" data-name="Trazado 875941" d="M88.859,427.367l1.292,4.291,1.577-1.4-2.733-2.912Z" transform="translate(-62.934 -326.355)" fill="#f96353"/>
      <path id="Trazado_875942" data-name="Trazado 875942" d="M351.3,400.837a11.482,11.482,0,0,1-3.013-3.326,15.4,15.4,0,0,1-1.176-2.369h-1.769a4.154,4.154,0,0,1-1.069-.144v3.456a6.139,6.139,0,0,0,2.522,4.932,29.881,29.881,0,0,1,4.5-1.006Z" transform="translate(-261.724 -301.176)" fill="#b27946"/>
      <path id="Trazado_875943" data-name="Trazado 875943" d="M405.617,201.457a1.552,1.552,0,0,1,1.548,1.44l6.638-5.185-6.638-5.181a1.552,1.552,0,0,1-1.548,1.442h-9.478a33.773,33.773,0,0,1-2.792,7.485Z" transform="translate(-299.921 -143.592)" fill="#ffd947"/>
      <path id="Trazado_875944" data-name="Trazado 875944" d="M199.363,200.906a24.135,24.135,0,0,0,6.3,2.655V184.945h-6.3Z" transform="translate(-148.941 -137.688)" fill="#ff826e"/>
      <path id="Trazado_875945" data-name="Trazado 875945" d="M230.686,340.682h11.186v.937H230.686Z" transform="translate(-173.32 -258.901)" fill="#abc5c9"/>
      <path id="Trazado_875946" data-name="Trazado 875946" d="M241.8,157.184v20.771a24.807,24.807,0,0,0,6.3,0V151.27h-6.3Z" transform="translate(-181.968 -111.478)" fill="#ff826e"/>
      <path id="Trazado_875947" data-name="Trazado 875947" d="M356.887,294.675a12.63,12.63,0,0,0-12.618,12.612v1.577a4.156,4.156,0,0,1,1.069-.144h2a8.655,8.655,0,0,0,8.227-4.773,1.552,1.552,0,0,1,2.687,0,8.654,8.654,0,0,0,8.227,4.773h2a4.152,4.152,0,0,1,1.012.129v-1.562A12.626,12.626,0,0,0,356.887,294.675Z" transform="translate(-261.724 -223.092)" fill="#b27946"/>
      <path id="Trazado_875948" data-name="Trazado 875948" d="M284.2,123.707V151.34a24.141,24.141,0,0,0,6.3-2.655V117.85h-6.3Z" transform="translate(-214.974 -85.466)" fill="#ff826e"/>
      <path id="Trazado_875949" data-name="Trazado 875949" d="M34.563,94.193H44.04A33.79,33.79,0,0,1,46.835,86.7H34.563a1.552,1.552,0,0,1-1.547-1.436l-6.638,5.181,6.638,5.181A1.552,1.552,0,0,1,34.563,94.193Z" transform="translate(-14.303 -60.106)" fill="#ffd947"/>
      <path id="Trazado_875950" data-name="Trazado 875950" d="M152.939,93.735q.783.783,1.624,1.484V79.92a1.552,1.552,0,0,1,1.552-1.552h7.855V72.455a1.552,1.552,0,0,1,1.552-1.552h7.849V65.046a1.552,1.552,0,0,1,1.552-1.552h9.407a1.552,1.552,0,0,1,1.552,1.552V95.219q.839-.7,1.624-1.484a24.445,24.445,0,1,0-34.566-34.573h0A24.475,24.475,0,0,0,152.939,93.735Z" transform="translate(-107.244 -34.214)" fill="#69d6f4"/>
      <path id="Trazado_875951" data-name="Trazado 875951" d="M124.782,75.117a30.882,30.882,0,0,0,17.057,8.721,1.552,1.552,0,0,1,1.307,1.532v4.2h7.234v-4.2a1.552,1.552,0,0,1,1.31-1.533,31.105,31.105,0,0,0,17.085-52.713,31.107,31.107,0,1,0-43.992,43.992ZM127.3,33.643a27.547,27.547,0,1,1,0,38.962,27.356,27.356,0,0,1,0-38.962Z" transform="translate(-83.801 -10.89)" fill="#cfd2d3"/>
      <path id="Trazado_875952" data-name="Trazado 875952" d="M230.686,398.98a5.593,5.593,0,1,0,11.186,0V380.254H230.686Z" transform="translate(-173.32 -289.7)" fill="#abc5c9"/>
      <path id="Trazado_875953" data-name="Trazado 875953" d="M224.478,358.909h13.938v1.628H224.478Z" transform="translate(-168.489 -273.087)" fill="#bacace"/>
      <path id="Trazado_875954" data-name="Trazado 875954" d="M346.178,374.164a18.82,18.82,0,0,1-.315-2.131h-.526a1.066,1.066,0,1,0,0,2.131Z" transform="translate(-261.724 -283.302)" fill="#fcc9c0"/>
      <path id="Trazado_875955" data-name="Trazado 875955" d="M374.726,428.942v-1.651a9.679,9.679,0,0,1-3.01.469,9.941,9.941,0,0,1-2.514-.315v1.434a1.552,1.552,0,0,1-1.384,1.543,29.367,29.367,0,0,0-4.529.848,6.361,6.361,0,0,0,6.266,5.3h4.556a6.356,6.356,0,0,0,6.247-5.235,28.155,28.155,0,0,0-4.268-.854A1.552,1.552,0,0,1,374.726,428.942Z" transform="translate(-276.528 -326.31)" fill="#fcc9c0"/>
      <path id="Trazado_875956" data-name="Trazado 875956" d="M373.427,366.368c5.215,0,7.507-5.457,7.94-9.7a11.259,11.259,0,0,1-7.94-4.267,11.259,11.259,0,0,1-7.94,4.267C365.919,360.911,368.212,366.368,373.427,366.368Z" transform="translate(-278.238 -268.022)" fill="#ffdbd3"/>
      <path id="Trazado_875957" data-name="Trazado 875957" d="M432.6,395.192a13.1,13.1,0,0,1-3.723,5.3v2.016a29.565,29.565,0,0,1,3.975.906,6.142,6.142,0,0,0,2.5-4.912v-3.441a4.153,4.153,0,0,1-1.012.129Z" transform="translate(-327.58 -301.226)" fill="#b27946"/>
      <path id="Trazado_875958" data-name="Trazado 875958" d="M450.635,372.033h-.52a18.853,18.853,0,0,1-.3,2.131h.821a1.081,1.081,0,0,0,1.012-.744v-.639A1.082,1.082,0,0,0,450.635,372.033Z" transform="translate(-343.872 -283.302)" fill="#fcc9c0"/>
      <g id="Grupo_1100018" data-name="Grupo 1100018" transform="translate(13.46 101.605)">
        <path id="Trazado_875959" data-name="Trazado 875959" d="M65.689,444.924v-8.6c0-3.034-3.449-5.024-7.389-6.1l-2.04,6.793a1.552,1.552,0,0,1-2.516.715l-3.558-3.153-3.558,3.153a1.552,1.552,0,0,1-2.515-.714L42.031,430.1c-4.167,1.047-7.85,3.06-7.85,6.224v8.6a1.552,1.552,0,0,1-1.552,1.552h7.063a1.552,1.552,0,0,1-1.552-1.552V440.18a1.552,1.552,0,1,1,3.1,0v4.744a1.552,1.552,0,0,1-1.552,1.552H49.928a1.552,1.552,0,1,1,.013,0H60.178a1.552,1.552,0,0,1-1.552-1.552V440.18a1.552,1.552,0,1,1,3.1,0v4.744a1.552,1.552,0,0,1-1.552,1.552h7.063a1.551,1.551,0,0,1-1.551-1.552Zm-15.754-3.406a1.552,1.552,0,1,1,1.552-1.552A1.556,1.556,0,0,1,49.935,441.518Z" transform="translate(-32.629 -430.104)" fill="#7d6eb2"/>
        <path id="Trazado_875960" data-name="Trazado 875960" d="M356.3,460.377V455c0-2.162-1.745-3.792-4.17-4.941a9.465,9.465,0,0,1-9.19,7.253h-4.556a9.47,9.47,0,0,1-9.22-7.358c-2.54,1.153-4.372,2.813-4.372,5.046v5.373a1.552,1.552,0,0,1-1.552,1.552H330.3a1.552,1.552,0,0,1-1.552-1.552v-2.652a1.552,1.552,0,1,1,3.1,0v2.652a1.552,1.552,0,0,1-1.552,1.552h20.485a1.552,1.552,0,0,1-1.552-1.552v-2.652a1.552,1.552,0,1,1,3.1,0v2.652a1.552,1.552,0,0,1-1.552,1.552h7.063A1.551,1.551,0,0,1,356.3,460.377Z" transform="translate(-258.815 -445.557)" fill="#7d6eb2"/>
      </g>
    </g>
    <g id="analisis" transform="translate(667.743 1970.946)">
      <g id="Flat_44_" transform="translate(1.61 1.61)">
        <path id="Trazado_875914" data-name="Trazado 875914" d="M142.347,163.21V107.383A12.883,12.883,0,0,0,129.464,94.5H108.346l-10.1,8.589L92.541,163.21l41.66,2.231Z" transform="translate(-74.281 -75.819)" fill="#d3d3d3"/>
        <path id="Trazado_875915" data-name="Trazado 875915" d="M70.259,166.411,86.449,134.5h25.517a4.3,4.3,0,0,1,4.294,4.294v62.269C116.261,203.431,70.259,203.5,70.259,166.411Z" transform="translate(-56.783 -107.231)" fill="#7d6eb2"/>
        <path id="Trazado_875916" data-name="Trazado 875916" d="M7.5,163.21V107.383A12.882,12.882,0,0,1,20.383,94.5H41.565a55.571,55.571,0,0,0-8.5,29.631c0,12.791-3.255,27.613-6.466,39.124C23.469,174.465,7.5,170.326,7.5,163.21Z" transform="translate(-7.5 -75.819)" fill="#abb4c0"/>
        <path id="Trazado_875917" data-name="Trazado 875917" d="M94.914,205.278a4.3,4.3,0,0,1-.82.079h-42.3a4.3,4.3,0,0,1-4.294-4.294V138.794a4.3,4.3,0,0,1,4.294-4.294H68.577a55.888,55.888,0,0,0,26.338,70.778Z" transform="translate(-38.911 -107.231)" fill="#62529b"/>
        <path id="Trazado_875918" data-name="Trazado 875918" d="M200.88,414.5h26.544v6.442a12.829,12.829,0,0,1-2.75,7.956C210.774,427.163,203.955,421.792,200.88,414.5Z" transform="translate(-159.357 -327.109)" fill="#d3d3d3"/>
        <path id="Trazado_875919" data-name="Trazado 875919" d="M72.818,428.9a12.866,12.866,0,0,1-10.135,4.926h-42.3A12.882,12.882,0,0,1,7.5,420.942V414.5H49.023A55.774,55.774,0,0,0,72.818,428.9Z" transform="translate(-7.5 -327.109)" fill="#abb4c0"/>
        <circle id="Elipse_11818" data-name="Elipse 11818" cx="3.758" cy="3.758" r="3.758" transform="translate(30.275 93.296)" fill="#a7b6c5"/>
        <g id="Grupo_1100016" data-name="Grupo 1100016" transform="translate(42.3)">
          <path id="Trazado_875920" data-name="Trazado 875920" d="M253.1,34.77V64.051l-12,1.806-12-1.806c0-10.519.265-19.744,8.594-24.906A29.14,29.14,0,0,1,253.1,34.77Z" transform="translate(-223.818 -28.915)" fill="#fad989"/>
          <path id="Trazado_875921" data-name="Trazado 875921" d="M204.5,80.047A29.263,29.263,0,0,1,218.375,55.14,32.3,32.3,0,0,0,213.9,80.047C210.65,82.393,207.51,82.517,204.5,80.047Z" transform="translate(-204.5 -44.911)" fill="#f6ca56"/>
          <path id="Trazado_875922" data-name="Trazado 875922" d="M248.29,171.136c0,16.17,19.877,29.28,19.877,29.28l15.708-4.566a29.258,29.258,0,0,0,13.571-24.714Z" transform="translate(-238.887 -136)" fill="#fd7a6e"/>
          <path id="Trazado_875923" data-name="Trazado 875923" d="M397.419,36.779H368.14V7.5a29.436,29.436,0,0,1,6.925.822v0A29.291,29.291,0,0,1,397.419,36.779Z" transform="translate(-333.003 -7.5)" fill="#ace094"/>
          <path id="Trazado_875924" data-name="Trazado 875924" d="M249.488,195.852A29.284,29.284,0,0,1,204.5,171.14h9.4a32.226,32.226,0,0,0,35.586,24.712Z" transform="translate(-204.5 -136.003)" fill="#fb695b"/>
        </g>
        <g id="Grupo_1100017" data-name="Grupo 1100017" transform="translate(16.452 43.348)">
          <circle id="Elipse_11819" data-name="Elipse 11819" cx="3.758" cy="3.758" r="3.758" transform="translate(0 15.194)" fill="#fad989"/>
          <circle id="Elipse_11820" data-name="Elipse 11820" cx="3.758" cy="3.758" r="3.758" transform="translate(12.27 5.991)" fill="#fd7a6e"/>
          <circle id="Elipse_11821" data-name="Elipse 11821" cx="3.758" cy="3.758" r="3.758" transform="translate(56.836)" fill="#fad989"/>
          <circle id="Elipse_11822" data-name="Elipse 11822" cx="3.758" cy="3.758" r="3.758" transform="translate(24.539 15.194)" fill="#68a2df"/>
        </g>
      </g>
      <g id="Lineal_Exp_38_" transform="translate(0)">
        <path id="Trazado_875925" data-name="Trazado 875925" d="M146.368,445.236A5.368,5.368,0,1,0,141,439.868,5.374,5.374,0,0,0,146.368,445.236Zm0-7.515a2.147,2.147,0,1,1-2.147,2.147A2.15,2.15,0,0,1,146.368,437.721Z" transform="translate(-110.724 -341.204)" fill="#00223d"/>
        <path id="Trazado_875926" data-name="Trazado 875926" d="M81.61,170.221h9.877a1.61,1.61,0,0,0,0-3.221H81.61a1.61,1.61,0,0,0,0,3.221Z" transform="translate(-62.822 -131.142)" fill="#00223d"/>
        <path id="Trazado_875927" data-name="Trazado 875927" d="M81.61,200.221h20.4a1.61,1.61,0,1,0,0-3.221H81.61a1.61,1.61,0,1,0,0,3.221Z" transform="translate(-62.822 -154.7)" fill="#00223d"/>
        <path id="Trazado_875928" data-name="Trazado 875928" d="M230.435,356.637h0a1.61,1.61,0,0,0-1.61,1.609l0,2.55a1.61,1.61,0,0,0,1.609,1.612h0a1.61,1.61,0,0,0,1.61-1.609l0-2.55A1.61,1.61,0,0,0,230.435,356.637Z" transform="translate(-179.689 -280.06)" fill="#00223d"/>
        <path id="Trazado_875929" data-name="Trazado 875929" d="M88.132,347.8a8.222,8.222,0,0,1-3.542.409,1.61,1.61,0,0,0-2.359,2.191,4.014,4.014,0,0,0,3.118,1.106c.289,0,.578-.016.865-.042l0,2.312a1.61,1.61,0,0,0,1.609,1.612h0a1.61,1.61,0,0,0,1.61-1.609l0-2.55a2.4,2.4,0,0,1,.7-2.352A1.61,1.61,0,0,0,88.132,347.8Z" transform="translate(-64.263 -273.07)" fill="#00223d"/>
        <path id="Trazado_875930" data-name="Trazado 875930" d="M211.681,335.176a1.61,1.61,0,0,0,1.834,2.648c.021-.015,2.162-1.431,2.942-.371a1.61,1.61,0,1,0,2.593-1.91C216.934,332.669,213.3,334.046,211.681,335.176Z" transform="translate(-165.688 -262.154)" fill="#00223d"/>
        <path id="Trazado_875931" data-name="Trazado 875931" d="M150.689,375.728h-.05a19.072,19.072,0,0,1-6.411-.829,1.61,1.61,0,0,0-1.219,2.981,21.418,21.418,0,0,0,7.626,1.068h.054a1.61,1.61,0,1,0,0-3.221Z" transform="translate(-111.516 -294.306)" fill="#00223d"/>
        <path id="Trazado_875932" data-name="Trazado 875932" d="M102.47,56.552H74.8V28.882a1.61,1.61,0,0,0-1.61-1.61A30.869,30.869,0,0,0,48.149,40.1H14.494A14.51,14.51,0,0,0,0,54.59v62.269a14.51,14.51,0,0,0,14.494,14.494h42.3a14.51,14.51,0,0,0,14.494-14.494V103.224a1.61,1.61,0,0,0-3.221,0v5.583H62.7V87.236a30.679,30.679,0,0,0,5.368,1.4v7.077a1.61,1.61,0,1,0,3.221,0V88.994c.631.038,1.266.059,1.9.059a30.925,30.925,0,0,0,30.889-30.89,1.61,1.61,0,0,0-1.61-1.61ZM71.58,30.539V56.552H45.569A27.708,27.708,0,0,1,71.58,30.539Zm-3.513,81.489v4.831a11.286,11.286,0,0,1-11.273,11.273h-42.3A11.286,11.286,0,0,1,3.221,116.859v-4.831Zm-8.589-3.221H11.81V90.556a1.61,1.61,0,0,0-3.221,0v18.251H3.221V54.59A11.286,11.286,0,0,1,14.494,43.318H46.108a30.725,30.725,0,0,0-2.319,5.368h-29.3a5.911,5.911,0,0,0-5.9,5.9v28.45a1.61,1.61,0,0,0,3.221,0V54.59a2.687,2.687,0,0,1,2.684-2.684H42.937A30.951,30.951,0,0,0,50.39,79.018L48.84,80.568a5.35,5.35,0,0,0-5.608.4l-4.08-3.059a5.368,5.368,0,1,0-10.124,0l-4.08,3.06a5.364,5.364,0,1,0,1.935,2.575l4.08-3.06a5.35,5.35,0,0,0,6.254,0l4.081,3.06a5.368,5.368,0,1,0,9.82-.7l1.567-1.567a30.79,30.79,0,0,0,6.793,4.586v22.943ZM48.506,85.326a2.147,2.147,0,1,1-2.147-2.147A2.15,2.15,0,0,1,48.506,85.326Zm-12.27-9.2a2.147,2.147,0,1,1-2.147-2.147A2.15,2.15,0,0,1,36.237,76.124Zm-12.27,9.2a2.147,2.147,0,1,1-2.147-2.147A2.15,2.15,0,0,1,23.967,85.326Zm49.224.506A27.479,27.479,0,0,1,54.966,79l7.244-7.244H73.538a5.367,5.367,0,1,0-.007-3.221H61.543A1.612,1.612,0,0,0,60.4,69l-7.735,7.735a27.443,27.443,0,0,1-7.1-16.966h55.245A27.7,27.7,0,0,1,73.191,85.832Zm3.317-15.7a2.147,2.147,0,1,1,2.147,2.147A2.15,2.15,0,0,1,76.509,70.132Z" transform="translate(0 -21.416)" fill="#00223d"/>
        <path id="Trazado_875933" data-name="Trazado 875933" d="M362.247,0a1.61,1.61,0,0,0-1.61,1.61V30.89a1.61,1.61,0,0,0,1.61,1.61h29.28a1.61,1.61,0,0,0,1.61-1.61A30.925,30.925,0,0,0,362.247,0Zm1.61,29.28V3.267A27.707,27.707,0,0,1,389.87,29.28Z" transform="translate(-283.201)" fill="#00223d"/>
      </g>
    </g>
    <g id="_9._Workd" data-name="9. Workd" transform="translate(1062.243 1970.931)">
      <circle id="Elipse_11816" data-name="Elipse 11816" cx="46.391" cy="46.391" r="46.391" transform="translate(8.606 8.58)" fill="#f5f7ff"/>
      <path id="Trazado_875894" data-name="Trazado 875894" d="M51.391,74.313A46.391,46.391,0,0,1,5,30.5a46.391,46.391,0,1,0,92.781,0A46.391,46.391,0,0,1,51.391,74.313Z" transform="translate(3.606 21.893)" fill="#ccd3eb"/>
      <path id="Trazado_875895" data-name="Trazado 875895" d="M55.23,30.236l.6,2.99A5.155,5.155,0,0,1,54.4,37.882l-6.873,6.873a5.154,5.154,0,0,0-1.478,3.608v1.306A5.155,5.155,0,0,1,40.9,54.823H39.182a5.155,5.155,0,0,1-5.155-5.155V45.545a5.155,5.155,0,0,0-4.433-5.155L22,39.36V8.295a46.271,46.271,0,0,1,46.236,7.01L56.862,25.425a5.155,5.155,0,0,0-1.632,4.811Z" transform="translate(15.815 3.584)" fill="#aee6e6"/>
      <path id="Trazado_875961" data-name="Trazado 875961" d="M22.336,0A22.336,22.336,0,1,1,0,22.336,22.336,22.336,0,0,1,22.336,0Z" transform="translate(1.733 1.707)" fill="#ffd947"/>
      <rect id="Rectángulo_401360" data-name="Rectángulo 401360" width="51.545" height="17.182" rx="2" transform="translate(56.715 91.052)" fill="#96a1c3"/>
      <path id="Trazado_875896" data-name="Trazado 875896" d="M81.109,61.436H36.436A3.436,3.436,0,0,1,33,58v5.155a3.436,3.436,0,0,0,3.436,3.436H81.109a3.436,3.436,0,0,0,3.436-3.436V58A3.436,3.436,0,0,1,81.109,61.436Z" transform="translate(23.715 41.643)" fill="#647499"/>
      <rect id="Rectángulo_401361" data-name="Rectángulo 401361" width="51.545" height="17.182" rx="2" transform="translate(56.715 66.998)" fill="#96a1c3"/>
      <path id="Trazado_875897" data-name="Trazado 875897" d="M81.109,47.436H36.436A3.436,3.436,0,0,1,33,44v5.155a3.436,3.436,0,0,0,3.436,3.436H81.109a3.436,3.436,0,0,0,3.436-3.436V44A3.436,3.436,0,0,1,81.109,47.436Z" transform="translate(23.715 31.589)" fill="#647499"/>
      <path id="Trazado_875898" data-name="Trazado 875898" d="M36,49H77.236v6.873H36Z" transform="translate(25.87 35.179)" fill="#62529b"/>
      <path id="Trazado_875899" data-name="Trazado 875899" d="M41.981,58.347,34.9,71.474A46.391,46.391,0,0,1,6.14,41.148l4.519-2.594a5.155,5.155,0,0,1,6.581,1.254l2.577,3.213a5.154,5.154,0,0,0,4.021,1.942h8.849a5.155,5.155,0,0,1,3.969,1.856l4.811,5.773a5.155,5.155,0,0,1,.515,5.756Z" transform="translate(4.425 27.19)" fill="#aee6e6"/>
      <path id="Trazado_875900" data-name="Trazado 875900" d="M7.639,39.27l-1.529.876A46.391,46.391,0,0,0,34.993,70.472l2.354-4.381A46.494,46.494,0,0,1,7.639,39.27Z" transform="translate(4.403 28.192)" fill="#96a1c3"/>
      <g id="Grupo_1100015" data-name="Grupo 1100015" transform="translate(-0.021 0.016)">
        <path id="Trazado_875901" data-name="Trazado 875901" d="M57.378,27.1c.241,1.082.447,2.2.619,3.316a1.737,1.737,0,0,0,3.436-.515q-.275-1.8-.67-3.557a1.734,1.734,0,0,0-3.385.756Z" transform="translate(41.213 17.924)" fill="#00223d"/>
        <path id="Trazado_875902" data-name="Trazado 875902" d="M36.887,44.369c.5.326.12.189,8.282,1.357a3.436,3.436,0,0,1,2.955,3.436v4.089A6.873,6.873,0,0,0,55,60.125h1.718a6.873,6.873,0,0,0,6.873-6.873c0-1.6-.1-2.612,1.014-3.728l6.873-6.873a6.873,6.873,0,0,0,1.89-6.22l-.6-2.99a3.436,3.436,0,0,1,1.134-3.2l10.309-9.175A44.827,44.827,0,0,1,96.594,38.424a1.72,1.72,0,1,0,3.2-1.271A47.989,47.989,0,0,0,42.437,8.58,24.054,24.054,0,1,0,36.887,44.4ZM5.359,32.634H11.6a27.491,27.491,0,0,0,6.873,11.237A20.618,20.618,0,0,1,5.359,32.634ZM24.07,3.855a26.271,26.271,0,0,1,8.831,11.6H15.238a26.271,26.271,0,0,1,8.831-11.6Zm9.776,15.034a25.412,25.412,0,0,1,0,10.309H14.293a25.412,25.412,0,0,1,0-10.309Zm-4.21,24.982a27.491,27.491,0,0,0,6.873-11.237h6.237a20.618,20.618,0,0,1-13.11,11.237Zm-14.4-11.237H32.9a26.271,26.271,0,0,1-8.831,11.6,26.271,26.271,0,0,1-8.831-11.6ZM44.018,29.2H37.368a30.1,30.1,0,0,0,0-10.309h6.649A19.965,19.965,0,0,1,44.018,29.2Zm-33.247,0H4.122a19.965,19.965,0,0,1,0-10.309h6.649a30.1,30.1,0,0,0,0,10.309ZM81.388,18.889l-9.845,8.763a6.873,6.873,0,0,0-2.182,6.495l.6,2.972A3.436,3.436,0,0,1,69,40.229L62.127,47.1a6.976,6.976,0,0,0-1.976,4.845v1.306a3.436,3.436,0,0,1-3.436,3.436H55a3.436,3.436,0,0,1-3.436-3.436V49.129a6.873,6.873,0,0,0-5.911-6.873L40.5,41.517a23.9,23.9,0,0,0,4.089-29.965,44.552,44.552,0,0,1,36.8,7.337ZM42.781,15.452H36.544A27.491,27.491,0,0,0,29.671,4.216a20.618,20.618,0,0,1,13.11,11.237ZM18.5,4.216A27.491,27.491,0,0,0,11.6,15.452H5.359A20.618,20.618,0,0,1,18.5,4.216Z" transform="translate(0.021 -0.016)" fill="#00223d"/>
        <path id="Trazado_875903" data-name="Trazado 875903" d="M59.718,56A1.718,1.718,0,0,0,58,57.718v3.436a1.718,1.718,0,0,0,3.436,0V57.718A1.718,1.718,0,0,0,59.718,56Z" transform="translate(41.691 40.191)" fill="#00223d"/>
        <path id="Trazado_875904" data-name="Trazado 875904" d="M55.718,56A1.718,1.718,0,0,0,54,57.718v3.436a1.718,1.718,0,0,0,3.436,0V57.718A1.718,1.718,0,0,0,55.718,56Z" transform="translate(38.818 40.191)" fill="#00223d"/>
        <path id="Trazado_875905" data-name="Trazado 875905" d="M107.094,60.649V50.34a5.155,5.155,0,0,0-5.155-5.155H99.087a48.109,48.109,0,0,0,1.134-10.309,1.718,1.718,0,0,0-3.436,0,45.1,45.1,0,0,1-1.22,10.309h-38.3a5.155,5.155,0,0,0-5.155,5.155V60.649A5.155,5.155,0,0,0,57.267,65.8V69.24a5.155,5.155,0,0,0-5.155,5.155v5.155A44.019,44.019,0,0,1,39,77.574l6.1-11.323a6.873,6.873,0,0,0-.773-7.663l-4.811-5.773a6.873,6.873,0,0,0-5.292-2.474H25.377a3.436,3.436,0,0,1-2.68-1.289L20.12,45.839a6.873,6.873,0,0,0-8.763-1.718L8.763,45.6A44.484,44.484,0,0,1,7.714,29.86,1.718,1.718,0,0,0,4.3,29.516,48.109,48.109,0,0,0,36.03,80.2h.086a47.9,47.9,0,0,0,16,2.783V84.7a5.155,5.155,0,0,0,5.155,5.155h44.673a5.155,5.155,0,0,0,5.155-5.155V74.395a5.155,5.155,0,0,0-5.155-5.155V65.8a5.155,5.155,0,0,0,5.155-5.155ZM9.759,49.035l3.3-1.89a3.436,3.436,0,0,1,4.381.842L20.017,51.2a6.873,6.873,0,0,0,5.361,2.577h8.849a3.436,3.436,0,0,1,2.646,1.237l4.811,5.773a3.436,3.436,0,0,1,.4,3.832l-6.357,11.8A44.862,44.862,0,0,1,9.759,49.035ZM55.548,60.649V50.34a1.718,1.718,0,0,1,1.718-1.718h44.673a1.718,1.718,0,0,1,1.718,1.718V60.649a1.718,1.718,0,0,1-1.718,1.718H57.267A1.718,1.718,0,0,1,55.548,60.649Zm48.109,13.745V84.7a1.718,1.718,0,0,1-1.718,1.718H57.267A1.718,1.718,0,0,1,55.548,84.7V74.395a1.718,1.718,0,0,1,1.718-1.718h44.673A1.718,1.718,0,0,1,103.657,74.395ZM98.5,69.24H60.7V65.8H98.5Z" transform="translate(2.906 20.078)" fill="#00223d"/>
        <path id="Trazado_875906" data-name="Trazado 875906" d="M59.718,48.873a1.718,1.718,0,0,0,1.718-1.718V43.718a1.718,1.718,0,1,0-3.436,0v3.436A1.718,1.718,0,0,0,59.718,48.873Z" transform="translate(41.691 30.137)" fill="#00223d"/>
        <path id="Trazado_875907" data-name="Trazado 875907" d="M55.718,48.873a1.718,1.718,0,0,0,1.718-1.718V43.718a1.718,1.718,0,1,0-3.436,0v3.436A1.718,1.718,0,0,0,55.718,48.873Z" transform="translate(38.818 30.137)" fill="#00223d"/>
        <path id="Trazado_875908" data-name="Trazado 875908" d="M53.182,57H37.718a1.718,1.718,0,0,0,0,3.436H53.182a1.718,1.718,0,1,0,0-3.436Z" transform="translate(25.891 40.909)" fill="#00223d"/>
        <path id="Trazado_875909" data-name="Trazado 875909" d="M37.718,46.436H53.182a1.718,1.718,0,0,0,0-3.436H37.718a1.718,1.718,0,0,0,0,3.436Z" transform="translate(25.891 30.855)" fill="#00223d"/>
      </g>
      <path id="Trazado_875910" data-name="Trazado 875910" d="M54.718,34a1.718,1.718,0,1,0,1.718,1.718A1.718,1.718,0,0,0,54.718,34Z" transform="translate(38.079 24.407)" fill="#7d6eb2"/>
      <path id="Trazado_875911" data-name="Trazado 875911" d="M50.718,34a1.718,1.718,0,1,0,1.718,1.718A1.718,1.718,0,0,0,50.718,34Z" transform="translate(35.206 24.407)" fill="#7d6eb2"/>
      <path id="Trazado_875912" data-name="Trazado 875912" d="M31.718,11.436h3.436a1.718,1.718,0,1,0,0-3.436H31.718a1.718,1.718,0,1,0,0,3.436Z" transform="translate(21.561 5.734)" fill="#96a1c3"/>
      <path id="Trazado_875913" data-name="Trazado 875913" d="M35.155,12H31.718a1.718,1.718,0,1,0,0,3.436h3.436a1.718,1.718,0,1,0,0-3.436Z" transform="translate(21.561 8.607)" fill="#96a1c3"/>
    </g>
  </g>
</svg>
