<svg xmlns="http://www.w3.org/2000/svg" width="78.501" height="74.27" viewBox="0 0 78.501 74.27">
  <g id="Grupo_1101741" data-name="Grupo 1101741" transform="translate(-253 -2854.886)">
    <path id="_12068" data-name="12068" d="M72.033,71.913c-8.038-1.11-16.53-.839-23.844,2.675C38.045,79.46,31.382,90.507,31.127,101.757s5.606,22.305,14.66,28.988,21,9.051,32.068,7.045c11.165-2.023,21.645-8.583,27.469-18.322,3.735-6.245,5.48-13.956,3.417-20.934a28.6,28.6,0,0,0-6.787-11.156A50.145,50.145,0,0,0,72.033,71.913Z" transform="translate(221.881 2790.675)" fill="#26aab7"/>
    <g id="idioma-extranjero" transform="translate(248.518 2854.886)">
      <g id="Grupo_1101739" data-name="Grupo 1101739" transform="translate(13.073 0.973)">
        <g id="Grupo_1101736" data-name="Grupo 1101736" transform="translate(3.75 13.583)">
          <path id="Trazado_880328" data-name="Trazado 880328" d="M103.569,157.4H51.037a2.519,2.519,0,0,0-2.519,2.519v33.67a2.519,2.519,0,0,0,2.519,2.519h20.79v.252a2.747,2.747,0,0,0,2.747,2.747h5.456a2.747,2.747,0,0,0,2.747-2.747V196.1h20.79a2.519,2.519,0,0,0,2.519-2.519v-33.67A2.519,2.519,0,0,0,103.569,157.4Z" transform="translate(-48.518 -151.538)" fill="#7d6eb2"/>
          <path id="Trazado_880329" data-name="Trazado 880329" d="M106.085,406.293v1.991a2.518,2.518,0,0,1-2.519,2.519H82.775v.252a2.747,2.747,0,0,1-2.747,2.747H74.572a2.747,2.747,0,0,1-2.747-2.747V410.8H51.034a2.519,2.519,0,0,1-2.519-2.519v-1.991a2.52,2.52,0,0,0,2.519,2.519H71.825v-2.157L77.3,404.09l5.475,2.565v2.157h20.79A2.519,2.519,0,0,0,106.085,406.293Z" transform="translate(-48.515 -366.237)" fill="#0573ce"/>
          <path id="Trazado_880330" data-name="Trazado 880330" d="M127.464,349.53v9.641H77.382V349.53" transform="translate(-73.638 -318.753)" fill="#dedbee"/>
          <path id="Trazado_880331" data-name="Trazado 880331" d="M96.566,146.792H77.382v-34.56H96.566a5.858,5.858,0,0,1,5.858,5.858v34.56a5.857,5.857,0,0,0-5.857-5.858Z" transform="translate(-73.638 -112.232)" fill="#faf7f7"/>
          <path id="Trazado_880332" data-name="Trazado 880332" d="M295.5,112.236V146.8H276.319a5.857,5.857,0,0,0-5.857,5.857v-34.56a5.856,5.856,0,0,1,5.857-5.857H295.5Z" transform="translate(-241.676 -112.235)" fill="#faf7f7"/>
          <path id="Trazado_880333" data-name="Trazado 880333" d="M276.319,112.236V146.8a5.857,5.857,0,0,0-5.857,5.857v-34.56A5.857,5.857,0,0,1,276.319,112.236Z" transform="translate(-241.676 -112.235)" fill="#f4eafa"/>
        </g>
        <g id="Grupo_1101737" data-name="Grupo 1101737" transform="translate(0)">
          <path id="Trazado_880334" data-name="Trazado 880334" d="M46.251,10.63V29.1a3.132,3.132,0,0,1-3.132,3.13H40.155V36.1A1.21,1.21,0,0,1,38,36.863l-3.724-4.634H22.73A3.131,3.131,0,0,1,19.6,29.1V10.63A3.131,3.131,0,0,1,22.73,7.5H43.12A3.131,3.131,0,0,1,46.251,10.63Z" transform="translate(-19.6 -7.5)" fill="#ffd947"/>
          <path id="Trazado_880335" data-name="Trazado 880335" d="M25.867,32.229H22.733A3.131,3.131,0,0,1,19.6,29.1V10.63A3.132,3.132,0,0,1,22.733,7.5h3.134a3.132,3.132,0,0,0-3.132,3.13V29.1A3.131,3.131,0,0,0,25.867,32.229Z" transform="translate(-19.601 -7.5)" fill="#deac2f"/>
        </g>
        <g id="Grupo_1101738" data-name="Grupo 1101738" transform="translate(22.384 34.642)">
          <path id="Trazado_880336" data-name="Trazado 880336" d="M192.191,301.286V282.818a3.132,3.132,0,0,1,3.132-3.13h2.964v-3.875a1.21,1.21,0,0,1,2.154-.758l3.724,4.634h11.548a3.131,3.131,0,0,1,3.13,3.13v18.468a3.131,3.131,0,0,1-3.13,3.13H195.323A3.131,3.131,0,0,1,192.191,301.286Z" transform="translate(-192.191 -274.599)" fill="#aee6e6"/>
          <path id="Trazado_880337" data-name="Trazado 880337" d="M198.457,338.558h-3.134a3.131,3.131,0,0,1-3.132-3.13V316.959a3.132,3.132,0,0,1,3.132-3.13h3.134a3.132,3.132,0,0,0-3.132,3.13v18.468A3.131,3.131,0,0,0,198.457,338.558Z" transform="translate(-192.191 -308.741)" fill="#26aab7"/>
        </g>
      </g>
      <g id="Grupo_1101740" data-name="Grupo 1101740" transform="translate(12.1 0)">
        <path id="Trazado_880338" data-name="Trazado 880338" d="M71.873,19.441h-.251V14.556a.973.973,0,0,0-.973-.973H51.465a6.832,6.832,0,0,0-5.857,3.322A6.843,6.843,0,0,0,40.7,13.65V4.1a4.109,4.109,0,0,0-4.1-4.1H21.608a.973.973,0,1,0,0,1.945H36.592A2.161,2.161,0,0,1,38.751,4.1V22.571a2.161,2.161,0,0,1-2.159,2.158H33.628a.973.973,0,0,0-.973.973v3.875a.238.238,0,0,1-.423.149l-3.724-4.634a.973.973,0,0,0-.758-.363H16.2a2.161,2.161,0,0,1-2.158-2.158V4.1A2.161,2.161,0,0,1,16.2,1.945h.865a.973.973,0,0,0,0-1.945H16.2a4.108,4.108,0,0,0-4.1,4.1V22.571a4.108,4.108,0,0,0,3.751,4.087V56.6a3.5,3.5,0,0,0,3.492,3.493H34.484V62.3a4.108,4.108,0,0,0,4.1,4.1H58.978a4.108,4.108,0,0,0,4.1-4.1V60.095h8.792A3.5,3.5,0,0,0,75.366,56.6V22.933a3.5,3.5,0,0,0-3.493-3.491ZM19.342,58.149A1.548,1.548,0,0,1,17.8,56.6V26.675h1.8v28.3a.973.973,0,0,0,.973.973H34.484v2.2Zm2.2-8.061H34.484V54H21.539Zm12.945-6.256v4.31H21.539V26.675h5.745l3.432,4.271a2.158,2.158,0,0,0,1.688.818,2.221,2.221,0,0,0,.739-.128A2.159,2.159,0,0,0,34.6,29.577v-2.9h1.991a4.109,4.109,0,0,0,4.1-4.1v-6.95a4.893,4.893,0,0,1,3.939,4.793V35.672l-.17-.212a2.183,2.183,0,0,0-3.885,1.367v2.9H38.589A4.108,4.108,0,0,0,34.484,43.833ZM61.136,62.3a2.16,2.16,0,0,1-2.158,2.158H38.589A2.161,2.161,0,0,1,36.43,62.3V43.833a2.161,2.161,0,0,1,2.159-2.158h2.964a.973.973,0,0,0,.973-.973V36.827a.238.238,0,0,1,.423-.149l3.724,4.634a.973.973,0,0,0,.758.363H58.978a2.16,2.16,0,0,1,2.158,2.158Zm1.945-12.213h6.595V54H63.081ZM73.42,56.6a1.549,1.549,0,0,1-1.547,1.547H63.081v-2.2h7.568a.973.973,0,0,0,.973-.973V44.033a.973.973,0,0,0-1.945,0v4.11H63.081v-4.31a4.108,4.108,0,0,0-4.1-4.1H47.9l-1.316-1.637V20.414a4.891,4.891,0,0,1,4.884-4.886H69.676V39.517a.973.973,0,1,0,1.945,0V21.387h.251a1.548,1.548,0,0,1,1.547,1.546V56.6Z" transform="translate(-12.1 0)" fill="#00223d"/>
        <path id="Trazado_880339" data-name="Trazado 880339" d="M315.393,137.177H299.25a.973.973,0,0,0,0,1.945h16.143a.973.973,0,0,0,0-1.945Z" transform="translate(-261.161 -119.386)" fill="#00223d"/>
        <path id="Trazado_880340" data-name="Trazado 880340" d="M315.393,169.879H299.25a.973.973,0,0,0,0,1.945h16.143a.973.973,0,0,0,0-1.945Z" transform="translate(-261.161 -147.846)" fill="#00223d"/>
        <path id="Trazado_880341" data-name="Trazado 880341" d="M315.393,202.58H299.25a.973.973,0,0,0,0,1.945h16.143a.973.973,0,0,0,0-1.945Z" transform="translate(-261.161 -176.306)" fill="#00223d"/>
        <path id="Trazado_880342" data-name="Trazado 880342" d="M315.393,235.281H299.25a.973.973,0,0,0,0,1.945h16.143a.973.973,0,0,0,0-1.945Z" transform="translate(-261.161 -204.766)" fill="#00223d"/>
        <path id="Trazado_880343" data-name="Trazado 880343" d="M307.19,267.982h-7.94a.973.973,0,0,0,0,1.945h7.94a.973.973,0,1,0,0-1.945Z" transform="translate(-261.161 -233.226)" fill="#00223d"/>
        <path id="Trazado_880344" data-name="Trazado 880344" d="M102.638,240.028h3.279a.973.973,0,1,0,0-1.945h-3.279a.973.973,0,0,0,0,1.945Z" transform="translate(-90.049 -207.205)" fill="#00223d"/>
        <path id="Trazado_880345" data-name="Trazado 880345" d="M189.368,240.028h2.611a.973.973,0,0,0,0-1.945h-2.611a.973.973,0,1,0,0,1.945Z" transform="translate(-165.53 -207.205)" fill="#00223d"/>
        <path id="Trazado_880346" data-name="Trazado 880346" d="M117.469,271.757a.973.973,0,0,0-.973-.973H102.638a.973.973,0,1,0,0,1.945H116.5A.973.973,0,0,0,117.469,271.757Z" transform="translate(-90.049 -235.664)" fill="#00223d"/>
        <path id="Trazado_880347" data-name="Trazado 880347" d="M110.619,303.485h-7.981a.973.973,0,1,0,0,1.945h7.981a.973.973,0,1,0,0-1.945Z" transform="translate(-90.049 -264.124)" fill="#00223d"/>
        <path id="Trazado_880348" data-name="Trazado 880348" d="M74.534,55.085a.973.973,0,0,0,1.255-.563l1.032-2.71h6.855L84.7,54.519a.973.973,0,1,0,1.82-.687l-5.056-13.4-.011-.027a1.276,1.276,0,0,0-1.184-.793h0a1.277,1.277,0,0,0-1.184.8l-.009.022-5.1,13.4A.973.973,0,0,0,74.534,55.085Zm5.73-12.313,2.677,7.095h-5.38Z" transform="translate(-65.891 -34.478)" fill="#00223d"/>
        <path id="Trazado_880349" data-name="Trazado 880349" d="M249.918,350.1a.973.973,0,0,0-1.376,0,10.556,10.556,0,0,0-3.08,6.678h-1.7v-5.99a.973.973,0,1,0-1.945,0v5.99h-1.7a10.557,10.557,0,0,0-3.08-6.678.973.973,0,0,0-1.376,1.376,8.626,8.626,0,0,1,2.505,5.3h-.531a.973.973,0,0,0,0,1.945h.5a8.625,8.625,0,0,1-2.475,5.045.973.973,0,0,0,1.376,1.376,10.557,10.557,0,0,0,3.059-6.421h1.716v5.733a.973.973,0,1,0,1.945,0v-5.733h1.716a10.558,10.558,0,0,0,3.059,6.421.973.973,0,0,0,1.376-1.376,8.626,8.626,0,0,1-2.475-5.045h.5a.973.973,0,1,0,0-1.945h-.531a8.627,8.627,0,0,1,2.505-5.3A.973.973,0,0,0,249.918,350.1Z" transform="translate(-206.427 -304.447)" fill="#00223d"/>
      </g>
    </g>
  </g>
</svg>
