<svg xmlns="http://www.w3.org/2000/svg" width="78.501" height="74.27" viewBox="0 0 78.501 74.27">
  <g id="Grupo_1101815" data-name="Grupo 1101815" transform="translate(-848 -3040.997)">
    <g id="Grupo_1101812" data-name="Grupo 1101812">
      <path id="_12068" data-name="12068" d="M72.033,71.913c-8.038-1.11-16.53-.839-23.844,2.675C38.045,79.46,31.382,90.507,31.127,101.757s5.606,22.305,14.66,28.988,21,9.051,32.068,7.045c11.165-2.023,21.645-8.583,27.469-18.322,3.735-6.245,5.48-13.956,3.417-20.934a28.6,28.6,0,0,0-6.787-11.156A50.145,50.145,0,0,0,72.033,71.913Z" transform="translate(816.881 2976.785)" fill="#26aab7"/>
      <g id="ordenador-portatil" transform="translate(851 3021.145)">
        <g id="Grupo_1101791" data-name="Grupo 1101791" transform="translate(1.055 77.234)">
          <path id="Trazado_880409" data-name="Trazado 880409" d="M76.209,427.549H8.65A1.151,1.151,0,0,0,7.5,428.7v3.237a3.58,3.58,0,0,0,3.58,3.58h62.7a3.58,3.58,0,0,0,3.58-3.58V428.7A1.151,1.151,0,0,0,76.209,427.549Z" transform="translate(-7.499 -427.549)" fill="#7d6eb2"/>
        </g>
        <g id="Grupo_1101792" data-name="Grupo 1101792" transform="translate(64.522 77.234)">
          <path id="Trazado_880410" data-name="Trazado 880410" d="M464.823,428.7v3.237a3.579,3.579,0,0,1-3.579,3.579h-2.815a3.579,3.579,0,0,0,3.579-3.579V428.7a1.151,1.151,0,0,0-1.151-1.15h2.815A1.151,1.151,0,0,1,464.823,428.7Z" transform="translate(-458.429 -427.551)" fill="#62529b"/>
        </g>
        <g id="Grupo_1101793" data-name="Grupo 1101793" transform="translate(31.449 77.238)">
          <path id="Trazado_880411" data-name="Trazado 880411" d="M231.628,431.33h-7.29a.892.892,0,0,1-.892-.892v-2.857h9.073v2.857A.892.892,0,0,1,231.628,431.33Z" transform="translate(-223.446 -427.581)" fill="#deac2f"/>
        </g>
        <g id="Grupo_1101794" data-name="Grupo 1101794" transform="translate(5.038 37.112)">
          <path id="Trazado_880412" data-name="Trazado 880412" d="M97.721,182.613H35.8V144.33a1.843,1.843,0,0,1,1.843-1.843H95.878a1.843,1.843,0,0,1,1.843,1.843v38.283Z" transform="translate(-35.798 -142.487)" fill="#7d6eb2"/>
        </g>
        <g id="Grupo_1101795" data-name="Grupo 1101795" transform="translate(62.304 37.113)">
          <path id="Trazado_880413" data-name="Trazado 880413" d="M447.326,144.333v38.283h-2.815V144.333a1.842,1.842,0,0,0-1.842-1.842h2.815A1.842,1.842,0,0,1,447.326,144.333Z" transform="translate(-442.669 -142.491)" fill="#62529b"/>
        </g>
        <g id="Grupo_1101796" data-name="Grupo 1101796" transform="translate(9.744 42.323)">
          <path id="Trazado_880414" data-name="Trazado 880414" d="M120.052,209.216H70.918a1.689,1.689,0,0,1-1.689-1.689V181.2a1.689,1.689,0,0,1,1.689-1.689h49.134a1.689,1.689,0,0,1,1.689,1.689v26.326A1.689,1.689,0,0,1,120.052,209.216Z" transform="translate(-69.229 -179.512)" fill="#c4e2ff"/>
        </g>
        <g id="Grupo_1101797" data-name="Grupo 1101797" transform="translate(57.838 42.323)">
          <path id="Trazado_880415" data-name="Trazado 880415" d="M415.357,181.2v26.325a1.688,1.688,0,0,1-1.689,1.689h-2.729a1.689,1.689,0,0,0,1.689-1.689V181.2a1.689,1.689,0,0,0-1.689-1.689h2.729a1.688,1.688,0,0,1,1.689,1.689Z" transform="translate(-410.939 -179.511)" fill="#a5d5f9"/>
        </g>
        <g id="Grupo_1101802" data-name="Grupo 1101802" transform="translate(47.769 23.725)">
          <g id="Grupo_1101798" data-name="Grupo 1101798" transform="translate(0 0)">
            <circle id="Elipse_11842" data-name="Elipse 11842" cx="11.584" cy="11.584" r="11.584" fill="#97d729"/>
          </g>
          <g id="Grupo_1101799" data-name="Grupo 1101799" transform="translate(4.921 0.794)">
            <path id="Trazado_880416" data-name="Trazado 880416" d="M392.609,63.8a11.585,11.585,0,0,1-18.246,9.476,11.586,11.586,0,0,0,10.885-20.267A11.59,11.59,0,0,1,392.609,63.8Z" transform="translate(-374.363 -53.009)" fill="#8bc727"/>
          </g>
          <g id="Grupo_1101800" data-name="Grupo 1101800" transform="translate(4.863 6.107)">
            <path id="Trazado_880417" data-name="Trazado 880417" d="M384.012,91.339l-5.142,5.142a.114.114,0,0,1-.161,0L377.331,95.1a1.98,1.98,0,0,0-2.8,2.8l3.493,3.493a1.082,1.082,0,0,0,1.531,0l7.258-7.257a1.98,1.98,0,1,0-2.8-2.8Z" transform="translate(-373.951 -90.759)" fill="#e2e2e2"/>
          </g>
          <g id="Grupo_1101801" data-name="Grupo 1101801" transform="translate(7.963 6.338)">
            <path id="Trazado_880418" data-name="Trazado 880418" d="M405.735,95.549l-7.258,7.257a1.082,1.082,0,0,1-1.53,0l-.974-.974a1.138,1.138,0,0,0,1.036-.311l7.642-7.668a2.093,2.093,0,0,0,.611-1.454,2,2,0,0,1,.473.349A1.982,1.982,0,0,1,405.735,95.549Z" transform="translate(-395.973 -92.399)" fill="#cecece"/>
          </g>
        </g>
        <g id="Grupo_1101810" data-name="Grupo 1101810" transform="translate(16.882 20.908)">
          <g id="Grupo_1101809" data-name="Grupo 1101809" transform="translate(0 0)">
            <g id="Grupo_1101803" data-name="Grupo 1101803" transform="translate(0 0)">
              <path id="Trazado_880419" data-name="Trazado 880419" d="M140.523,65.219H121.88a1.935,1.935,0,0,1-1.935-1.935v-34a1.935,1.935,0,0,1,1.935-1.935h18.644a1.935,1.935,0,0,1,1.935,1.935v34A1.935,1.935,0,0,1,140.523,65.219Z" transform="translate(-119.945 -27.352)" fill="#eaf6ff"/>
            </g>
            <g id="Grupo_1101804" data-name="Grupo 1101804" transform="translate(17.763)">
              <path id="Trazado_880420" data-name="Trazado 880420" d="M250.9,29.287v34a1.934,1.934,0,0,1-1.935,1.934h-2.815a1.934,1.934,0,0,0,1.935-1.934v-34a1.934,1.934,0,0,0-1.935-1.935h2.815a1.934,1.934,0,0,1,1.935,1.935Z" transform="translate(-246.152 -27.352)" fill="#d8ecfe"/>
            </g>
            <g id="Grupo_1101805" data-name="Grupo 1101805" transform="translate(0 31.355)">
              <path id="Trazado_880421" data-name="Trazado 880421" d="M140.523,256.641H121.88a1.935,1.935,0,0,1-1.935-1.935v-4.577h22.513v4.577A1.935,1.935,0,0,1,140.523,256.641Z" transform="translate(-119.945 -250.129)" fill="#aee6e6"/>
            </g>
            <g id="Grupo_1101806" data-name="Grupo 1101806" transform="translate(17.763 31.355)">
              <path id="Trazado_880422" data-name="Trazado 880422" d="M250.9,250.129v4.578a1.934,1.934,0,0,1-1.935,1.934h-2.815a1.934,1.934,0,0,0,1.935-1.934v-4.578Z" transform="translate(-246.152 -250.129)" fill="#26aab7"/>
            </g>
            <g id="Grupo_1101807" data-name="Grupo 1101807" transform="translate(5.041 0)">
              <path id="Trazado_880423" data-name="Trazado 880423" d="M161.976,27.352H155.76l.6,2.669a1.209,1.209,0,0,0,1.179.942h8.864a1.209,1.209,0,0,0,1.179-.942l.6-2.669Z" transform="translate(-155.76 -27.352)" fill="#ffd947"/>
            </g>
            <g id="Grupo_1101808" data-name="Grupo 1101808" transform="translate(12.609 0)">
              <path id="Trazado_880424" data-name="Trazado 880424" d="M214.395,27.352l-.6,2.669a1.209,1.209,0,0,1-1.18.942h-3.08a1.208,1.208,0,0,0,1.18-.942l.6-2.669Z" transform="translate(-209.531 -27.352)" fill="#deac2f"/>
            </g>
          </g>
        </g>
        <g id="Grupo_1101811" data-name="Grupo 1101811" transform="translate(0 19.852)">
          <path id="Trazado_880425" data-name="Trazado 880425" d="M69.765,76.178H68.017V44.5a12.637,12.637,0,0,0-16.75-18.91,1.056,1.056,0,0,0,1.351,1.622,10.529,10.529,0,1,1-3.794,8.094,10.428,10.428,0,0,1,1.042-4.572,1.056,1.056,0,0,0-1.9-.918,12.525,12.525,0,0,0-1.252,5.49c0,.251.008.5.023.748H40.45V22.842a2.994,2.994,0,0,0-2.99-2.99H18.816a2.994,2.994,0,0,0-2.99,2.99V36.057H6.881a2.9,2.9,0,0,0-2.9,2.9v24.9a1.056,1.056,0,1,0,2.111,0v-24.9a.788.788,0,0,1,.787-.787h8.945v3.1H11.433a2.748,2.748,0,0,0-2.745,2.745V70.338a2.748,2.748,0,0,0,2.745,2.745H60.567a2.748,2.748,0,0,0,2.745-2.745V47.313a12.592,12.592,0,0,0,2.594-1.2V76.178H6.094V68.73a1.056,1.056,0,0,0-2.111,0v7.448H2.206A2.209,2.209,0,0,0,0,78.384v3.237a4.64,4.64,0,0,0,4.635,4.635h62.7a4.64,4.64,0,0,0,4.635-4.635V78.384A2.209,2.209,0,0,0,69.765,76.178ZM40.45,38.168h6.589a12.547,12.547,0,0,0,1.169,3.1H40.45Zm-7.418-16.2-.313,1.38a.153.153,0,0,1-.15.12H23.706a.153.153,0,0,1-.15-.12l-.313-1.38Zm-15.1.879a.88.88,0,0,1,.879-.879h2.263L21.5,23.81a2.253,2.253,0,0,0,2.209,1.765H32.57a2.253,2.253,0,0,0,2.209-1.765l.418-1.846H37.46a.88.88,0,0,1,.879.879V51.207h-20.4Zm0,30.476h20.4V56.84a.88.88,0,0,1-.879.879H18.816a.88.88,0,0,1-.879-.879ZM61.2,70.338a.634.634,0,0,1-.633.633H11.433a.634.634,0,0,1-.633-.633V44.012a.634.634,0,0,1,.633-.633h4.393V56.84a2.994,2.994,0,0,0,2.99,2.99H37.46a2.994,2.994,0,0,0,2.99-2.99V43.379h9.182A12.63,12.63,0,0,0,61.2,47.813V70.338ZM32.5,78.294h6.962v1.638H32.5ZM69.86,81.621a2.527,2.527,0,0,1-2.524,2.524H4.635a2.527,2.527,0,0,1-2.524-2.524V78.384a.1.1,0,0,1,.1-.1l28.187,0v1.8a1.95,1.95,0,0,0,1.948,1.948h7.29a1.95,1.95,0,0,0,1.948-1.948v-1.8l28.187,0a.1.1,0,0,1,.095.1Z" transform="translate(0 -19.852)" fill="#00223d"/>
          <path id="Trazado_880426" data-name="Trazado 880426" d="M370.834,95.708a2.14,2.14,0,0,0,3.023,0l7.258-7.257a3.036,3.036,0,0,0-4.293-4.293h0l-4.476,4.476-.712-.712a3.036,3.036,0,0,0-4.293,4.293Zm-2-6.293a.924.924,0,0,1,1.307,0l1.378,1.378a1.171,1.171,0,0,0,1.654,0l5.142-5.142a.924.924,0,1,1,1.308,1.307l-7.258,7.257a.027.027,0,0,1-.038,0l-3.493-3.493a.924.924,0,0,1,0-1.307Z" transform="translate(-314.875 -74.345)" fill="#00223d"/>
          <circle id="Elipse_11843" data-name="Elipse 11843" cx="1.625" cy="1.625" r="1.625" transform="matrix(0.987, -0.16, 0.16, 0.987, 20.645, 17.544)" fill="#deac2f"/>
          <circle id="Elipse_11844" data-name="Elipse 11844" cx="1.625" cy="1.625" r="1.625" transform="translate(26.026 19.767) rotate(-67.486)" fill="#deac2f"/>
          <circle id="Elipse_11845" data-name="Elipse 11845" cx="1.625" cy="1.625" r="1.625" transform="translate(32.137 17.261)" fill="#deac2f"/>
        </g>
      </g>
    </g>
  </g>
</svg>
