<svg xmlns="http://www.w3.org/2000/svg" width="139.737" height="147.529" viewBox="0 0 139.737 147.529">
  <g id="Grupo_1102050" data-name="Grupo 1102050" transform="translate(-572.133 -21231)">
    <path id="_12068" data-name="12068" d="M103.949,72.366C89.64,70.39,74.525,70.874,61.5,77.128,43.447,85.8,31.588,105.464,31.133,125.491s9.978,39.705,26.1,51.6S94.6,193.2,114.312,189.632c19.875-3.6,38.53-15.279,48.9-32.614,6.648-11.116,9.755-24.842,6.082-37.264-2.217-7.5-6.75-14.14-12.082-19.858A89.263,89.263,0,0,0,103.949,72.366Z" transform="translate(541.014 21187.668)" fill="#7d6eb2"/>
    <g id="seguidores" transform="translate(582.865 21224.572)">
      <g id="Grupo_1101933" data-name="Grupo 1101933" transform="translate(1.72 55.061)">
        <g id="Grupo_1101931" data-name="Grupo 1101931">
          <path id="Trazado_881130" data-name="Trazado 881130" d="M111.962,216.965H17.76A10.316,10.316,0,0,0,7.444,227.281v27.226A10.316,10.316,0,0,0,17.76,264.823H49.336a2.98,2.98,0,0,1,2.379,1.185l11.317,15a2.292,2.292,0,0,0,3.66,0l11.317-15a2.981,2.981,0,0,1,2.379-1.185h31.576a10.316,10.316,0,0,0,10.316-10.316V227.281A10.315,10.315,0,0,0,111.962,216.965Z" transform="translate(-7.444 -216.965)" fill="#ffd947"/>
        </g>
        <g id="Grupo_1101932" data-name="Grupo 1101932" transform="translate(0.216 0.216)">
          <path id="Trazado_881131" data-name="Trazado 881131" d="M114.79,217.9a10.364,10.364,0,0,1,.216,2.109V244.97a12.582,12.582,0,0,1-12.582,12.582H10.489a10.367,10.367,0,0,1-2.109-.216,10.319,10.319,0,0,0,10.1,8.207H50.055a2.98,2.98,0,0,1,2.379,1.185l11.317,15a2.292,2.292,0,0,0,3.66,0l11.317-15a2.98,2.98,0,0,1,2.379-1.185h31.576A10.316,10.316,0,0,0,123,255.227V228a10.318,10.318,0,0,0-8.207-10.1Z" transform="translate(-8.38 -217.902)" fill="#ebc532"/>
        </g>
      </g>
      <g id="Grupo_1101934" data-name="Grupo 1101934" transform="translate(2.295 46.479)">
        <path id="Trazado_881132" data-name="Trazado 881132" d="M55.292,195.81a19.258,19.258,0,0,0-18.977-16H28.648A19.259,19.259,0,0,0,9.97,194.387a1.148,1.148,0,0,0,1.114,1.423Z" transform="translate(-9.936 -179.811)" fill="#95d6a4"/>
      </g>
      <g id="Grupo_1101935" data-name="Grupo 1101935" transform="translate(20.986 46.479)">
        <path id="Trazado_881133" data-name="Trazado 881133" d="M109.8,195.81h7.711a19.258,19.258,0,0,0-18.977-16H90.849a19.258,19.258,0,0,1,18.955,16Z" transform="translate(-90.849 -179.811)" fill="#78c2a4"/>
      </g>
      <g id="Grupo_1101936" data-name="Grupo 1101936" transform="translate(35.707 46.479)">
        <path id="Trazado_881134" data-name="Trazado 881134" d="M200.195,195.81a19.258,19.258,0,0,0-18.977-16h-7.667a19.258,19.258,0,0,0-18.977,16Z" transform="translate(-154.575 -179.811)" fill="#dd5790"/>
      </g>
      <g id="Grupo_1101937" data-name="Grupo 1101937" transform="translate(54.662 46.479)">
        <path id="Trazado_881135" data-name="Trazado 881135" d="M255.585,195.81h7.71a19.258,19.258,0,0,0-18.977-16H236.63A19.258,19.258,0,0,1,255.585,195.81Z" transform="translate(-236.63 -179.811)" fill="#da387d"/>
      </g>
      <g id="Grupo_1101938" data-name="Grupo 1101938" transform="translate(70.578 46.479)">
        <path id="Trazado_881136" data-name="Trazado 881136" d="M349.738,195.81a1.148,1.148,0,0,0,1.114-1.423,19.259,19.259,0,0,0-18.678-14.576h-7.667a19.258,19.258,0,0,0-18.977,16Z" transform="translate(-305.531 -179.811)" fill="#335995"/>
      </g>
      <g id="Grupo_1101939" data-name="Grupo 1101939" transform="translate(18.219 39.436)">
        <path id="Trazado_881137" data-name="Trazado 881137" d="M88.648,162.567H82.333a3.465,3.465,0,0,1-3.465-3.465v-9.78H92.113v9.78A3.465,3.465,0,0,1,88.648,162.567Z" transform="translate(-78.868 -149.322)" fill="#904f40"/>
      </g>
      <g id="Grupo_1101940" data-name="Grupo 1101940" transform="translate(51.894 39.436)">
        <path id="Trazado_881138" data-name="Trazado 881138" d="M234.43,162.567h-6.315a3.465,3.465,0,0,1-3.465-3.465v-9.78h13.245v9.78A3.465,3.465,0,0,1,234.43,162.567Z" transform="translate(-224.65 -149.322)" fill="#eaac9d"/>
      </g>
      <g id="Grupo_1101941" data-name="Grupo 1101941" transform="translate(78.38 67.62)">
        <circle id="Elipse_11995" data-name="Elipse 11995" cx="15.008" cy="15.008" r="15.008" fill="#f4fbff"/>
      </g>
      <g id="Grupo_1101942" data-name="Grupo 1101942" transform="translate(81.225 70.464)">
        <path id="Trazado_881139" data-name="Trazado 881139" d="M372.572,283.644a15,15,0,0,1-20.95,20.95,15.005,15.005,0,1,0,20.95-20.95Z" transform="translate(-351.622 -283.644)" fill="#e4f6ff"/>
      </g>
      <g id="Grupo_1101943" data-name="Grupo 1101943" transform="translate(89.533 46.479)">
        <path id="Trazado_881140" data-name="Trazado 881140" d="M406.541,195.81h6.3a1.148,1.148,0,0,0,1.114-1.423,19.259,19.259,0,0,0-18.678-14.576h-7.689A19.258,19.258,0,0,1,406.541,195.81Z" transform="translate(-387.586 -179.811)" fill="#21386b"/>
      </g>
      <g id="Grupo_1101944" data-name="Grupo 1101944" transform="translate(86.766 39.436)">
        <path id="Trazado_881141" data-name="Trazado 881141" d="M385.387,162.567h-6.315a3.465,3.465,0,0,1-3.465-3.465v-9.78h13.245v9.78A3.465,3.465,0,0,1,385.387,162.567Z" transform="translate(-375.607 -149.322)" fill="#eaac9d"/>
      </g>
      <g id="Grupo_1101945" data-name="Grupo 1101945" transform="translate(23.966 39.436)">
        <path id="Trazado_881142" data-name="Trazado 881142" d="M107.186,149.322v9.806a3.439,3.439,0,0,1-3.439,3.439h4.059a3.439,3.439,0,0,0,3.439-3.439v-9.806Z" transform="translate(-103.747 -149.322)" fill="#784033"/>
      </g>
      <g id="Grupo_1101946" data-name="Grupo 1101946" transform="translate(57.641 39.436)">
        <path id="Trazado_881143" data-name="Trazado 881143" d="M252.968,149.322v9.806a3.439,3.439,0,0,1-3.439,3.439h4.059a3.439,3.439,0,0,0,3.439-3.439v-9.806Z" transform="translate(-249.529 -149.322)" fill="#df9380"/>
      </g>
      <g id="Grupo_1101947" data-name="Grupo 1101947" transform="translate(92.512 39.436)">
        <path id="Trazado_881144" data-name="Trazado 881144" d="M403.924,149.322v9.806a3.439,3.439,0,0,1-3.439,3.439h4.059a3.439,3.439,0,0,0,3.439-3.439v-9.806Z" transform="translate(-400.485 -149.322)" fill="#df9380"/>
      </g>
      <g id="Grupo_1101954" data-name="Grupo 1101954" transform="translate(44.254 8.146)">
        <g id="Grupo_1101948" data-name="Grupo 1101948" transform="translate(9.192 0)">
          <circle id="Elipse_11996" data-name="Elipse 11996" cx="5.071" cy="5.071" r="5.071" fill="#aa7a63"/>
        </g>
        <g id="Grupo_1101949" data-name="Grupo 1101949" transform="translate(12.521 0)">
          <path id="Trazado_881145" data-name="Trazado 881145" d="M247.518,13.87a5.05,5.05,0,0,0-1.742.314,5.064,5.064,0,0,1,0,9.514,5.069,5.069,0,1,0,1.742-9.828Z" transform="translate(-245.776 -13.87)" fill="#986b54"/>
        </g>
        <g id="Grupo_1101950" data-name="Grupo 1101950" transform="translate(3.581 18.488)">
          <path id="Trazado_881146" data-name="Trazado 881146" d="M224.352,111.009l-.81.825a8.1,8.1,0,0,1-11.565,0l-.81-.825A14.288,14.288,0,0,1,207.078,101v-7.1h21.364V101A14.29,14.29,0,0,1,224.352,111.009Z" transform="translate(-207.078 -93.906)" fill="#ffcbbe"/>
        </g>
        <path id="Trazado_881147" data-name="Trazado 881147" d="M216.913,89.106h-.394V82.494H195.155v6.612h-.394a3.187,3.187,0,0,0-3.187,3.187v.977A3.728,3.728,0,0,0,195.3,97h.674a14.285,14.285,0,0,0,3.269,5.235l.81.825a8.1,8.1,0,0,0,11.565,0l.81-.825A14.287,14.287,0,0,0,215.7,97h.674A3.728,3.728,0,0,0,220.1,93.27v-.977A3.187,3.187,0,0,0,216.913,89.106Z" transform="translate(-191.574 -66.642)" fill="#ffcbbe"/>
        <path id="Trazado_881148" data-name="Trazado 881148" d="M256.577,89.106h-.394V82.494h-4.7v9.732a14.289,14.289,0,0,1-4.09,10.007l-.81.825a8.063,8.063,0,0,1-3.434,2.081,8.1,8.1,0,0,0,8.131-2.081l.81-.825A14.287,14.287,0,0,0,255.362,97h.674a3.728,3.728,0,0,0,3.728-3.728v-.977A3.187,3.187,0,0,0,256.577,89.106Z" transform="translate(-231.237 -66.642)" fill="#eaac9d"/>
        <g id="Grupo_1101951" data-name="Grupo 1101951" transform="translate(3.581 7.737)">
          <path id="Trazado_881149" data-name="Trazado 881149" d="M217.76,56.724a23.73,23.73,0,0,1,10.682,2.524V55.271a7.909,7.909,0,0,0-7.909-7.909h-5.546a7.909,7.909,0,0,0-7.909,7.909v3.977A23.726,23.726,0,0,1,217.76,56.724Z" transform="translate(-207.078 -47.362)" fill="#aa7a63"/>
        </g>
        <g id="Grupo_1101953" data-name="Grupo 1101953" transform="translate(12.338 7.736)">
          <g id="Grupo_1101952" data-name="Grupo 1101952">
            <path id="Trazado_881150" data-name="Trazado 881150" d="M249.684,47.361h-4.7a7.909,7.909,0,0,1,7.909,7.909v2.214a23.685,23.685,0,0,1,4.7,1.763V55.27A7.909,7.909,0,0,0,249.684,47.361Z" transform="translate(-244.986 -47.361)" fill="#986b54"/>
          </g>
        </g>
      </g>
      <g id="Grupo_1101958" data-name="Grupo 1101958" transform="translate(10.578 16.944)">
        <path id="Trazado_881151" data-name="Trazado 881151" d="M71.131,95.225h-.394V91.249H49.373v3.976h-.394a3.187,3.187,0,0,0-3.187,3.187v.977a3.728,3.728,0,0,0,3.728,3.728h.674a14.285,14.285,0,0,0,3.269,5.235l.81.825a8.1,8.1,0,0,0,11.565,0l.81-.825a14.287,14.287,0,0,0,3.269-5.235h.674a3.728,3.728,0,0,0,3.728-3.728v-.977A3.187,3.187,0,0,0,71.131,95.225Z" transform="translate(-45.792 -82.172)" fill="#a55e4d"/>
        <g id="Grupo_1101955" data-name="Grupo 1101955" transform="translate(3.581 0)">
          <path id="Trazado_881152" data-name="Trazado 881152" d="M82.659,62.543V57.229a5.273,5.273,0,0,0-5.273-5.273H66.568A5.273,5.273,0,0,0,61.3,57.229v5.314H82.659Z" transform="translate(-61.295 -51.956)" fill="#8b5e5e"/>
        </g>
        <g id="Grupo_1101956" data-name="Grupo 1101956" transform="translate(3.581 0)">
          <path id="Trazado_881153" data-name="Trazado 881153" d="M82.659,62.543V57.229a5.273,5.273,0,0,0-5.273-5.273H66.568A5.273,5.273,0,0,0,61.3,57.229v5.314H82.659Z" transform="translate(-61.295 -51.956)" fill="#7a402b"/>
        </g>
        <g id="Grupo_1101957" data-name="Grupo 1101957" transform="translate(14.975)">
          <path id="Trazado_881154" data-name="Trazado 881154" d="M115.317,51.956h-4.7a5.273,5.273,0,0,1,5.273,5.273v5.314h4.7V57.229A5.273,5.273,0,0,0,115.317,51.956Z" transform="translate(-110.62 -51.956)" fill="#523838"/>
        </g>
        <path id="Trazado_881155" data-name="Trazado 881155" d="M110.795,95.225H110.4V91.249h-4.7v7.1a14.288,14.288,0,0,1-4.09,10.007l-.81.825a8.063,8.063,0,0,1-3.434,2.081,8.1,8.1,0,0,0,8.131-2.081l.81-.825a14.287,14.287,0,0,0,3.269-5.235h.674a3.728,3.728,0,0,0,3.728-3.728v-.977A3.187,3.187,0,0,0,110.795,95.225Z" transform="translate(-85.455 -82.172)" fill="#904f40"/>
      </g>
      <g id="Grupo_1101962" data-name="Grupo 1101962" transform="translate(79.125 16.944)">
        <g id="Grupo_1101959" data-name="Grupo 1101959" transform="translate(3.581 0)">
          <path id="Trazado_881156" data-name="Trazado 881156" d="M379.4,62.543V57.229a5.273,5.273,0,0,0-5.273-5.273H363.306a5.273,5.273,0,0,0-5.273,5.273v5.314H379.4Z" transform="translate(-358.033 -51.956)" fill="#8b5e5e"/>
        </g>
        <path id="Trazado_881157" data-name="Trazado 881157" d="M367.869,95.225h-.394V91.249H346.111v3.976h-.394a3.187,3.187,0,0,0-3.187,3.187v.977a3.728,3.728,0,0,0,3.728,3.728h.674a14.285,14.285,0,0,0,3.269,5.235l.81.825a8.1,8.1,0,0,0,11.565,0l.81-.825a14.288,14.288,0,0,0,3.269-5.235h.674a3.728,3.728,0,0,0,3.728-3.728v-.977A3.187,3.187,0,0,0,367.869,95.225Z" transform="translate(-342.53 -82.172)" fill="#ffcbbe"/>
        <g id="Grupo_1101960" data-name="Grupo 1101960" transform="translate(3.581 0)">
          <path id="Trazado_881158" data-name="Trazado 881158" d="M379.4,62.543V57.229a5.273,5.273,0,0,0-5.273-5.273H363.306a5.273,5.273,0,0,0-5.273,5.273v5.314H379.4Z" transform="translate(-358.033 -51.956)" fill="#ffd064"/>
        </g>
        <path id="Trazado_881159" data-name="Trazado 881159" d="M407.533,95.225h-.394V91.249h-4.7v7.1a14.288,14.288,0,0,1-4.09,10.007l-.81.825a8.063,8.063,0,0,1-3.434,2.081,8.1,8.1,0,0,0,8.131-2.081l.81-.825a14.287,14.287,0,0,0,3.269-5.235h.674a3.728,3.728,0,0,0,3.728-3.728v-.977A3.187,3.187,0,0,0,407.533,95.225Z" transform="translate(-382.193 -82.172)" fill="#eaac9d"/>
        <g id="Grupo_1101961" data-name="Grupo 1101961" transform="translate(14.975)">
          <path id="Trazado_881160" data-name="Trazado 881160" d="M412.055,51.956h-4.7a5.273,5.273,0,0,1,5.273,5.273v5.314h4.7V57.229A5.273,5.273,0,0,0,412.055,51.956Z" transform="translate(-407.358 -51.956)" fill="#ffc250"/>
        </g>
      </g>
      <g id="Grupo_1101963" data-name="Grupo 1101963" transform="translate(0 6.427)">
        <path id="Trazado_881161" data-name="Trazado 881161" d="M117.644,61.539a2.87,2.87,0,0,0-.076-.9A20.937,20.937,0,0,0,101.73,45.249l0-1.47a15.376,15.376,0,0,0,2.694-4.192,5.426,5.426,0,0,0,4.949-5.4V33.16a4.891,4.891,0,0,0-3.581-4.706V22.217A7,7,0,0,0,98.8,15.225H87.979a7,7,0,0,0-6.992,6.992v6.237a4.891,4.891,0,0,0-3.581,4.706v1.029a5.426,5.426,0,0,0,4.949,5.4,16.165,16.165,0,0,0,2.694,4.182c0,.014,0,1.479,0,1.479a20.9,20.9,0,0,0-9.1,4.517,20.861,20.861,0,0,0-9.088-4.517v-.866A15.961,15.961,0,0,0,69.551,40.2,5.426,5.426,0,0,0,74.5,34.8V33.773a4.891,4.891,0,0,0-3.581-4.706V23.792a9.642,9.642,0,0,0-5.837-8.849,6.79,6.79,0,1,0-13.129,0,9.642,9.642,0,0,0-5.836,8.849v5.276a4.891,4.891,0,0,0-3.581,4.706V34.8a5.426,5.426,0,0,0,4.949,5.4,16.161,16.161,0,0,0,2.694,4.182c0,.014,0,.866,0,.866a20.892,20.892,0,0,0-8.5,4.027,20.869,20.869,0,0,0-8.489-4.029s0-1.463,0-1.477a16.161,16.161,0,0,0,2.694-4.182,5.426,5.426,0,0,0,4.949-5.4V33.159a4.891,4.891,0,0,0-3.581-4.706V22.216a7,7,0,0,0-6.992-6.992H19.432a7,7,0,0,0-6.992,6.992v6.237a4.891,4.891,0,0,0-3.581,4.706v1.029a5.426,5.426,0,0,0,4.949,5.4A16.167,16.167,0,0,0,16.5,43.769c0,.014,0,1.479,0,1.479a20.973,20.973,0,0,0-7.992,3.643,1.719,1.719,0,1,0,2.052,2.759,17.53,17.53,0,0,1,5.94-2.865v.456A5.164,5.164,0,0,0,21.658,54.4h6.368a5.164,5.164,0,0,0,5.158-5.158v-.457a17.441,17.441,0,0,1,5.948,2.874,20.92,20.92,0,0,0-4.82,9.1H4.192a17.451,17.451,0,0,1,1.791-4.066,1.719,1.719,0,1,0-2.945-1.775,20.862,20.862,0,0,0-2.377,5.72,2.859,2.859,0,0,0-.068,1.006A12.024,12.024,0,0,0,0,65.377V92.6a12.049,12.049,0,0,0,12.035,12.035H43.611a1.268,1.268,0,0,1,1.006.5l1.716,2.273a1.719,1.719,0,0,0,2.745-2.071l-1.716-2.273a4.724,4.724,0,0,0-3.751-1.869H12.035a8.606,8.606,0,0,1-8.6-8.6V65.377A8.67,8.67,0,0,1,3.52,64.2H114.753a8.707,8.707,0,0,1,.081,1.179v7.83a1.719,1.719,0,1,0,3.439,0v-7.83a12,12,0,0,0-.629-3.839ZM15.879,22.217a3.557,3.557,0,0,1,3.553-3.553H30.251A3.557,3.557,0,0,1,33.8,22.217v3.6H15.879ZM29.744,49.242a1.721,1.721,0,0,1-1.719,1.719H21.657a1.721,1.721,0,0,1-1.719-1.719V46.786a9.836,9.836,0,0,0,9.806,0v2.456Zm.462-7.322-.81.825a6.382,6.382,0,0,1-9.11,0l-.81-.825A12.657,12.657,0,0,1,16.6,37.314a1.719,1.719,0,0,0-1.621-1.145h-.7a1.982,1.982,0,0,1-1.98-1.98V33.16a1.445,1.445,0,0,1,1.443-1.443h.419A1.719,1.719,0,0,0,15.878,30V29.25H33.8V30a1.719,1.719,0,0,0,1.719,1.719h.419a1.445,1.445,0,0,1,1.443,1.443v1.029a1.982,1.982,0,0,1-1.98,1.98h-.7a1.72,1.72,0,0,0-1.621,1.145,12.65,12.65,0,0,1-2.875,4.606Zm58.279,4.866a9.754,9.754,0,0,0,4.9,1.309h0a9.755,9.755,0,0,0,4.9-1.309v2.456a1.721,1.721,0,0,1-1.719,1.719H90.2a1.721,1.721,0,0,1-1.719-1.719ZM84.426,22.217a3.557,3.557,0,0,1,3.553-3.553H98.8a3.557,3.557,0,0,1,3.553,3.553v3.6H84.426Zm-.9,13.952h-.7a1.982,1.982,0,0,1-1.98-1.98V33.16a1.445,1.445,0,0,1,1.443-1.443h.419A1.719,1.719,0,0,0,84.425,30V29.25h17.925V30a1.719,1.719,0,0,0,1.719,1.719h.418a1.445,1.445,0,0,1,1.444,1.443v1.029a1.982,1.982,0,0,1-1.98,1.98h-.7a1.719,1.719,0,0,0-1.621,1.145,12.658,12.658,0,0,1-2.876,4.606l-.81.825a6.382,6.382,0,0,1-9.11,0l-.81-.825a12.648,12.648,0,0,1-2.876-4.605A1.719,1.719,0,0,0,83.527,36.169Zm-25.01-26.3a3.34,3.34,0,0,1,3.208,4.309c-.144-.006-.289-.011-.435-.011H55.744c-.146,0-.291,0-.435.011a3.34,3.34,0,0,1,3.208-4.309ZM49.554,23.792A6.2,6.2,0,0,1,55.744,17.6H61.29a6.2,6.2,0,0,1,6.189,6.189v1.35a25.669,25.669,0,0,0-17.925,0v-1.35Zm-.9,12.991h-.7a1.982,1.982,0,0,1-1.98-1.98V33.774a1.445,1.445,0,0,1,1.443-1.443h.419a1.719,1.719,0,0,0,1.719-1.719V28.859a22.146,22.146,0,0,1,17.925,0v1.752A1.719,1.719,0,0,0,69.2,32.33h.419a1.445,1.445,0,0,1,1.444,1.443V34.8a1.982,1.982,0,0,1-1.98,1.98h-.7a1.719,1.719,0,0,0-1.621,1.145,12.655,12.655,0,0,1-2.876,4.605l-.81.825a6.381,6.381,0,0,1-9.11,0l-.81-.825a12.657,12.657,0,0,1-2.876-4.605,1.72,1.72,0,0,0-1.621-1.145ZM63.42,47.4v1.842A1.721,1.721,0,0,1,61.7,50.961H55.333a1.721,1.721,0,0,1-1.719-1.719V47.4a9.835,9.835,0,0,0,9.806,0ZM50.175,48.785v.457A5.164,5.164,0,0,0,55.333,54.4H61.7a5.164,5.164,0,0,0,5.158-5.158v-.456a17.436,17.436,0,0,1,6.657,3.43,20.91,20.91,0,0,0-4.334,8.543H37.867A17.52,17.52,0,0,1,50.175,48.785ZM72.738,60.759A17.521,17.521,0,0,1,85.046,48.785v.457A5.164,5.164,0,0,0,90.2,54.4h6.368a5.164,5.164,0,0,0,5.158-5.158v-.457a17.5,17.5,0,0,1,12.308,11.974h-41.3Z" transform="translate(0 -6.427)" fill="#00223d"/>
        <path id="Trazado_881162" data-name="Trazado 881162" d="M284.51,322.065a1.719,1.719,0,0,0-1.719,1.719v11.544a8.606,8.606,0,0,1-8.6,8.6H242.618a4.724,4.724,0,0,0-3.751,1.869l-11.317,15a.573.573,0,0,1-.915,0l-5.134-6.8a1.719,1.719,0,1,0-2.745,2.071l5.134,6.8a4.011,4.011,0,0,0,6.4,0l11.317-15a1.267,1.267,0,0,1,1.006-.5h31.576a12.049,12.049,0,0,0,12.035-12.035V323.784a1.719,1.719,0,0,0-1.719-1.719Z" transform="translate(-167.956 -249.152)" fill="#00223d"/>
        <path id="Trazado_881163" data-name="Trazado 881163" d="M365.319,280.614a16.727,16.727,0,1,0-16.727,16.727A16.746,16.746,0,0,0,365.319,280.614Zm-30.015,0A13.288,13.288,0,1,1,348.592,293.9,13.3,13.3,0,0,1,335.3,280.614Z" transform="translate(-255.204 -204.413)" fill="#00223d"/>
        <path id="Trazado_881164" data-name="Trazado 881164" d="M381.664,304.994a1.72,1.72,0,0,0-2.432,0l-9.732,9.732-4.594-4.595a1.719,1.719,0,0,0-2.432,2.432l5.81,5.81a1.719,1.719,0,0,0,2.432,0l10.948-10.948A1.719,1.719,0,0,0,381.664,304.994Z" transform="translate(-278.355 -235.637)" fill="#00223d"/>
        <path id="Trazado_881165" data-name="Trazado 881165" d="M241.838,307.6a1.719,1.719,0,0,0-1.719,1.719v11.092a1.719,1.719,0,1,0,3.439,0v-2.088l3.447,3.326a1.719,1.719,0,1,0,2.387-2.474L244.7,314.65l4.268-3.923a1.719,1.719,0,0,0-2.327-2.532l-3.084,2.835v-1.709A1.719,1.719,0,0,0,241.838,307.6Z" transform="translate(-184.651 -238.03)" fill="#00223d"/>
        <path id="Trazado_881166" data-name="Trazado 881166" d="M52.437,318.787a1.719,1.719,0,0,0,1.719-1.719V303.82a1.719,1.719,0,0,0-1.719-1.719H49.605a1.719,1.719,0,0,0,0,3.439h1.112v11.528A1.719,1.719,0,0,0,52.437,318.787Z" transform="translate(-36.824 -233.8)" fill="#00223d"/>
        <path id="Trazado_881167" data-name="Trazado 881167" d="M100.647,308.772c-2.1,2.994-3.346,4.632-4.018,5.511-.85,1.113-1.277,1.672-.988,2.611a1.777,1.777,0,0,0,1.155,1.172c.232.077.429.143,3,.143,1.018,0,2.408-.01,4.32-.034a1.719,1.719,0,0,0-.043-3.438c-1.175.015-2.416.025-3.5.029.713-.959,1.66-2.262,2.892-4.022a10.283,10.283,0,0,0,1.675-3.473,1.648,1.648,0,0,0,.03-.17l.065-.513a1.717,1.717,0,0,0,.014-.218,5.109,5.109,0,0,0-10.122-.988,1.719,1.719,0,1,0,3.374.663,1.671,1.671,0,0,1,3.307.235l-.037.29a7.278,7.278,0,0,1-1.124,2.2Z" transform="translate(-73.127 -233.153)" fill="#00223d"/>
        <path id="Trazado_881168" data-name="Trazado 881168" d="M158.1,306.48v6.127a5.55,5.55,0,0,0,11.1,0V306.48a5.55,5.55,0,1,0-11.1,0Zm7.662,0v6.127a2.112,2.112,0,0,1-4.223,0V306.48a2.112,2.112,0,1,1,4.223,0Z" transform="translate(-121.576 -232.9)" fill="#00223d"/>
      </g>
    </g>
  </g>
</svg>
