<svg xmlns="http://www.w3.org/2000/svg" width="151.991" height="148.529" viewBox="0 0 151.991 148.529">
  <g id="Grupo_1102051" data-name="Grupo 1102051" transform="translate(-882 -21230)">
    <g id="Grupo_1101715" data-name="Grupo 1101715" transform="translate(882 21253.697)">
      <path id="_12068" data-name="12068" d="M103.949,72.366C89.64,70.39,74.525,70.874,61.5,77.128,43.447,85.8,31.588,105.464,31.133,125.491s9.978,39.705,26.1,51.6S94.6,193.2,114.312,189.632c19.875-3.6,38.53-15.279,48.9-32.614,6.648-11.116,9.755-24.842,6.082-37.264-2.217-7.5-6.75-14.14-12.082-19.858A89.263,89.263,0,0,0,103.949,72.366Z" transform="translate(-24.992 -66.03)" fill="#ffd947"/>
      <g id="Grupo_1099026" data-name="Grupo 1099026" transform="translate(0 111.446) rotate(-90)">
        <path id="Trazado_873104" data-name="Trazado 873104" d="M.647,2.832A1.64,1.64,0,0,0,2.79,2.59,1.64,1.64,0,0,0,2.7.434,1.641,1.641,0,0,0,.541.376,1.573,1.573,0,0,0,.647,2.832Z" transform="translate(21.424 128.541)" fill="#fff"/>
        <path id="Trazado_873105" data-name="Trazado 873105" d="M.646,2.832A1.64,1.64,0,0,0,2.791,2.59,1.641,1.641,0,0,0,2.7.434,1.641,1.641,0,0,0,.541.376,1.573,1.573,0,0,0,.646,2.832Z" transform="translate(52.72 135.267)" fill="#ffd947"/>
        <path id="Trazado_873106" data-name="Trazado 873106" d="M.647,2.832A1.639,1.639,0,0,0,2.79,2.59,1.641,1.641,0,0,0,2.7.434,1.641,1.641,0,0,0,.541.376,1.573,1.573,0,0,0,.647,2.832Z" transform="translate(108.296 0)" fill="#7d6eb2"/>
        <path id="Trazado_873109" data-name="Trazado 873109" d="M2.129,6.609a3.577,3.577,0,0,0,4.43-1.75A3.579,3.579,0,0,0,5.014.353,3.578,3.578,0,0,0,.442,1.692,3.468,3.468,0,0,0,2.129,6.609Z" transform="translate(89.699 129.99)" fill="#26aab7"/>
        <path id="Trazado_873110" data-name="Trazado 873110" d="M2.13,6.609a3.577,3.577,0,0,0,4.43-1.75A3.578,3.578,0,0,0,5.014.354,3.577,3.577,0,0,0,.443,1.691,3.468,3.468,0,0,0,2.13,6.609Z" transform="translate(65.295 145.152)" fill="#7d6eb2"/>
        <path id="Trazado_873111" data-name="Trazado 873111" d="M2.13,6.609a3.576,3.576,0,0,0,4.43-1.75A3.577,3.577,0,0,0,5.014.354,3.576,3.576,0,0,0,.443,1.691,3.468,3.468,0,0,0,2.13,6.609Z" transform="translate(0 40.87)" fill="#7d6eb2"/>
        <path id="Trazado_873113" data-name="Trazado 873113" d="M2.129,6.609a3.578,3.578,0,0,0,4.43-1.75A3.579,3.579,0,0,0,5.015.353,3.578,3.578,0,0,0,.442,1.692,3.468,3.468,0,0,0,2.129,6.609Z" transform="translate(101.449 8.605)" fill="#ffd947"/>
        <circle id="Elipse_11485" data-name="Elipse 11485" cx="1.689" cy="1.689" r="1.689" transform="translate(7.75 136.702)" fill="none" stroke="#26aab7" stroke-linecap="round" stroke-linejoin="round" stroke-width="1.5"/>
      </g>
    </g>
    <g id="publico-objetivo" transform="translate(896.999 21227)">
      <path id="Trazado_881169" data-name="Trazado 881169" d="M18.729,51.732l-7.864,5.56L3,51.732l7.864-5.56Z" transform="translate(0.965 41.709)" fill="#ffc119"/>
      <path id="Trazado_881170" data-name="Trazado 881170" d="M64.255,74.78V45.524A7.882,7.882,0,0,0,58.3,37.9l-9.772-2.438V31.526a7.1,7.1,0,0,0,3.932-6.37V13.831a9.831,9.831,0,0,0-19.661,0V25.155a7.1,7.1,0,0,0,3.932,6.37v3.932L26.957,37.9A7.882,7.882,0,0,0,21,45.524V74.78Z" transform="translate(18.355 0.966)" fill="#26aab7"/>
      <path id="Trazado_881171" data-name="Trazado 881171" d="M7,71.017V55.524A7.882,7.882,0,0,1,12.957,47.9l9.772-2.438V41.526a7.1,7.1,0,0,1-3.932-6.37V23.831a9.831,9.831,0,0,1,19.661,0V35.155a7.1,7.1,0,0,1-3.932,6.37v3.932L44.3,47.9a7.882,7.882,0,0,1,5.957,7.629V71.017Z" transform="translate(4.83 10.627)" fill="#62529b"/>
      <path id="Trazado_881172" data-name="Trazado 881172" d="M78.255,71.017V55.524A7.882,7.882,0,0,0,72.3,47.9l-9.772-2.438V41.526a7.1,7.1,0,0,0,3.932-6.37V23.831a9.831,9.831,0,0,0-19.661,0V35.155a7.1,7.1,0,0,0,3.932,6.37v3.932L40.957,47.9A7.882,7.882,0,0,0,35,55.524V71.017Z" transform="translate(31.881 10.627)" fill="#7d6eb2"/>
      <ellipse id="Elipse_11997" data-name="Elipse 11997" cx="24" cy="23.5" rx="24" ry="23.5" transform="translate(37.001 70.001)" fill="#ef5249"/>
      <ellipse id="Elipse_11998" data-name="Elipse 11998" cx="16" cy="15.5" rx="16" ry="15.5" transform="translate(45.001 78.001)" fill="#d7e6eb"/>
      <ellipse id="Elipse_11999" data-name="Elipse 11999" cx="8" cy="7.5" rx="8" ry="7.5" transform="translate(53.001 86.001)" fill="#ef5249"/>
      <path id="Trazado_881173" data-name="Trazado 881173" d="M71.627,57.8H55.9L50,51.9,55.9,46H71.627Z" transform="translate(46.372 41.543)" fill="#ffc119"/>
      <path id="Trazado_881174" data-name="Trazado 881174" d="M36.831,47.932a5.9,5.9,0,0,1,3.9,1.474l2.6-2.949a9.831,9.831,0,1,0,0,14.746l-2.6-2.949a5.9,5.9,0,1,1-3.9-10.322Z" transform="translate(24.152 39.611)" fill="#00223d"/>
      <path id="Trazado_881175" data-name="Trazado 881175" d="M53.455,52.535,57.1,51.06a17.7,17.7,0,1,0,0,13.271l-3.645-1.475a13.763,13.763,0,1,1,0-10.322Z" transform="translate(20.289 35.745)" fill="#00223d"/>
      <path id="Trazado_881176" data-name="Trazado 881176" d="M89.017,45H73.288a1.966,1.966,0,0,0-1.39.576L66.576,50.9H32v3.932H66.576L71.9,60.153a1.966,1.966,0,0,0,1.39.576H89.017a1.966,1.966,0,0,0,1.966-1.966v-11.8A1.966,1.966,0,0,0,89.017,45ZM87.051,56.8H74.1L70.17,52.864,74.1,48.932H87.051Z" transform="translate(28.982 40.577)" fill="#00223d"/>
      <path id="Trazado_881177" data-name="Trazado 881177" d="M10,37h3.932V48.8H10Z" transform="translate(7.728 32.848)" fill="#00223d"/>
      <path id="Trazado_881178" data-name="Trazado 881178" d="M108.238,81.645V66.152a9.83,9.83,0,0,0-7.446-9.535L92.509,54.55V53.276a9.019,9.019,0,0,0,3.932-7.493V34.458a11.8,11.8,0,1,0-23.593,0v2.4l-7.864-1.966V33.61a9.024,9.024,0,0,0,3.932-7.471V14.8a11.8,11.8,0,0,0-23.593,0V26.129a9.024,9.024,0,0,0,3.932,7.481v1.278L41.39,36.855v-2.4a11.8,11.8,0,1,0-23.593,0V45.783a9.019,9.019,0,0,0,3.932,7.493V54.55l-8.287,2.068A9.831,9.831,0,0,0,6,66.152V81.645H9.932V66.152A5.9,5.9,0,0,1,14.4,60.432l9.772-2.438a1.966,1.966,0,0,0,1.49-1.909V52.153a1.966,1.966,0,0,0-1.093-1.77,5.112,5.112,0,0,1-2.839-4.6V34.458a7.864,7.864,0,1,1,15.729,0V45.783a5.112,5.112,0,0,1-2.839,4.6,1.966,1.966,0,0,0-1.093,1.77v3.932a1.966,1.966,0,0,0,1.49,1.909l9.766,2.436a5.928,5.928,0,0,1,4.473,5.542l3.932-.114a9.882,9.882,0,0,0-7.444-9.241L37.458,54.55V53.276a9.019,9.019,0,0,0,3.932-7.493v-4.8c.183-.065.346-.167.535-.214L51.7,38.331a1.966,1.966,0,0,0,1.49-1.907V32.492a1.966,1.966,0,0,0-1.087-1.76,5.112,5.112,0,0,1-2.845-4.6V14.8a7.864,7.864,0,1,1,15.729,0V26.129a5.112,5.112,0,0,1-2.845,4.6,1.966,1.966,0,0,0-1.087,1.76v3.932a1.966,1.966,0,0,0,1.49,1.907l9.77,2.442c.183.045.36.112.537.175v4.835a9.019,9.019,0,0,0,3.932,7.493V54.55l-8.287,2.068a9.88,9.88,0,0,0-7.442,9.241l3.932.114a5.926,5.926,0,0,1,4.463-5.541l9.772-2.438a1.966,1.966,0,0,0,1.494-1.909V52.153a1.966,1.966,0,0,0-1.093-1.77,5.112,5.112,0,0,1-2.839-4.6V34.458a7.864,7.864,0,1,1,15.729,0V45.783a5.112,5.112,0,0,1-2.839,4.6,1.966,1.966,0,0,0-1.093,1.77v3.932a1.966,1.966,0,0,0,1.49,1.909l9.766,2.436a5.9,5.9,0,0,1,4.473,5.721V81.645Z" transform="translate(3.863 0)" fill="#00223d"/>
      <path id="Trazado_881179" data-name="Trazado 881179" d="M52,37h3.932V48.8H52Z" transform="translate(48.305 32.848)" fill="#00223d"/>
      <path id="Trazado_881180" data-name="Trazado 881180" d="M2.831,63.165,10.7,68.727a1.966,1.966,0,0,0,2.269,0l7.355-5.2h15.2a25.55,25.55,0,0,0,50.215,4.422l-3.81-.983a21.627,21.627,0,1,1,0-10.814l3.81-.983a25.55,25.55,0,0,0-50.215,4.426h-15.2l-7.355-5.2a1.966,1.966,0,0,0-2.269,0L2.831,59.956a1.966,1.966,0,0,0,0,3.209Zm9-4.75,4.459,3.146L11.83,64.706,7.37,61.56Z" transform="translate(0 31.881)" fill="#00223d"/>
    </g>
  </g>
</svg>
