<svg xmlns="http://www.w3.org/2000/svg" width="78.501" height="70.938" viewBox="0 0 78.501 70.938">
  <g id="Grupo_1102046" data-name="Grupo 1102046" transform="translate(-244 -7838.476)">
    <path id="_12068" data-name="12068" d="M72.033,71.913c-8.038-1.11-16.53-.839-23.844,2.675C38.045,79.46,31.382,90.507,31.127,101.757s5.606,22.305,14.66,28.988,21,9.051,32.068,7.045c11.165-2.023,21.645-8.583,27.469-18.322,3.735-6.245,5.48-13.956,3.417-20.934a28.6,28.6,0,0,0-6.787-11.156A50.145,50.145,0,0,0,72.033,71.913Z" transform="translate(212.881 7770.933)" fill="#26aab7"/>
    <g id="genero" transform="translate(244 7801.802)">
      <g id="Grupo_1100462" data-name="Grupo 1100462" transform="translate(1.152 37.826)">
        <g id="Grupo_1100461" data-name="Grupo 1100461">
          <path id="Trazado_877553" data-name="Trazado 877553" d="M46.406,63.633A19.447,19.447,0,1,0,22.9,82.655v9.659a.757.757,0,0,1-.757.757H20.605a4.064,4.064,0,0,0,0,8.127h1.533a.757.757,0,0,1,.757.757v3.117a4.063,4.063,0,0,0,8.126,0v-3.117a.757.757,0,0,1,.757-.757h1.533a4.064,4.064,0,0,0,0-8.127H31.779a.757.757,0,0,1-.757-.757V82.655A19.453,19.453,0,0,0,46.406,63.633ZM26.958,75.4A11.768,11.768,0,1,1,38.727,63.633,11.767,11.767,0,0,1,26.958,75.4Z" transform="translate(-7.511 -44.186)" fill="#fe7ab6"/>
        </g>
      </g>
      <g id="Grupo_1100464" data-name="Grupo 1100464" transform="translate(11.72 37.826)">
        <g id="Grupo_1100463" data-name="Grupo 1100463" transform="translate(0 0)">
          <path id="Trazado_877554" data-name="Trazado 877554" d="M85.321,44.186a19.353,19.353,0,0,0-8.879,2.142A19.452,19.452,0,0,1,91.134,82.2a19.45,19.45,0,0,0-5.814-38.01Z" transform="translate(-76.442 -44.186)" fill="#fe5ca7"/>
        </g>
      </g>
      <g id="Grupo_1100465" data-name="Grupo 1100465" transform="translate(19.026 94.912)">
        <path id="Trazado_877555" data-name="Trazado 877555" d="M127.335,416.529a.822.822,0,0,0-.757.83v2.957a4.074,4.074,0,0,1-2.487,3.747,4.065,4.065,0,0,0,5.637-3.747V417.2a.756.756,0,0,1,.4-.67C129.7,416.5,127.335,416.529,127.335,416.529Z" transform="translate(-124.09 -416.515)" fill="#fe5ca7"/>
      </g>
      <g id="Grupo_1100466" data-name="Grupo 1100466" transform="translate(21.513 76.245)">
        <path id="Trazado_877556" data-name="Trazado 877556" d="M148.627,306.424a4.047,4.047,0,0,0-2.873-1.191h-1.533a.758.758,0,0,1-.757-.757v-9.709s-.574.07-1.292.116a1.987,1.987,0,0,0-1.857,1.984v10.22a.755.755,0,0,0,.75.757c.635,0,1.269-.026,1.9-.026a17.632,17.632,0,0,1,1.871.02,2.5,2.5,0,0,1,2.339,3.154,3.109,3.109,0,0,1-1.579,2.254,2.041,2.041,0,0,1-.307.114h.381a4.117,4.117,0,0,0,4.145-3.971,4.049,4.049,0,0,0-1.19-2.965Z" transform="translate(-140.314 -294.767)" fill="#fe5ca7"/>
      </g>
      <g id="Grupo_1100467" data-name="Grupo 1100467" transform="translate(38.455 38.853)">
        <path id="Trazado_877557" data-name="Trazado 877557" d="M274.319,76.343v-11.2a4.063,4.063,0,0,0,4.5-6.6L271.8,51.528a2.178,2.178,0,0,0-3.083,0L261.7,58.546a4.063,4.063,0,0,0,4.5,6.6v11.2a19.448,19.448,0,1,0,8.126,0Zm-4.062,30.789a11.768,11.768,0,1,1,11.767-11.767A11.767,11.767,0,0,1,270.257,107.132Z" transform="translate(-250.81 -50.888)" fill="#7d6eb2"/>
      </g>
      <g id="Grupo_1100468" data-name="Grupo 1100468" transform="translate(55.772 38.853)">
        <path id="Trazado_877558" data-name="Trazado 877558" d="M367.939,56.026c-1.331-1.332-2.85-2.581-4.181-3.912l.587-.586a2.178,2.178,0,0,1,3.083,0l7.018,7.018a4.063,4.063,0,0,1-4.5,6.6V76.3q-.665-.089-1.351-.135a1.835,1.835,0,0,1-1.721-1.826V64.7a1.9,1.9,0,0,1,1.64-1.893,2.984,2.984,0,0,0,2.434-3.272c-.1-.856-.874-1.339-1.477-1.935C368.962,57.091,368.452,56.538,367.939,56.026Z" transform="translate(-363.758 -50.888)" fill="#62529b"/>
      </g>
      <g id="Grupo_1100469" data-name="Grupo 1100469" transform="translate(48.642 64.993)">
        <path id="Trazado_877559" data-name="Trazado 877559" d="M333,221.379a19.452,19.452,0,0,1-15.749,35.442A19.451,19.451,0,1,0,333,221.379Z" transform="translate(-317.255 -221.379)" fill="#62529b"/>
      </g>
      <g id="Grupo_1100470" data-name="Grupo 1100470" transform="translate(0 36.674)">
        <path id="Trazado_877560" data-name="Trazado 877560" d="M20.6,36.674a20.6,20.6,0,0,0-5.215,40.531v8.354H14.246a5.215,5.215,0,1,0,0,10.431h1.139v2.723a5.215,5.215,0,1,0,10.431,0V95.99h1.139a5.215,5.215,0,1,0,0-10.431H25.815V84.205a1.152,1.152,0,0,0-2.3,0v1.749a1.912,1.912,0,0,0,1.91,1.91h1.534a2.911,2.911,0,1,1,0,5.822H25.42a1.912,1.912,0,0,0-1.91,1.91v3.118a2.911,2.911,0,0,1-5.822,0V95.6a1.912,1.912,0,0,0-1.91-1.91H14.246a2.911,2.911,0,1,1,0-5.822h1.534a1.912,1.912,0,0,0,1.91-1.91v-9.66a1.152,1.152,0,0,0-.913-1.127,18.289,18.289,0,1,1,7.647,0,1.152,1.152,0,0,0-.913,1.127v2.662a1.152,1.152,0,0,0,2.3,0V77.205A20.6,20.6,0,0,0,20.6,36.674Z" transform="translate(0 -36.674)"/>
        <path id="Trazado_877561" data-name="Trazado 877561" d="M75.927,99.681a12.92,12.92,0,1,0-12.92,12.92A12.935,12.935,0,0,0,75.927,99.681ZM63.007,110.3A10.616,10.616,0,1,1,73.623,99.681,10.628,10.628,0,0,1,63.007,110.3Z" transform="translate(-42.408 -79.082)"/>
        <path id="Trazado_877562" data-name="Trazado 877562" d="M293.378,269.623A12.92,12.92,0,1,0,306.3,256.7,12.935,12.935,0,0,0,293.378,269.623Zm12.92-10.616a10.616,10.616,0,1,1-10.616,10.616A10.628,10.628,0,0,1,306.3,259.008Z" transform="translate(-248.397 -222.968)"/>
        <path id="Trazado_877563" data-name="Trazado 877563" d="M279.831,75.957A20.687,20.687,0,0,0,269.1,69.07V60.254a5.219,5.219,0,0,0,4.16-8.885l-7.018-7.018a3.334,3.334,0,0,0-4.714,0L259.786,46.1a1.152,1.152,0,0,0,1.63,1.63l1.745-1.745a1.029,1.029,0,0,1,1.455,0L271.634,53a2.911,2.911,0,0,1-3.222,4.726A1.152,1.152,0,0,0,266.8,58.78v11.2a1.152,1.152,0,0,0,.913,1.127,18.289,18.289,0,1,1-7.647,0,1.152,1.152,0,0,0,.913-1.127V58.78a1.152,1.152,0,0,0-1.613-1.056A2.911,2.911,0,0,1,256.143,53l1.547-1.547a1.152,1.152,0,0,0-1.63-1.63l-1.547,1.547a5.219,5.219,0,0,0,4.16,8.885V69.07a20.6,20.6,0,1,0,21.158,6.887Z" transform="translate(-205.988 -42.347)"/>
      </g>
    </g>
  </g>
</svg>
