<svg xmlns="http://www.w3.org/2000/svg" width="78.501" height="74.271" viewBox="0 0 78.501 74.271">
  <g id="Grupo_1102011" data-name="Grupo 1102011" transform="translate(-848 -14055.602)">
    <g id="Grupo_1102000" data-name="Grupo 1102000">
      <path id="_12068" data-name="12068" d="M72.033,71.913c-8.038-1.11-16.53-.839-23.844,2.675C38.045,79.46,31.382,90.507,31.127,101.757s5.606,22.305,14.66,28.988,21,9.051,32.068,7.045c11.165-2.023,21.645-8.583,27.469-18.322,3.735-6.245,5.48-13.956,3.417-20.934a28.6,28.6,0,0,0-6.787-11.156A50.145,50.145,0,0,0,72.033,71.913Z" transform="translate(816.881 13991.391)" fill="#26aab7"/>
      <g id="visitante" transform="translate(853.052 14054.602)">
        <g id="Grupo_1101998" data-name="Grupo 1101998" transform="translate(2.071 2.071)">
          <g id="Grupo_1101970" data-name="Grupo 1101970" transform="translate(3.213 12.851)">
            <path id="Trazado_881204" data-name="Trazado 881204" d="M43.554,40.506a7.24,7.24,0,0,0-7.229-7.229H31.506a7.226,7.226,0,0,0-7.229,7.229,7.24,7.24,0,0,0-7.229-7.229H12.229A7.226,7.226,0,0,0,5,40.506V14H62.831V41.845a4.262,4.262,0,0,0-3.224-4.134c0-.054.011-.1.011-.15a4.263,4.263,0,0,0-6.426-3.695,4.25,4.25,0,0,0-6.308,2.742,4.267,4.267,0,0,0-3.32,3.9Z" transform="translate(-5 -14)" fill="#e6e9ed"/>
          </g>
          <g id="Grupo_1101971" data-name="Grupo 1101971" transform="translate(26.774 17.135)">
            <path id="Trazado_881205" data-name="Trazado 881205" d="M27,18H37.709V28.709H27Z" transform="translate(-27 -18)" fill="#aee6e6"/>
          </g>
          <g id="Grupo_1101972" data-name="Grupo 1101972" transform="translate(46.051 17.135)">
            <path id="Trazado_881206" data-name="Trazado 881206" d="M45,18H55.709V28.709H45Z" transform="translate(-45 -18)" fill="#7d6eb2"/>
          </g>
          <g id="Grupo_1101973" data-name="Grupo 1101973" transform="translate(7.497 17.135)">
            <path id="Trazado_881207" data-name="Trazado 881207" d="M9,18H19.709V28.709H9Z" transform="translate(-9 -18)" fill="#ff826e"/>
          </g>
          <g id="Grupo_1101974" data-name="Grupo 1101974" transform="translate(3.213)">
            <path id="Trazado_881208" data-name="Trazado 881208" d="M62.831,4.142V14.851H5V4.142A2.148,2.148,0,0,1,7.142,2H60.689A2.148,2.148,0,0,1,62.831,4.142Z" transform="translate(-5 -2)" fill="#ffd947"/>
          </g>
          <g id="Grupo_1101975" data-name="Grupo 1101975" transform="translate(41.767 53.547)">
            <path id="Trazado_881209" data-name="Trazado 881209" d="M55.115,52.278A10.682,10.682,0,0,1,63.49,62.709H43.142V60.568A8.157,8.157,0,0,0,41,55.02a8.192,8.192,0,0,1,4.091-2.442L47.426,52a3.213,3.213,0,0,0,6.426,0Z" transform="translate(-41 -52)" fill="#ff826e"/>
          </g>
          <g id="Grupo_1101976" data-name="Grupo 1101976" transform="translate(0 53.547)">
            <path id="Trazado_881210" data-name="Trazado 881210" d="M24.49,55.02a8.225,8.225,0,0,0-2.142,5.526v2.163H2a10.679,10.679,0,0,1,8.375-10.431L11.638,52l3.213,3.213L18.064,52s1.017.257,2.345.589a8.189,8.189,0,0,1,4.08,2.431Z" transform="translate(-2 -52)" fill="#ff826e"/>
          </g>
          <g id="Grupo_1101977" data-name="Grupo 1101977" transform="translate(20.348 54.04)">
            <path id="Trazado_881211" data-name="Trazado 881211" d="M37.064,60.535l.9-8.075c.118.032.246.064.375.1a8.2,8.2,0,0,1,6.222,7.979v2.142H21V60.513a8.225,8.225,0,0,1,2.142-5.526,8.132,8.132,0,0,1,4.091-2.442l.364-.086.9,8.075,4.284-4.284Z" transform="translate(-21 -52.46)" fill="#4fc1e9"/>
          </g>
          <g id="Grupo_1101978" data-name="Grupo 1101978" transform="translate(32.128 53.547)">
            <path id="Trazado_881212" data-name="Trazado 881212" d="M37.183,52.493l-.9,8.075L32,56.284,35.213,52S36.037,52.214,37.183,52.493Z" transform="translate(-32 -52)" fill="#3bafda"/>
          </g>
          <g id="Grupo_1101979" data-name="Grupo 1101979" transform="translate(26.945 53.547)">
            <path id="Trazado_881213" data-name="Trazado 881213" d="M29.131,52l3.213,4.284L28.06,60.568l-.9-8.075Z" transform="translate(-27.16 -52)" fill="#3bafda"/>
          </g>
          <g id="Grupo_1101980" data-name="Grupo 1101980" transform="translate(41.221 32.128)">
            <path id="Trazado_881214" data-name="Trazado 881214" d="M44.249,40.568a3.209,3.209,0,0,0-3.213,3.213,3.206,3.206,0,0,0-.546-1.788v-.011a7.251,7.251,0,0,0,.546-2.752h.011a4.267,4.267,0,0,1,3.32-3.9,4.25,4.25,0,0,1,6.308-2.742A4.263,4.263,0,0,1,57.1,36.284c0,.054-.011.1-.011.15A4.274,4.274,0,0,1,59.949,42.3,3.2,3.2,0,0,0,57.1,40.568H56.029a18.133,18.133,0,0,1-8.118-1.917l-.086-.043a1.733,1.733,0,0,0-2.506,1.553v.407Z" transform="translate(-40.49 -32)" fill="#656d78"/>
          </g>
          <g id="Grupo_1101981" data-name="Grupo 1101981" transform="translate(3.213 32.128)">
            <path id="Trazado_881215" data-name="Trazado 881215" d="M24.277,39.229a7.251,7.251,0,0,1-.546,2.752,3.3,3.3,0,0,0-.4-.471,3.205,3.205,0,0,0-2.27-.942H19.993a2.148,2.148,0,0,0-2.142-2.142H11.426a2.148,2.148,0,0,0-2.142,2.142H8.213a3.2,3.2,0,0,0-2.667,1.414A7.225,7.225,0,0,1,12.229,32h4.819a7.24,7.24,0,0,1,7.229,7.229Z" transform="translate(-5 -32)" fill="#656d78"/>
          </g>
          <g id="Grupo_1101982" data-name="Grupo 1101982" transform="translate(22.49 32.128)">
            <path id="Trazado_881216" data-name="Trazado 881216" d="M41.731,41.981a3.2,3.2,0,0,0-2.667-1.414H37.993l-8.343-2.088a2.167,2.167,0,0,0-.461-.054,1.911,1.911,0,0,0-1.906,1.906v.236H26.213a3.2,3.2,0,0,0-2.667,1.414A7.225,7.225,0,0,1,30.229,32h4.819a7.225,7.225,0,0,1,6.683,9.981Z" transform="translate(-23 -32)" fill="#b27946"/>
          </g>
          <g id="Grupo_1101983" data-name="Grupo 1101983" transform="translate(56.76 40.696)">
            <path id="Trazado_881217" data-name="Trazado 881217" d="M56.071,40a3.2,3.2,0,0,1,2.849,1.735,3.113,3.113,0,0,1,.364,1.478,3.218,3.218,0,0,1-3.213,3.213H55V40Z" transform="translate(-55 -40)" fill="#f0d0b4"/>
          </g>
          <g id="Grupo_1101984" data-name="Grupo 1101984" transform="translate(48.192 51.116)">
            <path id="Trazado_881218" data-name="Trazado 881218" d="M53.426,52.161a3.213,3.213,0,0,1-6.426,0l.61-2.42V49.73a4.019,4.019,0,0,0,1.531.289h2.142a4.058,4.058,0,0,0,1.531-.289Z" transform="translate(-47 -49.73)" fill="#f0d0b4"/>
          </g>
          <g id="Grupo_1101985" data-name="Grupo 1101985" transform="translate(46.051 38.554)">
            <path id="Trazado_881219" data-name="Trazado 881219" d="M55.709,40.142v6.426a4.265,4.265,0,0,1-2.752,3.995,4.058,4.058,0,0,1-1.531.289H49.284a4.019,4.019,0,0,1-1.531-.289A4.265,4.265,0,0,1,45,46.568V39.735a1.733,1.733,0,0,1,2.506-1.553l.086.043A18.133,18.133,0,0,0,55.709,40.142Z" transform="translate(-45 -38)" fill="#f0d0b4"/>
          </g>
          <g id="Grupo_1101986" data-name="Grupo 1101986" transform="translate(41.767 40.696)">
            <path id="Trazado_881220" data-name="Trazado 881220" d="M45.284,40v6.426H44.213a3.213,3.213,0,0,1,0-6.426Z" transform="translate(-41 -40)" fill="#f0d0b4"/>
          </g>
          <g id="Grupo_1101987" data-name="Grupo 1101987" transform="translate(37.483 40.696)">
            <path id="Trazado_881221" data-name="Trazado 881221" d="M38.071,40a3.2,3.2,0,0,1,2.667,1.414v.011a3.213,3.213,0,0,1-2.667,5H37V40Z" transform="translate(-37 -40)" fill="#f0d0b4"/>
          </g>
          <g id="Grupo_1101988" data-name="Grupo 1101988" transform="translate(28.915 51.116)">
            <path id="Trazado_881222" data-name="Trazado 881222" d="M33.284,50.019a4.058,4.058,0,0,0,1.531-.289v.011l.61,2.42-3.213,4.284L29,52.161l.61-2.42V49.73a4.019,4.019,0,0,0,1.531.289Z" transform="translate(-29 -49.73)" fill="#f0d0b4"/>
          </g>
          <g id="Grupo_1101989" data-name="Grupo 1101989" transform="translate(26.774 38.554)">
            <path id="Trazado_881223" data-name="Trazado 881223" d="M37.709,40.142v6.426a4.265,4.265,0,0,1-2.752,3.995,4.058,4.058,0,0,1-1.531.289H31.284a4.019,4.019,0,0,1-1.531-.289A4.265,4.265,0,0,1,27,46.568V39.906A1.91,1.91,0,0,1,28.906,38a2.167,2.167,0,0,1,.461.054Z" transform="translate(-27 -38)" fill="#f0d0b4"/>
          </g>
          <g id="Grupo_1101990" data-name="Grupo 1101990" transform="translate(22.49 40.696)">
            <path id="Trazado_881224" data-name="Trazado 881224" d="M23.546,41.424v-.011A3.2,3.2,0,0,1,26.213,40h1.071v6.426H26.213a3.21,3.21,0,0,1-2.667-5Z" transform="translate(-23 -40)" fill="#f0d0b4"/>
          </g>
          <g id="Grupo_1101991" data-name="Grupo 1101991" transform="translate(18.206 40.696)">
            <path id="Trazado_881225" data-name="Trazado 881225" d="M22.738,41.424a5.344,5.344,0,0,1,.546,1.788,3.209,3.209,0,0,1-3.213,3.213H19V40h1.071a3.205,3.205,0,0,1,2.27.942,3.3,3.3,0,0,1,.4.471Z" transform="translate(-19 -40)" fill="#f0d0b4"/>
          </g>
          <g id="Grupo_1101992" data-name="Grupo 1101992" transform="translate(9.638 51.116)">
            <path id="Trazado_881226" data-name="Trazado 881226" d="M15.284,50.019a4.058,4.058,0,0,0,1.531-.289l.61,2.431-3.213,3.213L11,52.161l.61-2.431a4.019,4.019,0,0,0,1.531.289Z" transform="translate(-11 -49.73)" fill="#f0d0b4"/>
          </g>
          <g id="Grupo_1101993" data-name="Grupo 1101993" transform="translate(7.497 38.554)">
            <path id="Trazado_881227" data-name="Trazado 881227" d="M19.709,40.142v6.426a4.265,4.265,0,0,1-2.752,3.995,4.058,4.058,0,0,1-1.531.289H13.284a4.019,4.019,0,0,1-1.531-.289A4.265,4.265,0,0,1,9,46.568V40.142A2.148,2.148,0,0,1,11.142,38h6.426A2.148,2.148,0,0,1,19.709,40.142Z" transform="translate(-9 -38)" fill="#f0d0b4"/>
          </g>
          <g id="Grupo_1101994" data-name="Grupo 1101994" transform="translate(3.213 40.696)">
            <path id="Trazado_881228" data-name="Trazado 881228" d="M9.284,40v6.426H8.213a3.21,3.21,0,0,1-2.667-5v-.011A3.2,3.2,0,0,1,8.213,40H9.284Z" transform="translate(-5 -40)" fill="#f0d0b4"/>
          </g>
          <g id="Grupo_1101995" data-name="Grupo 1101995" transform="translate(24.632 4.284)">
            <path id="Trazado_881229" data-name="Trazado 881229" d="M25,6h4.284v4.284H25Z" transform="translate(-25 -6)" fill="#e6e9ed"/>
          </g>
          <g id="Grupo_1101996" data-name="Grupo 1101996" transform="translate(16.064 4.284)">
            <path id="Trazado_881230" data-name="Trazado 881230" d="M17,6h4.284v4.284H17Z" transform="translate(-17 -6)" fill="#e6e9ed"/>
          </g>
          <g id="Grupo_1101997" data-name="Grupo 1101997" transform="translate(7.497 4.284)">
            <path id="Trazado_881231" data-name="Trazado 881231" d="M9,6h4.284v4.284H9Z" transform="translate(-9 -6)" fill="#e6e9ed"/>
          </g>
        </g>
        <g id="Grupo_1101999" data-name="Grupo 1101999" transform="translate(1 1)">
          <path id="Trazado_881232" data-name="Trazado 881232" d="M58.183,54.851l-.615-.136-.242-.968a5.358,5.358,0,0,0,2.469-3.484H59.9a4.288,4.288,0,0,0,4.284-4.284V4.213A3.217,3.217,0,0,0,60.973,1H7.426A3.217,3.217,0,0,0,4.213,4.213V45.98A4.288,4.288,0,0,0,8.5,50.263H8.6a5.349,5.349,0,0,0,2.469,3.484l-.242.968-.615.136A11.828,11.828,0,0,0,1,66.327V67.4H67.4V66.327a11.828,11.828,0,0,0-9.215-11.476Zm-2.575.861a2.134,2.134,0,0,1-4.264,0l.311-1.24a5.259,5.259,0,0,0,.751.076h2.142a5.29,5.29,0,0,0,.752-.076Zm-10.7,9.544H39.441l.859-7.738a7.112,7.112,0,0,1,4.608,6.667ZM18.771,53.747a5.354,5.354,0,0,0,2.469-3.484h.108a4.257,4.257,0,0,0,3.213-1.48,4.257,4.257,0,0,0,3.213,1.48h.108a5.349,5.349,0,0,0,2.469,3.484l-.246.987-1.715.425a9.273,9.273,0,0,0-3.839,2,9.234,9.234,0,0,0-3.8-1.991l-1.726-.433Zm2.577-9.909a2.142,2.142,0,0,1,0,4.284Zm25.7,4.284a2.142,2.142,0,0,1,0-4.284Zm-6.426-4.284a2.142,2.142,0,1,1,0,4.284Zm2.063-1.589a4.226,4.226,0,0,0-2.063-.553h-.94l-8.212-2.054A2.964,2.964,0,0,0,27.909,41.7h-.135a4.227,4.227,0,0,0-2.063.553,6.285,6.285,0,0,1-.079-.816,6.169,6.169,0,0,1,6.162-6.162H36.6a6.169,6.169,0,0,1,6.162,6.162,6.284,6.284,0,0,1-.079.816ZM37.841,56.829l.371.093-.548,4.93L35.612,59.8Zm-1.592-1.446L34.2,58.118l-2.05-2.733.228-.912a5.418,5.418,0,0,0,.751.075H35.27a5.259,5.259,0,0,0,.751-.076Zm-5.693,1.445,2.23,2.973-2.052,2.051-.548-4.932Zm4.714-4.423H33.128a3.217,3.217,0,0,1-3.213-3.213v-6.66a.838.838,0,0,1,.836-.836.9.9,0,0,1,.2.024L38.483,43.6v5.59a3.217,3.217,0,0,1-3.213,3.213Zm-7.5-4.284a2.142,2.142,0,1,1,0-4.284Zm.323,9.393.86,7.742H23.49V64.167A7.11,7.11,0,0,1,28.1,57.515Zm6.1,3.9,3.84,3.84H30.36Zm9.645-4.257a9.268,9.268,0,0,0-3.822-1.991L38.3,54.736l-.247-.987a5.354,5.354,0,0,0,2.469-3.484h.108a4.257,4.257,0,0,0,3.213-1.48,4.26,4.26,0,0,0,3.213,1.479h.108a5.349,5.349,0,0,0,2.469,3.484l-.246.986-1.715.425a9.257,9.257,0,0,0-3.822,2ZM57.76,49.192a3.217,3.217,0,0,1-3.213,3.213H52.405a3.217,3.217,0,0,1-3.213-3.213V42.358a.662.662,0,0,1,.662-.662.814.814,0,0,1,.382.112,19.311,19.311,0,0,0,7.523,2ZM51.108,39.85a2.833,2.833,0,0,0-1.254-.3A2.8,2.8,0,0,0,47.138,41.7h-.088a4.241,4.241,0,0,0-2.192.623c.022-.207.031-.414.037-.623h.013a3.193,3.193,0,0,1,2.5-3.125l.655-.15.15-.655a3.19,3.19,0,0,1,3.124-2.5,3.156,3.156,0,0,1,1.6.449l.539.314.539-.314a3.156,3.156,0,0,1,1.6-.449,3.207,3.207,0,0,1,3.216,3.139l-.045,1.046.833.212A3.206,3.206,0,0,1,62,42.269a4.223,4.223,0,0,0-2.1-.573H58.831a17.253,17.253,0,0,1-7.723-1.846ZM59.9,48.121V43.838a2.142,2.142,0,1,1,0,4.284ZM7.426,3.142H60.973a1.072,1.072,0,0,1,1.071,1.071v9.638H6.355V4.213A1.072,1.072,0,0,1,7.426,3.142ZM6.355,15.993H62.044V38.512a5.327,5.327,0,0,0-1.107-.654,5.362,5.362,0,0,0-5.318-4.729,5.189,5.189,0,0,0-2.142.463,5.189,5.189,0,0,0-2.142-.463,5.318,5.318,0,0,0-5.03,3.537,5.314,5.314,0,0,0-2.114,1.4A8.314,8.314,0,0,0,36.6,33.128H31.794a8.306,8.306,0,0,0-7.233,4.239,8.306,8.306,0,0,0-7.233-4.239H12.517a8.273,8.273,0,0,0-6.162,2.758Zm0,29.986A2.144,2.144,0,0,1,8.5,43.838v4.284A2.144,2.144,0,0,1,6.355,45.98ZM8.694,41.7H8.5a4.226,4.226,0,0,0-2.063.553,6.285,6.285,0,0,1-.079-.816,6.169,6.169,0,0,1,6.162-6.162h4.811a6.169,6.169,0,0,1,6.162,6.162,6.285,6.285,0,0,1-.079.816,4.226,4.226,0,0,0-2.063-.553h-.2a3.208,3.208,0,0,0-3.016-2.142H11.709A3.208,3.208,0,0,0,8.694,41.7Zm1.945,1.071A1.072,1.072,0,0,1,11.709,41.7h6.426a1.072,1.072,0,0,1,1.071,1.071v6.426a3.217,3.217,0,0,1-3.213,3.213H13.851a3.217,3.217,0,0,1-3.213-3.213Zm3.213,11.78h2.142a5.259,5.259,0,0,0,.751-.076l.2.818-2.026,2.027-2.027-2.027.2-.818A5.29,5.29,0,0,0,13.851,54.547Zm-3.173,2.4.69-.152,3.554,3.554L18.463,56.8l1.761.441a7.124,7.124,0,0,1,2.884,1.491,9.256,9.256,0,0,0-1.76,5.431v1.089H3.2a9.682,9.682,0,0,1,7.475-8.314Zm36.372,8.314V64.188a9.261,9.261,0,0,0-1.764-5.453,7.092,7.092,0,0,1,2.9-1.5l1.237-.307a4.255,4.255,0,0,0,8.122-.029l.179.04A9.68,9.68,0,0,1,65.2,65.257Z" transform="translate(-1 -1)" fill="#00223d"/>
          <path id="Trazado_881233" data-name="Trazado 881233" d="M14.426,5H8v6.426h6.426ZM12.284,9.284H10.142V7.142h2.142Z" transform="translate(-0.503 -0.716)" fill="#00223d"/>
          <path id="Trazado_881234" data-name="Trazado 881234" d="M22.426,5H16v6.426h6.426ZM20.284,9.284H18.142V7.142h2.142Z" transform="translate(0.064 -0.716)" fill="#00223d"/>
          <path id="Trazado_881235" data-name="Trazado 881235" d="M30.426,5H24v6.426h6.426ZM28.284,9.284H26.142V7.142h2.142Z" transform="translate(0.632 -0.716)" fill="#00223d"/>
          <path id="Trazado_881236" data-name="Trazado 881236" d="M56.851,17H44V29.851H56.851ZM54.709,27.709H46.142V19.142h8.568Z" transform="translate(2.051 0.135)" fill="#00223d"/>
          <path id="Trazado_881237" data-name="Trazado 881237" d="M38.851,17H26V29.851H38.851ZM36.709,27.709H28.142V19.142h8.568Z" transform="translate(0.774 0.135)" fill="#00223d"/>
          <path id="Trazado_881238" data-name="Trazado 881238" d="M20.851,17H8V29.851H20.851ZM18.709,27.709H10.142V19.142h8.568Z" transform="translate(-0.503 0.135)" fill="#00223d"/>
        </g>
      </g>
    </g>
  </g>
</svg>
