<svg xmlns="http://www.w3.org/2000/svg" width="78.501" height="73.271" viewBox="0 0 78.501 73.271">
  <g id="Grupo_1101892" data-name="Grupo 1101892" transform="translate(-918 -7908.366)">
    <path id="_12068" data-name="12068" d="M72.033,71.913c-8.038-1.11-16.53-.839-23.844,2.675C38.045,79.46,31.382,90.507,31.127,101.757s5.606,22.305,14.66,28.988,21,9.051,32.068,7.045c11.165-2.023,21.645-8.583,27.469-18.322,3.735-6.245,5.48-13.956,3.417-20.934a28.6,28.6,0,0,0-6.787-11.156A50.145,50.145,0,0,0,72.033,71.913Z" transform="translate(886.881 7843.155)" fill="#26aab7"/>
    <g id="_x39_36-Budget_x2C__Business_x2C__Process" transform="translate(904 7868.366)">
      <path id="Trazado_880526" data-name="Trazado 880526" d="M21.5,0A21.5,21.5,0,1,1,0,21.5,21.5,21.5,0,0,1,21.5,0Z" transform="translate(32.559 49.721)" fill="#ffd947"/>
      <g id="Grupo_1101891" data-name="Grupo 1101891" transform="translate(21.486 41.419)">
        <path id="Trazado_880499" data-name="Trazado 880499" d="M452.129,430A2.129,2.129,0,1,1,450,432.129,2.129,2.129,0,0,1,452.129,430Z" transform="translate(-390.465 -376.074)" fill="#d94556"/>
        <circle id="Elipse_11857" data-name="Elipse 11857" cx="4.087" cy="4.087" r="4.087" transform="translate(0 52.78)" fill="#d94556"/>
        <path id="Trazado_880500" data-name="Trazado 880500" d="M432.838,50A2.838,2.838,0,1,1,430,52.838,2.837,2.837,0,0,1,432.838,50Z" transform="translate(-373.303 -50)" fill="#d94556"/>
      </g>
      <path id="Trazado_880501" data-name="Trazado 880501" d="M182.772,170A12.772,12.772,0,1,1,170,182.772,12.771,12.771,0,0,1,182.772,170Z" transform="translate(-128.713 -111.552)" fill="#faa71a"/>
      <path id="Trazado_880502" data-name="Trazado 880502" d="M462.422,130.416a1.418,1.418,0,1,1-1-.416A1.415,1.415,0,0,1,462.422,130.416Z" transform="translate(-377.559 -77.228)" fill="#00223d"/>
      <path id="Trazado_880503" data-name="Trazado 880503" d="M392.422,450.416a1.418,1.418,0,1,1-1-.416A1.415,1.415,0,0,1,392.422,450.416Z" transform="translate(-317.493 -351.817)" fill="#00223d"/>
      <path id="Trazado_880504" data-name="Trazado 880504" d="M372.422,250.416a1.419,1.419,0,1,1-1-.416A1.415,1.415,0,0,1,372.422,250.416Z" transform="translate(-300.331 -180.199)" fill="#00223d"/>
      <path id="Trazado_880505" data-name="Trazado 880505" d="M337.278,165.566a1.418,1.418,0,1,1-1-.416A1.409,1.409,0,0,1,337.278,165.566Z" transform="translate(-270.175 -107.39)" fill="#00223d"/>
      <path id="Trazado_880506" data-name="Trazado 880506" d="M337.282,335.27a1.418,1.418,0,1,1-2.006,0A1.414,1.414,0,0,1,337.282,335.27Z" transform="translate(-270.179 -253.012)" fill="#00223d"/>
      <path id="Trazado_880507" data-name="Trazado 880507" d="M230.844,205.2a4.38,4.38,0,0,1-.406,1.97,3.757,3.757,0,0,1-1.087,1.331,4.844,4.844,0,0,1-1.564.782,7.629,7.629,0,0,1-1.858.3v2.356h-1.4v-2.376a12.446,12.446,0,0,1-2.773-.569,10.008,10.008,0,0,1-2.466-1.178l1.462-2.9a2.2,2.2,0,0,0,.437.335,7.151,7.151,0,0,0,.9.488,12.537,12.537,0,0,0,1.239.487,7.75,7.75,0,0,0,1.421.335v-2.7l-.975-.284a12.056,12.056,0,0,1-1.726-.66,4.547,4.547,0,0,1-1.208-.823,2.956,2.956,0,0,1-.711-1.076,3.95,3.95,0,0,1-.234-1.422,4.581,4.581,0,0,1,.366-1.879,4.344,4.344,0,0,1,.985-1.411,4.5,4.5,0,0,1,1.462-.924,6.846,6.846,0,0,1,1.818-.437v-2.051h1.4v2.051a8.741,8.741,0,0,1,2.478.589,16.581,16.581,0,0,1,2.009.955l-1.46,2.76a1.625,1.625,0,0,0-.356-.264,7.29,7.29,0,0,0-.751-.4,10.893,10.893,0,0,0-1.016-.406,6.124,6.124,0,0,0-1.127-.274v2.762l.65.163a17.242,17.242,0,0,1,1.868.619,5,5,0,0,1,1.412.833,3.387,3.387,0,0,1,.893,1.208A4.192,4.192,0,0,1,230.844,205.2Zm-3.573.325a.947.947,0,0,0-.426-.823,4.778,4.778,0,0,0-1.138-.538V206.6Q227.272,206.537,227.271,205.521Zm-2.517-5.139v-2.5q-1.422.121-1.422,1.176a.988.988,0,0,0,.355.8A3.175,3.175,0,0,0,224.754,200.382Z" transform="translate(-171.009 -131.194)" fill="#00223d"/>
      <path id="Trazado_880508" data-name="Trazado 880508" d="M252.422,130.416a1.418,1.418,0,1,1-1-.416A1.415,1.415,0,0,1,252.422,130.416Z" transform="translate(-197.361 -77.228)" fill="#00223d"/>
      <path id="Trazado_880509" data-name="Trazado 880509" d="M252.422,370.416a1.418,1.418,0,1,1-1-.416A1.415,1.415,0,0,1,252.422,370.416Z" transform="translate(-197.361 -283.169)" fill="#00223d"/>
      <path id="Trazado_880510" data-name="Trazado 880510" d="M167.572,165.564a1.419,1.419,0,1,1-2.007,0A1.414,1.414,0,0,1,167.572,165.564Z" transform="translate(-124.552 -107.388)" fill="#00223d"/>
      <path id="Trazado_880511" data-name="Trazado 880511" d="M167.57,335.273a1.422,1.422,0,1,1-1-.415A1.418,1.418,0,0,1,167.57,335.273Z" transform="translate(-124.549 -253.015)" fill="#00223d"/>
      <path id="Trazado_880512" data-name="Trazado 880512" d="M142.422,460.416a1.418,1.418,0,1,1-1-.416A1.415,1.415,0,0,1,142.422,460.416Z" transform="translate(-102.971 -360.398)" fill="#00223d"/>
      <path id="Trazado_880513" data-name="Trazado 880513" d="M132.422,250.416a1.419,1.419,0,1,1-1-.416A1.415,1.415,0,0,1,132.422,250.416Z" transform="translate(-94.39 -180.199)" fill="#00223d"/>
      <path id="Trazado_880514" data-name="Trazado 880514" d="M92.422,40.416a1.418,1.418,0,1,1-1-.416A1.415,1.415,0,0,1,92.422,40.416Z" transform="translate(-60.066)" fill="#00223d"/>
      <path id="Trazado_880515" data-name="Trazado 880515" d="M42.422,80.416a1.418,1.418,0,1,1-1-.416A1.415,1.415,0,0,1,42.422,80.416Z" transform="translate(-17.162 -34.324)" fill="#00223d"/>
      <path id="Trazado_880516" data-name="Trazado 880516" d="M32.422,350.416a1.418,1.418,0,1,1-1-.416A1.415,1.415,0,0,1,32.422,350.416Z" transform="translate(-8.581 -266.008)" fill="#00223d"/>
      <path id="Trazado_880517" data-name="Trazado 880517" d="M174.191,188.382a14.191,14.191,0,1,1,14.191-14.191A14.207,14.207,0,0,1,174.191,188.382Zm0-25.544a11.353,11.353,0,1,0,11.353,11.353A11.366,11.366,0,0,0,174.191,162.838Z" transform="translate(-120.133 -102.971)" fill="#00223d"/>
      <path id="Trazado_880518" data-name="Trazado 880518" d="M196.575,101.275a1.419,1.419,0,0,1-1-2.423A26.968,26.968,0,0,0,164.736,55.52a1.419,1.419,0,0,1-1.239-2.554,29.805,29.805,0,0,1,34.081,47.893,1.415,1.415,0,0,1-1,.416Z" transform="translate(-122.447 -8.567)" fill="#00223d"/>
      <path id="Trazado_880519" data-name="Trazado 880519" d="M79.832,159.869A29.8,29.8,0,0,1,58.727,109,1.419,1.419,0,0,1,60.734,111,26.967,26.967,0,0,0,93.28,153.427a1.419,1.419,0,0,1,1.42,2.457,29.67,29.67,0,0,1-14.868,3.984Z" transform="translate(-25.741 -58.848)" fill="#00223d"/>
      <path id="Trazado_880520" data-name="Trazado 880520" d="M396.854,369.991h-4.015a1.419,1.419,0,0,1-1.419-1.419v-4.013a1.419,1.419,0,0,1,2.838,0v2.594h2.6a1.419,1.419,0,0,1,0,2.838Z" transform="translate(-318.712 -277.283)" fill="#00223d"/>
      <path id="Trazado_880521" data-name="Trazado 880521" d="M85.724,115.431a1.419,1.419,0,0,1-1.419-1.419v-2.594h-2.6a1.419,1.419,0,1,1,0-2.838h4.015A1.419,1.419,0,0,1,87.143,110v4.013A1.419,1.419,0,0,1,85.724,115.431Z" transform="translate(-51.734 -58.848)" fill="#00223d"/>
      <path id="Trazado_880522" data-name="Trazado 880522" d="M424.257,48.515a4.257,4.257,0,1,1,4.257-4.257A4.262,4.262,0,0,1,424.257,48.515Zm0-5.676a1.419,1.419,0,1,0,1.419,1.419A1.421,1.421,0,0,0,424.257,42.838Z" transform="translate(-343.236)" fill="#00223d"/>
      <path id="Trazado_880523" data-name="Trazado 880523" d="M25.676,421.353a5.676,5.676,0,1,1,5.676-5.676A5.683,5.683,0,0,1,25.676,421.353Zm0-8.515a2.838,2.838,0,1,0,2.838,2.838A2.841,2.841,0,0,0,25.676,412.838Z" transform="translate(0 -317.493)" fill="#00223d"/>
      <path id="Trazado_880524" data-name="Trazado 880524" d="M443.548,427.1a3.548,3.548,0,1,1,3.548-3.548A3.552,3.552,0,0,1,443.548,427.1Zm0-4.257a.71.71,0,1,0,.71.71A.71.71,0,0,0,443.548,422.838Z" transform="translate(-360.398 -326.074)" fill="#00223d"/>
      <path id="Trazado_880525" data-name="Trazado 880525" d="M121.419,144.337a22.919,22.919,0,1,1,22.919-22.919A22.945,22.945,0,0,1,121.419,144.337Zm0-43a20.08,20.08,0,1,0,20.08,20.08A20.1,20.1,0,0,0,121.419,101.338Z" transform="translate(-67.36 -50.198)" fill="#00223d"/>
    </g>
  </g>
</svg>
