<svg xmlns="http://www.w3.org/2000/svg" width="83.46" height="72.163" viewBox="0 0 83.46 72.163">
  <g id="Grupo_1102052" data-name="Grupo 1102052" transform="translate(11829.619 11928.744)">
    <g id="Grupo_1102041" data-name="Grupo 1102041" transform="translate(-12743.078 -12126)">
      <g id="Grupo_1098976" data-name="Grupo 1098976" transform="translate(875.179 137.646)">
        <path id="Trazado_873094" data-name="Trazado 873094" d="M121.71,119.088c.155-14.527-.3-29.064-1.369-43.531-.357-4.842-3.536-8.61-7.4-8.794a360.337,360.337,0,0,0-58.159,2.278c-3.863.441-6.857,4.4-7.048,9.269-.549,13.974-.614,28.43-.3,43.775.106,5.208,3.449,9.385,7.6,9.509a362.488,362.488,0,0,0,59.724-2.992C118.65,128.081,121.658,124.012,121.71,119.088Z" transform="translate(0 0)" fill="#7d6eb2" opacity="0.15" style="mix-blend-mode: multiply;isolation: isolate"/>
        <path id="Trazado_873095" data-name="Trazado 873095" d="M113.495,113.024c.155-14.527-.3-29.063-1.369-43.53-.357-4.842-3.536-8.61-7.405-8.794a360.328,360.328,0,0,0-58.158,2.278c-3.863.442-6.857,4.4-7.048,9.27-.549,13.974-.614,28.429-.3,43.774.106,5.209,3.449,9.385,7.6,9.51a362.5,362.5,0,0,0,59.724-2.992C110.435,122.017,113.442,117.949,113.495,113.024Z" transform="translate(0 0)" fill="#fff"/>
        <path id="Trazado_873096" data-name="Trazado 873096" d="M113.495,113.024c.155-14.527-.3-29.063-1.369-43.53-.357-4.842-3.536-8.61-7.405-8.794a360.328,360.328,0,0,0-58.158,2.278c-3.863.442-6.857,4.4-7.048,9.27-.549,13.974-.614,28.429-.3,43.774.106,5.209,3.449,9.385,7.6,9.51a362.5,362.5,0,0,0,59.724-2.992C110.435,122.017,113.442,117.949,113.495,113.024Z" transform="translate(0 0)" fill="none" stroke="#7d6eb2" stroke-linecap="round" stroke-linejoin="round" stroke-width="1.5"/>
      </g>
      <g id="analitica-de-datos" transform="matrix(0.999, -0.035, 0.035, 0.999, 920.261, 202.675)">
        <rect id="Rect치ngulo_401937" data-name="Rect치ngulo 401937" width="58.757" height="46.452" rx="4" transform="translate(2 7.159)" fill="#ccc"/>
        <path id="Trazado_881502" data-name="Trazado 881502" d="M4,19H57.376V60.025c0,2.06-1.28,3.73-2.859,3.73H6.859C5.28,63.755,4,62.085,4,60.025Z" transform="translate(0.486 -12)" fill="#fff"/>
        <path id="Trazado_881517" data-name="Trazado 881517" d="M16,0A16.256,16.256,0,0,1,32,16.5,16.256,16.256,0,0,1,16,33,16.256,16.256,0,0,1,0,16.5,16.256,16.256,0,0,1,16,0Z" transform="translate(15.068 13.611)" fill="#59836b"/>
        <path id="Trazado_881503" data-name="Trazado 881503" d="M35.161,25a16.144,16.144,0,0,0-13.6,24.864h19.82a3.73,3.73,0,0,0,3.73-3.73V28.44A16.076,16.076,0,0,0,35.161,25Z" transform="translate(-2.887 -4.952)" fill="#70be91"/>
        <path id="Trazado_881504" data-name="Trazado 881504" d="M32,25V41.161H48.161A16.161,16.161,0,0,0,32,25Z" transform="translate(-3 -3.187)" fill="#e5bd23"/>
        <path id="Trazado_881505" data-name="Trazado 881505" d="M34.235,41.161V25a16.107,16.107,0,0,0-11.427,4.734Z" transform="translate(-1.549 -3.187)" fill="#e67070"/>
        <path id="Trazado_881506" data-name="Trazado 881506" d="M41.945,28.44A16.076,16.076,0,0,0,32,25V41.161h9.945Z" transform="translate(-2.016 -3.187)" fill="#ffd947"/>
        <path id="Trazado_881507" data-name="Trazado 881507" d="M56.458,7H5.89C3.742,7,2,9.226,2,11.973v9.945H60.348V11.973C60.348,9.226,58.607,7,56.458,7Z" transform="translate(0 0)" fill="#62529b"/>
        <path id="Trazado_881508" data-name="Trazado 881508" d="M51.289,18.189c1.57,0,2.844-1.67,2.844-3.73V7H5.791C3.7,7,2,9.226,2,11.973v6.216Z" transform="translate(0 0)" fill="#7d6eb2"/>
        <circle id="Elipse_12017" data-name="Elipse 12017" cx="2.5" cy="2.5" r="2.5" transform="translate(7 12.159)" fill="#fff"/>
        <circle id="Elipse_12018" data-name="Elipse 12018" cx="2.5" cy="2.5" r="2.5" transform="translate(12.751 12.159)" fill="#fff"/>
        <circle id="Elipse_12019" data-name="Elipse 12019" cx="2.5" cy="2.5" r="2.5" transform="translate(18.895 12.159)" fill="#fff"/>
        <rect id="Rect치ngulo_401938" data-name="Rect치ngulo 401938" width="28" height="5" rx="2" transform="translate(22.941 12.159)" fill="#fff"/>
        <path id="Trazado_881509" data-name="Trazado 881509" d="M61.338,16.58l-1.252-1.253a3.669,3.669,0,0,0,.373-1.6,3.73,3.73,0,1,0-3.73,3.73,3.669,3.669,0,0,0,1.6-.373l1.253,1.253ZM55.486,13.73a1.243,1.243,0,1,1,1.243,1.243A1.243,1.243,0,0,1,55.486,13.73Z" transform="translate(-3.84 0.73)" fill="#fff"/>
        <g id="Grupo_1102035" data-name="Grupo 1102035" transform="translate(8.216 10.099)">
          <path id="Trazado_881510" data-name="Trazado 881510" d="M39.051,34.338,37.292,32.58l6.216-6.216a1.243,1.243,0,0,1,.88-.364h17.4v2.486H44.9Z" transform="translate(-15.876 -21.027)" fill="#aee6e6"/>
          <path id="Trazado_881511" data-name="Trazado 881511" d="M23.161,53.117H7V50.631H22.647l8.338-8.338,1.758,1.758-8.7,8.7a1.243,1.243,0,0,1-.879.364Z" transform="translate(-7 -17.065)" fill="#aee6e6"/>
          <path id="Trazado_881512" data-name="Trazado 881512" d="M7,45h6.216v2.486H7Z" transform="translate(-7 -16.407)" fill="#aee6e6"/>
          <path id="Trazado_881513" data-name="Trazado 881513" d="M44,22H55.189v2.486H44Z" transform="translate(-14.245 -22)" fill="#aee6e6"/>
          <path id="Trazado_881514" data-name="Trazado 881514" d="M55,22h2.486v2.486H55Z" transform="translate(-11.57 -22)" fill="#aee6e6"/>
          <path id="Trazado_881515" data-name="Trazado 881515" d="M14,45h2.486v2.486H14Z" transform="translate(-5.298 -16.407)" fill="#aee6e6"/>
        </g>
        <path id="Trazado_881516" data-name="Trazado 881516" d="M42.486,54.945,40,45l9.945,2.485-4.973,2.488Z" transform="translate(-2.554 -6.307)" fill="#26aab7"/>
      </g>
    </g>
  </g>
</svg>
