<svg xmlns="http://www.w3.org/2000/svg" xmlns:xlink="http://www.w3.org/1999/xlink" width="319.544" height="314.525" viewBox="0 0 319.544 314.525">
  <defs>
    <clipPath id="clip-path">
      <rect id="Rectángulo_401595" data-name="Rectángulo 401595" width="319.544" height="314.525" fill="none"/>
    </clipPath>
  </defs>
  <g id="Grupo_1100093" data-name="Grupo 1100093" clip-path="url(#clip-path)">
    <path id="Trazado_876032" data-name="Trazado 876032" d="M252.742,29.59a17.6,17.6,0,0,0,1.313-4.35l5.648-.577-.922-9.034-5.62.574a17.572,17.572,0,0,0-5.268-7.383l2.29-5.1L241.9,0l-2.262,5.041a17.569,17.569,0,0,0-9.147.889l-3.2-4.438L219.92,6.808l3.183,4.409a17.682,17.682,0,0,0-3.788,8.44l-5.41.552.922,9.035,5.445-.556a17.568,17.568,0,0,0,5.416,7.424l-2.263,5.041,8.285,3.72,2.29-5.1a17.57,17.57,0,0,0,9.017-.972l3.308,4.581,7.363-5.317-3.324-4.6a17.6,17.6,0,0,0,2.378-3.872M233.77,28.9a7.142,7.142,0,1,1,9.44-3.592,7.143,7.143,0,0,1-9.44,3.592" transform="translate(15.514)" fill="#6c98dd"/>
    <path id="Trazado_876033" data-name="Trazado 876033" d="M257.661,57.9a11.545,11.545,0,0,0,.857-2.84l3.687-.376-.6-5.9-3.669.374a11.476,11.476,0,0,0-3.439-4.82l1.494-3.329-5.409-2.428L249.1,41.87a11.462,11.462,0,0,0-5.971.58l-2.092-2.9-4.807,3.471,2.079,2.879a11.525,11.525,0,0,0-2.472,5.51l-3.533.36.6,5.9,3.555-.364A11.458,11.458,0,0,0,240,62.153l-1.477,3.292,5.409,2.427,1.494-3.329a11.474,11.474,0,0,0,5.887-.635l2.159,2.99,4.807-3.471-2.17-3a11.554,11.554,0,0,0,1.552-2.528m-12.386-.448a4.662,4.662,0,1,1,6.163-2.345,4.663,4.663,0,0,1-6.163,2.345" transform="translate(16.848 2.798)" fill="#6c98dd"/>
    <path id="Trazado_876034" data-name="Trazado 876034" d="M271.4,36.877a8.8,8.8,0,0,0,.222-2.247l2.7-.825L273,29.49l-2.686.819a8.744,8.744,0,0,0-3.278-3.094l.625-2.706-4.4-1.018-.619,2.676a8.723,8.723,0,0,0-4.374,1.313l-1.99-1.857-3.079,3.3,1.977,1.844a8.788,8.788,0,0,0-1.036,4.48l-2.586.789,1.318,4.317,2.6-.795a8.734,8.734,0,0,0,3.355,3.1l-.619,2.676,4.4,1.017.626-2.707a8.727,8.727,0,0,0,4.3-1.341l2.053,1.916,3.079-3.3-2.062-1.925a8.751,8.751,0,0,0,.787-2.116m-9.317,1.489a3.55,3.55,0,1,1,4.258-2.659,3.549,3.549,0,0,1-4.258,2.659" transform="translate(18.245 1.704)" fill="#6c98dd"/>
    <path id="Trazado_876035" data-name="Trazado 876035" d="M23.1,119.984s.212-.784.671-2.227" transform="translate(1.676 8.541)" fill="none" stroke="#fff" stroke-miterlimit="10" stroke-width="1.448"/>
    <path id="Trazado_876036" data-name="Trazado 876036" d="M25.157,121.44C35.134,93.868,81.692-8.568,218.646,6.744" transform="translate(1.825 0.377)" fill="none" stroke="#fff" stroke-miterlimit="10" stroke-width="1.448" stroke-dasharray="4.42 4.42"/>
    <path id="Trazado_876037" data-name="Trazado 876037" d="M207.773,6.9q1.152.138,2.312.29" transform="translate(15.069 0.5)" fill="none" stroke="#fff" stroke-miterlimit="10" stroke-width="1.448"/>
    <path id="Trazado_876038" data-name="Trazado 876038" d="M269.367,56.553S340.273,158.416,264.78,264.7" transform="translate(19.204 4.102)" fill="none" stroke="#fff" stroke-miterlimit="10" stroke-width="1.448" stroke-dasharray="4.345 4.345"/>
    <path id="Trazado_876039" data-name="Trazado 876039" d="M18.071,164.761S4.724,311.133,243.835,290.732" transform="translate(1.301 11.95)" fill="none" stroke="#fff" stroke-miterlimit="10" stroke-width="1.448" stroke-dasharray="4.345 4.345"/>
    <path id="Trazado_876040" data-name="Trazado 876040" d="M288.228,66.182l0,0-4.761-5.386-7.451,3.928-88.945-.731a5.4,5.4,0,0,0-5.1,5.038l-4.433,47.6-4.284,2.258,4.734,5.38a4.033,4.033,0,0,0,3.3,1.749l98.138.807a5.4,5.4,0,0,0,5.1-5.038l4.831-51.873a4.905,4.905,0,0,0-1.135-3.728" transform="translate(12.566 4.409)" fill="#29468e"/>
    <path id="Trazado_876041" data-name="Trazado 876041" d="M258.909,203.784l0,0-4.792-5.395-7.5,3.84-89.5-1.5A5.345,5.345,0,0,0,152,205.694l-4.441,47.267-4.309,2.207,4.765,5.387a4.12,4.12,0,0,0,3.323,1.766l98.751,1.648a5.343,5.343,0,0,0,5.125-4.962l4.84-51.511a4.871,4.871,0,0,0-1.143-3.714" transform="translate(10.389 14.388)" fill="#29468e"/>
    <path id="Trazado_876042" data-name="Trazado 876042" d="M219.046,19.066l-93.4-.784c-9.926-.084-18.795,8.875-19.81,20.009L82.7,292.1c-1.015,11.134,6.209,20.228,16.134,20.311l93.4.784c9.926.083,18.795-8.875,19.811-20.009L235.18,39.378c1.016-11.135-6.208-20.228-16.134-20.312" transform="translate(5.991 1.326)" fill="#29468e"/>
    <path id="Trazado_876043" data-name="Trazado 876043" d="M185.995,309.528l-92.621-.784c-9.844-.084-17.007-9.177-16-20.312L100.318,34.62c1.007-11.134,9.8-20.093,19.645-20.009l92.621.784c9.844.084,17.007,9.178,16,20.312L205.64,289.519c-1.007,11.134-9.8,20.093-19.645,20.009" transform="translate(5.605 1.06)" fill="#10181e"/>
    <path id="Trazado_876044" data-name="Trazado 876044" d="M210.527,20.987l-12.229-.1-.306,3.322a2.89,2.89,0,0,1-2.709,2.713L132.293,26.4a2.363,2.363,0,0,1-2.207-2.753l.306-3.323-12.229-.1c-8.049-.066-15.242,7.133-16.064,16.083L79.963,288.845c-.545,5.924,1.311,10.941,10.3,11.6l97.141.77c8.551,0,12.658-7.138,13.2-13.061L222.981,37.233c.824-8.948-4.4-16.179-12.454-16.246" transform="translate(5.793 1.466)" fill="#29353d"/>
    <path id="Trazado_876045" data-name="Trazado 876045" d="M207.7,20.981l-11.768-.1-.294,3.293a2.823,2.823,0,0,1-2.607,2.69l-60.616-.52a2.325,2.325,0,0,1-2.124-2.73l.294-3.293-11.768-.1c-7.745-.066-14.666,7.071-15.458,15.942l-22.507,252.1c-.524,5.872,3.207,10.668,8.334,10.712l98.365.843c5.127.044,9.709-4.681,10.233-10.554l22.507-252.1c.792-8.872-4.845-16.117-12.59-16.183" transform="translate(5.861 1.466)" fill="#f4f4f4"/>
    <path id="Trazado_876046" data-name="Trazado 876046" d="M118.9,75.846l35.547.039-.3,2.9-35.59-.137Z" transform="translate(8.599 5.501)" fill="#94ccff"/>
    <path id="Trazado_876047" data-name="Trazado 876047" d="M110.742,43.508l7.51.02-.157,1.5-7.515-.071Z" transform="translate(8.02 3.156)" fill="#94ccff"/>
    <path id="Trazado_876048" data-name="Trazado 876048" d="M110.525,45.716l7.51.02-.157,1.5-7.515-.071Z" transform="translate(8.004 3.316)" fill="#94ccff"/>
    <path id="Trazado_876049" data-name="Trazado 876049" d="M110.391,47.883l7.51.02-.157,1.5-7.515-.071Z" transform="translate(7.995 3.473)" fill="#94ccff"/>
    <path id="Trazado_876050" data-name="Trazado 876050" d="M107.422,71.115l97.607.365a3.247,3.247,0,0,1,3.223,3.53l-9.384,107.374a3.247,3.247,0,0,1-3.323,2.963l-98.119-2.639a3.248,3.248,0,0,1-3.146-3.551l9.9-105.1a3.248,3.248,0,0,1,3.245-2.943" transform="translate(6.837 5.158)" fill="#94ccff"/>
    <path id="Trazado_876051" data-name="Trazado 876051" d="M92.822,193.689l104.1,1.942-7.318,71.375L86.23,265.027Z" transform="translate(6.254 14.048)" fill="#94ccff"/>
    <path id="Trazado_876052" data-name="Trazado 876052" d="M99.01,196.3l36.042.7a4.787,4.787,0,0,1,4.672,5.25l-5.441,55.765a4.785,4.785,0,0,1-4.876,4.32l-36.056-.845a4.787,4.787,0,0,1-4.652-5.252l5.454-55.618A4.786,4.786,0,0,1,99.01,196.3" transform="translate(6.431 14.237)" fill="#62b2ed"/>
    <path id="Trazado_876053" data-name="Trazado 876053" d="M120.738,58.057l35.547.039-.3,2.9-35.59-.137Z" transform="translate(8.732 4.211)" fill="#94ccff"/>
    <path id="Trazado_876054" data-name="Trazado 876054" d="M120.243,62.247l35.547.039-.3,2.9-35.59-.137Z" transform="translate(8.696 4.515)" fill="#94ccff"/>
    <path id="Trazado_876055" data-name="Trazado 876055" d="M95.2,180.282l81.081,1.683-.286,2.92L94.873,183.1Z" transform="translate(6.881 13.075)" fill="#94ccff"/>
    <path id="Trazado_876056" data-name="Trazado 876056" d="M94.7,185.54l81.081,1.683-.286,2.92-81.124-1.781Z" transform="translate(6.844 13.457)" fill="#94ccff"/>
    <path id="Trazado_876057" data-name="Trazado 876057" d="M117.784,62.193c-.319,3.125-2.844,5.522-5.64,5.354s-4.8-2.837-4.486-5.962,2.844-5.521,5.64-5.354,4.8,2.837,4.486,5.962" transform="translate(7.806 4.078)" fill="#94ccff"/>
    <path id="Trazado_876058" data-name="Trazado 876058" d="M244.293,257.076l-98.75-1.648a4.439,4.439,0,0,1-4.177-5.118l4.84-51.511a5.343,5.343,0,0,1,5.125-4.962l98.75,1.648a4.438,4.438,0,0,1,4.177,5.118l-4.84,51.51a5.343,5.343,0,0,1-5.125,4.963" transform="translate(10.251 14.058)" fill="#fff"/>
    <path id="Trazado_876059" data-name="Trazado 876059" d="M253.952,200.6l-.354,3.747-108.015-2.183.315-3.368a5.344,5.344,0,0,1,5.125-4.963l98.75,1.651a4.439,4.439,0,0,1,4.18,5.115" transform="translate(10.559 14.058)" fill="#156bff"/>
    <path id="Trazado_876060" data-name="Trazado 876060" d="M167.348,244.3c-9.771-.1-16.935-8.219-15.97-18.1s9.7-17.839,19.471-17.741,16.934,8.219,15.969,18.1-9.7,17.84-19.47,17.742m3.319-33.989a17.821,17.821,0,0,0-17.46,15.909,14.434,14.434,0,0,0,14.32,16.229,17.821,17.821,0,0,0,17.46-15.909,14.433,14.433,0,0,0-14.32-16.229" transform="translate(10.973 15.119)" fill="#bccff7"/>
    <path id="Trazado_876061" data-name="Trazado 876061" d="M167.348,244.3c-9.774-.1-16.941-8.221-15.975-18.105a19.489,19.489,0,0,1,3.969-9.943l1.429,1.052a17.459,17.459,0,0,0-3.556,8.911,14.429,14.429,0,0,0,14.316,16.224,17.814,17.814,0,0,0,17.452-15.9,14.428,14.428,0,0,0-14.315-16.224l.182-1.862c9.774.1,16.939,8.221,15.974,18.105s-9.7,17.845-19.476,17.746" transform="translate(10.972 15.118)" fill="#156bff"/>
    <line id="Línea_1700" data-name="Línea 1700" x1="3.498" y2="37.223" transform="translate(206.844 224.449)" fill="none" stroke="#bccff7" stroke-linecap="round" stroke-miterlimit="10" stroke-width="1.086"/>
    <line id="Línea_1701" data-name="Línea 1701" x1="3.498" y2="37.223" transform="translate(219.096 224.554)" fill="none" stroke="#bccff7" stroke-linecap="round" stroke-miterlimit="10" stroke-width="1.086"/>
    <line id="Línea_1702" data-name="Línea 1702" x1="3.498" y2="37.223" transform="translate(231.215 224.658)" fill="none" stroke="#bccff7" stroke-linecap="round" stroke-miterlimit="10" stroke-width="1.086"/>
    <line id="Línea_1703" data-name="Línea 1703" x1="3.498" y2="37.223" transform="translate(244.153 224.769)" fill="none" stroke="#bccff7" stroke-linecap="round" stroke-miterlimit="10" stroke-width="1.086"/>
    <path id="Trazado_876062" data-name="Trazado 876062" d="M197.729,213.331a1.839,1.839,0,0,1-1.869,1.831,1.878,1.878,0,0,1-1.87-1.863,1.838,1.838,0,0,1,1.869-1.831,1.878,1.878,0,0,1,1.87,1.863" transform="translate(14.069 15.337)" fill="#156bff"/>
    <path id="Trazado_876063" data-name="Trazado 876063" d="M207.03,236.006a1.839,1.839,0,0,1-1.869,1.831,1.878,1.878,0,0,1-1.87-1.863,1.838,1.838,0,0,1,1.869-1.831,1.878,1.878,0,0,1,1.87,1.863" transform="translate(14.744 16.982)" fill="#156bff"/>
    <path id="Trazado_876064" data-name="Trazado 876064" d="M219.906,219.845a1.839,1.839,0,0,1-1.869,1.831,1.878,1.878,0,0,1-1.87-1.863,1.838,1.838,0,0,1,1.869-1.831,1.878,1.878,0,0,1,1.87,1.863" transform="translate(15.678 15.81)" fill="#156bff"/>
    <path id="Trazado_876065" data-name="Trazado 876065" d="M232.241,216.507a1.839,1.839,0,0,1-1.869,1.831,1.878,1.878,0,0,1-1.87-1.863,1.838,1.838,0,0,1,1.869-1.831,1.878,1.878,0,0,1,1.87,1.863" transform="translate(16.572 15.567)" fill="#156bff"/>
    <path id="Trazado_876066" data-name="Trazado 876066" d="M155.923,197.934a2.388,2.388,0,0,1-2.355,1.9,1.68,1.68,0,0,1-1.759-1.938,2.389,2.389,0,0,1,2.356-1.9,1.679,1.679,0,0,1,1.758,1.938" transform="translate(11.009 14.215)" fill="#fff"/>
    <path id="Trazado_876067" data-name="Trazado 876067" d="M161.662,197.983a2.39,2.39,0,0,1-2.356,1.9,1.68,1.68,0,0,1-1.759-1.938,2.389,2.389,0,0,1,2.356-1.9,1.68,1.68,0,0,1,1.759,1.938" transform="translate(11.425 14.218)" fill="#fff"/>
    <path id="Trazado_876068" data-name="Trazado 876068" d="M167.107,198.03a2.388,2.388,0,0,1-2.355,1.9,1.68,1.68,0,0,1-1.759-1.938,2.389,2.389,0,0,1,2.356-1.9,1.679,1.679,0,0,1,1.758,1.938" transform="translate(11.82 14.222)" fill="#fff"/>
    <path id="Trazado_876069" data-name="Trazado 876069" d="M197.508,47.171a1.1,1.1,0,0,1-1.059.968.84.84,0,0,1-.867-.944,1.1,1.1,0,0,1,1.059-.968.839.839,0,0,1,.867.944" transform="translate(14.185 3.353)" fill="#94ccff"/>
    <path id="Trazado_876070" data-name="Trazado 876070" d="M197.264,49.84a1.1,1.1,0,0,1-1.059.968.84.84,0,0,1-.867-.944A1.1,1.1,0,0,1,196.4,48.9a.839.839,0,0,1,.867.944" transform="translate(14.167 3.546)" fill="#94ccff"/>
    <path id="Trazado_876071" data-name="Trazado 876071" d="M197.738,44.536a1.1,1.1,0,0,1-1.059.968.84.84,0,0,1-.867-.944,1.1,1.1,0,0,1,1.059-.968.839.839,0,0,1,.867.944" transform="translate(14.201 3.162)" fill="#94ccff"/>
    <path id="Trazado_876072" data-name="Trazado 876072" d="M274.842,121.7l-98.138-.807c-2.553-.021-4.41-2.31-4.15-5.114L177.384,63.9a5.4,5.4,0,0,1,5.1-5.038l98.138.807c2.553.02,4.41,2.31,4.15,5.114l-4.832,51.873a5.4,5.4,0,0,1-5.094,5.038" transform="translate(12.513 4.269)" fill="#fff"/>
    <path id="Trazado_876073" data-name="Trazado 876073" d="M189.7,113.563l-5.391-.044,2.5-26.812,5.391.045Z" transform="translate(13.367 6.289)" fill="#2a7eff"/>
    <path id="Trazado_876074" data-name="Trazado 876074" d="M197.534,112.721l-5.391-.044,1.248-13.407,5.391.045Z" transform="translate(13.936 7.2)" fill="#ff9e55"/>
    <path id="Trazado_876075" data-name="Trazado 876075" d="M263.173,113.26l-5.391-.044,1.248-13.407,5.391.045Z" transform="translate(18.696 7.239)" fill="#2a7eff"/>
    <path id="Trazado_876076" data-name="Trazado 876076" d="M204.925,114.783l-5.391-.044,4-43,5.391.044Z" transform="translate(14.472 5.203)" fill="#2a7eff"/>
    <path id="Trazado_876077" data-name="Trazado 876077" d="M212.317,113.5l-5.391-.044L209.082,90.3l5.392.044Z" transform="translate(15.008 6.549)" fill="#ff9e55"/>
    <path id="Trazado_876078" data-name="Trazado 876078" d="M219.709,114.5l-5.391-.044,3.454-37.084,5.391.044Z" transform="translate(15.544 5.612)" fill="#2a7eff"/>
    <path id="Trazado_876079" data-name="Trazado 876079" d="M243.343,113.1l5.391.044,1.248-13.406-5.391-.044Z" transform="translate(17.649 7.23)" fill="#2a7eff"/>
    <path id="Trazado_876080" data-name="Trazado 876080" d="M235.951,114.484l5.391.044,3.243-34.82-5.392-.044Z" transform="translate(17.113 5.778)" fill="#ff9e55"/>
    <path id="Trazado_876081" data-name="Trazado 876081" d="M228.559,113.635l5.391.044,2.157-23.155-5.391-.045Z" transform="translate(16.577 6.562)" fill="#2a7eff"/>
    <path id="Trazado_876082" data-name="Trazado 876082" d="M250.587,115.158l5.391.044,4-43-5.391-.044Z" transform="translate(18.174 5.233)" fill="#ff9e55"/>
    <path id="Trazado_876083" data-name="Trazado 876083" d="M221.168,113.951l5.391.044,2.676-28.727-5.392-.044Z" transform="translate(16.041 6.181)" fill="#ff9e55"/>
    <path id="Trazado_876084" data-name="Trazado 876084" d="M193.315,69.99a5.8,5.8,0,0,1-5.477,5.413,4.335,4.335,0,0,1-1.674-.344l2.172-4.994.519-5.571c2.744.023,4.742,2.482,4.461,5.5" transform="translate(13.502 4.678)" fill="#ff9e55"/>
    <path id="Trazado_876085" data-name="Trazado 876085" d="M189.044,64.5l-.519,5.57-2.171,4.995a4.943,4.943,0,0,1-2.785-5.151,5.8,5.8,0,0,1,5.475-5.413" transform="translate(13.312 4.678)" fill="#2a7eff"/>
    <path id="Trazado_876086" data-name="Trazado 876086" d="M96.943,234.987l.344,1.618.226-.048a31.754,31.754,0,0,1,.492,4.221l-.228.005.042,1.654.225-.006a31.8,31.8,0,0,1-.3,4.239l-.213-.034-.264,1.633.208.033a31.617,31.617,0,0,1-1.071,4.108l-.188-.068-.56,1.557.184.066a32.114,32.114,0,0,1-1.8,3.841l-.163-.1-.836,1.428.161.094a32.009,32.009,0,0,1-2.474,3.446l-.138-.121-1.083,1.249.138.12a31.843,31.843,0,0,1-3.064,2.933l-.114-.143-1.295,1.03.113.142a31.5,31.5,0,0,1-3.552,2.316l-.083-.156-1.463.774.083.153a31.925,31.925,0,0,1-3.917,1.624l-.049-.161-1.581.491.05.162a31.946,31.946,0,0,1-4.144.886l-.021-.173L68.964,274l.02.175a31.507,31.507,0,0,1-4.238.11l.012-.181-1.652-.113-.012.181a31.971,31.971,0,0,1-4.187-.674l.047-.178-1.6-.414-.046.179a32.515,32.515,0,0,1-3.993-1.432l.079-.169-1.5-.7-.079.171a32.4,32.4,0,0,1-3.666-2.138l.114-.16-1.344-.964-.117.162a31.425,31.425,0,0,1-3.213-2.774l.152-.146L42.6,263.743l-.156.149a31.655,31.655,0,0,1-2.65-3.321l.19-.123-.906-1.385-.191.125a31.69,31.69,0,0,1-1.991-3.755l.215-.09-.636-1.527-.216.09q-.4-1.015-.724-2.071c-.2-.66-.388-1.322-.549-1.984l.238-.051-.344-1.618-.243.051a31.975,31.975,0,0,1-.511-4.224l.262-.006-.041-1.654-.265.006a31.741,31.741,0,0,1,.28-4.247l.27.043.263-1.633-.27-.044a31.721,31.721,0,0,1,1.061-4.124l.262.093.559-1.556-.263-.1a31.863,31.863,0,0,1,1.8-3.86l.246.144.835-1.426-.249-.146a32.046,32.046,0,0,1,2.476-3.469l.225.2,1.084-1.251-.226-.2a31.757,31.757,0,0,1,3.074-2.953l.19.24,1.3-1.029L46.8,216.8a31.353,31.353,0,0,1,3.568-2.333l.145.272,1.462-.774-.143-.272a31.867,31.867,0,0,1,3.937-1.633l.09.29,1.58-.492-.09-.29a31.967,31.967,0,0,1,4.169-.89l.036.306,1.644-.193-.036-.308a31.682,31.682,0,0,1,4.262-.1l-.02.309,1.651.11.02-.306a31.6,31.6,0,0,1,4.21.686l-.075.291,1.6.413.075-.287a32.219,32.219,0,0,1,4.008,1.449l-.122.262,1.5.7.12-.258a31.646,31.646,0,0,1,3.673,2.156l-.163.227,1.345.964.162-.225a31.729,31.729,0,0,1,3.214,2.793l-.2.19,1.143,1.195.2-.189a31.789,31.789,0,0,1,2.642,3.338l-.222.145.905,1.385.22-.143a31.853,31.853,0,0,1,1.977,3.767l-.228.1.636,1.528.224-.092q.365.954.674,1.944.328,1.055.58,2.116Z" transform="translate(2.471 15.256)" fill="#ffcb57"/>
    <path id="Trazado_876087" data-name="Trazado 876087" d="M95.474,234.939q-.251-1.06-.58-2.116-.309-.989-.675-1.944l-.223.092-.636-1.528.228-.1a31.86,31.86,0,0,0-1.978-3.767l-.219.143-.905-1.385.222-.145a31.931,31.931,0,0,0-2.642-3.338l-.2.189-1.144-1.195.2-.19a31.855,31.855,0,0,0-3.214-2.794l-.162.226-1.345-.964.163-.227a31.807,31.807,0,0,0-3.673-2.157l-.12.26-1.5-.7.122-.262a32.046,32.046,0,0,0-4.008-1.449l-.075.287-1.6-.413.076-.291a31.6,31.6,0,0,0-4.21-.686l-.02.306-1.651-.11.02-.31a31.859,31.859,0,0,0-4.262.105l.036.308-1.644.192-.036-.3q-1.173.169-2.346.43c9.626,6.765,38.573,31.259,7.137,63.207q1.334-.011,2.677-.136l-.02-.175,1.643-.193.021.173a31.812,31.812,0,0,0,4.144-.887l-.05-.161,1.58-.492.05.162a31.925,31.925,0,0,0,3.917-1.624l-.083-.154,1.463-.773.083.156a31.6,31.6,0,0,0,3.552-2.316l-.113-.143,1.295-1.029.113.143a31.864,31.864,0,0,0,3.065-2.933l-.139-.121,1.084-1.248.138.12a32,32,0,0,0,2.474-3.445l-.161-.094.836-1.428.163.1a32.115,32.115,0,0,0,1.8-3.841l-.184-.066.56-1.557.188.068a31.441,31.441,0,0,0,1.07-4.108l-.207-.034.264-1.632.213.034a31.631,31.631,0,0,0,.3-4.239l-.224.006-.042-1.654.228-.005a31.733,31.733,0,0,0-.492-4.221l-.226.047-.344-1.617Z" transform="translate(4.168 15.256)" fill="#f7a543"/>
    <path id="Trazado_876088" data-name="Trazado 876088" d="M92.854,233.662a28.322,28.322,0,1,1-35.461-18.621,28.321,28.321,0,0,1,35.461,18.621" transform="translate(2.719 15.503)" fill="#ffb357"/>
    <path id="Trazado_876089" data-name="Trazado 876089" d="M63.381,213.763a28.33,28.33,0,0,1-2.419,56.471,28.327,28.327,0,1,0,2.419-56.471" transform="translate(4.421 15.503)" fill="#f29f46"/>
    <path id="Trazado_876090" data-name="Trazado 876090" d="M74.333,269.4a28.594,28.594,0,1,1,18.8-35.8,28.626,28.626,0,0,1-18.8,35.8m-16.84-54.082a28.049,28.049,0,1,0,35.12,18.442,28.081,28.081,0,0,0-35.12-18.442" transform="translate(2.701 15.485)" fill="#d66f29"/>
    <path id="Trazado_876091" data-name="Trazado 876091" d="M79.052,249.107a13.035,13.035,0,0,1-5.93,5.5l1.4,4.483-5.7,1.773-1.333-4.282a28.315,28.315,0,0,1-6.086.876,18.421,18.421,0,0,1-5.175-.471l.906-7.9a20.421,20.421,0,0,0,5.108.47,18.535,18.535,0,0,0,5.027-.789,7.791,7.791,0,0,0,2.707-1.264,1.289,1.289,0,0,0,.49-1.415,1.524,1.524,0,0,0-1.526-.988,25.072,25.072,0,0,0-3.957.169,43.379,43.379,0,0,1-5.912.223,9.717,9.717,0,0,1-4.6-1.4,7.335,7.335,0,0,1-3.132-4.364,8.679,8.679,0,0,1,.666-6.9,13.292,13.292,0,0,1,6.365-5.526L57,222.9l5.7-1.774,1.346,4.322a21.216,21.216,0,0,1,8.929-.21l-.718,7.8a18.366,18.366,0,0,0-8.53.352q-3.676,1.145-3.122,2.922.264.849,1.487.933a24.181,24.181,0,0,0,3.878-.21,38.627,38.627,0,0,1,5.886-.3,9.942,9.942,0,0,1,4.656,1.363,7.21,7.21,0,0,1,3.145,4.338,8.624,8.624,0,0,1-.6,6.678" transform="translate(3.693 16.037)" fill="#ffdf5a"/>
    <path id="Trazado_876092" data-name="Trazado 876092" d="M72.274,195.956l-.385,1.109.156.054a22.555,22.555,0,0,1-1.251,2.745l-.14-.08-.581,1.019.138.079a22.489,22.489,0,0,1-1.735,2.465l-.117-.1-.759.894.114.1a22.4,22.4,0,0,1-2.157,2.1l-.09-.109-.911.74.088.108a22.854,22.854,0,0,1-2.505,1.67l-.064-.117-1.031.56.063.116a22.673,22.673,0,0,1-2.767,1.185l-.04-.124-1.117.361.04.123a22.52,22.52,0,0,1-2.938.657l-.016-.129-1.164.15.016.128a22.413,22.413,0,0,1-3.006.1l.006-.124-1.172-.068-.006.124a22.769,22.769,0,0,1-2.974-.452l.029-.117-1.14-.281-.029.117a22.683,22.683,0,0,1-2.841-.982l.05-.113-1.069-.486-.051.114a22.388,22.388,0,0,1-2.614-1.489l.074-.105-.962-.675-.074.106a22.689,22.689,0,0,1-2.3-1.946l.093-.091-.822-.84-.093.092a22.97,22.97,0,0,1-1.9-2.335l.11-.074-.653-.975-.11.074a22.991,22.991,0,0,1-1.443-2.643l.129-.055-.463-1.079-.13.056a22.491,22.491,0,0,1-.934-2.864l.147-.032-.257-1.147-.15.034a22.512,22.512,0,0,1-.39-2.989l.16-.005-.042-1.173-.162.006a22.606,22.606,0,0,1,.168-3.011l.164.024.174-1.16-.164-.025q.134-.761.322-1.523c.117-.476.249-.946.394-1.406l.163.056.385-1.11-.166-.058a22.5,22.5,0,0,1,1.24-2.751l.161.091.582-1.019-.163-.093a22.58,22.58,0,0,1,1.728-2.476l.149.124.758-.894-.148-.127a22.683,22.683,0,0,1,2.158-2.115l.124.153.911-.74-.125-.154a22.875,22.875,0,0,1,2.51-1.684l.1.178,1.032-.56-.1-.18a22.715,22.715,0,0,1,2.777-1.2l.065.2,1.118-.361-.065-.2a22.383,22.383,0,0,1,2.951-.665l.027.216,1.165-.149-.028-.218a22.49,22.49,0,0,1,3.023-.107l-.013.219,1.172.066.013-.218a22.639,22.639,0,0,1,2.991.453l-.051.209,1.14.281.051-.209a22.678,22.678,0,0,1,2.858.989l-.09.2,1.068.487.092-.2a22.638,22.638,0,0,1,2.627,1.5l-.127.18.962.672.124-.178a22.434,22.434,0,0,1,2.3,1.962l-.152.149.822.839.15-.148a22.784,22.784,0,0,1,1.9,2.351l-.171.114.652.976.168-.113a22.429,22.429,0,0,1,1.439,2.657l-.182.078.463,1.079.181-.077a22.516,22.516,0,0,1,.927,2.875l-.19.043.256,1.145.19-.043a22.634,22.634,0,0,1,.379,3l-.188.006.042,1.173.186-.006a22.652,22.652,0,0,1-.181,3.013l-.174-.026-.175,1.162.169.026q-.127.714-.3,1.429-.188.761-.425,1.5Z" transform="translate(2.04 12.068)" fill="#ffcb57"/>
    <path id="Trazado_876093" data-name="Trazado 876093" d="M71.678,195.93q.236-.737.424-1.5.177-.714.3-1.429l-.169-.026.175-1.162.174.026a22.647,22.647,0,0,0,.181-3.012l-.186.005-.042-1.172.188-.006a22.59,22.59,0,0,0-.38-3l-.189.042-.256-1.145.19-.043a22.576,22.576,0,0,0-.928-2.875l-.181.077-.462-1.078.182-.078a22.685,22.685,0,0,0-1.439-2.658l-.168.113-.652-.975.171-.115a22.8,22.8,0,0,0-1.9-2.35l-.151.147-.82-.839.152-.148a22.3,22.3,0,0,0-2.3-1.962l-.124.178-.962-.674.125-.18A22.617,22.617,0,0,0,60,168.6l-.091.2-1.068-.486.09-.2q-.775-.327-1.583-.6c3.363,7.641,11.954,33.137-18.858,41q.812.483,1.674.9l.053-.114,1.069.486-.051.113a22.585,22.585,0,0,0,2.842.982l.029-.116,1.14.281-.029.116a22.741,22.741,0,0,0,2.974.452l.006-.123,1.172.066-.006.124a22.419,22.419,0,0,0,3.006-.1l-.016-.128,1.164-.15.016.129a22.735,22.735,0,0,0,2.938-.656l-.04-.124,1.115-.361.041.124a22.651,22.651,0,0,0,2.766-1.184l-.062-.116,1.031-.561.063.118A22.761,22.761,0,0,0,63.891,207l-.088-.108.912-.74.089.11a22.413,22.413,0,0,0,2.158-2.1l-.114-.1.759-.894.117.1a22.5,22.5,0,0,0,1.735-2.466l-.138-.078.581-1.02.14.08a22.447,22.447,0,0,0,1.249-2.744l-.154-.055.385-1.109Z" transform="translate(2.792 12.149)" fill="#f7a543"/>
    <path id="Trazado_876094" data-name="Trazado 876094" d="M70.162,193.716a20.095,20.095,0,1,1-14.7-24.32,20.094,20.094,0,0,1,14.7,24.32" transform="translate(2.216 12.243)" fill="#ffb357"/>
    <path id="Trazado_876095" data-name="Trazado 876095" d="M60.068,171.264a20.1,20.1,0,0,1-22.19,33.4,20.1,20.1,0,1,0,22.19-33.4" transform="translate(2.747 12.421)" fill="#f29f46"/>
    <path id="Trazado_876096" data-name="Trazado 876096" d="M45.809,208.619a20.288,20.288,0,1,1,24.553-14.844,20.311,20.311,0,0,1-24.553,14.844M55.427,169.6a19.9,19.9,0,1,0,14.56,24.086A19.923,19.923,0,0,0,55.427,169.6" transform="translate(2.203 12.23)" fill="#d66f29"/>
    <path id="Trazado_876097" data-name="Trazado 876097" d="M55.885,198.314a9.241,9.241,0,0,1-5.62,1.165l-.8,3.235L45.359,201.7l.761-3.089a20.137,20.137,0,0,1-4.017-1.7,13.023,13.023,0,0,1-2.97-2.186l3.45-4.466a14.52,14.52,0,0,0,2.929,2.16,13.109,13.109,0,0,0,3.343,1.364,5.513,5.513,0,0,0,2.108.226.917.917,0,0,0,.817-.68,1.082,1.082,0,0,0-.565-1.159,17.786,17.786,0,0,0-2.465-1.349,30.877,30.877,0,0,1-3.672-2.034,6.907,6.907,0,0,1-2.279-2.54,5.211,5.211,0,0,1-.3-3.8,6.159,6.159,0,0,1,2.936-3.945,9.428,9.428,0,0,1,5.894-1.02l.783-3.177,4.109,1.012-.769,3.119a15.048,15.048,0,0,1,5.5,3.148l-3.3,4.474a13.032,13.032,0,0,0-5.309-2.916q-2.653-.653-2.969.629a1.04,1.04,0,0,0,.561,1.112,17.089,17.089,0,0,0,2.432,1.295,27.513,27.513,0,0,1,3.686,1.976,7.04,7.04,0,0,1,2.326,2.537,5.116,5.116,0,0,1,.319,3.788,6.12,6.12,0,0,1-2.815,3.834" transform="translate(2.838 12.642)" fill="#ffdf5a"/>
    <path id="Trazado_876098" data-name="Trazado 876098" d="M98.309,197.209l.165.649.09-.024a12.949,12.949,0,0,1,.267,1.7l-.092.006.043.667.091-.005a12.712,12.712,0,0,1-.053,1.717l-.087-.011-.08.665.085.01a12.875,12.875,0,0,1-.367,1.677l-.077-.025-.2.638.076.025a12.952,12.952,0,0,1-.668,1.581l-.068-.036-.314.591.067.035a13,13,0,0,1-.945,1.432l-.058-.046-.418.521.058.047a12.8,12.8,0,0,1-1.192,1.234l-.048-.056-.506.437.048.055a12.853,12.853,0,0,1-1.4.993l-.036-.061-.578.336.035.061a13.024,13.024,0,0,1-1.557.719l-.023-.064-.631.224.023.064a12.915,12.915,0,0,1-1.66.425l-.012-.07-.661.1.011.071a12.773,12.773,0,0,1-1.711.112l0-.073-.669-.019,0,.074a12.87,12.87,0,0,1-1.7-.206l.015-.072-.654-.143-.015.073a12.877,12.877,0,0,1-1.637-.515l.029-.069-.617-.26-.029.07a13.139,13.139,0,0,1-1.517-.8l.044-.066-.559-.369-.044.068a12.718,12.718,0,0,1-1.344-1.069l.06-.061L76.8,209.7l-.06.063a12.772,12.772,0,0,1-1.124-1.3l.074-.054-.388-.545-.075.054a12.759,12.759,0,0,1-.864-1.485l.086-.04-.282-.607-.086.04q-.175-.4-.325-.826c-.093-.263-.178-.528-.254-.793l.1-.025-.165-.649-.1.025a12.915,12.915,0,0,1-.273-1.7l.106-.008-.043-.667-.107.006a12.942,12.942,0,0,1,.045-1.72l.11.013.079-.665-.109-.013a12.781,12.781,0,0,1,.363-1.684l.107.034.2-.638-.108-.034a12.888,12.888,0,0,1,.666-1.589l.1.055.315-.59-.1-.055a12.769,12.769,0,0,1,.945-1.441l.094.075.418-.522-.094-.077a12.792,12.792,0,0,1,1.195-1.242l.08.094.507-.437-.082-.1a12.776,12.776,0,0,1,1.405-1l.063.108.578-.337-.062-.107A12.994,12.994,0,0,1,81.3,188.6l.042.116.631-.224-.042-.116a13.076,13.076,0,0,1,1.671-.426l.019.122.662-.1-.019-.123a12.737,12.737,0,0,1,1.72-.11l0,.125.669.018,0-.124a13.025,13.025,0,0,1,1.712.21l-.026.119.653.142.026-.118a13,13,0,0,1,1.643.521l-.045.108.617.26.044-.107a12.914,12.914,0,0,1,1.52.813l-.062.094.559.369.061-.094a12.909,12.909,0,0,1,1.344,1.078l-.077.079.482.464.077-.079A12.847,12.847,0,0,1,96.3,192.92l-.087.061.387.546.087-.061a12.805,12.805,0,0,1,.859,1.49l-.09.043.281.607.089-.041c.108.253.21.512.3.775q.15.422.268.846Z" transform="translate(5.295 13.616)" fill="#ffcb57"/>
    <path id="Trazado_876099" data-name="Trazado 876099" d="M97.747,197.186q-.119-.425-.268-.846c-.093-.263-.2-.521-.3-.775l-.089.042L96.806,195l.09-.042a12.82,12.82,0,0,0-.859-1.491l-.087.061-.387-.545.087-.062a12.835,12.835,0,0,0-1.121-1.306l-.077.079-.482-.464.077-.08a12.761,12.761,0,0,0-1.344-1.077l-.061.093-.559-.368.062-.094a12.907,12.907,0,0,0-1.52-.813l-.044.106-.617-.258.045-.108a13,13,0,0,0-1.643-.521l-.026.117-.653-.142.026-.118a12.671,12.671,0,0,0-1.712-.21l0,.123-.669-.018,0-.125a13.1,13.1,0,0,0-1.72.11l.019.124-.662.1-.019-.123c-.314.058-.628.129-.941.211,4,2.581,16.088,12.017,3.894,25.43q.539-.026,1.079-.1l-.011-.07.661-.105.012.07a12.739,12.739,0,0,0,1.66-.425l-.023-.064.631-.224.023.064a12.7,12.7,0,0,0,1.557-.719l-.036-.06.579-.337.036.062a13,13,0,0,0,1.4-.993l-.048-.056.506-.437.048.056a12.679,12.679,0,0,0,1.192-1.234l-.058-.046.418-.522.058.047a13.062,13.062,0,0,0,.945-1.433l-.067-.035.314-.59.068.035a12.952,12.952,0,0,0,.668-1.581l-.076-.024.2-.638.077.024a12.859,12.859,0,0,0,.367-1.676L98,202.571l.08-.664.087.011a12.728,12.728,0,0,0,.053-1.718l-.091.006-.043-.668.092-.005a12.893,12.893,0,0,0-.267-1.7l-.09.023-.165-.649Z" transform="translate(5.948 13.616)" fill="#f7a543"/>
    <path id="Trazado_876100" data-name="Trazado 876100" d="M96.64,196.734a11.454,11.454,0,1,1-14.628-6.959,11.454,11.454,0,0,1,14.628,6.959" transform="translate(5.395 13.716)" fill="#ffb357"/>
    <path id="Trazado_876101" data-name="Trazado 876101" d="M84.379,189.137A11.458,11.458,0,0,1,84.3,212a11.457,11.457,0,1,0,.075-22.86" transform="translate(6.114 13.716)" fill="#f29f46"/>
    <path id="Trazado_876102" data-name="Trazado 876102" d="M89.725,211.474a11.565,11.565,0,1,1,7.026-14.769,11.577,11.577,0,0,1-7.026,14.769m-7.67-21.587a11.344,11.344,0,1,0,14.488,6.892,11.358,11.358,0,0,0-14.488-6.892" transform="translate(5.388 13.708)" fill="#d66f29"/>
    <path id="Trazado_876103" data-name="Trazado 876103" d="M91.321,203.178a5.266,5.266,0,0,1-2.308,2.318l.635,1.79-2.273.808-.607-1.709a11.473,11.473,0,0,1-2.445.45,7.452,7.452,0,0,1-2.1-.107l.24-3.208a8.291,8.291,0,0,0,2.072.107,7.474,7.474,0,0,0,2.019-.4,3.136,3.136,0,0,0,1.074-.555.522.522,0,0,0,.176-.579.615.615,0,0,0-.633-.374,10,10,0,0,0-1.6.131,17.427,17.427,0,0,1-2.386.184,3.926,3.926,0,0,1-1.881-.493,2.96,2.96,0,0,1-1.335-1.713,3.512,3.512,0,0,1,.159-2.8,5.38,5.38,0,0,1,2.484-2.335l-.624-1.758,2.273-.808.613,1.726a8.589,8.589,0,0,1,3.6-.228l-.165,3.164a7.425,7.425,0,0,0-3.442.279q-1.467.521-1.215,1.23c.08.226.285.343.616.353a9.725,9.725,0,0,0,1.564-.147,15.668,15.668,0,0,1,2.375-.217,4.017,4.017,0,0,1,1.9.476,2.916,2.916,0,0,1,1.341,1.7,3.487,3.487,0,0,1-.136,2.708" transform="translate(5.784 13.935)" fill="#ffdf5a"/>
    <path id="Trazado_876104" data-name="Trazado 876104" d="M85.475,39.412H48.751a5.61,5.61,0,0,0-5.61,5.609V65.716a5.609,5.609,0,0,0,5.61,5.609h11.88l6.483,5.756L73.6,71.325H85.475a5.609,5.609,0,0,0,5.609-5.609V45.021a5.609,5.609,0,0,0-5.609-5.609" transform="translate(3.129 2.858)" fill="#29468e"/>
    <path id="Trazado_876105" data-name="Trazado 876105" d="M82.32,36.613H45.6a5.61,5.61,0,0,0-5.61,5.609V62.917a5.609,5.609,0,0,0,5.61,5.609h11.88l6.483,5.756,6.484-5.756H82.32a5.609,5.609,0,0,0,5.609-5.609V42.222a5.609,5.609,0,0,0-5.609-5.609" transform="translate(2.9 2.655)" fill="#ff004b"/>
    <path id="Trazado_876106" data-name="Trazado 876106" d="M74.295,44.137a6.434,6.434,0,0,0-4.552-1.84,6.529,6.529,0,0,0-6.528,6.53,6.529,6.529,0,0,0-6.528-6.53A6.436,6.436,0,0,0,51.969,44.3a6.368,6.368,0,0,0,.47,9.12L63.215,62.99l10.771-9.564a6.369,6.369,0,0,0,.309-9.289" transform="translate(3.646 3.068)" fill="#fff"/>
    <path id="Trazado_876107" data-name="Trazado 876107" d="M127.278,135.06l18.49-2.963,9.421,1.14,6.485,46.837-29.617-.8.409-31.618Z" transform="translate(9.231 9.581)" fill="#f2b675"/>
    <path id="Trazado_876108" data-name="Trazado 876108" d="M132.98,138.745l-.331-.046-.338-9.068,5.049.7-.085.615,2.3-.793,4.182,2.9s-6.479,31.126-4.338,31.422l3.739,2.408-.551,4-8.491-1.172-10.041-1.386.551-4c5.309.345,8.043-14.172,9.278-23.922a1.374,1.374,0,0,0-.928-1.651" transform="translate(8.999 9.402)" fill="#000b3f"/>
    <path id="Trazado_876109" data-name="Trazado 876109" d="M135.471,139.089l-.331-.046-.338-9.068,5.049.7-.085.615,2.3-.793,4.182,2.9s-6.479,31.126-4.338,31.422l3.739,2.408-.551,4-8.491-1.172-10.041-1.386.551-4c5.309.345,8.043-14.172,9.278-23.922a1.374,1.374,0,0,0-.928-1.651" transform="translate(9.18 9.427)" fill="#00016a"/>
    <path id="Trazado_876110" data-name="Trazado 876110" d="M127.406,89.034l-6.052,43.835,35.84,4.948,0-.017a1.215,1.215,0,0,0,.2.045c2.05.283,9.718-4.362,11.57-11.376a51.949,51.949,0,0,0,1.929-9.814c1.117-16.229-4.544-22.244-7.448-22.644a1.331,1.331,0,0,0-.207-.011l0-.018Z" transform="translate(8.801 6.457)" fill="#e90071"/>
    <path id="Trazado_876111" data-name="Trazado 876111" d="M76.691,65.36,65.807,144.2c5-6.693,59.577-9.61,59.577-9.61,2.05.283,4.5-4.363,6.353-11.377a83.742,83.742,0,0,0,1.929-9.814c1.671-12.106.671-22.243-2.231-22.644,0,0-51.746-17.6-54.744-25.391" transform="translate(4.773 4.74)" fill="#008dff"/>
    <path id="Trazado_876112" data-name="Trazado 876112" d="M168.968,124.317c-1.852,7.014-7.618,11.389-11.57,11.377a.671.671,0,0,1-.2-.046l0,.018-35.84-4.949,1.66-12.025Z" transform="translate(8.801 8.608)" fill="#c41856"/>
    <path id="Trazado_876113" data-name="Trazado 876113" d="M131.736,119.345c-1.852,7.014-4.3,11.661-6.353,11.377,0,0-54.579,2.917-59.577,9.61l2.31-16.733c15.153,1.341,35.63-2.01,46.382-4.1a46.591,46.591,0,0,1,15.272-.425Z" transform="translate(4.773 8.604)" fill="#006a94"/>
    <path id="Trazado_876114" data-name="Trazado 876114" d="M54.027,102.28C51.022,124.05,56.7,142.818,66.72,144.2S87.29,129.056,90.3,107.287,87.619,66.748,77.6,65.365,57.033,80.51,54.027,102.28" transform="translate(3.86 4.735)" fill="#15b0ff"/>
    <path id="Trazado_876115" data-name="Trazado 876115" d="M56.325,102.4c-2.739,19.839,1.263,36.779,8.937,37.839,5.694.786,11.81-7.389,15.706-19.759a87.626,87.626,0,0,0,3.15-14.242,87.585,87.585,0,0,0,.827-14.564c-.4-12.965-4.07-22.491-9.764-23.277-7.675-1.06-16.117,14.165-18.856,34" transform="translate(4.023 4.957)" fill="#0055e9"/>
    <path id="Trazado_876116" data-name="Trazado 876116" d="M69.579,92.726l-1.362,9.864,14.977,2.068A87.573,87.573,0,0,0,84.02,90.1v0Z" transform="translate(4.948 6.534)" fill="#94ccff"/>
    <path id="Trazado_876117" data-name="Trazado 876117" d="M68.309,101.745l-1.362,9.863,13.186,6.448h0a87.622,87.622,0,0,0,3.151-14.242Z" transform="translate(4.855 7.379)" fill="#94ccff"/>
    <path id="Trazado_876118" data-name="Trazado 876118" d="M64.665,101.886c-.754,5.463.347,10.129,2.461,10.421,1.568.217,3.252-2.035,4.326-5.442a24.964,24.964,0,0,0,1.1-7.932c-.109-3.57-1.121-6.194-2.689-6.41-2.114-.292-4.439,3.9-5.193,9.364" transform="translate(4.673 6.709)" fill="#15b0ff"/>
    <path id="Trazado_876119" data-name="Trazado 876119" d="M127.422,135.064s22.736-3.844,22.611,5.058c0,0,1.47,23.277-4.609,31.2,0,0-19.791-1.4-22.394-3.724a74.276,74.276,0,0,1,4.392-32.538" transform="translate(8.901 9.736)" fill="#ffd094"/>
    <path id="Trazado_876120" data-name="Trazado 876120" d="M19.373,122.864a19.373,19.373,0,1,0,19.373,19.373,19.395,19.395,0,0,0-19.373-19.373M33.54,141.351a25.554,25.554,0,0,0-.819-5.663c2.332,1.551,3.853,3.51,4.182,5.663Zm-1.77,0H25.515a58.358,58.358,0,0,0-.736-8.69,23.814,23.814,0,0,1,5.72,1.785,23.466,23.466,0,0,1,1.271,6.9m-16.769,0a53.517,53.517,0,0,1,.827-8.972,30.613,30.613,0,0,1,7.089,0,53.414,53.414,0,0,1,.826,8.972Zm8.742,1.771a53.417,53.417,0,0,1-.826,8.973,30.61,30.61,0,0,1-7.089,0A53.519,53.519,0,0,1,15,143.122Zm.681-12.308a19.786,19.786,0,0,0-1.975-5.631,13.472,13.472,0,0,1,7.1,6.99,26.948,26.948,0,0,0-5.123-1.359m-1.891-.25a31.13,31.13,0,0,0-6.321,0c.91-3.779,2.161-5.929,3.161-5.929s2.251,2.15,3.161,5.929M16.3,125.183a19.786,19.786,0,0,0-1.975,5.631A26.894,26.894,0,0,0,9.2,132.172a13.467,13.467,0,0,1,7.1-6.99m-2.33,7.479a58.216,58.216,0,0,0-.736,8.69H6.976a23.466,23.466,0,0,1,1.271-6.9,23.814,23.814,0,0,1,5.72-1.785m-8.76,8.69H1.844c.329-2.153,1.85-4.112,4.182-5.663a25.554,25.554,0,0,0-.819,5.663m0,1.771a25.555,25.555,0,0,0,.819,5.664c-2.332-1.551-3.853-3.51-4.182-5.664Zm1.77,0h6.255a58.23,58.23,0,0,0,.736,8.691,23.813,23.813,0,0,1-5.72-1.785,23.467,23.467,0,0,1-1.271-6.906m7.346,10.539a19.786,19.786,0,0,0,1.975,5.631,13.467,13.467,0,0,1-7.1-6.99,26.894,26.894,0,0,0,5.122,1.359m1.891.25a31.13,31.13,0,0,0,6.321,0c-.91,3.779-2.161,5.929-3.161,5.929s-2.252-2.15-3.161-5.929m6.238,5.381a19.786,19.786,0,0,0,1.975-5.631,26.948,26.948,0,0,0,5.123-1.359,13.472,13.472,0,0,1-7.1,6.99m2.33-7.479a58.36,58.36,0,0,0,.736-8.691H31.77a23.467,23.467,0,0,1-1.271,6.906,23.813,23.813,0,0,1-5.72,1.785m8.76-8.691H36.9c-.329,2.154-1.85,4.113-4.182,5.664a25.554,25.554,0,0,0,.819-5.664M35.832,136a16.361,16.361,0,0,0-3.906-2.77,19.3,19.3,0,0,0-3.87-6.3A17.706,17.706,0,0,1,35.832,136M10.69,126.935a19.3,19.3,0,0,0-3.87,6.3A16.332,16.332,0,0,0,2.915,136a17.7,17.7,0,0,1,7.775-9.069M2.915,148.47a16.332,16.332,0,0,0,3.905,2.77,19.3,19.3,0,0,0,3.87,6.3,17.7,17.7,0,0,1-7.775-9.069m25.141,9.069a19.3,19.3,0,0,0,3.87-6.3,16.361,16.361,0,0,0,3.906-2.77,17.706,17.706,0,0,1-7.776,9.069" transform="translate(0 8.911)" fill="#6c98dd"/>
    <path id="Trazado_876121" data-name="Trazado 876121" d="M266.878,270.407l-1.979-.521a1.8,1.8,0,0,1-1.262-2.243c1.662-5.757-.551-9.469-.7-9.716l-.018-.031c-2.678-4.994-4.115-2.383-4.467-1.55a.6.6,0,0,0-.015.42c1.749,5.158-5.014,11.6-6.272,12.738a.605.605,0,0,1-.457.154l-1.587-.138a.6.6,0,0,1-.531-.754.6.6,0,0,0-.43-.737l-10.18-2.679a.6.6,0,0,0-.736.429L232.52,287.5a.6.6,0,0,0,.43.737l10.18,2.679a.6.6,0,0,0,.737-.429l.188-.714a.6.6,0,0,1,.8-.408l6.22,2.432a.664.664,0,0,0,.065.023l2.343.617,2.831.744,4.27,1.124c3.047.8,5.881-.534,6.683-3.581l4.179-13.214c1.21-3.427-1.524-6.3-4.571-7.1" transform="translate(16.862 18.488)" fill="#6c98dd"/>
  </g>
</svg>
