<svg xmlns="http://www.w3.org/2000/svg" width="129.737" height="114.813" viewBox="0 0 129.737 114.813">
  <g id="Grupo_1102062" data-name="Grupo 1102062" transform="translate(-250.263 -10246.187)">
    <path id="_12068" data-name="12068" d="M98.737,72.292c-13.285-1.834-27.318-1.386-39.407,4.421-16.765,8.052-27.775,26.309-28.2,44.9S40.4,158.479,55.36,169.523s34.7,14.959,53,11.643c18.453-3.344,35.773-14.186,45.4-30.28,6.172-10.321,9.057-23.065,5.647-34.6-2.059-6.961-6.267-13.128-11.217-18.437A82.875,82.875,0,0,0,98.737,72.292Z" transform="translate(219.144 10178.691)" fill="#26aab7"/>
    <g id="me-gusta" transform="translate(257.707 10246.186)">
      <path id="Trazado_876022" data-name="Trazado 876022" d="M103.148,23a55.857,55.857,0,0,0-87.362,68.29,4.383,4.383,0,0,1,.444,3.536L10.085,114.9a.927.927,0,0,0,1.158,1.157l20.08-6.144a4.377,4.377,0,0,1,3.536.444A55.857,55.857,0,0,0,103.148,23Zm0,0" transform="translate(-6.095 -5.2)" fill="#e4eaf8"/>
      <path id="Trazado_876023" data-name="Trazado 876023" d="M22.966,94.837a4.383,4.383,0,0,0-.444-3.536A55.764,55.764,0,0,1,67.016,6.821,55.779,55.779,0,0,0,15.786,91.3a4.383,4.383,0,0,1,.444,3.536l-6.145,20.08a.926.926,0,0,0,1.158,1.157l5.764-1.764Zm0,0" transform="translate(-6.095 -5.212)" fill="#d8dce5"/>
      <path id="Trazado_876024" data-name="Trazado 876024" d="M238.136,149.4a4.625,4.625,0,0,0-4.611-4.763h-.009v0h.385a4.545,4.545,0,1,0-.007-9.091H214.955a.776.776,0,0,1-.738-1.017l1.66-5.067c1.412-4.312,1.161-7.248,1.161-12.3a5.379,5.379,0,0,0-10.712-.7c-.391,2.96-.655,8.224-5.548,12.936l-3.453,3.326a10.328,10.328,0,0,1-7.162,2.887h-3.925v29.859h3.1c6.594,0,5.992,6.526,14.192,6.518h27.912a4.546,4.546,0,0,0,4.546-4.546h0a4.546,4.546,0,0,0-4.546-4.546h.8a4.625,4.625,0,0,0,4.663-4.391,4.547,4.547,0,0,0-4.544-4.7h1.106A4.626,4.626,0,0,0,238.136,149.4Zm0,0" transform="translate(-144.463 -86.706)" fill="#f5c5a9"/>
      <path id="Trazado_876025" data-name="Trazado 876025" d="M234.492,326.4a4.527,4.527,0,0,1-3.047,1.179H203.534c-8.2.007-7.6-6.524-14.192-6.519l-3.1,0V327.8h3.1c6.595,0,5.992,6.526,14.192,6.518h27.912a4.547,4.547,0,0,0,4.547-4.546h0A4.528,4.528,0,0,0,234.492,326.4Zm0,0" transform="translate(-144.463 -249.042)" fill="#eebda4"/>
      <path id="Trazado_876026" data-name="Trazado 876026" d="M110.079,206.027H92.86a2.353,2.353,0,0,0-2.352,2.353v31.1a2.352,2.352,0,0,0,2.352,2.353h17.219a2.353,2.353,0,0,0,2.353-2.353v-31.1A2.353,2.353,0,0,0,110.079,206.027Zm0,0" transform="translate(-70.206 -159.811)" fill="#00aaf0"/>
      <path id="Trazado_876027" data-name="Trazado 876027" d="M97.24,239.484v-31.1a2.353,2.353,0,0,1,2.352-2.353H92.857A2.353,2.353,0,0,0,90.5,208.38v31.1a2.353,2.353,0,0,0,2.353,2.353h6.736A2.352,2.352,0,0,1,97.24,239.484Zm0,0" transform="translate(-70.203 -159.811)" fill="#039add"/>
      <path id="Trazado_876028" data-name="Trazado 876028" d="M115.875,125.875a8.6,8.6,0,0,1-5.994,2.417h-2.03a4.04,4.04,0,0,0-3.8-2.682H86.833a4.04,4.04,0,0,0-4.036,4.036v31.1a4.041,4.041,0,0,0,4.036,4.037h17.22a4.042,4.042,0,0,0,3.961-3.268h1.052c2.432,0,3.526,1.057,5.04,2.521,1.844,1.781,4.137,4,9.129,4h27.927a6.235,6.235,0,0,0,4.641-10.383,6.166,6.166,0,0,0,1.041-8.959,6.187,6.187,0,0,0,.917-9.45c-.024-.025-.048-.05-.073-.074a6.233,6.233,0,0,0-4.074-10.94h-17.69l1.27-3.876c1.506-4.6,1.245-7.737,1.245-12.823a7.064,7.064,0,0,0-14.066-.925C123.24,119.224,121.849,120.123,115.875,125.875ZM104.72,160.749a.669.669,0,0,1-.669.669H86.833a.669.669,0,0,1-.668-.669v-31.1a.669.669,0,0,1,.668-.669h17.219a.669.669,0,0,1,.669.669Zm22.993-49.7a3.7,3.7,0,0,1,7.359.484c0,5,.241,7.749-1.078,11.774l-1.66,5.067a2.462,2.462,0,0,0,2.338,3.225h18.943a2.862,2.862,0,1,1,0,5.724c-3.23,0,3.967,0-7.616,0a1.684,1.684,0,0,0,0,3.367h7.241a2.9,2.9,0,1,1-.054,5.792c-5.738,0-1.207,0-7.187,0a1.684,1.684,0,0,0,0,3.368c1.51,0-3.5,0,6.081,0a2.839,2.839,0,0,1,2.057.872,2.877,2.877,0,0,1-2.177,4.853s-.2,0-5.962,0a1.684,1.684,0,0,0,0,3.368h5.2a2.861,2.861,0,0,1-.037,5.723H123.237c-3.633,0-5.1-1.414-6.791-3.051s-3.586-3.467-7.38-3.467h-.978V131.66h1.792a11.953,11.953,0,0,0,8.33-3.359C124.549,122.2,126.432,120.724,127.714,111.048Zm0,0" transform="translate(-64.225 -81.034)"/>
      <path id="Trazado_876029" data-name="Trazado 876029" d="M127.249,320.848h-4.963a1.684,1.684,0,1,0,0,3.368h4.963a1.684,1.684,0,1,0,0-3.368Zm0,0" transform="translate(-93.549 -248.876)"/>
      <path id="Trazado_876030" data-name="Trazado 876030" d="M267.955,3.365a53.922,53.922,0,0,1,50.163,50.164,1.685,1.685,0,0,0,1.679,1.567c.039,0,.079,0,.118,0a1.684,1.684,0,0,0,1.563-1.8A57.292,57.292,0,0,0,268.189.005a1.684,1.684,0,1,0-.234,3.359Zm0,0" transform="translate(-206.633)"/>
      <path id="Trazado_876031" data-name="Trazado 876031" d="M8.48,89.175l-6.145,20.08a2.612,2.612,0,0,0,3.26,3.26l20.08-6.145a2.7,2.7,0,0,1,2.177.279,57.968,57.968,0,0,0,29.718,8.166,57.292,57.292,0,0,0,57.274-53.427,1.684,1.684,0,1,0-3.359-.234c-2.794,40.159-47.057,63.5-81.9,42.606a6.077,6.077,0,0,0-4.895-.61L5.973,108.878,11.7,90.161a6.077,6.077,0,0,0-.611-4.9C-9.786,50.449,13.5,6.162,53.7,3.365A1.684,1.684,0,1,0,53.463.005C9.951,3.032-13.479,50.841,8.2,87A2.7,2.7,0,0,1,8.48,89.175Zm0,0" transform="translate(0 0)"/>
    </g>
  </g>
</svg>
