<svg xmlns="http://www.w3.org/2000/svg" width="78.501" height="72.27" viewBox="0 0 78.501 72.27">
  <g id="Grupo_1102048" data-name="Grupo 1102048" transform="translate(-244 -9945.777)">
    <path id="_12068" data-name="12068" d="M72.033,71.913c-8.038-1.11-16.53-.839-23.844,2.675C38.045,79.46,31.382,90.507,31.127,101.757s5.606,22.305,14.66,28.988,21,9.051,32.068,7.045c11.165-2.023,21.645-8.583,27.469-18.322,3.735-6.245,5.48-13.956,3.417-20.934a28.6,28.6,0,0,0-6.787-11.156A50.145,50.145,0,0,0,72.033,71.913Z" transform="translate(212.881 9879.565)" fill="#26aab7"/>
    <g id="grupo-de-edad" transform="translate(244 9909.159)">
      <g id="Grupo_1100481" data-name="Grupo 1100481" transform="translate(1.15 37.768)">
        <path id="Trazado_877584" data-name="Trazado 877584" d="M215.738,432.75l-.584.618v1.637a3.131,3.131,0,1,0,6.263,0,3.131,3.131,0,1,0,6.263,0v-1.637l-.519-.618Z" transform="translate(-183.316 -373.164)" fill="#dbedff"/>
        <path id="Trazado_877585" data-name="Trazado 877585" d="M217.454,438.02v-5.27h-1.716l-.584.618v1.637A3.141,3.141,0,0,0,217.454,438.02Z" transform="translate(-183.316 -373.164)" fill="#b5dcff"/>
        <path id="Trazado_877586" data-name="Trazado 877586" d="M256,435.006a3.141,3.141,0,0,0,2.3,3.015v-5.27H256Z" transform="translate(-217.902 -373.164)" fill="#b5dcff"/>
        <path id="Trazado_877587" data-name="Trazado 877587" d="M376.078,258.75v3.967l.481.671.615.478a2.386,2.386,0,0,0,1.293-2.121v-2.57l-.179-.425Z" transform="translate(-319.567 -225.842)" fill="#ffcebe"/>
        <path id="Trazado_877588" data-name="Trazado 877588" d="M363.057,261.745v-2.57l.8-.425H361.3l-.8.425v2.57a2.385,2.385,0,0,0,3.666,2.015A2.384,2.384,0,0,1,363.057,261.745Z" transform="translate(-306.379 -225.842)" fill="#ffb1a0"/>
        <g id="Grupo_1100477" data-name="Grupo 1100477" transform="translate(4.776 32.525)">
          <path id="Trazado_877589" data-name="Trazado 877589" d="M477.353,256.25h-3.324l-.68.808v2.57a2.388,2.388,0,0,0,4.776,0v-2.57Z" transform="translate(-406.701 -256.25)" fill="#ffcebe"/>
          <path id="Trazado_877590" data-name="Trazado 877590" d="M475.65,262.012V256.25h-1.62l-.68.808v2.57A2.386,2.386,0,0,0,475.65,262.012Z" transform="translate(-406.702 -256.25)" fill="#ffcebe"/>
          <path id="Trazado_877591" data-name="Trazado 877591" d="M51.18,414.427,50.328,414H39.289l-.635.427v4.7a3.131,3.131,0,1,0,6.263,0,3.131,3.131,0,1,0,6.263,0Z" transform="translate(-38.654 -389.814)" fill="#ffcebe"/>
        </g>
        <path id="Trazado_877592" data-name="Trazado 877592" d="M38.654,414.427v4.7a3.141,3.141,0,0,0,2.3,3.015V414H39.289Z" transform="translate(-33.878 -357.289)" fill="#ffb1a0"/>
        <path id="Trazado_877593" data-name="Trazado 877593" d="M79.474,419.215c0-.028,0-.056,0-.085a3.141,3.141,0,0,0,2.3,3.014V414h-2.3Z" transform="translate(-68.439 -357.289)" fill="#ffb1a0"/>
        <path id="Trazado_877594" data-name="Trazado 877594" d="M50.584,367.333H39.227l-.573.486v7.1H51.18v-7.1Z" transform="translate(-33.878 -317.777)" fill="#8479c2"/>
        <path id="Trazado_877595" data-name="Trazado 877595" d="M38.654,367.819v7.1h2.3v-7.582H39.227Z" transform="translate(-33.878 -317.777)" fill="#6e60b8"/>
        <path id="Trazado_877596" data-name="Trazado 877596" d="M81.774,396.039v-2.606a1.15,1.15,0,0,0-2.3,0v2.606Z" transform="translate(-68.439 -338.902)" fill="#6e60b8"/>
        <path id="Trazado_877597" data-name="Trazado 877597" d="M38.942,272.7H35.523l-1.213.621H28.484l-.549-.621H25.354l-1.474.909-.8,2.242v6.324h1.848l.54-.506.661.506H37.242l.749-.506.508.659h3.674l.594-.659v-5.143a3.826,3.826,0,0,0-3.826-3.826Z" transform="translate(-20.69 -237.652)" fill="#ff5595"/>
        <g id="Grupo_1100478" data-name="Grupo 1100478" transform="translate(0 35.047)">
          <path id="Trazado_877598" data-name="Trazado 877598" d="M10.057,276.526a3.826,3.826,0,0,1,3.826-3.826H11.327A3.826,3.826,0,0,0,7.5,276.526v5.143l.4.506h2.555l-.4-.506v-5.143Z" transform="translate(-7.501 -272.7)" fill="#ff3581"/>
        </g>
        <path id="Trazado_877599" data-name="Trazado 877599" d="M39.8,302.95a1.15,1.15,0,0,0-1.15,1.15v3.181l.661.506h1.639V304.1A1.15,1.15,0,0,0,39.8,302.95Z" transform="translate(-33.878 -263.265)" fill="#ff3581"/>
        <path id="Trazado_877600" data-name="Trazado 877600" d="M120.349,307.281l.508.659h1.792V304.1a1.15,1.15,0,1,0-2.3,0Z" transform="translate(-103.047 -263.265)" fill="#ff3581"/>
        <path id="Trazado_877601" data-name="Trazado 877601" d="M23.078,337.627l.653,1.054.446.26a2.386,2.386,0,0,0,1.289-2.119V331.2H23.078Z" transform="translate(-20.69 -287.183)" fill="#ffcebe"/>
        <path id="Trazado_877602" data-name="Trazado 877602" d="M10.057,336.822V331.2H7.5v5.623a2.385,2.385,0,0,0,3.666,2.015A2.384,2.384,0,0,1,10.057,336.822Z" transform="translate(-7.502 -287.183)" fill="#ffb1a0"/>
        <path id="Trazado_877603" data-name="Trazado 877603" d="M120.349,331.2v5.623a2.388,2.388,0,1,0,4.776,0V331.2Z" transform="translate(-103.047 -287.184)" fill="#ffcebe"/>
        <path id="Trazado_877604" data-name="Trazado 877604" d="M226.7,322.667H215.917l-.763.5v17H227.68v-17Z" transform="translate(-183.316 -279.959)" fill="#8479c2"/>
        <path id="Trazado_877605" data-name="Trazado 877605" d="M217.454,322.667h-1.537l-.763.5v17h2.3Z" transform="translate(-183.316 -279.959)" fill="#6e60b8"/>
        <path id="Trazado_877606" data-name="Trazado 877606" d="M258.3,361.354V348.845a1.15,1.15,0,0,0-2.3,0v12.509Z" transform="translate(-217.902 -301.15)" fill="#6e60b8"/>
        <path id="Trazado_877607" data-name="Trazado 877607" d="M404.181,425.285l-.481-.785H392.507l-.852.785v2.735a3.131,3.131,0,1,0,6.263,0,3.131,3.131,0,1,0,6.263,0v-2.735Z" transform="translate(-332.756 -366.179)" fill="#938493"/>
        <path id="Trazado_877608" data-name="Trazado 877608" d="M393.954,431.035V424.5h-1.448l-.852.785v2.735A3.141,3.141,0,0,0,393.954,431.035Z" transform="translate(-332.755 -366.179)" fill="#7b6c79"/>
        <path id="Trazado_877609" data-name="Trazado 877609" d="M434.8,431.035V424.5h-2.3v3.52A3.141,3.141,0,0,0,434.8,431.035Z" transform="translate(-367.34 -366.179)" fill="#7b6c79"/>
        <path id="Trazado_877610" data-name="Trazado 877610" d="M403.584,278.625H392.55l-.9.35v22.8H404.18v-22.8Z" transform="translate(-332.755 -242.67)" fill="#8479c2"/>
        <path id="Trazado_877611" data-name="Trazado 877611" d="M393.954,278.625h-1.4l-.9.35v22.8h2.3Z" transform="translate(-332.755 -242.67)" fill="#6e60b8"/>
        <path id="Trazado_877612" data-name="Trazado 877612" d="M434.8,322.155V303.844a1.15,1.15,0,0,0-2.3,0v18.311Z" transform="translate(-367.34 -263.048)" fill="#6e60b8"/>
        <path id="Trazado_877613" data-name="Trazado 877613" d="M54.651,273.042a3.81,3.81,0,0,0,7.62,0c0-.116-.006-.23-.016-.343H54.667c-.01.113-.016.228-.016.343Z" transform="translate(-47.422 -237.652)" fill="#ffcebe"/>
        <path id="Trazado_877614" data-name="Trazado 877614" d="M38.654,331.2H51.18v6.026H38.654Z" transform="translate(-33.878 -287.184)" fill="#ff76aa"/>
        <path id="Trazado_877615" data-name="Trazado 877615" d="M38.654,331.2h2.3v6.026h-2.3Z" transform="translate(-33.878 -287.183)" fill="#ff5595"/>
        <path id="Trazado_877616" data-name="Trazado 877616" d="M122.649,339.206V331.2h-2.3v5.623A2.386,2.386,0,0,0,122.649,339.206Z" transform="translate(-103.047 -287.183)" fill="#ffb1a0"/>
        <path id="Trazado_877617" data-name="Trazado 877617" d="M391.942,138.132h-.777l-.444.21-3.354,3.7-2.638-2.1h0l-2.823,2.1-3.22-3.737-.211-.092-1.119.75-1.278,1.731V157.05h2.388v2.973h12.526V157.05h4.776V141.958A3.826,3.826,0,0,0,391.942,138.132Z" transform="translate(-319.567 -123.717)" fill="#60b9fe"/>
        <g id="Grupo_1100479" data-name="Grupo 1100479" transform="translate(54.122 14.415)">
          <path id="Trazado_877618" data-name="Trazado 877618" d="M365.554,138.369l-.057-.066-.393-.171h-.777a3.826,3.826,0,0,0-3.826,3.826V157.05h2.555V141.958A3.828,3.828,0,0,1,365.554,138.369Z" transform="translate(-360.501 -138.132)" fill="#1ca8ff"/>
        </g>
        <path id="Trazado_877619" data-name="Trazado 877619" d="M393.954,193.285V178.567a1.15,1.15,0,1,0-2.3,0v14.718Z" transform="translate(-332.755 -156.979)" fill="#1ca8ff"/>
        <path id="Trazado_877620" data-name="Trazado 877620" d="M475.65,178.567a1.15,1.15,0,1,0-2.3,0v11.745h2.3Z" transform="translate(-401.925 -156.979)" fill="#1ca8ff"/>
        <path id="Trazado_877621" data-name="Trazado 877621" d="M438.649,124.5l-1.81-1.583a.863.863,0,0,0-1.218.081l-2.906,3.321a.863.863,0,0,0,.081,1.218l1.81,1.583a.863.863,0,0,0,1.218-.081l2.906-3.321A.863.863,0,0,0,438.649,124.5Z" transform="translate(-367.34 -110.651)" fill="#8bcaff"/>
        <path id="Trazado_877622" data-name="Trazado 877622" d="M390.779,124.5l1.81-1.583a.863.863,0,0,1,1.218.081l2.906,3.321a.863.863,0,0,1-.081,1.218l-1.81,1.583a.863.863,0,0,1-1.218-.081l-2.906-3.321A.863.863,0,0,1,390.779,124.5Z" transform="translate(-331.765 -110.651)" fill="#8bcaff"/>
        <path id="Trazado_877623" data-name="Trazado 877623" d="M215.443,209.339h-3.419l-.887.51h-5.954l-.747-.51h-2.209l-1.37.6-1.278,2.44v7.583h1.937v6.753l.451.5h12.526l.362-.5v-6.4h3.756l.658-.76v-6.388A3.826,3.826,0,0,0,215.443,209.339Z" transform="translate(-170.129 -184.007)" fill="#ffd947"/>
        <g id="Grupo_1100480" data-name="Grupo 1100480" transform="translate(27.061 25.332)">
          <path id="Trazado_877624" data-name="Trazado 877624" d="M186.557,213.165a3.826,3.826,0,0,1,3.826-3.826h-2.555A3.826,3.826,0,0,0,184,213.165v6.388l.761.41h2.555l-.761-.41Z" transform="translate(-184.002 -209.339)" fill="#fbc700"/>
        </g>
        <path id="Trazado_877625" data-name="Trazado 877625" d="M217.454,240.738a1.15,1.15,0,1,0-2.3,0v12.085h2.3Z" transform="translate(-183.316 -209.618)" fill="#fbc700"/>
        <path id="Trazado_877626" data-name="Trazado 877626" d="M299.149,240.738a1.15,1.15,0,1,0-2.3,0v12.085l.362-.5v-6.4h1.938Z" transform="translate(-252.486 -209.618)" fill="#fbc700"/>
        <path id="Trazado_877627" data-name="Trazado 877627" d="M199.578,284.424l1.027.94a2.386,2.386,0,0,0,1.361-2.154v-7.257h-2.388Z" transform="translate(-170.129 -240.408)" fill="#ffcebe"/>
        <path id="Trazado_877628" data-name="Trazado 877628" d="M186.557,283.211v-7.257H184v7.257a2.385,2.385,0,0,0,3.666,2.015,2.384,2.384,0,0,1-1.11-2.015Z" transform="translate(-156.941 -240.408)" fill="#ffb1a0"/>
        <path id="Trazado_877629" data-name="Trazado 877629" d="M296.849,275.954v7.257a2.388,2.388,0,0,0,4.776,0v-7.257Z" transform="translate(-252.486 -240.408)" fill="#ffcebe"/>
        <path id="Trazado_877630" data-name="Trazado 877630" d="M299.149,285.595v-9.641h-2.3v7.257A2.387,2.387,0,0,0,299.149,285.595Z" transform="translate(-252.486 -240.408)" fill="#ffb1a0"/>
        <path id="Trazado_877631" data-name="Trazado 877631" d="M231.151,209.681a3.81,3.81,0,0,0,7.62,0c0-.116-.006-.23-.016-.343h-7.588C231.157,209.451,231.151,209.566,231.151,209.681Z" transform="translate(-196.861 -184.006)" fill="#ffcebe"/>
        <path id="Trazado_877632" data-name="Trazado 877632" d="M72.247,174.3H71.3l-2.172,2.51-.6,2.325s.17,1.84.247,1.942,1.437,2.734,1.437,2.734l1.638.658a5.413,5.413,0,0,0,.406-10.17Z" transform="translate(-59.164 -154.338)" fill="#ffcebe"/>
        <path id="Trazado_877633" data-name="Trazado 877633" d="M48.293,177.1a5.412,5.412,0,0,1,3.368-5.011,5.412,5.412,0,1,0,0,10.022A5.413,5.413,0,0,1,48.293,177.1Z" transform="translate(-38.578 -152.125)" fill="#ffb1a0"/>
        <path id="Trazado_877634" data-name="Trazado 877634" d="M248.747,110.376H247.8l-2.172,2.51-.6,2.325s.17,1.84.247,1.942,1.437,2.734,1.437,2.734l1.638.658a5.413,5.413,0,0,0,.406-10.17Z" transform="translate(-208.602 -100.217)" fill="#ffcebe"/>
        <path id="Trazado_877635" data-name="Trazado 877635" d="M224.793,113.175a5.412,5.412,0,0,1,3.368-5.011,5.412,5.412,0,1,0,0,10.022A5.413,5.413,0,0,1,224.793,113.175Z" transform="translate(-188.016 -98.005)" fill="#ffb1a0"/>
        <path id="Trazado_877636" data-name="Trazado 877636" d="M425.247,46.73H424.3l-2.172,2.51-.6,2.325s.17,1.84.247,1.942,1.437,2.734,1.437,2.734l1.638.658a5.413,5.413,0,0,0,.406-10.17Z" transform="translate(-358.041 -46.329)" fill="#ffcebe"/>
        <path id="Trazado_877637" data-name="Trazado 877637" d="M401.293,49.528a5.412,5.412,0,0,1,3.368-5.011,5.412,5.412,0,1,0,0,10.022A5.412,5.412,0,0,1,401.293,49.528Z" transform="translate(-337.455 -44.116)" fill="#ffb1a0"/>
      </g>
      <g id="Grupo_1100482" data-name="Grupo 1100482" transform="translate(0 36.618)">
        <path id="Trazado_877638" data-name="Trazado 877638" d="M219.765,113.946a6.562,6.562,0,1,0-6.562-6.562A6.569,6.569,0,0,0,219.765,113.946Zm0-10.824a4.262,4.262,0,1,1-4.262,4.262A4.267,4.267,0,0,1,219.765,103.123Z" transform="translate(-180.514 -90.979)"/>
        <path id="Trazado_877639" data-name="Trazado 877639" d="M43.265,177.307a6.562,6.562,0,1,0-6.562-6.562A6.569,6.569,0,0,0,43.265,177.307Zm0-10.824A4.262,4.262,0,1,1,39,170.746,4.267,4.267,0,0,1,43.265,166.484Z" transform="translate(-31.076 -144.625)"/>
        <path id="Trazado_877640" data-name="Trazado 877640" d="M19.4,265.2H4.976A4.981,4.981,0,0,0,0,270.176v10.766a3.537,3.537,0,0,0,4.776,3.314v8.888a4.28,4.28,0,0,0,7.413,2.917,4.28,4.28,0,0,0,7.413-2.917v-8.888a3.537,3.537,0,0,0,4.776-3.314V270.176A4.981,4.981,0,0,0,19.4,265.2Zm-4.678,2.3a2.66,2.66,0,0,1-5.07,0ZM4.776,280.942a1.238,1.238,0,0,1-2.476,0v-4.473H4.776Zm6.263,12.2a1.982,1.982,0,1,1-3.963,0v-3.554h3.963Zm6.263,0a1.982,1.982,0,1,1-3.963,0v-3.554H17.3Zm0-5.853H13.339v-1.457a1.15,1.15,0,1,0-2.3,0v1.457H7.076v-4.8H17.3v4.8Zm0-7.1H7.076v-3.726H17.3v3.726Zm4.776.747a1.238,1.238,0,0,1-2.476,0v-4.473h2.476Zm0-6.773H19.6v-2.032a1.15,1.15,0,0,0-2.3,0v2.032H7.076v-2.032a1.15,1.15,0,0,0-2.3,0v2.032H2.3v-3.994A2.679,2.679,0,0,1,4.976,267.5H7.3a4.959,4.959,0,0,0,9.787,0H19.4a2.679,2.679,0,0,1,2.676,2.676Z" transform="translate(0 -230.154)"/>
        <path id="Trazado_877641" data-name="Trazado 877641" d="M195.9,201.838H181.476a4.981,4.981,0,0,0-4.976,4.976v13.645a3.537,3.537,0,0,0,4.776,3.314V239.5a4.28,4.28,0,0,0,7.413,2.917A4.28,4.28,0,0,0,196.1,239.5v-7.131a1.15,1.15,0,0,0-2.3,0v4.344h-3.963V225.351a1.15,1.15,0,0,0-2.3,0V236.71h-3.963v-14.7H193.8V227a1.15,1.15,0,0,0,2.3,0v-3.227a3.537,3.537,0,0,0,4.776-3.314V206.814A4.981,4.981,0,0,0,195.9,201.838Zm-6.063,37.172H193.8v.487a1.982,1.982,0,0,1-3.963,0Zm1.385-34.872a2.661,2.661,0,0,1-5.071,0Zm-9.948,16.321a1.238,1.238,0,0,1-2.476,0v-6.107h2.476Zm6.263,18.551v.487a1.982,1.982,0,1,1-3.963,0v-.487Zm11.039-18.551a1.238,1.238,0,0,1-2.476,0v-6.107h2.476Zm0-8.407H196.1v-3.276a1.15,1.15,0,0,0-2.3,0v10.936H183.576V208.776a1.15,1.15,0,0,0-2.3,0v3.276H178.8v-5.238a2.679,2.679,0,0,1,2.676-2.676h2.32a4.959,4.959,0,0,0,9.787,0h2.32a2.679,2.679,0,0,1,2.676,2.676Z" transform="translate(-149.439 -176.506)"/>
        <path id="Trazado_877642" data-name="Trazado 877642" d="M376.227,61.205a1.15,1.15,0,0,0,1.15-1.15V56.008a4.98,4.98,0,0,0-5.016-4.976,2.031,2.031,0,0,0-.268-.285l-1.81-1.583a2,2,0,0,0-1.46-.494l-.06.007h0a6.562,6.562,0,1,0-7.148,0,2.006,2.006,0,0,0-1.522.486l-1.81,1.583h0a2.016,2.016,0,0,0-.267.284A4.98,4.98,0,0,0,353,56.008V73.671a3.537,3.537,0,0,0,4.776,3.314V99.609a4.28,4.28,0,0,0,7.413,2.917,4.28,4.28,0,0,0,7.413-2.917V76.985a3.537,3.537,0,0,0,4.776-3.314V65.422a1.15,1.15,0,0,0-2.3,0v4.529H372.6v-10.6a1.15,1.15,0,1,0-2.3,0V72.924H360.074V59.356a1.15,1.15,0,1,0-2.3,0v10.6H355.3V56.008a2.679,2.679,0,0,1,2.606-2.675c.121.194,0,.035,3.1,3.577a2.021,2.021,0,0,0,2.841.189l1.347-1.179c.069.06,1.29,1.13,1.359,1.188a2.011,2.011,0,0,0,2.829-.2c3.019-3.45,2.963-3.365,3.1-3.577a2.679,2.679,0,0,1,2.606,2.675v4.047a1.15,1.15,0,0,0,1.15,1.15ZM372.6,72.25h2.476v1.42a1.238,1.238,0,0,1-2.476,0Zm-2.3,27.358a1.982,1.982,0,0,1-3.963,0V98.024H370.3ZM360.074,75.223H370.3v20.5h-3.963V78.563a1.15,1.15,0,0,0-2.3,0V95.724h-3.963Zm0,22.8h3.963v1.585a1.982,1.982,0,1,1-3.963,0Zm-2.3-25.773v1.42a1.238,1.238,0,0,1-2.476,0V72.25Zm7.413-33.333a4.262,4.262,0,1,1-4.262,4.262A4.267,4.267,0,0,1,365.187,38.918ZM362.541,55.18l-2.528-2.89,1.378-1.206,2.528,2.89-1.378,1.206Zm2.646-3.25c-2.754-3.148-2.17-2.482-2.272-2.595a6.37,6.37,0,0,0,1.805.388h0a5.64,5.64,0,0,0,.726.012h0a6.685,6.685,0,0,0,2.013-.4C367.362,49.444,367.928,48.8,365.187,51.93Zm2.646,3.25-1.379-1.206,2.528-2.89,1.378,1.206Z" transform="translate(-298.876 -36.618)"/>
      </g>
    </g>
  </g>
</svg>
