<svg xmlns="http://www.w3.org/2000/svg" width="78.501" height="70.938" viewBox="0 0 78.501 70.938">
  <g id="Grupo_1102047" data-name="Grupo 1102047" transform="translate(-244 -9641.108)">
    <path id="_12068" data-name="12068" d="M72.033,71.913c-8.038-1.11-16.53-.839-23.844,2.675C38.045,79.46,31.382,90.507,31.127,101.757s5.606,22.305,14.66,28.988,21,9.051,32.068,7.045c11.165-2.023,21.645-8.583,27.469-18.322,3.735-6.245,5.48-13.956,3.417-20.934a28.6,28.6,0,0,0-6.787-11.156A50.145,50.145,0,0,0,72.033,71.913Z" transform="translate(212.881 9573.565)" fill="#26aab7"/>
    <g id="lugares" transform="translate(223.322 9641.107)">
      <g id="Grupo_1100475" data-name="Grupo 1100475" transform="translate(31.007 0.988)">
        <g id="Grupo_1100471" data-name="Grupo 1100471" transform="translate(1.233 12.871)">
          <path id="Trazado_877564" data-name="Trazado 877564" d="M127.617,131.153c0,6.891-3.789,13.164-3.165,17.873a26.461,26.461,0,0,1-39.024,0c-4.316-4.709-.7-10.982-.7-17.873s-3.613-13.164.7-17.873a26.461,26.461,0,0,1,39.024,0C124.452,121.217,127.617,124.262,127.617,131.153Z" transform="translate(-78.48 -104.693)" fill="#c8effe"/>
          <path id="Trazado_877565" data-name="Trazado 877565" d="M110.693,156.984a26.5,26.5,0,0,1-25.271-7.958c-4.314-4.709-.7-10.982-.7-17.873s-3.613-13.164.7-17.873a26.5,26.5,0,0,1,25.271-7.958,26.467,26.467,0,0,0,0,51.662Z" transform="translate(-78.475 -104.693)" fill="#99e6fc"/>
          <path id="Trazado_877566" data-name="Trazado 877566" d="M72.813,191.877v.051a4.443,4.443,0,0,1-4.443,4.443H65.585a4.433,4.433,0,0,0-4.443,4.442v.051a4.442,4.442,0,0,1-4.442,4.443H53.775a26.461,26.461,0,0,1,0-35.746h5.654A4.443,4.443,0,0,1,63.87,174v.051a4.441,4.441,0,0,1-3.97,4.416,4.206,4.206,0,0,1-.472.026,4.443,4.443,0,0,0-4.443,4.443v.051a4.437,4.437,0,0,0,4.443,4.443h8.941A4.442,4.442,0,0,1,72.813,191.877Z" transform="translate(-46.826 -160.974)" fill="#62529b"/>
          <path id="Trazado_877567" data-name="Trazado 877567" d="M58.344,187.434a26.348,26.348,0,0,0,2.962,12.177,4.491,4.491,0,0,0-.164,1.2v.051a4.442,4.442,0,0,1-4.442,4.443H53.775a26.461,26.461,0,0,1,0-35.746h5.654a4.439,4.439,0,0,1,3.929,2.371,26.394,26.394,0,0,0-3.457,6.539,4.206,4.206,0,0,1-.472.026,4.443,4.443,0,0,0-4.443,4.443v.051a4.446,4.446,0,0,0,3.359,4.31v.133Z" transform="translate(-46.826 -160.974)" fill="#7d6eb2"/>
          <path id="Trazado_877568" data-name="Trazado 877568" d="M288.314,187.431a26.362,26.362,0,0,1-6.949,17.873h-6.21a4.433,4.433,0,0,1-4.432-4.432V200.8a4.433,4.433,0,0,1,4.432-4.432h2.915a4.433,4.433,0,0,0,4.434-4.434v-.071a4.433,4.433,0,0,0-4.434-4.432h-.607A4.433,4.433,0,0,1,273.03,183v-.071a4.433,4.433,0,0,0-4.432-4.434,4.435,4.435,0,0,1-4.434-4.432v-.071a4.433,4.433,0,0,1,4.434-4.432h12.767a26.363,26.363,0,0,1,6.949,17.873Z" transform="translate(-235.393 -160.971)" fill="#7d6eb2"/>
          <path id="Trazado_877569" data-name="Trazado 877569" d="M206.526,433.595a3.247,3.247,0,1,1-6.494,0c0-.073,0-.146.008-.217a3.247,3.247,0,0,1,6.486.217Z" transform="translate(-179.751 -387.238)" fill="#ffd947"/>
          <path id="Trazado_877570" data-name="Trazado 877570" d="M204.485,456.465a3.247,3.247,0,0,1-4.453-3.016c0-.073,0-.146.008-.217A26.392,26.392,0,0,0,204.485,456.465Z" transform="translate(-179.751 -407.093)" fill="#6fd7a3"/>
        </g>
        <g id="Grupo_1100472" data-name="Grupo 1100472" transform="translate(38.844 7.291)">
          <path id="Trazado_877571" data-name="Trazado 877571" d="M338.879,87.423l-6.485-10.329a9.5,9.5,0,1,1,16.09,0L342,87.423A1.842,1.842,0,0,1,338.879,87.423Z" transform="translate(-330.94 -62.544)" fill="#fe646f"/>
          <path id="Trazado_877572" data-name="Trazado 877572" d="M341.168,87.429a1.728,1.728,0,0,0,.339.525,1.844,1.844,0,0,1-2.626-.525L332.4,77.1a9.5,9.5,0,0,1,9.111-14.489,5.965,5.965,0,0,0-3.868,2.721,12.949,12.949,0,0,0-.91,11.767l.73,1.7Z" transform="translate(-330.942 -62.549)" fill="#fd4755"/>
          <circle id="Elipse_11837" data-name="Elipse 11837" cx="5.159" cy="5.159" r="5.159" transform="translate(4.34 4.155)" fill="#e8edf2"/>
          <path id="Trazado_877573" data-name="Trazado 877573" d="M371.032,103.78a5.159,5.159,0,1,1,0-9.388,5.161,5.161,0,0,0,0,9.388Z" transform="translate(-359.388 -89.772)" fill="#d9e7ec"/>
        </g>
        <g id="Grupo_1100473" data-name="Grupo 1100473" transform="translate(0)">
          <path id="Trazado_877574" data-name="Trazado 877574" d="M45.448,32.343,38.963,22.013a9.5,9.5,0,1,1,16.09,0L48.567,32.343A1.841,1.841,0,0,1,45.448,32.343Z" transform="translate(-37.508 -7.464)" fill="#fe646f"/>
          <path id="Trazado_877575" data-name="Trazado 877575" d="M47.736,32.35a1.728,1.728,0,0,0,.339.525,1.844,1.844,0,0,1-2.626-.525L38.964,22.02A9.5,9.5,0,0,1,48.075,7.531a5.965,5.965,0,0,0-3.868,2.721A12.949,12.949,0,0,0,43.3,22.02l.73,1.7Z" transform="translate(-37.51 -7.47)" fill="#fd4755"/>
          <circle id="Elipse_11838" data-name="Elipse 11838" cx="5.159" cy="5.159" r="5.159" transform="translate(4.341 4.155)" fill="#e8edf2"/>
          <path id="Trazado_877576" data-name="Trazado 877576" d="M77.6,48.7a5.159,5.159,0,1,1,0-9.388,5.161,5.161,0,0,0,0,9.388Z" transform="translate(-65.956 -34.693)" fill="#d9e7ec"/>
        </g>
        <g id="Grupo_1100474" data-name="Grupo 1100474" transform="translate(15.263 32.158)">
          <path id="Trazado_877577" data-name="Trazado 877577" d="M160.742,275.267l-6.485-10.329a9.5,9.5,0,1,1,16.09,0l-6.485,10.329A1.842,1.842,0,0,1,160.742,275.267Z" transform="translate(-152.803 -250.388)" fill="#fe646f"/>
          <path id="Trazado_877578" data-name="Trazado 877578" d="M163.031,275.274a1.729,1.729,0,0,0,.339.525,1.844,1.844,0,0,1-2.626-.525l-6.485-10.33a9.5,9.5,0,0,1,9.111-14.489,5.965,5.965,0,0,0-3.868,2.721,12.949,12.949,0,0,0-.91,11.767l.73,1.7Z" transform="translate(-152.805 -250.394)" fill="#fd4755"/>
          <circle id="Elipse_11839" data-name="Elipse 11839" cx="5.159" cy="5.159" r="5.159" transform="translate(4.34 4.155)" fill="#e8edf2"/>
          <path id="Trazado_877579" data-name="Trazado 877579" d="M192.895,291.625a5.159,5.159,0,1,1,0-9.388,5.161,5.161,0,0,0,0,9.388Z" transform="translate(-181.251 -277.618)" fill="#d9e7ec"/>
        </g>
      </g>
      <g id="Grupo_1100476" data-name="Grupo 1100476" transform="translate(30.015 0.001)">
        <path id="Trazado_877580" data-name="Trazado 877580" d="M89.776,16.6a10.489,10.489,0,0,0-20.531-1.636,27.551,27.551,0,0,0-18.917-.8,10.49,10.49,0,1,0-18.708,1.9l4.992,7.951a27.165,27.165,0,0,0-5.365,16.3,27.454,27.454,0,0,0,54.907,0A28.047,28.047,0,0,0,86,37.367a.993.993,0,0,0-1.975.209,26.106,26.106,0,0,1,.145,2.743,25.4,25.4,0,0,1-6.4,16.88H72a3.443,3.443,0,0,1-3.439-3.439v-.072A3.443,3.443,0,0,1,72,50.25h2.915a5.433,5.433,0,0,0,5.426-5.427v-.07a5.432,5.432,0,0,0-5.426-5.426h-.606a3.443,3.443,0,0,1-3.439-3.439v-.072a5.432,5.432,0,0,0-5.426-5.426,3.442,3.442,0,0,1-3.44-3.439v-.072a3.444,3.444,0,0,1,3.44-3.439h5.072L76.95,33.686a2.835,2.835,0,0,0,4.8,0l1.036-1.65c.149.432.289.868.414,1.308a.993.993,0,1,0,1.91-.543,27.244,27.244,0,0,0-1-2.876l4.123-6.568A10.532,10.532,0,0,0,89.776,16.6ZM34.492,4.473A8.506,8.506,0,0,1,47.71,15.01L41.225,25.34a.849.849,0,0,1-1.438,0L33.3,15.01A8.465,8.465,0,0,1,34.492,4.473Zm3.261,21.361.353.562a2.835,2.835,0,0,0,4.8,0l1.855-2.955h.081a3.453,3.453,0,0,1,3.448,3.45v.051a3.451,3.451,0,0,1-3.448,3.448,5.442,5.442,0,0,0-5.437,5.435v.051a5.442,5.442,0,0,0,5.437,5.435h.521c-.007.052-.015.1-.021.157a10.527,10.527,0,0,0,1.54,6.755l.755,1.2A5.4,5.4,0,0,0,45.564,53.7v.051a3.453,3.453,0,0,1-3.449,3.45H39.648a25.443,25.443,0,0,1-1.9-31.367Zm22.266,1.046v.072a5.427,5.427,0,0,0,5.426,5.425,3.444,3.444,0,0,1,3.44,3.44v.072a5.431,5.431,0,0,0,5.425,5.425h.606a3.444,3.444,0,0,1,3.44,3.44v.07a3.445,3.445,0,0,1-3.44,3.442H72a5.431,5.431,0,0,0-5.425,5.425v.072A5.431,5.431,0,0,0,72,59.186h3.8a25.436,25.436,0,0,1-34.193,0h.5a5.441,5.441,0,0,0,5.434-5.435V53.7A3.427,3.427,0,0,1,48.7,51.124l3.923,6.248a4.24,4.24,0,1,0,6.284,0l.788-1.255a.993.993,0,1,0-1.682-1.056L56.487,57.5a.848.848,0,0,1-1.437,0l-6.485-10.33a8.507,8.507,0,1,1,14.408,0l-2.5,3.982a.993.993,0,0,0,1.682,1.056l2.5-3.982a10.491,10.491,0,1,0-18.837-8.9h-.974a3.454,3.454,0,0,1-3.451-3.45v-.051a3.454,3.454,0,0,1,3.451-3.45,5.436,5.436,0,0,0,5.434-5.434V26.89a5.444,5.444,0,0,0-4.338-5.324l3-4.771a25.537,25.537,0,0,1,19.956.178,10.537,10.537,0,0,0,.636,4.482H65.445a5.431,5.431,0,0,0-5.426,5.424ZM57.726,59.1a2.254,2.254,0,1,1-3.913,0,2.836,2.836,0,0,0,3.913,0ZM86.555,22.3,80.07,32.631a.849.849,0,0,1-1.438,0L72.146,22.3a8.506,8.506,0,1,1,14.408,0Z" transform="translate(-30.015 -0.001)"/>
        <path id="Trazado_877581" data-name="Trazado 877581" d="M362.38,86.43a6.152,6.152,0,1,0,6.152,6.152A6.159,6.159,0,0,0,362.38,86.43Zm0,10.317a4.166,4.166,0,1,1,4.166-4.166A4.171,4.171,0,0,1,362.38,96.747Z" transform="translate(-313.044 -74.989)"/>
        <path id="Trazado_877582" data-name="Trazado 877582" d="M68.828,43.655a.993.993,0,0,0,.023-1.985A4.166,4.166,0,1,1,73.118,37.5a4.116,4.116,0,0,1-.951,2.65A.993.993,0,0,0,73.7,41.418,6.15,6.15,0,1,0,68.8,43.655h.024Z" transform="translate(-58.462 -27.203)"/>
        <path id="Trazado_877583" data-name="Trazado 877583" d="M184.244,274.275a6.152,6.152,0,1,0,6.152,6.152A6.159,6.159,0,0,0,184.244,274.275Zm0,10.317a4.166,4.166,0,1,1,4.166-4.166A4.171,4.171,0,0,1,184.244,284.592Z" transform="translate(-158.49 -237.967)"/>
      </g>
    </g>
  </g>
</svg>
