<svg xmlns="http://www.w3.org/2000/svg" width="129.737" height="122.746" viewBox="0 0 129.737 122.746">
  <g id="Grupo_1102056" data-name="Grupo 1102056" transform="translate(-652.995 -1970.946)">
    <path id="_12068" data-name="12068" d="M98.737,72.292c-13.285-1.834-27.318-1.386-39.407,4.421-16.765,8.052-27.775,26.309-28.2,44.9S40.4,158.479,55.36,169.523s34.7,14.959,53,11.643c18.453-3.344,35.773-14.186,45.4-30.28,6.172-10.321,9.057-23.065,5.647-34.6-2.059-6.961-6.267-13.128-11.217-18.437A82.875,82.875,0,0,0,98.737,72.292Z" transform="translate(621.876 1911.384)" fill="#26aab7"/>
    <g id="analisis" transform="translate(667.743 1970.946)">
      <g id="Flat_44_" transform="translate(1.61 1.61)">
        <path id="Trazado_875914" data-name="Trazado 875914" d="M142.347,163.21V107.383A12.883,12.883,0,0,0,129.464,94.5H108.346l-10.1,8.589L92.541,163.21l41.66,2.231Z" transform="translate(-74.281 -75.819)" fill="#d3d3d3"/>
        <path id="Trazado_875915" data-name="Trazado 875915" d="M70.259,166.411,86.449,134.5h25.517a4.3,4.3,0,0,1,4.294,4.294v62.269C116.261,203.431,70.259,203.5,70.259,166.411Z" transform="translate(-56.783 -107.231)" fill="#7d6eb2"/>
        <path id="Trazado_875916" data-name="Trazado 875916" d="M7.5,163.21V107.383A12.882,12.882,0,0,1,20.383,94.5H41.565a55.571,55.571,0,0,0-8.5,29.631c0,12.791-3.255,27.613-6.466,39.124C23.469,174.465,7.5,170.326,7.5,163.21Z" transform="translate(-7.5 -75.819)" fill="#abb4c0"/>
        <path id="Trazado_875917" data-name="Trazado 875917" d="M94.914,205.278a4.3,4.3,0,0,1-.82.079h-42.3a4.3,4.3,0,0,1-4.294-4.294V138.794a4.3,4.3,0,0,1,4.294-4.294H68.577a55.888,55.888,0,0,0,26.338,70.778Z" transform="translate(-38.911 -107.231)" fill="#62529b"/>
        <path id="Trazado_875918" data-name="Trazado 875918" d="M200.88,414.5h26.544v6.442a12.829,12.829,0,0,1-2.75,7.956C210.774,427.163,203.955,421.792,200.88,414.5Z" transform="translate(-159.357 -327.109)" fill="#d3d3d3"/>
        <path id="Trazado_875919" data-name="Trazado 875919" d="M72.818,428.9a12.866,12.866,0,0,1-10.135,4.926h-42.3A12.882,12.882,0,0,1,7.5,420.942V414.5H49.023A55.774,55.774,0,0,0,72.818,428.9Z" transform="translate(-7.5 -327.109)" fill="#abb4c0"/>
        <circle id="Elipse_11818" data-name="Elipse 11818" cx="3.758" cy="3.758" r="3.758" transform="translate(30.275 93.296)" fill="#a7b6c5"/>
        <g id="Grupo_1100016" data-name="Grupo 1100016" transform="translate(42.3)">
          <path id="Trazado_875920" data-name="Trazado 875920" d="M253.1,34.77V64.051l-12,1.806-12-1.806c0-10.519.265-19.744,8.594-24.906A29.14,29.14,0,0,1,253.1,34.77Z" transform="translate(-223.818 -28.915)" fill="#fad989"/>
          <path id="Trazado_875921" data-name="Trazado 875921" d="M204.5,80.047A29.263,29.263,0,0,1,218.375,55.14,32.3,32.3,0,0,0,213.9,80.047C210.65,82.393,207.51,82.517,204.5,80.047Z" transform="translate(-204.5 -44.911)" fill="#f6ca56"/>
          <path id="Trazado_875922" data-name="Trazado 875922" d="M248.29,171.136c0,16.17,19.877,29.28,19.877,29.28l15.708-4.566a29.258,29.258,0,0,0,13.571-24.714Z" transform="translate(-238.887 -136)" fill="#fd7a6e"/>
          <path id="Trazado_875923" data-name="Trazado 875923" d="M397.419,36.779H368.14V7.5a29.436,29.436,0,0,1,6.925.822v0A29.291,29.291,0,0,1,397.419,36.779Z" transform="translate(-333.003 -7.5)" fill="#ace094"/>
          <path id="Trazado_875924" data-name="Trazado 875924" d="M249.488,195.852A29.284,29.284,0,0,1,204.5,171.14h9.4a32.226,32.226,0,0,0,35.586,24.712Z" transform="translate(-204.5 -136.003)" fill="#fb695b"/>
        </g>
        <g id="Grupo_1100017" data-name="Grupo 1100017" transform="translate(16.452 43.348)">
          <circle id="Elipse_11819" data-name="Elipse 11819" cx="3.758" cy="3.758" r="3.758" transform="translate(0 15.194)" fill="#fad989"/>
          <circle id="Elipse_11820" data-name="Elipse 11820" cx="3.758" cy="3.758" r="3.758" transform="translate(12.27 5.991)" fill="#fd7a6e"/>
          <circle id="Elipse_11821" data-name="Elipse 11821" cx="3.758" cy="3.758" r="3.758" transform="translate(56.836)" fill="#fad989"/>
          <circle id="Elipse_11822" data-name="Elipse 11822" cx="3.758" cy="3.758" r="3.758" transform="translate(24.539 15.194)" fill="#68a2df"/>
        </g>
      </g>
      <g id="Lineal_Exp_38_" transform="translate(0)">
        <path id="Trazado_875925" data-name="Trazado 875925" d="M146.368,445.236A5.368,5.368,0,1,0,141,439.868,5.374,5.374,0,0,0,146.368,445.236Zm0-7.515a2.147,2.147,0,1,1-2.147,2.147A2.15,2.15,0,0,1,146.368,437.721Z" transform="translate(-110.724 -341.204)" fill="#00223d"/>
        <path id="Trazado_875926" data-name="Trazado 875926" d="M81.61,170.221h9.877a1.61,1.61,0,0,0,0-3.221H81.61a1.61,1.61,0,0,0,0,3.221Z" transform="translate(-62.822 -131.142)" fill="#00223d"/>
        <path id="Trazado_875927" data-name="Trazado 875927" d="M81.61,200.221h20.4a1.61,1.61,0,1,0,0-3.221H81.61a1.61,1.61,0,1,0,0,3.221Z" transform="translate(-62.822 -154.7)" fill="#00223d"/>
        <path id="Trazado_875928" data-name="Trazado 875928" d="M230.435,356.637h0a1.61,1.61,0,0,0-1.61,1.609l0,2.55a1.61,1.61,0,0,0,1.609,1.612h0a1.61,1.61,0,0,0,1.61-1.609l0-2.55A1.61,1.61,0,0,0,230.435,356.637Z" transform="translate(-179.689 -280.06)" fill="#00223d"/>
        <path id="Trazado_875929" data-name="Trazado 875929" d="M88.132,347.8a8.222,8.222,0,0,1-3.542.409,1.61,1.61,0,0,0-2.359,2.191,4.014,4.014,0,0,0,3.118,1.106c.289,0,.578-.016.865-.042l0,2.312a1.61,1.61,0,0,0,1.609,1.612h0a1.61,1.61,0,0,0,1.61-1.609l0-2.55a2.4,2.4,0,0,1,.7-2.352A1.61,1.61,0,0,0,88.132,347.8Z" transform="translate(-64.263 -273.07)" fill="#00223d"/>
        <path id="Trazado_875930" data-name="Trazado 875930" d="M211.681,335.176a1.61,1.61,0,0,0,1.834,2.648c.021-.015,2.162-1.431,2.942-.371a1.61,1.61,0,1,0,2.593-1.91C216.934,332.669,213.3,334.046,211.681,335.176Z" transform="translate(-165.688 -262.154)" fill="#00223d"/>
        <path id="Trazado_875931" data-name="Trazado 875931" d="M150.689,375.728h-.05a19.072,19.072,0,0,1-6.411-.829,1.61,1.61,0,0,0-1.219,2.981,21.418,21.418,0,0,0,7.626,1.068h.054a1.61,1.61,0,1,0,0-3.221Z" transform="translate(-111.516 -294.306)" fill="#00223d"/>
        <path id="Trazado_875932" data-name="Trazado 875932" d="M102.47,56.552H74.8V28.882a1.61,1.61,0,0,0-1.61-1.61A30.869,30.869,0,0,0,48.149,40.1H14.494A14.51,14.51,0,0,0,0,54.59v62.269a14.51,14.51,0,0,0,14.494,14.494h42.3a14.51,14.51,0,0,0,14.494-14.494V103.224a1.61,1.61,0,0,0-3.221,0v5.583H62.7V87.236a30.679,30.679,0,0,0,5.368,1.4v7.077a1.61,1.61,0,1,0,3.221,0V88.994c.631.038,1.266.059,1.9.059a30.925,30.925,0,0,0,30.889-30.89,1.61,1.61,0,0,0-1.61-1.61ZM71.58,30.539V56.552H45.569A27.708,27.708,0,0,1,71.58,30.539Zm-3.513,81.489v4.831a11.286,11.286,0,0,1-11.273,11.273h-42.3A11.286,11.286,0,0,1,3.221,116.859v-4.831Zm-8.589-3.221H11.81V90.556a1.61,1.61,0,0,0-3.221,0v18.251H3.221V54.59A11.286,11.286,0,0,1,14.494,43.318H46.108a30.725,30.725,0,0,0-2.319,5.368h-29.3a5.911,5.911,0,0,0-5.9,5.9v28.45a1.61,1.61,0,0,0,3.221,0V54.59a2.687,2.687,0,0,1,2.684-2.684H42.937A30.951,30.951,0,0,0,50.39,79.018L48.84,80.568a5.35,5.35,0,0,0-5.608.4l-4.08-3.059a5.368,5.368,0,1,0-10.124,0l-4.08,3.06a5.364,5.364,0,1,0,1.935,2.575l4.08-3.06a5.35,5.35,0,0,0,6.254,0l4.081,3.06a5.368,5.368,0,1,0,9.82-.7l1.567-1.567a30.79,30.79,0,0,0,6.793,4.586v22.943ZM48.506,85.326a2.147,2.147,0,1,1-2.147-2.147A2.15,2.15,0,0,1,48.506,85.326Zm-12.27-9.2a2.147,2.147,0,1,1-2.147-2.147A2.15,2.15,0,0,1,36.237,76.124Zm-12.27,9.2a2.147,2.147,0,1,1-2.147-2.147A2.15,2.15,0,0,1,23.967,85.326Zm49.224.506A27.479,27.479,0,0,1,54.966,79l7.244-7.244H73.538a5.367,5.367,0,1,0-.007-3.221H61.543A1.612,1.612,0,0,0,60.4,69l-7.735,7.735a27.443,27.443,0,0,1-7.1-16.966h55.245A27.7,27.7,0,0,1,73.191,85.832Zm3.317-15.7a2.147,2.147,0,1,1,2.147,2.147A2.15,2.15,0,0,1,76.509,70.132Z" transform="translate(0 -21.416)" fill="#00223d"/>
        <path id="Trazado_875933" data-name="Trazado 875933" d="M362.247,0a1.61,1.61,0,0,0-1.61,1.61V30.89a1.61,1.61,0,0,0,1.61,1.61h29.28a1.61,1.61,0,0,0,1.61-1.61A30.925,30.925,0,0,0,362.247,0Zm1.61,29.28V3.267A27.707,27.707,0,0,1,389.87,29.28Z" transform="translate(-283.201)" fill="#00223d"/>
      </g>
    </g>
  </g>
</svg>
