<svg xmlns="http://www.w3.org/2000/svg" width="78.501" height="74.271" viewBox="0 0 78.501 74.271">
  <g id="Grupo_1102009" data-name="Grupo 1102009" transform="translate(-253 -14263.602)">
    <path id="_12068" data-name="12068" d="M72.033,71.913c-8.038-1.11-16.53-.839-23.844,2.675C38.045,79.46,31.382,90.507,31.127,101.757s5.606,22.305,14.66,28.988,21,9.051,32.068,7.045c11.165-2.023,21.645-8.583,27.469-18.322,3.735-6.245,5.48-13.956,3.417-20.934a28.6,28.6,0,0,0-6.787-11.156A50.145,50.145,0,0,0,72.033,71.913Z" transform="translate(221.881 14199.391)" fill="#26aab7"/>
    <g id="creacion-de-prototipos" transform="translate(254.633 14260.691)">
      <rect id="Rect치ngulo_401925" data-name="Rect치ngulo 401925" width="63.989" height="65.083" rx="10" transform="translate(5.624 3.571)" fill="#efefef"/>
      <path id="Trazado_881261" data-name="Trazado 881261" d="M74.3,239.427H15.624a.664.664,0,1,1,0-1.327H74.3a.664.664,0,1,1,0,1.327Z" transform="translate(-7.346 -172.764)" fill="#fff"/>
      <path id="Trazado_881262" data-name="Trazado 881262" d="M236.7,67.583a.664.664,0,0,1-.664-.664V47.244a.664.664,0,0,1,1.327,0V66.92A.664.664,0,0,1,236.7,67.583Z" transform="translate(-169.745 -32.079)" fill="#fff"/>
      <path id="Trazado_881263" data-name="Trazado 881263" d="M111.459,5.4H65.54l2.917,7.06A2.654,2.654,0,0,0,70.912,14.1h43.2V8.054A2.654,2.654,0,0,0,111.459,5.4Z" transform="translate(-44.5 -1.829)" fill="#7d6eb2"/>
      <circle id="Elipse_12003" data-name="Elipse 12003" cx="1.516" cy="1.516" r="1.516" transform="translate(61.861 6.769) rotate(-13.339)" fill="#fc5d3d"/>
      <circle id="Elipse_12004" data-name="Elipse 12004" cx="1.521" cy="1.521" r="1.521" transform="translate(54.48 6.785) rotate(-13.3)" fill="#f0c020"/>
      <circle id="Elipse_12005" data-name="Elipse 12005" cx="1.521" cy="1.521" r="1.521" transform="translate(46.606 7.932) rotate(-45)" fill="#13bf6d"/>
      <rect id="Rect치ngulo_401926" data-name="Rect치ngulo 401926" width="18.869" height="24.926" rx="9.435" transform="translate(28.182 17.328)" fill="#fc5d3d"/>
      <path id="Trazado_881264" data-name="Trazado 881264" d="M188.789,136.539v19.626a2.389,2.389,0,0,1-2.389,2.389H174.119a2.389,2.389,0,0,1-2.389-2.389V148.2a1.858,1.858,0,1,0,0-3.716v-7.947a2.389,2.389,0,0,1,2.389-2.389H186.4A2.389,2.389,0,0,1,188.789,136.539Z" transform="translate(-122.505 -96.405)" fill="#f0c020"/>
      <path id="Trazado_881265" data-name="Trazado 881265" d="M35.19,146.352a1.858,1.858,0,0,0,1.858,1.858v7.963a2.389,2.389,0,0,1-2.389,2.389H22.389A2.389,2.389,0,0,1,20,156.172V136.539a2.389,2.389,0,0,1,2.389-2.389H34.67a2.389,2.389,0,0,1,2.389,2.389v7.947a1.858,1.858,0,0,0-1.869,1.866Z" transform="translate(-11.048 -96.405)" fill="#72c1e8"/>
      <path id="Trazado_881266" data-name="Trazado 881266" d="M35.29,160.8h8.942v5.688H35.29Z" transform="translate(-22.28 -115.982)" fill="#efefef"/>
      <path id="Trazado_881267" data-name="Trazado 881267" d="M187.02,160.8h8.942v5.688H187.02Z" transform="translate(-133.736 -115.982)" fill="#efefef"/>
      <path id="Trazado_881268" data-name="Trazado 881268" d="M105.66,123.21h4.475v3.066H105.66Z" transform="translate(-73.972 -88.369)" fill="#72c1e8"/>
      <path id="Trazado_881269" data-name="Trazado 881269" d="M133.48,123.21h4.475v3.066H133.48Z" transform="translate(-94.407 -88.369)" fill="#f0c020"/>
      <path id="Trazado_881270" data-name="Trazado 881270" d="M79.118,173.09a1.858,1.858,0,1,0,1.858,1.858,1.858,1.858,0,0,0-1.858-1.858Z" transform="translate(-53.11 -125.01)" fill="#fc5d3d"/>
      <path id="Trazado_881271" data-name="Trazado 881271" d="M105.66,81.26h11.859v5.688H105.66Z" transform="translate(-73.972 -57.554)" fill="#efefef"/>
      <path id="Trazado_881272" data-name="Trazado 881272" d="M37.7,161.8H26.334a.664.664,0,0,1-.664-.664V141.724a.664.664,0,1,1,1.327,0v18.744H37.7a.664.664,0,0,1,0,1.327Z" transform="translate(-15.213 -101.481)" fill="#c5e5fe"/>
      <path id="Trazado_881273" data-name="Trazado 881273" d="M190.917,198.164H178.344a.664.664,0,0,1-.664-.664v-6.267a.664.664,0,1,1,1.327,0v5.6h11.91a.664.664,0,0,1,0,1.327Z" transform="translate(-126.876 -137.85)" fill="#f9e5af"/>
      <path id="Trazado_881274" data-name="Trazado 881274" d="M178.344,148.432a.664.664,0,0,1-.664-.664v-6.1a.664.664,0,1,1,1.327,0v6.1a.661.661,0,0,1-.664.664Z" transform="translate(-126.876 -101.437)" fill="#f9e5af"/>
      <path id="Trazado_881275" data-name="Trazado 881275" d="M166.6,173.09a1.858,1.858,0,1,0,1.858,1.858,1.858,1.858,0,0,0-1.858-1.858Z" transform="translate(-117.37 -125.01)" fill="#fc5d3d"/>
      <g id="Grupo_1102007" data-name="Grupo 1102007" transform="translate(15.009 22.647)">
        <path id="Trazado_881276" data-name="Trazado 881276" d="M47.762,80.216c-.945-.311-1.922-.584-2.471-2.946-.5,2.174-1.327,2.564-2.471,2.946a3.282,3.282,0,0,1,2.471,2.949C45.809,80.938,46.663,80.58,47.762,80.216Z" transform="translate(-42.82 -77.27)" fill="#f0c020"/>
        <path id="Trazado_881277" data-name="Trazado 881277" d="M199.5,80.216c-.948-.311-1.924-.584-2.471-2.946-.5,2.174-1.327,2.564-2.471,2.946a3.282,3.282,0,0,1,2.471,2.949C197.549,80.938,198.393,80.58,199.5,80.216Z" transform="translate(-154.284 -77.27)" fill="#f0c020"/>
        <path id="Trazado_881278" data-name="Trazado 881278" d="M123.632,200.726c-.948-.313-1.922-.584-2.471-2.946-.5,2.174-1.327,2.564-2.471,2.946a3.282,3.282,0,0,1,2.471,2.946C121.692,201.446,122.533,201.09,123.632,200.726Z" transform="translate(-98.552 -165.793)" fill="#f0c020"/>
      </g>
      <path id="Trazado_881279" data-name="Trazado 881279" d="M33.443,22.69h-5.5a.664.664,0,0,0,0,1.327h5.5a.664.664,0,1,0,0-1.327Z" transform="translate(-16.396 -14.53)"/>
      <path id="Trazado_881280" data-name="Trazado 881280" d="M223.079,15.738a2.184,2.184,0,1,0-2.184,2.171A2.184,2.184,0,0,0,223.079,15.738Zm-3.042,0a.857.857,0,1,1,.857.844.857.857,0,0,1-.857-.844Z" transform="translate(-157.015 -7.808)"/>
      <path id="Trazado_881281" data-name="Trazado 881281" d="M194.589,15.738a2.184,2.184,0,1,0-2.182,2.171,2.184,2.184,0,0,0,2.182-2.171Zm-3.039,0a.857.857,0,1,1,.857.844.857.857,0,0,1-.857-.844Z" transform="translate(-136.087 -7.808)"/>
      <path id="Trazado_881282" data-name="Trazado 881282" d="M166.109,15.738a2.184,2.184,0,1,0-2.176,2.171A2.184,2.184,0,0,0,166.109,15.738Zm-3.039,0a.857.857,0,1,1,.863.844A.857.857,0,0,1,163.07,15.738Z" transform="translate(-115.166 -7.808)"/>
      <circle id="Elipse_12006" data-name="Elipse 12006" cx="0.664" cy="0.664" r="0.664" transform="translate(34.444 11.624)"/>
      <path id="Trazado_881283" data-name="Trazado 881283" d="M70.266,6.228A3.32,3.32,0,0,0,66.948,2.91H8.278A3.32,3.32,0,0,0,4.971,6.228V44.155a.664.664,0,1,0,1.327,0V6.228A2,2,0,0,1,8.288,4.234H20.6L23.343,10.9a3.307,3.307,0,0,0,3.068,2.057h6.041a.664.664,0,1,0,0-1.327H26.412a1.988,1.988,0,0,1-1.842-1.234L22.035,4.234H66.958a2,2,0,0,1,1.991,1.993v5.4H37.761a.664.664,0,0,0,0,1.327H68.938V66a2,2,0,0,1-1.991,1.991H8.278A2,2,0,0,1,6.287,66V49.463a.664.664,0,0,0-1.327,0V66a3.32,3.32,0,0,0,3.318,3.318h58.68A3.32,3.32,0,0,0,70.276,66Z" transform="translate(0)" fill="#00223d"/>
      <circle id="Elipse_12007" data-name="Elipse 12007" cx="0.664" cy="0.664" r="0.664" transform="translate(4.96 46.145)"/>
      <path id="Trazado_881284" data-name="Trazado 881284" d="M195.634,193.43h-7.241a.664.664,0,1,0,0,1.327h7.241a.664.664,0,1,0,0-1.327Z" transform="translate(-134.258 -139.951)"/>
      <path id="Trazado_881285" data-name="Trazado 881285" d="M195.634,203h-7.241a.664.664,0,0,0,0,1.327h7.241a.664.664,0,1,0,0-1.327Z" transform="translate(-134.258 -146.981)"/>
      <path id="Trazado_881286" data-name="Trazado 881286" d="M43.8,171.11a.666.666,0,0,0-.664.664v.085a.664.664,0,1,0,1.327,0v-.085a.666.666,0,0,0-.664-.664Z" transform="translate(-28.046 -123.555)"/>
      <path id="Trazado_881287" data-name="Trazado 881287" d="M50.294,171.13a.661.661,0,0,0-.664.658v.085a.664.664,0,0,0,1.327,0v-.085A.661.661,0,0,0,50.294,171.13Z" transform="translate(-32.813 -123.57)"/>
      <path id="Trazado_881288" data-name="Trazado 881288" d="M56.784,171.11a.666.666,0,0,0-.664.669v.08a.664.664,0,1,0,1.327,0v-.08a.666.666,0,0,0-.664-.669Z" transform="translate(-37.581 -123.555)"/>
      <path id="Trazado_881289" data-name="Trazado 881289" d="M33.454,165.313H42.4a.664.664,0,0,0,.664-.664v-5.685a.666.666,0,0,0-.664-.664H33.454a.661.661,0,0,0-.664.664v5.685a.661.661,0,0,0,.664.664Zm.664-5.685h7.615v4.358H34.117Z" transform="translate(-20.443 -114.145)"/>
      <path id="Trazado_881290" data-name="Trazado 881290" d="M195.544,171.13a.661.661,0,0,0-.664.658v.085a.664.664,0,0,0,1.327,0v-.085a.661.661,0,0,0-.664-.658Z" transform="translate(-139.51 -123.57)"/>
      <path id="Trazado_881291" data-name="Trazado 881291" d="M202.034,171.11a.666.666,0,0,0-.664.664v.085a.664.664,0,0,0,1.327,0v-.085a.666.666,0,0,0-.664-.664Z" transform="translate(-144.278 -123.555)"/>
      <path id="Trazado_881292" data-name="Trazado 881292" d="M208.524,171.11a.666.666,0,0,0-.664.664v.085a.664.664,0,1,0,1.327,0v-.085a.666.666,0,0,0-.664-.664Z" transform="translate(-149.045 -123.555)"/>
      <path id="Trazado_881293" data-name="Trazado 881293" d="M194.775,164.649v-5.685a.661.661,0,0,0-.661-.664h-8.95a.666.666,0,0,0-.664.664v5.685a.666.666,0,0,0,.664.664h8.945a.661.661,0,0,0,.666-.664Zm-8.942-.664v-4.358h7.615v4.358Z" transform="translate(-131.885 -114.145)"/>
      <path id="Trazado_881294" data-name="Trazado 881294" d="M115.683,110.46H103.824a.664.664,0,0,0,0,1.327h11.859a.664.664,0,0,0,0-1.327Z" transform="translate(-72.135 -79.003)"/>
      <path id="Trazado_881295" data-name="Trazado 881295" d="M119.674,93a.664.664,0,0,0,.664-.664v-.082a.664.664,0,1,0-1.327,0v.082a.664.664,0,0,0,.664.664Z" transform="translate(-83.778 -65.142)"/>
      <path id="Trazado_881296" data-name="Trazado 881296" d="M126.164,93a.664.664,0,0,0,.664-.664v-.082a.664.664,0,1,0-1.327,0v.082a.664.664,0,0,0,.664.664Z" transform="translate(-88.545 -65.142)"/>
      <path id="Trazado_881297" data-name="Trazado 881297" d="M132.654,93a.664.664,0,0,0,.664-.664v-.082a.664.664,0,1,0-1.327,0v.082a.664.664,0,0,0,.664.664Z" transform="translate(-93.313 -65.142)"/>
      <path id="Trazado_881298" data-name="Trazado 881298" d="M43.894,146.4a.664.664,0,1,0,0-1.327H36.654a.664.664,0,1,0,0,1.327Z" transform="translate(-22.794 -104.427)"/>
      <path id="Trazado_881299" data-name="Trazado 881299" d="M36.654,193.42a.664.664,0,0,0,0,1.327h7.241a.664.664,0,1,0,0-1.327Z" transform="translate(-22.794 -139.944)"/>
      <path id="Trazado_881300" data-name="Trazado 881300" d="M36.654,204.327h7.241a.664.664,0,1,0,0-1.327H36.654a.664.664,0,1,0,0,1.327Z" transform="translate(-22.794 -146.981)"/>
      <path id="Trazado_881301" data-name="Trazado 881301" d="M195.634,145.07h-7.241a.664.664,0,0,0,0,1.327h7.241a.664.664,0,1,0,0-1.327Z" transform="translate(-134.258 -104.427)"/>
      <circle id="Elipse_12008" data-name="Elipse 12008" cx="0.664" cy="0.664" r="0.664" transform="translate(11.046 61.484)"/>
      <path id="Trazado_881302" data-name="Trazado 881302" d="M17.5,78.209V97.832a3.057,3.057,0,0,0,.557,1.759.685.685,0,0,0,.927.16.669.669,0,0,0,.159-.929,1.685,1.685,0,0,1-.316-.99V78.209a1.731,1.731,0,0,1,1.723-1.725H32.834a1.731,1.731,0,0,1,1.723,1.725v7.368a2.53,2.53,0,0,0,0,4.884v7.371a1.733,1.733,0,0,1-1.723,1.725H23.576a.664.664,0,1,0,0,1.327h9.258a3.058,3.058,0,0,0,3.05-3.052V90.456a2.532,2.532,0,0,0,1.773-1.773h3.151a3.052,3.052,0,0,0,3.05-3.05v-4.64h6v4.64a3.055,3.055,0,0,0,3.052,3.05H56a2.54,2.54,0,0,0,1.773,1.773v7.376a3.052,3.052,0,0,0,3.05,3.047H73.107a3.052,3.052,0,0,0,3.05-3.047V78.209a3.052,3.052,0,0,0-3.05-3.05H71.286a.664.664,0,1,0,0,1.327h1.821a1.728,1.728,0,0,1,1.723,1.723V97.832a1.725,1.725,0,0,1-1.723,1.72H60.826a1.723,1.723,0,0,1-1.723-1.72V90.461a2.53,2.53,0,0,0,0-4.884V78.209a1.728,1.728,0,0,1,1.723-1.723H65.98a.664.664,0,0,0,0-1.327H60.826a3.052,3.052,0,0,0-3.05,3.05V85.58A2.54,2.54,0,0,0,56,87.356H52.911a1.725,1.725,0,0,1-1.725-1.723v-4.64h2.426a3.323,3.323,0,0,0,3.3-3.318V70.469a.664.664,0,0,0-1.327,0v7.209A2,2,0,0,1,53.6,79.669H51.172V76.643h1.574a.661.661,0,0,0,.664-.664V72.916a.661.661,0,0,0-.664-.664H48.284a.664.664,0,0,0-.664.664v3.063a.664.664,0,0,0,.664.664h1.574v3.023h-6V76.643h1.518a.664.664,0,0,0,.664-.664V72.916a.672.672,0,0,0-.194-.47.653.653,0,0,0-.47-.194H40.9a.664.664,0,0,0-.664.664v3.063a.664.664,0,0,0,.664.664h1.63v3.023H40.051a2,2,0,0,1-1.993-1.991V58.058a2,2,0,0,1,1.993-1.991H53.611A2,2,0,0,1,55.6,58.058v7.1a.664.664,0,1,0,1.327,0v-7.1a3.318,3.318,0,0,0-3.315-3.318H40.051a3.323,3.323,0,0,0-3.307,3.318V77.676a3.326,3.326,0,0,0,3.32,3.318h2.479v4.64a1.725,1.725,0,0,1-1.723,1.723H37.659a2.543,2.543,0,0,0-1.776-1.776V78.209a3.055,3.055,0,0,0-3.05-3.052H20.552A3.058,3.058,0,0,0,17.5,78.209Zm39.737,9.8a1.2,1.2,0,1,1,1.2,1.208A1.2,1.2,0,0,1,57.237,88.014Zm-8.284-12.7V73.58H52.1v1.736Zm-7.384,0V73.58h3.137v1.736Zm-6.344,11.5a1.2,1.2,0,1,1-.005,0Z" transform="translate(-9.212 -38.073)" fill="#00223d"/>
      <circle id="Elipse_12009" data-name="Elipse 12009" cx="0.664" cy="0.664" r="0.664" transform="translate(58.759 37.086)"/>
      <path id="Trazado_881303" data-name="Trazado 881303" d="M103.824,70.107h2.293a.664.664,0,1,0,0-1.327h-2.293a.664.664,0,0,0,0,1.327Z" transform="translate(-72.135 -48.386)"/>
      <path id="Trazado_881304" data-name="Trazado 881304" d="M124.137,70.107a.664.664,0,1,0,0-1.327h-2.293a.664.664,0,1,0,0,1.327Z" transform="translate(-85.372 -48.386)"/>
      <path id="Trazado_881305" data-name="Trazado 881305" d="M142.157,68.78h-2.293a.664.664,0,0,0,0,1.327h2.293a.664.664,0,0,0,0-1.327Z" transform="translate(-98.609 -48.386)"/>
      <path id="Trazado_881306" data-name="Trazado 881306" d="M42.915,75.365c-.454,1.962-1.091,2.171-2.052,2.487a.634.634,0,0,0,0,1.205c1.593.531,1.778,1.309,2.052,2.49a.634.634,0,0,0,1.237,0c.454-1.962,1.125-2.182,2.052-2.49a.634.634,0,0,0,0-1.205c-.892-.292-1.593-.483-2.052-2.487a.634.634,0,0,0-1.237,0Zm1.571,3.1a3.09,3.09,0,0,0-.94,1.062,3.3,3.3,0,0,0-1-1.062,3.145,3.145,0,0,0,.985-1.107A3.257,3.257,0,0,0,44.487,78.463Z" transform="translate(-26.054 -52.862)"/>
      <path id="Trazado_881307" data-name="Trazado 881307" d="M197.944,77.852c-.892-.292-1.593-.483-2.052-2.487a.634.634,0,0,0-1.237,0c-.457,1.962-1.091,2.171-2.052,2.487a.634.634,0,0,0,0,1.205c1.593.531,1.778,1.309,2.052,2.49a.634.634,0,0,0,1.237,0c.454-1.962,1.123-2.182,2.052-2.49a.634.634,0,0,0,0-1.205Zm-2.654,1.67a3.3,3.3,0,0,0-1-1.062,3.185,3.185,0,0,0,.985-1.107,3.256,3.256,0,0,0,.95,1.1,3.09,3.09,0,0,0-.942,1.07Z" transform="translate(-137.518 -52.861)"/>
      <path id="Trazado_881308" data-name="Trazado 881308" d="M122.074,198.362c-.892-.292-1.593-.483-2.052-2.487a.634.634,0,0,0-1.237,0c-.457,1.959-1.091,2.169-2.052,2.487a.634.634,0,0,0,0,1.205c1.593.531,1.778,1.309,2.052,2.49a.634.634,0,0,0,1.237,0c.454-1.962,1.125-2.182,2.052-2.49a.634.634,0,0,0,0-1.205Zm-2.654,1.67a3.3,3.3,0,0,0-1-1.062,3.169,3.169,0,0,0,.985-1.107,3.22,3.22,0,0,0,.95,1.1,3.1,3.1,0,0,0-.942,1.072Z" transform="translate(-81.786 -141.385)"/>
      <path id="Trazado_881309" data-name="Trazado 881309" d="M161.677,101.49a.664.664,0,1,0,.65.666A.664.664,0,0,0,161.677,101.49Z" transform="translate(-114.623 -72.414)"/>
      <path id="Trazado_881310" data-name="Trazado 881310" d="M116.346,79.424a.661.661,0,0,0-.664-.664H103.824a.664.664,0,0,0-.664.664v5.691a.666.666,0,0,0,.664.664h11.859a.664.664,0,0,0,.664-.664Zm-1.327,5.027H104.487V80.087h10.532Z" transform="translate(-72.135 -55.717)"/>
    </g>
  </g>
</svg>
