<svg xmlns="http://www.w3.org/2000/svg" xmlns:xlink="http://www.w3.org/1999/xlink" width="755" height="308" viewBox="0 0 755 308">
  <defs>
    <clipPath id="clip-path">
      <rect id="Rectángulo_401675" data-name="Rectángulo 401675" width="755" height="308" transform="translate(265 832.645)" fill="#fff" stroke="#707070" stroke-width="1"/>
    </clipPath>
    <clipPath id="clip-path-2">
      <rect id="Rectángulo_30853" data-name="Rectángulo 30853" width="56.611" height="113.575" rx="4.49" transform="translate(68.992 112.858) rotate(173.56)" fill="none"/>
    </clipPath>
    <clipPath id="clip-path-3">
      <rect id="Rectángulo_30858" data-name="Rectángulo 30858" width="56.611" height="113.575" rx="4.49" transform="translate(39.235 0) rotate(20.21)" fill="none"/>
    </clipPath>
    <clipPath id="clip-path-4">
      <rect id="Rectángulo_30861" data-name="Rectángulo 30861" width="56.611" height="113.575" rx="4.49" transform="translate(0 6.349) rotate(-6.44)" fill="none"/>
    </clipPath>
    <radialGradient id="radial-gradient" cx="0.929" cy="-0.262" r="1.471" gradientTransform="translate(-0.202) scale(1.405 1)" gradientUnits="objectBoundingBox">
      <stop offset="0.03" stop-color="#ffc"/>
      <stop offset="0.39" stop-color="#ffdbcc"/>
      <stop offset="1" stop-color="#ff9393"/>
    </radialGradient>
    <radialGradient id="radial-gradient-2" cx="-32.894" cy="-101.148" r="200.698" gradientTransform="translate(-0.495) scale(1.989 1)" xlink:href="#radial-gradient"/>
    <linearGradient id="linear-gradient" y1="0.5" x2="1" y2="0.5" gradientUnits="objectBoundingBox">
      <stop offset="0" stop-color="#e4e4f2"/>
      <stop offset="1" stop-color="#fff"/>
    </linearGradient>
    <linearGradient id="linear-gradient-2" x1="0" y1="0.5" x2="1.002" y2="0.5" xlink:href="#linear-gradient"/>
  </defs>
  <g id="Enmascarar_grupo_1098830" data-name="Enmascarar grupo 1098830" transform="translate(-265 -832.645)" clip-path="url(#clip-path)">
    <g id="redes-01" transform="translate(267.823 833.123)">
      <g id="OBJECTS" transform="translate(0 0)">
        <path id="Trazado_130404" data-name="Trazado 130404" d="M364.034,124.621c13.2-11.635,39.479,63.7,39.331,69.382-.593,22.784-4.643,46.38-16.144,53.076-10.584.155-24.068-2.286-33.947-5.525-.529-8.848-4.234-40.368-4.085-53.873C349.35,175.235,361.48,126.879,364.034,124.621Z" transform="translate(-113.945 -40.09)" fill="#fd9b55"/>
        <path id="Trazado_130405" data-name="Trazado 130405" d="M310.81,395.012c10.076-38.745,23.751-82.337,31.618-108.24,14.281-4.234,22.3-1.214,34.427,4.5C373.51,322,366.5,388.647,362.291,428.951A164.181,164.181,0,0,1,310.81,395.012Z" transform="translate(-102.648 -87.6)" fill="#fd9b55"/>
        <rect id="Rectángulo_30849" data-name="Rectángulo 30849" width="65.156" height="133.811" rx="12.36" transform="translate(319.544 178.304) rotate(173.56)" fill="#1d2769"/>
        <path id="Trazado_130406" data-name="Trazado 130406" d="M379.149,204.447l47.417-5.356a8.721,8.721,0,0,0,7.691-9.639L421.2,73.818a8.714,8.714,0,0,0-9.639-7.691l-47.417,5.356a8.714,8.714,0,0,0-7.691,9.639l13.068,115.642A8.714,8.714,0,0,0,379.149,204.447Z" transform="translate(-116.07 -23.212)" fill="#2f4dab"/>
        <path id="Trazado_130407" data-name="Trazado 130407" d="M392.11,79.337l8.178-.917a1.087,1.087,0,0,0,.953-1.2h0a1.087,1.087,0,0,0-1.2-.953l-8.171.917a1.087,1.087,0,0,0-.953,1.2h0a1.073,1.073,0,0,0,1.192.953Z" transform="translate(-126.229 -26.211)" fill="#1d2769"/>
        <path id="Trazado_130408" data-name="Trazado 130408" d="M409.817,76.637a1.08,1.08,0,1,0,.227-.8,1.08,1.08,0,0,0-.227.8Z" transform="translate(-131.793 -25.967)" fill="#1d2769"/>
        <path id="Trazado_130409" data-name="Trazado 130409" d="M416.441,247.634a3.33,3.33,0,1,0,2.935-3.683A3.33,3.33,0,0,0,416.441,247.634Z" transform="translate(-133.739 -75.572)" fill="#1d2769"/>
        <g id="Grupo_55981" data-name="Grupo 55981" transform="translate(244.628 51.03)" clip-path="url(#clip-path-2)">
          <rect id="Rectángulo_30850" data-name="Rectángulo 30850" width="64.775" height="115.275" transform="translate(-4.042 6.347) rotate(-6.52)" fill="#c1c9e7"/>
          <rect id="Rectángulo_30851" data-name="Rectángulo 30851" width="64.775" height="36.205" transform="translate(-4.028 6.458) rotate(-6.52)" fill="#fff"/>
          <circle id="Elipse_4300" data-name="Elipse 4300" cx="4.382" cy="4.382" r="4.382" transform="matrix(0.627, -0.779, 0.779, 0.627, 5.476, 49.656)" fill="#98a4d1"/>
          <path id="Trazado_130410" data-name="Trazado 130410" d="M392,152.43a1.143,1.143,0,0,1-.127-2.279l37.1-4.234a1.143,1.143,0,1,1,.261,2.272l-37.1,4.234Z" transform="translate(-370.842 -97.746)" fill="#98a4d1"/>
          <path id="Trazado_130411" data-name="Trazado 130411" d="M392.933,160.61a1.143,1.143,0,0,1-.127-2.279l37.108-4.234a1.143,1.143,0,1,1,.254,2.272l-37.1,4.234Z" transform="translate(-371.116 -100.154)" fill="#98a4d1"/>
          <path id="Trazado_130412" data-name="Trazado 130412" d="M391.063,144.279a1.143,1.143,0,0,1-.127-2.279l37.108-4.234a1.136,1.136,0,0,1,1.263,1,1.15,1.15,0,0,1-1.009,1.27l-37.1,4.234Z" transform="translate(-370.565 -95.346)" fill="#98a4d1"/>
          <path id="Trazado_130413" data-name="Trazado 130413" d="M383.34,228.251a1.143,1.143,0,0,1-.134-2.279l49.223-5.645a1.144,1.144,0,1,1,.261,2.272l-49.223,5.645Z" transform="translate(-368.289 -119.652)" fill="#98a4d1"/>
          <path id="Trazado_130414" data-name="Trazado 130414" d="M384.383,237.371a1.143,1.143,0,0,1-.127-2.279l49.216-5.645a1.144,1.144,0,0,1,.261,2.272l-49.216,5.645Z" transform="translate(-368.599 -122.337)" fill="#98a4d1"/>
          <rect id="Rectángulo_30852" data-name="Rectángulo 30852" width="50.684" height="30.489" transform="translate(9.515 69.056) rotate(-6.52)" fill="#fff"/>
        </g>
        <path id="Trazado_130415" data-name="Trazado 130415" d="M380.891,255.341c4.043.6,15.58-18.438,8.009-40.509,10.316-8.891,15.523-33.869,7.395-37.207-5.645-2.293-34.822,44.171-34.575,48.892C362.115,235.168,381.025,249.739,380.891,255.341Z" transform="translate(-117.635 -56.028)" fill="#fd9b55"/>
        <path id="Trazado_130416" data-name="Trazado 130416" d="M395.944,230.57a47.869,47.869,0,0,1,3.091,10.965,33.826,33.826,0,0,1-.078,11.558,26.228,26.228,0,0,1-4.65,10.669,29.939,29.939,0,0,1-8.467,7.677,52.849,52.849,0,0,0,6.887-8.735,31.047,31.047,0,0,0,3.81-10.069,44.215,44.215,0,0,0,.586-10.9C396.939,238.042,396.417,234.338,395.944,230.57Z" transform="translate(-124.736 -71.639)" fill="#d37c3a"/>
        <path id="Trazado_130417" data-name="Trazado 130417" d="M448.927,272.836c-10.866-11.226-22.008-22.191-25.289-19.009-4.382,4.234,6.527,36.028,25.444,49C456.223,307.728,472.169,274.861,448.927,272.836Z" transform="translate(-135.58 -78.321)" fill="#fd9b55"/>
        <path id="Trazado_130418" data-name="Trazado 130418" d="M456.894,173.386c-14.521,41.814-2.307,97.042.706,99.18,12,8.566,41.751,12.172,44.686,7.98,10.7-15.291,15.742-41.723,6.506-56.618-3.1-5-32.394-11.156-38.886-9.879-2.773-11.635-1.806-29.685-.466-37.2C472.389,160.177,460.944,161.737,456.894,173.386Z" transform="translate(-143.603 -52.184)" fill="#fd9b55"/>
        <g id="Grupo_55982" data-name="Grupo 55982" transform="translate(250.607 14.559)" opacity="0.2">
          <path id="Trazado_130419" data-name="Trazado 130419" d="M398.614,25.989l-23.991,2.667a4.1,4.1,0,0,0-3.634,4.53l1.171,10.528a4.107,4.107,0,0,0,4.53,3.62l7.839-.882,5.207,7.91L393,45.513l7.7-.861a4.092,4.092,0,0,0,3.62-4.523L403.144,29.6A4.1,4.1,0,0,0,398.614,25.989Z" transform="translate(-370.964 -25.963)" fill="#000a49"/>
        </g>
        <path id="Trazado_130420" data-name="Trazado 130420" d="M398.614,17.349l-23.991,2.667a4.1,4.1,0,0,0-3.634,4.53l1.171,10.528a4.107,4.107,0,0,0,4.53,3.62l7.818-.875,5.207,7.91L393,36.852l7.7-.861a4.092,4.092,0,0,0,3.62-4.523l-1.171-10.528A4.1,4.1,0,0,0,398.614,17.349Z" transform="translate(-120.357 -8.861)" fill="#fd0044"/>
        <path id="Trazado_130421" data-name="Trazado 130421" d="M391.682,28.043a3.126,3.126,0,0,0-6-.833,3.119,3.119,0,1,0-4.579,4.163h0l5.539,4.431,4.431-5.539h0A3.133,3.133,0,0,0,391.682,28.043Z" transform="translate(-123.021 -11.201)" fill="#fff"/>
        <text id="_1" data-name="1" transform="translate(272.519 22.577) rotate(-6.34)" fill="#fff" font-size="13" font-family="SegoeUIBlack, Segoe UI"><tspan x="0" y="0">1</tspan></text>
        <g id="Grupo_55983" data-name="Grupo 55983" transform="translate(209.161 63.84)" opacity="0.2">
          <rect id="Rectángulo_30854" data-name="Rectángulo 30854" width="56.442" height="24.823" rx="7.67" transform="translate(0 6.33) rotate(-6.44)" fill="#000a49"/>
        </g>
        <rect id="Rectángulo_30855" data-name="Rectángulo 30855" width="56.442" height="24.823" rx="7.67" transform="translate(209.161 64.063) rotate(-6.44)" fill="#2b459c"/>
        <path id="Trazado_130422" data-name="Trazado 130422" d="M329.061,112.988h0a4.664,4.664,0,0,0-4.114,5.158l9.265-1.051A4.657,4.657,0,0,0,329.061,112.988Z" transform="translate(-106.801 -37.015)" fill="#fff"/>
        <path id="Trazado_130423" data-name="Trazado 130423" d="M329.388,109.253a2.646,2.646,0,1,0-1.953-.558,2.653,2.653,0,0,0,1.953.558Z" transform="translate(-107.248 -34.367)" fill="#fff"/>
        <path id="Trazado_130424" data-name="Trazado 130424" d="M343.929,104.1a.946.946,0,0,1-.106-1.884L369.3,99.348a.944.944,0,1,1,.212,1.877L344.035,104.1Z" transform="translate(-112.122 -33.006)" fill="#fff"/>
        <path id="Trazado_130425" data-name="Trazado 130425" d="M371.939,107.319a.946.946,0,0,1-.106-1.884l6.139-.706a.946.946,0,0,1,.212,1.877l-6.139.706Z" transform="translate(-120.368 -34.592)" fill="#fff"/>
        <path id="Trazado_130426" data-name="Trazado 130426" d="M344.539,109.96a.946.946,0,0,1-.106-1.884l15.714-1.771a.946.946,0,1,1,.212,1.877l-15.714,1.771Z" transform="translate(-112.302 -35.053)" fill="#fff"/>
        <path id="Trazado_130427" data-name="Trazado 130427" d="M345.149,115.614a.946.946,0,0,1-.106-1.884l10.415-1.171a.946.946,0,0,1,.212,1.877l-10.415,1.171Z" transform="translate(-112.482 -36.897)" fill="#fff"/>
        <g id="Grupo_55984" data-name="Grupo 55984" transform="translate(285.22 85.412)" opacity="0.2">
          <path id="Trazado_130428" data-name="Trazado 130428" d="M454.248,126.415,425.191,129.7a5.828,5.828,0,0,0-5.137,6.442l1.693,14.959h0l1.82,16.151,9.3-11.544,24.372-2.752a5.828,5.828,0,0,0,5.137-6.442l-1.686-14.959a5.828,5.828,0,0,0-6.442-5.137Z" transform="translate(-420.018 -126.378)" fill="#000a49"/>
        </g>
        <path id="Trazado_130429" data-name="Trazado 130429" d="M454.248,117.775l-29.057,3.281a5.828,5.828,0,0,0-5.137,6.442l1.693,14.959h0l1.82,16.151,9.3-11.544,24.372-2.752a5.828,5.828,0,0,0,5.137-6.442l-1.686-14.959A5.828,5.828,0,0,0,454.248,117.775Z" transform="translate(-134.798 -38.422)" fill="#fff"/>
        <path id="Trazado_130430" data-name="Trazado 130430" d="M445.413,144.871a11,11,0,1,1,10.937-12.228h0a10.993,10.993,0,0,1-9.7,12.193A10.588,10.588,0,0,1,445.413,144.871Zm0-20.7a9.7,9.7,0,1,0,9.617,8.615h0a9.7,9.7,0,0,0-9.617-8.615Z" transform="translate(-139.037 -39.933)" fill="#2b459c"/>
        <path id="Trazado_130431" data-name="Trazado 130431" d="M456.348,131.551a1.411,1.411,0,0,0-1.341-1.411,1.327,1.327,0,0,1-2.583,0,1.411,1.411,0,0,0-1.355,1.411c0,1.708,2.032,3.1,2.561,3.253a.162.162,0,0,0,.127,0C454.295,134.635,456.341,133.259,456.348,131.551Z" transform="translate(-143.939 -42.073)" fill="#fd0044"/>
        <path id="Trazado_130432" data-name="Trazado 130432" d="M440.252,133.236a1.411,1.411,0,0,1,.988-1.7,1.327,1.327,0,0,0,2.519-.586,1.411,1.411,0,0,1,1.637,1.094c.388,1.665-1.284,3.472-1.771,3.74a.2.2,0,0,1-.127,0C442.948,135.783,440.64,134.9,440.252,133.236Z" transform="translate(-140.742 -42.305)" fill="#fd0044"/>
        <path id="Trazado_130433" data-name="Trazado 130433" d="M440.12,139.955v.176a7.113,7.113,0,1,0,14.112-1.6.7.7,0,0,0,0-.169Z" transform="translate(-140.716 -44.493)" fill="#2b459c"/>
        <path id="Trazado_130434" data-name="Trazado 130434" d="M391.73,306.325c-13.491-8.806-40.77-17.055-52.794-10.718-.706,1.341-.233,6.661.557,7.889l49.047,13.35C389.987,314.277,391.977,309.832,391.73,306.325Z" transform="translate(-110.827 -90.127)" fill="#1d2769"/>
        <path id="Trazado_130435" data-name="Trazado 130435" d="M350.142,466.415c5.214-51.933,14.613-109.941,16.575-145.355-15.008-9.109-29.4-13.407-49.047-13.35-12.764,38.159-39.345,117.667-53.21,167.935C294.738,477.684,323.858,474.522,350.142,466.415Z" transform="translate(-89.003 -94.348)" fill="#7d6eb2"/>
        <path id="Trazado_130436" data-name="Trazado 130436" d="M383.362,325.333c-1.842-1.115-3.669-2.159-5.5-3.133a524.608,524.608,0,0,1-26.813,92.823A540.5,540.5,0,0,1,321,479.536a222.306,222.306,0,0,0,45.773-8.855C372,418.727,381.4,360.74,383.362,325.333Z" transform="translate(-105.648 -98.614)" fill="#3a277b"/>
        <path id="Trazado_130437" data-name="Trazado 130437" d="M457.08,307.977s10,44.213,10.034,50.931c9.949,2.237,26.968-5.581,31.047-5.264,0,0,6.35-36.431,9.808-47.184Z" transform="translate(-145.709 -93.98)" fill="#fd9b55"/>
        <path id="Trazado_130438" data-name="Trazado 130438" d="M504.422,338.82c-14.7-4.939-41.666-5.687-50.691,3.528-.247,1.468,1.708,6.442,2.766,7.409H504.57C505.149,346.913,505.657,342.122,504.422,338.82Z" transform="translate(-144.717 -102.448)" fill="#1d2769"/>
        <path id="Trazado_130439" data-name="Trazado 130439" d="M532.226,497.709c-10.217-51.086-18.416-109.073-26.813-143.485-16.151-4.805-30.341-5.137-48.073,0-.543,39.874-1.658,122.931.282,174.687C485.5,522.956,510.86,512.33,532.226,497.709Z" transform="translate(-145.546 -106.944)" fill="#7d6eb2"/>
        <path id="Trazado_130440" data-name="Trazado 130440" d="M520.827,355.126q-2.964-.889-5.864-1.566a546.683,546.683,0,0,1,2.484,95.871,550.969,550.969,0,0,1-8.517,69.6,196.362,196.362,0,0,0,38.731-20.42C537.437,447.526,529.237,389.539,520.827,355.126Z" transform="translate(-160.973 -107.846)" fill="#3a277b"/>
        <path id="Trazado_130441" data-name="Trazado 130441" d="M665.971,258.641C654.2,245.552,613.89,293.6,614.13,299.284c.8,18.995,14.063,33.749,23.645,42.986,10.274,2.681,24.153,1.559,34.518.762C677.719,315.669,685.495,280.374,665.971,258.641Z" transform="translate(-191.943 -79.241)" fill="#f8b586"/>
        <path id="Trazado_130442" data-name="Trazado 130442" d="M585.435,288.984c7.818,2.152,14.712,4.728,20.576,10.528,4.3,4.234,16.532-11.8,10.09-14.31a271.252,271.252,0,0,0-25.973-8.644c-6.873-1.912-11.1.861-11.925,4.1C577.475,283.544,579.571,287.361,585.435,288.984Z" transform="translate(-181.326 -84.993)" fill="#f8b586"/>
        <path id="Trazado_130443" data-name="Trazado 130443" d="M584.7,319.3c9.1,1.693,16.4,3.436,23.186,13.209,3.8,5.476,18.974-12.235,11.65-15.029-9.5-3.627-19.355-6.9-29.473-9.759-7.762-2.209-12.7.55-12.99,4.092C576.846,314.819,578.617,318.516,584.7,319.3Z" transform="translate(-181.028 -94.119)" fill="#f8b586"/>
        <path id="Trazado_130444" data-name="Trazado 130444" d="M588.091,260.7c7.762,2.3,14.613,5.017,20.364,10.923,4.234,4.339,13.943-1.115,16.674-3.973h0c2.717-2.858.078-7.5-6.315-10.14a271.373,271.373,0,0,0-25.8-9.173c-6.837-2.046-13.04-1.9-14.19,2.971C577.987,255.051,582.284,258.968,588.091,260.7Z" transform="translate(-181.519 -76.505)" fill="#f8b586"/>
        <path id="Trazado_130445" data-name="Trazado 130445" d="M655.022,235.638c-5.447-5.066-28.224-25.12-35.28-25.289-4-.092-6.463,2.7-5.744,6.294.642,3.211,3.253,6.04,5.483,8.658,4.347,5.13,10.641,9.441,14.641,14.112,2.117,2.519,6.979,9.5,9.977,11.156C648.8,253.144,660.723,240.951,655.022,235.638Z" transform="translate(-191.868 -65.685)" fill="#f8b586"/>
        <path id="Trazado_130446" data-name="Trazado 130446" d="M638.894,524.067c6.456-39.514,22.4-119.826,25.684-146.7-11.353-9.632-21.267-1.489-34.659-1.164-9.37,29.452-29.635,89.612-42.068,128.195C587.85,504.395,619.955,531.194,638.894,524.067Z" transform="translate(-184.206 -113.474)" fill="#f8b586"/>
        <path id="Trazado_130447" data-name="Trazado 130447" d="M641.381,288.816l-44.764-16.49a8.714,8.714,0,0,1-5.172-11.191l40.22-109.207a8.721,8.721,0,0,1,11.17-5.151l44.806,16.469a8.714,8.714,0,0,1,5.172,11.191L652.579,283.666A8.728,8.728,0,0,1,641.381,288.816Z" transform="translate(-185.106 -46.814)" fill="#1d2769"/>
        <path id="Trazado_130448" data-name="Trazado 130448" d="M643.045,284.265l-44.778-16.49a8.714,8.714,0,0,1-5.172-11.191l40.22-109.207a8.721,8.721,0,0,1,11.2-5.172l44.778,16.49a8.714,8.714,0,0,1,5.186,11.191l-40.22,109.207a8.721,8.721,0,0,1-11.212,5.172Z" transform="translate(-185.592 -45.466)" fill="#2f4dab"/>
        <path id="Trazado_130449" data-name="Trazado 130449" d="M699.961,164.416l-7.719-2.822a1.087,1.087,0,0,1-.642-1.411h0a1.094,1.094,0,0,1,1.411-.642l7.719,2.822a1.072,1.072,0,0,1,.642,1.411h0a1.087,1.087,0,0,1-1.411.642Z" transform="translate(-214.728 -50.708)" fill="#1d2769"/>
        <path id="Trazado_130450" data-name="Trazado 130450" d="M686.73,158.385a1.072,1.072,0,1,1-.019-.843A1.08,1.08,0,0,1,686.73,158.385Z" transform="translate(-212.702 -49.954)" fill="#1d2769"/>
        <circle id="Elipse_4301" data-name="Elipse 4301" cx="3.33" cy="3.33" r="3.33" transform="translate(434.126 220.735)" fill="#1d2769"/>
        <g id="Grupo_55985" data-name="Grupo 55985" transform="translate(412.513 103.319)" clip-path="url(#clip-path-3)">
          <rect id="Rectángulo_30856" data-name="Rectángulo 30856" width="64.775" height="115.275" transform="translate(34.974 -0.822) rotate(19.9)" fill="#c1c9e7"/>
          <rect id="Rectángulo_30857" data-name="Rectángulo 30857" width="64.775" height="56.018" transform="translate(26.639 22.213) rotate(19.9)" fill="#fff"/>
          <path id="Trazado_130451" data-name="Trazado 130451" d="M700.623,187.13a1.256,1.256,0,0,1-.388-.071L653.665,170.2a1.143,1.143,0,1,1,.783-2.117l46.57,16.857a1.143,1.143,0,0,1-.388,2.223Z" transform="translate(-615.823 -156.517)" fill="#98a4d1"/>
          <path id="Trazado_130452" data-name="Trazado 130452" d="M697.573,195.781a1.052,1.052,0,0,1-.388-.071l-46.57-16.857a1.144,1.144,0,0,1,.776-2.152l46.57,16.857a1.143,1.143,0,0,1-.388,2.223Z" transform="translate(-614.974 -159.079)" fill="#98a4d1"/>
          <path id="Trazado_130453" data-name="Trazado 130453" d="M623.982,273.109a4.375,4.375,0,1,1-.149-3.349A4.382,4.382,0,0,1,623.982,273.109Z" transform="translate(-604.853 -185.752)" fill="#98a4d1"/>
          <path id="Trazado_130454" data-name="Trazado 130454" d="M665.481,298.617a1.072,1.072,0,0,1-.388-.071l-35.118-12.7a1.143,1.143,0,1,1,.783-2.117l35.118,12.7a1.143,1.143,0,0,1-.4,2.216Z" transform="translate(-608.849 -190.564)" fill="#98a4d1"/>
          <path id="Trazado_130455" data-name="Trazado 130455" d="M662.745,306.377a1.072,1.072,0,0,1-.388-.071l-35.118-12.7a1.15,1.15,0,0,1-.706-1.468,1.136,1.136,0,0,1,1.461-.706l35.118,12.7a1.143,1.143,0,0,1-.388,2.223Z" transform="translate(-608.088 -192.855)" fill="#98a4d1"/>
          <path id="Trazado_130456" data-name="Trazado 130456" d="M668.361,290.9a1.114,1.114,0,0,1-.4-.071l-35.111-12.7a1.144,1.144,0,0,1,.776-2.152l35.09,12.7a1.143,1.143,0,0,1-.388,2.223Z" transform="translate(-609.745 -188.303)" fill="#98a4d1"/>
        </g>
        <path id="Trazado_130457" data-name="Trazado 130457" d="M650.913,344.536c-4.064-.374-10.739-21.613,1.863-41.25-10.055-2.822-22.459-10.422-16.935-15.192,3.8-3.274,23.892.967,29.1,3.69,5.758,6.026,13.16,17.922,14.818,22.347C679.765,314.131,652.12,339.06,650.913,344.536Z" transform="translate(-197.934 -88.224)" fill="#f8b586"/>
        <path id="Trazado_130458" data-name="Trazado 130458" d="M656.976,310.32c-1.355,3.528-2.738,7.014-3.824,10.549a44,44,0,0,0-2.032,10.725,30.948,30.948,0,0,0,1.305,10.7,52.862,52.862,0,0,0,4.636,10.14,30,30,0,0,1-6.4-9.476,26.292,26.292,0,0,1-1.976-11.466,33.734,33.734,0,0,1,2.681-11.247A47.877,47.877,0,0,1,656.976,310.32Z" transform="translate(-202.105 -95.117)" fill="#ff9549"/>
        <path id="Trazado_130459" data-name="Trazado 130459" d="M639.509,390.311c11.205-1.411,31.865,4.586,36.692,6.88,3.563,1.411,1.411,16.483-1.75,18.268l-40.481-6.986C633.568,405.552,634.81,395.025,639.509,390.311Z" transform="translate(-197.763 -118.603)" fill="#1d2769"/>
        <path id="Trazado_130460" data-name="Trazado 130460" d="M563,557.335c14.952-50.013,38.406-107.824,50.1-141.312,12.517-1.164,26.319,1.327,40.544,6.986-2.688,40.163-8.3,123.827-14.592,175.6C610.149,588.918,584.316,574.877,563,557.335Z" transform="translate(-176.891 -126.152)" fill="#2f4dab"/>
        <path id="Trazado_130461" data-name="Trazado 130461" d="M602.514,583.206A223.842,223.842,0,0,1,563,557.338c14.952-50.013,38.406-107.824,50.1-141.312a67.745,67.745,0,0,1,6.809-.268C604.017,471.1,601.1,549.005,602.514,583.206Z" transform="translate(-176.891 -126.156)" fill="#2b459c"/>
        <path id="Trazado_130462" data-name="Trazado 130462" d="M664.642,412.145,648.406,546.063q-3.366-.113-6.7-.423,12.644-66.673,22.452-133.649Z" transform="translate(-200.062 -125.048)" fill="#1d2769"/>
        <path id="Trazado_130463" data-name="Trazado 130463" d="M625.594,410.67q-17.64,61.007-35.28,122.021-3.048-1.411-6.054-2.992,21.465-58.869,40.622-119.008Z" transform="translate(-183.15 -124.659)" fill="#1d2769"/>
        <path id="Trazado_130464" data-name="Trazado 130464" d="M677.8,416.042l-8.764,131.673q-3.429.325-6.837.459,8.94-66.193,15.065-132.344Z" transform="translate(-206.095 -126.178)" fill="#1d2769"/>
        <path id="Trazado_130465" data-name="Trazado 130465" d="M638.672,410.39,608.931,538.761c-2.117-.649-4.234-1.362-6.3-2.117q19-62.6,35.443-126.2Z" transform="translate(-188.558 -124.577)" fill="#1d2769"/>
        <path id="Trazado_130466" data-name="Trazado 130466" d="M651.724,410.13,628.333,543.017q-3.267-.55-6.513-1.291,16.067-65.452,29.389-131.589Z" transform="translate(-194.207 -124.5)" fill="#1d2769"/>
        <g id="Grupo_55986" data-name="Grupo 55986" transform="translate(390.13 104.676)" opacity="0.2">
          <path id="Trazado_130467" data-name="Trazado 130467" d="M610.281,165.738l-32.458-11.812a4.092,4.092,0,0,0-5.25,2.448l-3.627,9.956a4.093,4.093,0,0,0,2.448,5.25l29.325,10.683,4.452,9.427,3.958-10.746,1.164-3.182L612.758,171a4.1,4.1,0,0,0-2.477-5.257Z" transform="translate(-568.699 -153.679)" fill="#000a49"/>
        </g>
        <path id="Trazado_130468" data-name="Trazado 130468" d="M610.29,157.1l-32.458-11.812a4.092,4.092,0,0,0-5.25,2.448l-3.606,9.977a4.093,4.093,0,0,0,2.448,5.25l29.325,10.683,4.452,9.427L609.14,172.3l1.164-3.182,2.463-6.767a4.1,4.1,0,0,0-2.477-5.257Z" transform="translate(-178.577 -46.459)" fill="#fff"/>
        <path id="Trazado_130469" data-name="Trazado 130469" d="M609.258,168.935a2.117,2.117,0,1,0,1.1-1.205A2.117,2.117,0,0,0,609.258,168.935Z" transform="translate(-190.472 -53.081)" fill="#2b459c"/>
        <path id="Trazado_130470" data-name="Trazado 130470" d="M597.238,164.555a2.117,2.117,0,1,0,1.1-1.205,2.117,2.117,0,0,0-1.1,1.205Z" transform="translate(-186.934 -51.792)" fill="#2b459c"/>
        <path id="Trazado_130471" data-name="Trazado 130471" d="M585.218,160.175a2.117,2.117,0,1,0,1.1-1.205,2.117,2.117,0,0,0-1.1,1.205Z" transform="translate(-183.395 -50.502)" fill="#2b459c"/>
        <g id="Grupo_55987" data-name="Grupo 55987" transform="translate(435.482 141.133)" opacity="0.2">
          <circle id="Elipse_4302" data-name="Elipse 4302" cx="12.038" cy="12.038" r="12.038" transform="matrix(0.467, -0.884, 0.884, 0.467, 0, 21.291)" fill="#000a49"/>
        </g>
        <circle id="Elipse_4303" data-name="Elipse 4303" cx="12.038" cy="12.038" r="12.038" transform="matrix(0.467, -0.884, 0.884, 0.467, 435.475, 156.322)" fill="#fd0044"/>
        <path id="Trazado_130472" data-name="Trazado 130472" d="M652.346,221.034h0a5.892,5.892,0,0,0-7.536,3.528l11.064,4.008a5.885,5.885,0,0,0-3.528-7.536Z" transform="translate(-200.975 -68.728)" fill="#fff"/>
        <path id="Trazado_130473" data-name="Trazado 130473" d="M655.221,216.682a3.345,3.345,0,1,0-2-4.29,3.345,3.345,0,0,0,2,4.29Z" transform="translate(-203.391 -65.64)" fill="#fff"/>
        <g id="Grupo_55988" data-name="Grupo 55988" transform="translate(468.545 155.691)" opacity="0.2">
          <path id="Trazado_130474" data-name="Trazado 130474" d="M748.8,271.442l-61.021-22.1a12.038,12.038,0,0,1-7.225-15.41h0a12.038,12.038,0,0,1,15.418-7.232L757,248.792a12.045,12.045,0,0,1,7.218,15.418h0A12.038,12.038,0,0,1,748.8,271.442Z" transform="translate(-679.83 -225.978)" fill="#000a49"/>
        </g>
        <path id="Trazado_130475" data-name="Trazado 130475" d="M748.8,262.8l-61.021-22.1a12.045,12.045,0,0,1-7.225-15.418h0a12.045,12.045,0,0,1,15.418-7.218L757,240.169a12.045,12.045,0,0,1,7.218,15.418h0A12.038,12.038,0,0,1,748.8,262.8Z" transform="translate(-211.285 -67.747)" fill="#fff"/>
        <path id="Trazado_130476" data-name="Trazado 130476" d="M759.4,250.449a.84.84,0,0,1-.318-.056l-59.476-21.535a.942.942,0,1,1,.642-1.771l59.476,21.535a.938.938,0,0,1-.325,1.828Z" transform="translate(-216.925 -70.597)" fill="#2b459c"/>
        <path id="Trazado_130477" data-name="Trazado 130477" d="M766.845,260.441a.853.853,0,0,1-.325-.056l-35.986-13.018a.946.946,0,1,1,.649-1.771l35.944,13.018a.938.938,0,0,1-.318,1.828Z" transform="translate(-226.01 -76.038)" fill="#2b459c"/>
        <path id="Trazado_130478" data-name="Trazado 130478" d="M716.361,242.152a.874.874,0,0,1-.325-.056l-18.748-6.788a.946.946,0,0,1,.642-1.778l18.734,6.795a.938.938,0,0,1-.318,1.828Z" transform="translate(-216.246 -72.496)" fill="#2b459c"/>
        <path id="Trazado_130479" data-name="Trazado 130479" d="M738.546,257.472a.84.84,0,0,1-.318-.056l-43.268-15.664a.946.946,0,1,1,.642-1.778l43.268,15.672a.938.938,0,0,1-.325,1.828Z" transform="translate(-215.549 -74.388)" fill="#2b459c"/>
        <path id="Trazado_130480" data-name="Trazado 130480" d="M119.158,318.731c-10.8-13.9-68.811,9.434-66.165,14.465,12.793,24.28,21.493,31.943,38.1,37.757,10.379-2.209,23.772-6.287,31.752-16.137C122.277,349.114,123.18,323.91,119.158,318.731Z" transform="translate(-26.723 -96.309)" fill="#db7627"/>
        <path id="Trazado_130481" data-name="Trazado 130481" d="M60.394,266.542c-6.4-3.782-32.966-18.5-39.839-17.167-3.923.755-5.73,4.015-4.234,7.374,1.312,2.992,4.466,5.2,7.2,7.289,5.349,4.078,12.419,6.943,17.33,10.669,2.639,2,8.841,7.762,12.122,8.764C58.066,284.987,67.1,270.514,60.394,266.542Z" transform="translate(-15.799 -77.15)" fill="#db7627"/>
        <path id="Trazado_130482" data-name="Trazado 130482" d="M210.587,486.51c-18.452-35.52-58.41-95.673-71.88-119.17-14.86-.924-29.452,7.275-31.646,19.185,10.1,29.212,47.438,93.98,60.527,132.344C184.811,506.5,199.678,503.551,210.587,486.51Z" transform="translate(-42.666 -111.882)" fill="#db7627"/>
        <path id="Trazado_130483" data-name="Trazado 130483" d="M101.732,311.611,54.315,316.96a8.714,8.714,0,0,1-9.624-7.684L31.637,193.641A8.721,8.721,0,0,1,39.321,184l47.417-5.349a8.714,8.714,0,0,1,9.639,7.684L109.43,301.966a8.721,8.721,0,0,1-7.7,9.646Z" transform="translate(-20.445 -56.337)" fill="#1d2769"/>
        <path id="Trazado_130484" data-name="Trazado 130484" d="M101.2,306.8l-47.417,5.356a8.728,8.728,0,0,1-9.646-7.684L31.087,188.831a8.714,8.714,0,0,1,7.684-9.639l47.417-5.356a8.714,8.714,0,0,1,9.639,7.684L108.88,297.163A8.714,8.714,0,0,1,101.2,306.8Z" transform="translate(-20.283 -54.921)" fill="#2f4dab"/>
        <path id="Trazado_130485" data-name="Trazado 130485" d="M82.227,185.3l-8.171.924a1.087,1.087,0,0,1-1.2-.953h0a1.08,1.08,0,0,1,.953-1.2l8.178-.924a1.08,1.08,0,0,1,1.192.953h0a1.08,1.08,0,0,1-.953,1.2Z" transform="translate(-32.594 -57.676)" fill="#1d2769"/>
        <path id="Trazado_130486" data-name="Trazado 130486" d="M67.692,186.239a1.073,1.073,0,1,1-.4-.725A1.08,1.08,0,0,1,67.692,186.239Z" transform="translate(-30.442 -58.306)" fill="#1d2769"/>
        <path id="Trazado_130487" data-name="Trazado 130487" d="M97.7,354.6a3.33,3.33,0,1,1-3.683-2.935A3.33,3.33,0,0,1,97.7,354.6Z" transform="translate(-37.955 -107.281)" fill="#1d2769"/>
        <g id="Grupo_55989" data-name="Grupo 55989" transform="translate(15.049 127.022)" clip-path="url(#clip-path-4)">
          <rect id="Rectángulo_30859" data-name="Rectángulo 30859" width="64.775" height="115.275" transform="matrix(0.994, -0.113, 0.113, 0.994, -3.546, 9.195)" fill="#c1c9e7"/>
          <rect id="Rectángulo_30860" data-name="Rectángulo 30860" width="64.775" height="56.018" transform="matrix(0.994, -0.113, 0.113, 0.994, 1.101, 50.205)" fill="#fff"/>
          <path id="Trazado_130488" data-name="Trazado 130488" d="M46.873,235.367a1.143,1.143,0,0,1-.127-2.279l49.223-5.581a1.136,1.136,0,0,1,1.263,1,1.15,1.15,0,0,1-1.009,1.27L47,235.36Z" transform="translate(-39.659 -197.757)" fill="#98a4d1"/>
          <path id="Trazado_130489" data-name="Trazado 130489" d="M47.9,244.487a1.143,1.143,0,0,1-.127-2.279l49.251-5.581a1.144,1.144,0,0,1,.261,2.272L48.065,244.48Z" transform="translate(-39.963 -200.442)" fill="#98a4d1"/>
          <path id="Trazado_130490" data-name="Trazado 130490" d="M66.355,340.728a4.375,4.375,0,1,1-1.623-2.936A4.382,4.382,0,0,1,66.355,340.728Z" transform="translate(-43.16 -229.946)" fill="#98a4d1"/>
          <path id="Trazado_130491" data-name="Trazado 130491" d="M75.913,340.28A1.143,1.143,0,0,1,75.786,338l37.108-4.234a1.143,1.143,0,1,1,.254,2.272L76.04,340.273Z" transform="translate(-48.209 -229.04)" fill="#98a4d1"/>
        </g>
        <path id="Trazado_130492" data-name="Trazado 130492" d="M113.271,345.458c-3.853-1.637-.642-20.463,16.377-38.808-2.653-9.046-3.641-33.8,5.878-34.18,4.572-.183,10.923,34.652,10.923,34.652a307.15,307.15,0,0,1-6.216,35.337S115.776,339.658,113.271,345.458Z" transform="translate(-44.064 -83.974)" fill="#db7627"/>
        <path id="Trazado_130493" data-name="Trazado 130493" d="M129.6,321.2a89.93,89.93,0,0,0-6.986,8.1,55.9,55.9,0,0,0-5.447,8.947,59.179,59.179,0,0,0-3.662,9.822c-.938,3.4-1.6,6.894-2.251,10.471a38.477,38.477,0,0,1,.247-10.909,37.947,37.947,0,0,1,3.3-10.535,36.9,36.9,0,0,1,6.245-9.109A35.35,35.35,0,0,1,129.6,321.2Z" transform="translate(-43.82 -98.32)" fill="#80491f"/>
        <path id="Trazado_130494" data-name="Trazado 130494" d="M243.024,512.683c-33.008-45.159-67.033-98.143-90.8-127.793-18.487,3.479-33.022,10.372-48.687,24.449,17.132,39.578,52.829,122.007,77.744,172.027C206.883,561.37,227.868,537.979,243.024,512.683Z" transform="translate(-41.629 -117.07)" fill="#c1c9e7"/>
        <path id="Trazado_130495" data-name="Trazado 130495" d="M169.773,384.92q-3.4.646-6.633,1.411a562.97,562.97,0,0,1,45.025,93.239A580.006,580.006,0,0,1,230.4,552.495a238,238,0,0,0,30.172-39.8C227.562,467.533,193.552,414.57,169.773,384.92Z" transform="translate(-59.175 -117.078)" fill="#98a4d1"/>
        <path id="Trazado_130496" data-name="Trazado 130496" d="M48.656,332.232c-2.491-.416-4.855-.064-6.054,1.362-2.18,2.59-1.3,8.079,1.574,10.147a8.234,8.234,0,0,0,3.994,1.369c2.752.346,6.019.12,7.987-2.286C60.63,337.333,52.212,332.817,48.656,332.232Z" transform="translate(-23.331 -101.519)" fill="#db7627"/>
        <path id="Trazado_130497" data-name="Trazado 130497" d="M52.249,321.469c5.116-6.266-4.488-11.424-8.552-12.094-2.822-.466-5.539-.064-6.908,1.559-2.491,2.956-1.489,9.229,1.792,11.586a9.568,9.568,0,0,0,4.558,1.566C46.279,324.474,50,324.22,52.249,321.469Z" transform="translate(-21.568 -94.785)" fill="#db7627"/>
        <path id="Trazado_130498" data-name="Trazado 130498" d="M38.16,300.246a9.412,9.412,0,0,0,4.459,1.531c3.076.381,6.724.127,8.926-2.561,5-6.139-4.4-11.184-8.376-11.84-2.822-.459-5.419-.064-6.76,1.524C33.969,291.8,34.949,297.931,38.16,300.246Z" transform="translate(-21.464 -88.309)" fill="#db7627"/>
        <g id="Grupo_55990" data-name="Grupo 55990" transform="translate(21.039 90.58)" opacity="0.2">
          <path id="Trazado_130499" data-name="Trazado 130499" d="M78.959,147.862l-1.192-10.521a4.1,4.1,0,0,0-4.537-3.613l-23.991,2.717a4.107,4.107,0,0,0-3.6,4.523L46.832,151.5a4.093,4.093,0,0,0,4.537,3.606l7.818-.882,5.221,7.917,3.246-8.855,7.691-.875a4.1,4.1,0,0,0,3.613-4.544Z" transform="translate(-45.615 -133.702)" fill="#000a49"/>
        </g>
        <path id="Trazado_130500" data-name="Trazado 130500" d="M78.955,139.222,77.763,128.7a4.1,4.1,0,0,0-4.537-3.613l-23.991,2.717a4.107,4.107,0,0,0-3.606,4.537l1.192,10.528a4.1,4.1,0,0,0,4.537,3.606l7.818-.882,5.221,7.9,3.246-8.855,7.691-.875a4.1,4.1,0,0,0,3.62-4.537Z" transform="translate(-24.573 -40.578)" fill="#fd0044"/>
        <path id="Trazado_130501" data-name="Trazado 130501" d="M66.3,135.848a3.126,3.126,0,0,0-6-.819,3.119,3.119,0,1,0-4.572,4.17h0l5.553,4.41,4.417-5.546h0A3.091,3.091,0,0,0,66.3,135.848Z" transform="translate(-27.232 -42.941)" fill="#fff"/>
        <text id="_1-2" data-name="1" transform="matrix(0.994, -0.113, 0.113, 0.994, 42.887, 98.321)" fill="#fff" font-size="12" font-family="SegoeUIBlack, Segoe UI"><tspan x="0" y="0">1</tspan></text>
        <g id="Grupo_55991" data-name="Grupo 55991" transform="translate(27.174 136.781)" opacity="0.2">
          <path id="Trazado_130502" data-name="Trazado 130502" d="M149.56,223.156l-81.85,9.279a12.052,12.052,0,0,1-13.322-10.584h0a12.038,12.038,0,0,1,10.584-13.315l81.85-9.279a12.031,12.031,0,0,1,13.315,10.584h0A12.045,12.045,0,0,1,149.56,223.156Z" transform="translate(-54.31 -199.179)" fill="#000a49"/>
        </g>
        <path id="Trazado_130503" data-name="Trazado 130503" d="M149.56,214.508l-81.85,9.286A12.052,12.052,0,0,1,54.388,213.21h0a12.038,12.038,0,0,1,10.584-13.315l81.85-9.279A12,12,0,0,1,160.137,201.2h0A12.038,12.038,0,0,1,149.56,214.508Z" transform="translate(-27.136 -59.853)" fill="#fff"/>
        <path id="Trazado_130504" data-name="Trazado 130504" d="M95.889,208.486a.945.945,0,0,1-.106-1.884l62.848-7.127a.946.946,0,1,1,.212,1.877L96,208.478Z" transform="translate(-39.101 -62.481)" fill="#2b459c"/>
        <path id="Trazado_130505" data-name="Trazado 130505" d="M131.892,212.481a.946.946,0,0,1-.1-1.884l38-4.311a.946.946,0,1,1,.219,1.877l-37.99,4.311Z" transform="translate(-49.702 -64.486)" fill="#2b459c"/>
        <path id="Trazado_130506" data-name="Trazado 130506" d="M96.669,217.337a.946.946,0,0,1-.106-1.884l19.821-2.244a.946.946,0,0,1,.212,1.877L96.782,217.33Z" transform="translate(-39.331 -66.528)" fill="#2b459c"/>
        <path id="Trazado_130507" data-name="Trazado 130507" d="M97.416,222.918a.94.94,0,1,1-.106-1.877l45.73-5.186a.946.946,0,1,1,.212,1.877l-45.716,5.186Z" transform="translate(-39.534 -67.303)" fill="#2b459c"/>
        <path id="Trazado_130508" data-name="Trazado 130508" d="M78.176,214.885l-4.967-.155-2.681-4.17-1.679,4.671-4.8,1.256,3.916,3.048-.282,4.953,4.107-2.794,4.629,1.806-1.39-4.77Z" transform="translate(-30.004 -65.748)" fill="#fd0044"/>
        <path id="Trazado_130509" data-name="Trazado 130509" d="M460.47,121.139c.861,12.39-4.445,17.852-16.829,18.706s-18.388-3.824-19.249-16.229,4.368-19.016,16.758-19.87,18.466,4.989,19.32,17.372" transform="translate(-136.059 -34.279)" fill="#2c96d3"/>
        <path id="Trazado_130510" data-name="Trazado 130510" d="M442.888,134.151a11.463,11.463,0,0,0,10.725-12.306,1.85,1.85,0,0,0-.049-.522,8.256,8.256,0,0,0,1.87-2.237,8.241,8.241,0,0,1-2.279.8,4.071,4.071,0,0,0,1.63-2.364,8.114,8.114,0,0,1-2.5,1.157,4.057,4.057,0,0,0-6.809,3.253,4.3,4.3,0,0,0,.162.917,11.5,11.5,0,0,1-8.63-3.655,4.064,4.064,0,0,0,1.623,5.32,3.986,3.986,0,0,1-1.87-.381.106.106,0,0,0,0,.049,4.057,4.057,0,0,0,3.528,3.747,4.037,4.037,0,0,1-1.058.219,4.653,4.653,0,0,1-.769,0,4.057,4.057,0,0,0,3.98,2.547,8.15,8.15,0,0,1-4.939,2.117,8.863,8.863,0,0,1-.967,0,11.452,11.452,0,0,0,6.35,1.411" transform="translate(-139.659 -38.358)" fill="#fff"/>
        <path id="Trazado_130511" data-name="Trazado 130511" d="M670.289,223.59c-4.361,11.847-11.551,14.7-23.4,10.344s-15.474-11.205-11.106-23.052,12-15.82,23.807-11.459,15.058,12.313,10.7,24.167" transform="translate(-197.793 -61.963)" fill="#fccc3f"/>
        <path id="Trazado_130512" data-name="Trazado 130512" d="M652.063,230.479l-.169-.071h0l-.113-.035a5.179,5.179,0,0,1-2.533-2.258,4.636,4.636,0,0,0-1.411-1.51,6.526,6.526,0,0,0-.875-.409,7.188,7.188,0,0,0-1.3-.318,2.28,2.28,0,0,1-.494-.106.3.3,0,0,1-.24-.346,3.432,3.432,0,0,1,.07-.557c.064-.459.092-.748-.078-.84-1.962-1.087-2.392-1.743-2.413-2.117a1.053,1.053,0,0,1,0-.148.261.261,0,0,1,.289-.169c3.387.649,6.026-2.117,6.132-2.2h0a1.3,1.3,0,0,0,.487-.981c0-.593-.656-1.087-1.08-1.411l-.268-.219c-.811-.706-.748-1.136-.635-1.312a.938.938,0,0,1,1.073-.247.629.629,0,0,1,.24.148,2.928,2.928,0,0,0,1.03.706.96.96,0,0,0,.84.021c.07-.219.141-.452.212-.706.459-1.545,1.03-3.465,1.905-4.361a6.16,6.16,0,0,1,6.64-1.482l.4.141h.049a6.16,6.16,0,0,1,4.107,5.44,11.211,11.211,0,0,1-1.411,4.558v.064c-.085.2-.176.4-.261.593a.967.967,0,0,0,.543.445h0a2.956,2.956,0,0,0,1.185.1.755.755,0,0,1,.353.056,1.214,1.214,0,0,1,.36.212h0a.769.769,0,0,1,.325.769c-.078.226-.374.494-1.319.522h-.353a2.335,2.335,0,0,0-1.736.374,1.3,1.3,0,0,0-.261,1.065h0c0,.162.24,3.951,3.239,5.645a.24.24,0,0,1,.106.31.474.474,0,0,1-.078.127c-.247.254-1,.473-3.2,0-.176-.035-.325.162-.6.593-.092.155-.2.3-.311.459a.289.289,0,0,1-.381.113h0a2.763,2.763,0,0,1-.445-.233,6.56,6.56,0,0,0-1.2-.586,5.647,5.647,0,0,0-.931-.261,4.558,4.558,0,0,0-2.032.247,5.194,5.194,0,0,1-3.4.078" transform="translate(-200.297 -65.331)" fill="#fff"/>
        <path id="Trazado_130513" data-name="Trazado 130513" d="M105.691,281.036c1.679,14.9-4.431,21.775-19.341,23.454s-22.4-3.648-24.075-18.557,4.234-23.172,19.178-24.859,22.579,5.052,24.238,19.962" transform="translate(-29.4 -80.545)" fill="#3264ae"/>
        <path id="Trazado_130514" data-name="Trazado 130514" d="M75.692,284.726l4.939-.557,1.785,15.855-4.939.557Zm1.581-8.164a2.872,2.872,0,1,1-1.929,1.061,2.879,2.879,0,0,1,1.929-1.061" transform="translate(-33.143 -85.173)" fill="#fff"/>
        <path id="Trazado_130515" data-name="Trazado 130515" d="M87.48,286.216l4.728-.529.24,2.166h.071a5.193,5.193,0,0,1,4.375-3.091c4.982-.565,6.28,2.618,6.76,6.887l.981,8.7-4.939.557-.868-7.712c-.2-1.842-.508-4.234-3.034-3.916s-2.731,2.336-2.5,4.4l.9,7.839-4.939.557Z" transform="translate(-36.901 -87.574)" fill="#fff"/>
        <path id="Trazado_130516" data-name="Trazado 130516" d="M848.93,197.394,889.15,175.4s27.991,42.88-28.662,69.989C848.711,240.739,842.269,209.615,848.93,197.394Z" transform="translate(-260.276 -55.397)" fill="url(#radial-gradient)"/>
        <path id="Trazado_130517" data-name="Trazado 130517" d="M965.86,252.73l-.522,1.03-.148.3C965.423,253.626,965.635,253.175,965.86,252.73Z" transform="translate(-295.293 -78.163)" fill="url(#radial-gradient-2)"/>
        <circle id="Elipse_4304" data-name="Elipse 4304" cx="24.682" cy="24.682" r="24.682" transform="translate(583.573 16.638)" fill="#1d2769"/>
        <path id="Trazado_130518" data-name="Trazado 130518" d="M886.216,54.38a6.627,6.627,0,0,0-.261-.706c-.049-.113-.1-.226-.155-.339a7.762,7.762,0,0,0-3.3-3.465l-.332-.169a7.7,7.7,0,0,0-3.366-.762,7.9,7.9,0,0,0-.917.049,7.762,7.762,0,0,0-6.082,4.361q-.127.268-.233.529-.106-.261-.233-.529a7.809,7.809,0,0,0-10.365-3.662l-.332.169a7.8,7.8,0,0,0-3.3,3.465l-.155.339c-.092.233-.183.473-.261.706a7.838,7.838,0,0,0-.346,2.307c0,11.819,14.994,19.051,14.994,19.051s14.994-7.232,14.994-19.051a7.842,7.842,0,0,0-.353-2.293Z" transform="translate(-263.319 -18.168)" fill="url(#linear-gradient)"/>
        <circle id="Elipse_4305" data-name="Elipse 4305" cx="30.165" cy="30.165" r="30.165" transform="translate(671.534)" fill="#1d2769"/>
        <path id="Trazado_130519" data-name="Trazado 130519" d="M1013.506,35.121a14.994,14.994,0,0,0,8.757,2.822v-6.28a8.969,8.969,0,0,1-1.842-.191v4.939a15.058,15.058,0,0,1-8.757-2.822V46.41a11.614,11.614,0,0,1-18.085,9.646,11.621,11.621,0,0,0,19.926-8.114Zm2.265-6.35a8.707,8.707,0,0,1-2.265-5.123v-.8h-1.743a8.778,8.778,0,0,0,4.008,5.934ZM997.637,51.124a5.25,5.25,0,0,1-1.079-3.218,5.313,5.313,0,0,1,5.313-5.306,5.426,5.426,0,0,1,1.609.247V36.426a11.39,11.39,0,0,0-1.842-.064V41.3a5.44,5.44,0,0,0-1.616-.247A5.313,5.313,0,0,0,997.63,51.11Z" transform="translate(-303.65 -10.488)" fill="#ff1753" fill-rule="evenodd"/>
        <path id="Trazado_130520" data-name="Trazado 130520" d="M1010.281,33.585a15.057,15.057,0,0,0,8.756,2.822v-5a8.792,8.792,0,0,1-4.65-2.667,8.778,8.778,0,0,1-4.008-5.934H1005.8V47.93a5.32,5.32,0,0,1-9.547,3.2,5.313,5.313,0,0,1,4-9.836V36.351a11.607,11.607,0,0,0-8.065,19.722,11.614,11.614,0,0,0,18.085-9.646Z" transform="translate(-302.266 -10.476)" fill="#fff" fill-rule="evenodd"/>
        <path id="Trazado_130521" data-name="Trazado 130521" d="M1018.269,30.787V29.447a8.743,8.743,0,0,1-4.65-1.327,8.771,8.771,0,0,0,4.65,2.667Zm-8.658-8.6c-.042-.24-.078-.48-.1-.706v-.79h-6.35V45.774a5.32,5.32,0,0,1-7.705,4.728,5.32,5.32,0,0,0,9.547-3.2V22.214ZM999.486,35.726V34.315a12.109,12.109,0,0,0-1.595-.106,11.607,11.607,0,0,0-6.47,21.253,11.607,11.607,0,0,1,8.065-19.736Z" transform="translate(-301.498 -9.852)" fill="#00c9d0" fill-rule="evenodd"/>
        <circle id="Elipse_4306" data-name="Elipse 4306" cx="15.156" cy="15.156" r="15.156" transform="translate(672.198 110.152)" fill="#1d2769"/>
        <path id="Trazado_130522" data-name="Trazado 130522" d="M995.078,177.08c-.042-.148-.1-.289-.155-.437a.9.9,0,0,0-.1-.2,4.8,4.8,0,0,0-2.025-2.117l-.2-.1a4.706,4.706,0,0,0-2.067-.473,4.934,4.934,0,0,0-.557.035,4.77,4.77,0,0,0-3.74,2.674c-.049.106-.1.219-.141.325-.042-.106-.092-.219-.141-.325a4.77,4.77,0,0,0-3.74-2.674,4.826,4.826,0,0,0-.557-.035,4.728,4.728,0,0,0-2.067.473l-.2.1a4.8,4.8,0,0,0-2.025,2.117c0,.064-.064.134-.1.2a3.674,3.674,0,0,0-.155.437,4.729,4.729,0,0,0-.219,1.411c0,7.261,9.173,11.7,9.173,11.7s9.208-4.438,9.208-11.7a4.726,4.726,0,0,0-.183-1.411Z" transform="translate(-298.734 -54.912)" fill="url(#linear-gradient-2)"/>
        <circle id="Elipse_4307" data-name="Elipse 4307" cx="15.756" cy="15.756" r="15.756" transform="translate(515.235 119.593)" fill="#1d2769"/>
        <path id="Trazado_130523" data-name="Trazado 130523" d="M775.237,193.949v-.183a3.787,3.787,0,0,0-.049-.487,5.946,5.946,0,0,0-.437-1.27c-1.362-2.575-5.356-4.438-10.076-4.438-5.842,0-10.584,2.858-10.584,6.35s4.735,6.35,10.584,6.35a11.694,11.694,0,0,0,1.581-.071l-1.581,2.23c4.862-.466,10.584-4.318,10.584-8.467v-.1Zm-15.269,1.037a1.327,1.327,0,1,1,1.327-1.327A1.327,1.327,0,0,1,759.968,194.986Zm4.7,0a1.334,1.334,0,1,1,.954-.381,1.326,1.326,0,0,1-.954.381Zm4.692,0a1.327,1.327,0,1,1,.943-.386A1.326,1.326,0,0,1,769.359,194.986Z" transform="translate(-233.146 -58.98)" fill="#fff"/>
        <circle id="Elipse_4308" data-name="Elipse 4308" cx="12.405" cy="12.405" r="12.405" transform="translate(536.756 59.052)" fill="#000a49"/>
        <path id="Trazado_130524" data-name="Trazado 130524" d="M798.279,102.722l-4.855-4.862v2.822a13.1,13.1,0,0,0-10.1,7,15.749,15.749,0,0,1,10.1-2.985v2.914Z" transform="translate(-241.751 -32.57)" fill="#fff"/>
        <circle id="Elipse_4309" data-name="Elipse 4309" cx="16.405" cy="16.405" r="16.405" transform="translate(715.995 81.865)" fill="#000a49"/>
        <path id="Trazado_130525" data-name="Trazado 130525" d="M1059.315,139.461l-6.421-6.421v3.683a17.34,17.34,0,0,0-13.364,9.258,20.782,20.782,0,0,1,13.364-3.944v3.853Z" transform="translate(-317.178 -42.927)" fill="#fff"/>
        <path id="Trazado_130526" data-name="Trazado 130526" d="M939.453,106.948a7.846,7.846,0,0,0-2.7-.628v2.251a5.884,5.884,0,0,1,5.4,5.419H944.4a8.136,8.136,0,0,0-4.939-7.056Z" transform="translate(-286.92 -35.061)" fill="#fff"/>
        <path id="Trazado_130527" data-name="Trazado 130527" d="M941.172,101.177a12.439,12.439,0,0,0-4.382-.967v2.251a10.191,10.191,0,0,1,9.73,9.73h2.251a12.461,12.461,0,0,0-7.6-11.015Z" transform="translate(-286.932 -33.262)" fill="#fff"/>
        <path id="Trazado_130528" data-name="Trazado 130528" d="M950.107,101.555A16.681,16.681,0,0,0,936.7,94.21v2.244a14.409,14.409,0,0,1,13.964,13.971h2.251A16.651,16.651,0,0,0,950.107,101.555Z" transform="translate(-286.905 -31.496)" fill="#fff"/>
        <path id="Trazado_130529" data-name="Trazado 130529" d="M848.564,169.831c13.2-11.635,39.514,63.7,39.331,69.375-.593,22.784-4.643,46.387-16.151,53.076-10.584.162-24.068-2.286-33.94-5.518-.529-8.848-4.234-40.368-4.085-53.873C833.916,220.445,846,172.089,848.564,169.831Z" transform="translate(-256.587 -53.399)" fill="#fd9b55"/>
        <path id="Trazado_130530" data-name="Trazado 130530" d="M795.34,440.2c10.069-38.738,23.744-82.33,31.611-108.24,14.289-4.234,22.311-1.207,34.434,4.509-3.345,30.729-10.358,97.374-14.564,137.671A164.06,164.06,0,0,1,795.34,440.2Z" transform="translate(-245.29 -100.904)" fill="#fd9b55"/>
        <rect id="Rectángulo_30862" data-name="Rectángulo 30862" width="65.156" height="133.811" rx="12.36" transform="translate(661.43 210.212) rotate(173.56)" fill="#1d2769"/>
        <path id="Trazado_130531" data-name="Trazado 130531" d="M863.676,249.657l47.417-5.356a8.714,8.714,0,0,0,7.684-9.639L905.73,119.021a8.714,8.714,0,0,0-9.639-7.684l-47.424,5.348a8.721,8.721,0,0,0-7.691,9.646L854.03,241.966a8.736,8.736,0,0,0,9.646,7.691Z" transform="translate(-258.709 -36.521)" fill="#2f4dab"/>
        <path id="Trazado_130532" data-name="Trazado 130532" d="M876.637,124.544l8.171-.924a1.072,1.072,0,0,0,.953-1.192h0a1.079,1.079,0,0,0-1.192-.96l-8.178.924a1.087,1.087,0,0,0-.953,1.2h0a1.087,1.087,0,0,0,1.2.953Z" transform="translate(-268.868 -39.518)" fill="#1d2769"/>
        <path id="Trazado_130533" data-name="Trazado 130533" d="M894.339,121.912a1.08,1.08,0,1,0,.957-1.018,1.08,1.08,0,0,0-.957,1.018Z" transform="translate(-274.434 -39.349)" fill="#1d2769"/>
        <path id="Trazado_130534" data-name="Trazado 130534" d="M900.991,292.844a3.33,3.33,0,1,0,2.935-3.683,3.33,3.33,0,0,0-2.935,3.683Z" transform="translate(-276.387 -88.881)" fill="#1d2769"/>
        <g id="Grupo_55992" data-name="Grupo 55992" transform="translate(586.513 82.938)" clip-path="url(#clip-path-2)">
          <rect id="Rectángulo_30863" data-name="Rectángulo 30863" width="64.775" height="115.275" transform="translate(-4.041 6.332) rotate(-6.52)" fill="#c1c9e7"/>
          <rect id="Rectángulo_30864" data-name="Rectángulo 30864" width="64.775" height="119.565" transform="translate(-4.032 6.444) rotate(-6.52)" fill="#fff"/>
          <path id="Trazado_130535" data-name="Trazado 130535" d="M867.863,273.461a1.143,1.143,0,0,1-.127-2.279l49.223-5.645a1.136,1.136,0,0,1,1.263,1,1.15,1.15,0,0,1-1.009,1.27L868,273.454Z" transform="translate(-852.817 -164.869)" fill="#98a4d1"/>
          <path id="Trazado_130536" data-name="Trazado 130536" d="M868.91,282.581a1.143,1.143,0,0,1-.134-2.279L918,274.657a1.143,1.143,0,1,1,.261,2.272l-49.223,5.645Z" transform="translate(-853.123 -167.554)" fill="#98a4d1"/>
          <rect id="Rectángulo_30865" data-name="Rectángulo 30865" width="50.684" height="30.489" transform="translate(9.517 69.048) rotate(-6.52)" fill="#fff"/>
        </g>
        <path id="Trazado_130537" data-name="Trazado 130537" d="M865.421,300.541c4.036.6,15.58-18.438,8.009-40.509,10.316-8.891,15.523-33.9,7.395-37.207C875.179,220.533,846,267,846.249,271.717,846.637,280.368,865.555,294.939,865.421,300.541Z" transform="translate(-260.277 -69.335)" fill="#fd9b55"/>
        <path id="Trazado_130538" data-name="Trazado 130538" d="M880.486,275.78a47.912,47.912,0,0,1,3.091,10.958,33.869,33.869,0,0,1-.049,11.565,26.256,26.256,0,0,1-4.65,10.662,29.862,29.862,0,0,1-8.467,7.684,52.619,52.619,0,0,0,6.887-8.743,30.9,30.9,0,0,0,3.81-10.1,44.177,44.177,0,0,0,.586-10.9C881.474,283.245,880.959,279.541,880.486,275.78Z" transform="translate(-267.39 -84.948)" fill="#d37c3a"/>
        <path id="Trazado_130539" data-name="Trazado 130539" d="M933.447,318.044c-10.859-11.226-22-22.191-25.289-19.016-4.382,4.234,6.527,36.035,25.451,49.012C940.75,352.936,956.7,320.069,933.447,318.044Z" transform="translate(-278.219 -91.629)" fill="#fd9b55"/>
        <path id="Trazado_130540" data-name="Trazado 130540" d="M941.424,218.6c-14.521,41.807-2.307,97.035.706,99.173,12,8.573,41.751,12.179,44.679,7.987,10.7-15.291,15.749-41.723,6.513-56.618-3.1-5-32.394-11.156-38.886-9.879-2.773-11.635-1.806-29.685-.466-37.2C956.919,205.387,945.467,206.947,941.424,218.6Z" transform="translate(-286.245 -65.494)" fill="#fd9b55"/>
        <path id="Trazado_130541" data-name="Trazado 130541" d="M876.26,351.533c-13.5-8.813-40.77-17.055-52.794-10.725-.706,1.341-.233,6.661.557,7.889l49.047,13.357C874.545,359.514,876.507,355.04,876.26,351.533Z" transform="translate(-253.469 -103.434)" fill="#1d2769"/>
        <path id="Trazado_130542" data-name="Trazado 130542" d="M834.668,511.622c5.221-51.933,14.613-109.941,16.582-145.355-15.008-9.109-29.4-13.407-49.047-13.357-12.771,38.166-39.352,117.681-53.2,167.956C779.271,522.891,808.391,519.73,834.668,511.622Z" transform="translate(-231.648 -107.655)" fill="#26aab7"/>
        <path id="Trazado_130543" data-name="Trazado 130543" d="M867.909,370.543q-2.766-1.672-5.5-3.133a524.379,524.379,0,0,1-26.813,92.816,541.684,541.684,0,0,1-30,64.521,222.268,222.268,0,0,0,45.766-8.855C856.549,463.958,865.941,405.929,867.909,370.543Z" transform="translate(-248.308 -111.924)" fill="#0d585f"/>
        <path id="Trazado_130544" data-name="Trazado 130544" d="M941.61,353.184s10,44.206,10.034,50.931c9.949,2.237,26.968-5.581,31.047-5.264,0,0,6.35-36.43,9.808-47.191Z" transform="translate(-288.351 -107.287)" fill="#fd9b55"/>
        <path id="Trazado_130545" data-name="Trazado 130545" d="M988.952,384.03c-14.7-4.939-41.673-5.687-50.691,3.528-.247,1.468,1.7,6.435,2.766,7.409H989.1C989.679,392.123,990.18,387.318,988.952,384.03Z" transform="translate(-287.359 -115.758)" fill="#1d2769"/>
        <path id="Trazado_130546" data-name="Trazado 130546" d="M1016.755,542.919c-10.224-51.093-18.416-109.073-26.813-143.485-16.151-4.805-30.341-5.137-48.073,0-.543,39.874-1.665,122.931.282,174.68C970.03,568.166,995.382,557.54,1016.755,542.919Z" transform="translate(-288.186 -120.253)" fill="#26aab7"/>
        <path id="Trazado_130547" data-name="Trazado 130547" d="M1005.354,400.346c-1.983-.593-3.93-1.115-5.864-1.566a546.67,546.67,0,0,1,2.477,95.871,553.55,553.55,0,0,1-8.517,69.6,196.351,196.351,0,0,0,38.731-20.42C1021.956,492.732,1013.764,434.752,1005.354,400.346Z" transform="translate(-303.612 -121.159)" fill="#0d585f"/>
        <circle id="Elipse_4310" data-name="Elipse 4310" cx="24.859" cy="24.859" r="24.859" transform="translate(594.567 99.505)" fill="#000a49"/>
        <path id="Trazado_130548" data-name="Trazado 130548" d="M896.328,170.9a12.363,12.363,0,0,0,7.218,2.307v-5.172a7.337,7.337,0,0,1-1.517-.162v4.078a12.39,12.39,0,0,1-7.247-2.307v10.584a9.568,9.568,0,0,1-14.9,7.945,9.575,9.575,0,0,0,16.42-6.689V170.9Zm1.87-5.221a7.24,7.24,0,0,1-1.87-4.234v-.663h-1.411a7.254,7.254,0,0,0,3.309,4.89ZM883.253,184.1a4.39,4.39,0,0,1,4.812-6.851v-5.292a9.029,9.029,0,0,0-1.51-.085v4.114a4.494,4.494,0,0,0-1.334-.2,4.382,4.382,0,0,0-1.969,8.291Z" transform="translate(-270.178 -51.093)" fill="#ff1753" fill-rule="evenodd"/>
        <path id="Trazado_130549" data-name="Trazado 130549" d="M893.532,169.645a12.391,12.391,0,0,0,7.218,2.307v-4.078a11.428,11.428,0,0,1-7.141-7.084h-3.768v20.674a5.179,5.179,0,1,1-5.9-5.645,4.622,4.622,0,0,1,1.334.2V171.91a8.961,8.961,0,1,0,8.256,8.3Z" transform="translate(-268.927 -51.096)" fill="#fff" fill-rule="evenodd"/>
        <path id="Trazado_130550" data-name="Trazado 130550" d="M900.273,167.347v-1.1a7.211,7.211,0,0,1-3.831-1.094,7.19,7.19,0,0,0,3.831,2.194Zm-7.141-7.056a5.66,5.66,0,0,0-.078-.593V159h-5.207v20.674a4.382,4.382,0,0,1-6.35,3.895,4.382,4.382,0,0,0,7.868-2.639V160.256ZM884.8,171.4v-1.178a10.244,10.244,0,0,0-1.312-.085,9.568,9.568,0,0,0-5.334,17.513,9.568,9.568,0,0,1,6.647-16.229Z" transform="translate(-268.422 -50.569)" fill="#00c9d0" fill-rule="evenodd"/>
      </g>
    </g>
  </g>
</svg>
