<svg xmlns="http://www.w3.org/2000/svg" xmlns:xlink="http://www.w3.org/1999/xlink" width="590.703" height="406.8" viewBox="0 0 590.703 406.8">
  <defs>
    <clipPath id="clip-path">
      <rect id="Rectángulo_401927" data-name="Rectángulo 401927" width="590.703" height="406.799" fill="none"/>
    </clipPath>
    <clipPath id="clip-path-2">
      <rect id="Rectángulo_401928" data-name="Rectángulo 401928" width="428.565" height="406.1" fill="none"/>
    </clipPath>
  </defs>
  <g id="Grupo_1102028" data-name="Grupo 1102028" transform="translate(0 0.001)">
    <g id="Grupo_1102023" data-name="Grupo 1102023" transform="translate(0 0)">
      <g id="Grupo_1102022" data-name="Grupo 1102022" clip-path="url(#clip-path)">
        <path id="Trazado_881323" data-name="Trazado 881323" d="M553.584,298.038c-18.6,16.717-39.075,31.7-52.289,53.355-5.561,9.114-10.164,19.035-17.761,26.538-11.323,11.184-27.824,15.469-43.7,16.537-37.934,2.549-70.346-10.977-98.772-34.558-25.925-21.506-78.775-23.375-109.962-14.94-17.908,4.843-34.416,13.98-52.29,18.95a118.1,118.1,0,0,1-50.97,2.681c-19.6-3.286-39.708-12.939-48.342-30.836-6.267-12.99-5.588-28.316-10.691-41.807a51.691,51.691,0,0,0-18.214-23.64c-9.734-6.939-21.73-10.376-30.958-17.977-11.667-9.611-17.572-25.474-15.9-40.5s10.557-28.9,23.011-37.467c15.986-10.995,37.459-13.9,50.357-28.4C93.089,128,89.392,100.031,99.21,78.062c9.855-22.052,33-36.047,56.776-40.289s48.251-.056,71.657,5.909S274.109,57.417,298.066,60.5c40.167,5.165,80.4,8.53,119.56-4.357,25.487-8.389,51.425-33.245,78.262-15.385,12.51,8.325,20.222,22.61,23.025,37.374,2.333,12.281,1.6,25.04,4.542,37.19,9.824,40.6,57.114,63.948,66.248,104.705a62.611,62.611,0,0,1-8.356,47.02c-7.626,11.838-17.406,21.686-27.764,30.993" transform="translate(-0.458 -4.574)" fill="#f7dcb7"/>
      </g>
    </g>
    <g id="Grupo_1102025" data-name="Grupo 1102025" transform="translate(82.36 -0.001)">
      <g id="Grupo_1102024" data-name="Grupo 1102024" clip-path="url(#clip-path-2)">
        <path id="Trazado_881324" data-name="Trazado 881324" d="M390.555,253.68,309,257.051s-27.286,32.276-40.7,68.745c-22.094,60.052-28.552,129.294-28.552,129.294H369.841l11.7-100.2s8.816-9.29,13.393-27.557c7.054-28.145-4.38-73.657-4.38-73.657" transform="translate(-114.195 -33.684)" fill="#302d4c"/>
        <path id="Trazado_881325" data-name="Trazado 881325" d="M283.792,106.249s16.194,54.074,21.084,64.917c4.677,10.37,18.754,25.239,40.291,7.225s44.39-45.169,44.39-45.169l-26-29.811-31.039,35.4L303.9,85.419" transform="translate(-120.043 -11.341)" fill="#7c4a32"/>
        <path id="Trazado_881326" data-name="Trazado 881326" d="M303.152,85.928,284.568,106.1c-3.737-4.054-9.047-5.314-12.753-8.948-4.125-4.043-5.225-10.3-9.642-14.171L266.75,61.78l23.117,11.673" transform="translate(-117.173 -8.203)" fill="#7c4a32"/>
        <path id="Trazado_881327" data-name="Trazado 881327" d="M269.473,57.7a6.022,6.022,0,0,0-8.518,5.9,5.785,5.785,0,0,0-5.561,7.527,8.888,8.888,0,0,0-1.814,6.777,20.75,20.75,0,0,0,2.287,6.809,6.959,6.959,0,0,0,2.569,3.234c1.225.676,3.077-.624,3.594-1.924.49,1.484,2.593,1.307,3.949.532s1.91-2.864,2.037-4.89c1.179,1.545,3.2,3.167,5.268,1.662,2.286-1.662,2.367-2.935,2.68-6.4" transform="translate(-116.023 -7.591)" fill="#7c4a32"/>
        <path id="Trazado_881328" data-name="Trazado 881328" d="M255.785,72.674l4.9,11.218c.759,1.74,1.238,3.985,2.568,4.459,2.832,1.012,5.77-1.447,5.069-5.095,1.18,1.545,3.42,3.434,5.268,1.662,2.663-2.553,2.362-2.917,1.727-5.942l-4.276-9.841" transform="translate(-116.325 -9.179)" fill="none" stroke="#000" stroke-miterlimit="10" stroke-width="1"/>
        <path id="Trazado_881329" data-name="Trazado 881329" d="M262.155,63.807a6.2,6.2,0,0,0,.367,3.287c.918,2.981,2.659,5.737,3.824,8.637,1.267,3.152,1.952,3.194,2.8,6.818" transform="translate(-117.157 -8.472)" fill="none" stroke="#000" stroke-miterlimit="10" stroke-width="1"/>
        <path id="Trazado_881330" data-name="Trazado 881330" d="M288.7,68.144c-4.059-4.643-8.561-10.42-13.952-13.611-3.887-2.3-8.714-1.028-12.59.608-4.393,1.854-8.069,4.553-12.649,5.949a2.89,2.89,0,0,0-2.2,1.741,2.785,2.785,0,0,0,.061,1.843,5.037,5.037,0,0,0,4.18,3.014c2.927.378,6.436-.607,9.154-1.649,3.058-1.173,7.5-2.364,7.5-2.364s4.173,3.088,5.425,5.366L301.16,84.8c-3.171-6.087-7.967-11.522-12.456-16.656" transform="translate(-115.182 -7.074)" fill="#7c4a32"/>
        <path id="Trazado_881331" data-name="Trazado 881331" d="M252.219,69.28c2.927.377,6.437-.607,9.154-1.649,3.058-1.173,7.5-2.364,7.5-2.364s4.173,3.087,5.425,5.366" transform="translate(-115.851 -8.666)" fill="none" stroke="#000" stroke-miterlimit="10" stroke-width="1"/>
        <path id="Trazado_881332" data-name="Trazado 881332" d="M294.729,91.919c-2.448-1.712-5.636-1.78-8.54-2.479-4.556-1.094-8.53-3.8-12.39-6.455-3.071-2.111-5.94-4.377-8.965-6.489-1.086-.759-2.025-2.17-1.411-3.343,1.729-3.3,7.693-.3,9.89.369a10.691,10.691,0,0,0,9.289-1.512" transform="translate(-117.313 -9.511)" fill="#7c4a32"/>
        <path id="Trazado_881333" data-name="Trazado 881333" d="M294.729,91.919c-2.448-1.712-5.636-1.78-8.54-2.479-4.556-1.094-8.53-3.8-12.39-6.455-3.071-2.111-5.94-4.377-8.965-6.489-1.086-.759-2.025-2.17-1.411-3.343,1.729-3.3,7.693-.3,9.89.369a10.691,10.691,0,0,0,9.289-1.512" transform="translate(-117.313 -9.511)" fill="none" stroke="#000" stroke-miterlimit="10" stroke-width="1"/>
        <path id="Trazado_881334" data-name="Trazado 881334" d="M270.236,65.269a16.266,16.266,0,0,0,4.694-2.137" transform="translate(-118.243 -8.382)" fill="none" stroke="#000" stroke-miterlimit="10" stroke-width="1"/>
        <path id="Trazado_881335" data-name="Trazado 881335" d="M283.08,108.7a24.026,24.026,0,0,1,3.57,5.882" transform="translate(-119.949 -14.433)" fill="none" stroke="#000" stroke-miterlimit="10" stroke-width="1"/>
        <path id="Trazado_881336" data-name="Trazado 881336" d="M339.887,145.566c3.663,7.078,7.412,14.488,7.512,22.457" transform="translate(-127.492 -19.328)" fill="none" stroke="#000" stroke-miterlimit="10" stroke-width="1"/>
        <path id="Trazado_881337" data-name="Trazado 881337" d="M337.094,125.775s-16.586,35.739-20.184,42.646-10.392,12.773-6.395,25.626,12.679,22.99,12.679,22.99l-4.955,22.013,81.551-3.37s11.433-35.753,11.433-68.8c0-23.5-8.611-41.515-23.69-46.958-17.3-6.245-50.44,5.855-50.44,5.855" transform="translate(-123.43 -15.685)" fill="#f7885c"/>
        <path id="Trazado_881338" data-name="Trazado 881338" d="M325.132,231.6l2.313,3.552" transform="translate(-125.533 -30.752)" fill="none" stroke="#000" stroke-miterlimit="10" stroke-width="1"/>
        <path id="Trazado_881339" data-name="Trazado 881339" d="M353.224,217.995a65.411,65.411,0,0,0,10.564,12.947" transform="translate(-129.263 -28.945)" fill="none" stroke="#000" stroke-miterlimit="10" stroke-width="1"/>
        <path id="Trazado_881340" data-name="Trazado 881340" d="M374.152,91.365l7.183,23.874s-18.519,10.87-27.094,11.012a15.78,15.78,0,0,1-12.89-5.788V78.123l38.087,1.911Z" transform="translate(-127.686 -10.373)" fill="#995e41"/>
        <path id="Trazado_881341" data-name="Trazado 881341" d="M371.132,65.8q.04-.687.058-1.375c.129-4.794-.369-9.646-2.595-13.961-2.61-5.059-6.175-6.636-11.09-8.729a21.809,21.809,0,0,0-22.843,4c-4.952,4.6-7.414,11.236-9.432,17.688q-2.347,7.5-4.2,15.142c-1.253,5.178-2.286,10.854.028,15.653,2.571,5.334,8.742,8.125,14.652,8.51,20.022,1.306,34.356-18.61,35.418-36.925" transform="translate(-124.809 -5.325)" fill="#995e41"/>
        <path id="Trazado_881342" data-name="Trazado 881342" d="M346.731,77.562c-.584,1.26-1.761,1.956-2.63,1.553s-1.1-1.75-.515-3.01,1.761-1.956,2.629-1.553,1.1,1.75.516,3.01" transform="translate(-127.94 -9.883)"/>
        <path id="Trazado_881343" data-name="Trazado 881343" d="M330.43,72.38c-.584,1.26-1.761,1.956-2.629,1.554s-1.1-1.75-.516-3.011,1.761-1.956,2.63-1.552,1.1,1.75.515,3.009" transform="translate(-125.776 -9.195)"/>
        <path id="Trazado_881344" data-name="Trazado 881344" d="M335.7,69.918a31.812,31.812,0,0,1-2.333,5.367c-.971,1.767-2.849,3.1-4.308,4.438a2.911,2.911,0,0,0-.565.63,1.969,1.969,0,0,0,0,1.8,4.935,4.935,0,0,0,2.7,2.537" transform="translate(-125.951 -9.283)" fill="none" stroke="#000" stroke-miterlimit="10" stroke-width="1"/>
        <path id="Trazado_881345" data-name="Trazado 881345" d="M331.465,90.481a2.371,2.371,0,0,0,2.088,2.127,3.423,3.423,0,0,0,2.88-1.2,6.342,6.342,0,0,0,1.359-2.908" transform="translate(-126.374 -11.751)" fill="none" stroke="#000" stroke-miterlimit="10" stroke-width="1"/>
        <path id="Trazado_881346" data-name="Trazado 881346" d="M346.425,67.974a5.7,5.7,0,0,1,6.507,1.2,19.905,19.905,0,0,1,3.378,5.459" transform="translate(-128.36 -8.955)" fill="none" stroke="#000" stroke-miterlimit="10" stroke-width="1"/>
        <path id="Trazado_881347" data-name="Trazado 881347" d="M330.531,61.548c3.138-1.884,5.965,1.36,5.765,3.289" transform="translate(-126.25 -8.096)" fill="none" stroke="#000" stroke-miterlimit="10" stroke-width="1"/>
        <path id="Trazado_881348" data-name="Trazado 881348" d="M387.184,44.955a23.886,23.886,0,0,0-6.022-7.258,21.523,21.523,0,0,0-19.446-3.692c-4.829-4.017-15.16-5.131-20.377-3.816a25.954,25.954,0,0,0-15.122,11c-8.073,13.66.684,17.031.684,17.031l4.611-9.663c1.641,1.485,4.007.9,5.912-.231a5.433,5.433,0,0,0,6.345,3.677,2.006,2.006,0,0,1,.911-.116c.457.1.739.541,1.012.92a7.1,7.1,0,0,0,9.334,1.707,3.237,3.237,0,0,0,3.883,2.807c-2.913,13.563,5.18,28.328,14.943,34.8,8.166-5.256,11.9-11.568,14.782-19.856,2.987-8.592,2.995-19.136-1.45-27.314" transform="translate(-125.223 -3.938)" fill="#f9d180"/>
        <path id="Trazado_881349" data-name="Trazado 881349" d="M441.537,34.259A24.875,24.875,0,1,1,416.662,9.384a24.875,24.875,0,0,1,24.875,24.875" transform="translate(-134.383 -1.245)" fill="#f9d180"/>
        <path id="Trazado_881350" data-name="Trazado 881350" d="M367.845,78.489l-3.363-19.652a30.206,30.206,0,0,0,3.017-3.576l-20.1-7.5s-.168.7-.353,1.765a13.76,13.76,0,0,0-6.351-2.388c.453-.739.721-1.24.721-1.24l-17.88-6.917s-.871,7.037,1.684,11.1a8.219,8.219,0,0,0,9.411,3.458,12.405,12.405,0,0,0,4.488-4.069,11.02,11.02,0,0,1,7.572,2.753c-.216,2.348-.2,5.114.712,6.973a9.2,9.2,0,0,0,10.443,4.1,13.79,13.79,0,0,0,4.762-2.729l3.13,18.287Z" transform="translate(-125.302 -5.175)" fill="#783cce"/>
        <line id="Línea_1707" data-name="Línea 1707" y1="7.645" x2="12.758" transform="translate(223.007 47.686)" fill="none" stroke="#592d9e" stroke-miterlimit="10" stroke-width="1"/>
        <line id="Línea_1708" data-name="Línea 1708" y1="7.645" x2="12.758" transform="translate(226.338 49.53)" fill="none" stroke="#592d9e" stroke-miterlimit="10" stroke-width="1"/>
        <line id="Línea_1709" data-name="Línea 1709" y1="6.815" x2="11.372" transform="translate(201.678 39.595)" fill="none" stroke="#592d9e" stroke-miterlimit="10" stroke-width="1"/>
        <line id="Línea_1710" data-name="Línea 1710" y1="5.292" x2="8.83" transform="translate(199.291 37.711)" fill="none" stroke="#592d9e" stroke-miterlimit="10" stroke-width="1"/>
        <path id="Trazado_881351" data-name="Trazado 881351" d="M364.406,82.579c2.642-3.735,8.514-6.28,12.007-1.42a7.931,7.931,0,0,1,1.242,5.581,16.551,16.551,0,0,1-6.442,11.139c-1.9,1.4-4.534,2.328-6.782,1.318a5.934,5.934,0,0,1-3.353-5.464" transform="translate(-130.306 -10.42)" fill="#995e41"/>
        <path id="Trazado_881352" data-name="Trazado 881352" d="M361.08,96.067a5.937,5.937,0,0,0,3.353,5.465c3.964,1.78,7.664-1.4,9.9-4.377" transform="translate(-130.306 -12.755)" fill="none" stroke="#000" stroke-miterlimit="10" stroke-width="1"/>
        <path id="Trazado_881353" data-name="Trazado 881353" d="M376.923,81.159c-3.492-4.86-9.364-2.315-12.007,1.42" transform="translate(-130.815 -10.42)" fill="none" stroke="#000" stroke-miterlimit="10" stroke-width="1"/>
        <line id="Línea_1711" data-name="Línea 1711" x1="10.29" y2="3.769" transform="translate(232.974 76.208)" fill="none" stroke="#000" stroke-miterlimit="10" stroke-width="1"/>
        <path id="Trazado_881354" data-name="Trazado 881354" d="M341.35,112.008a27.752,27.752,0,0,0,15.469-5.563" transform="translate(-127.686 -14.133)" fill="none" stroke="#000" stroke-miterlimit="10" stroke-width="1"/>
        <path id="Trazado_881355" data-name="Trazado 881355" d="M391.469,40.109c5.2,5.816,7.415,12.2,8.365,18.956" transform="translate(-134.341 -5.325)" fill="none" stroke="#000" stroke-miterlimit="10" stroke-width="1"/>
        <path id="Trazado_881356" data-name="Trazado 881356" d="M235.636,89.493,213.177,86.43a3.341,3.341,0,0,1-2.616-2.89L202,32.685c-.323-1.913.93-3.564,2.538-3.345L226.995,32.4a3.342,3.342,0,0,1,2.616,2.89l8.564,50.854c.323,1.914-.931,3.564-2.538,3.345" transform="translate(-109.176 -3.892)" fill="#e0809e"/>
        <path id="Trazado_881357" data-name="Trazado 881357" d="M212.088,48.375l-4.56-.622a.678.678,0,0,1-.531-.587l-1.739-10.324c-.065-.389.189-.723.515-.679l4.56.622a.678.678,0,0,1,.531.587L212.6,47.7C212.669,48.084,212.415,48.42,212.088,48.375Z" transform="translate(-109.614 -4.8)" fill="none" stroke="#ad5374" stroke-miterlimit="10" stroke-width="1"/>
        <path id="Trazado_881358" data-name="Trazado 881358" d="M203.469,31.272l21.717,3.188a3.347,3.347,0,0,1,2.544,2.9l8.564,50.854" transform="translate(-109.378 -4.152)" fill="none" stroke="#ad5374" stroke-miterlimit="10" stroke-width="1"/>
        <path id="Trazado_881359" data-name="Trazado 881359" d="M210.272,39.513c.361,1.019-.049,1.963-.914,2.109a2.219,2.219,0,0,1-2.22-1.581c-.361-1.019.049-1.963.914-2.109a2.219,2.219,0,0,1,2.22,1.581" transform="translate(-109.848 -5.033)" fill="#ad5374"/>
        <path id="Trazado_881360" data-name="Trazado 881360" d="M211.264,45.405c.361,1.019-.049,1.963-.914,2.109a2.22,2.22,0,0,1-2.22-1.582c-.361-1.018.049-1.963.914-2.108a2.219,2.219,0,0,1,2.22,1.581" transform="translate(-109.979 -5.816)" fill="#ad5374"/>
        <path id="Trazado_881361" data-name="Trazado 881361" d="M215.328,83.2c-2.4-4.431-6.86-13.52-9.238-17.181-1.574-2.424-5.189-2.617-5.617-1.692s-1.057,10.78,1.113,20.191c4.451,19.306,17.376,34.371,28.342,50.242L255.419,113.9c-3.606-5.752-3.658-14.609-10.221-26.1-3.235-5.663-7.225-12.348-10.414-17.305,0,0-.009,8.657-1.629,9.63-2.285,1.37-9.051-1.2-14.169-9.348-2.682-4.269-4.028-13.534-6.635-17.036-1.726-2.319-5.345-2.281-5.713-1.331s-.369,10.826,2.4,20.08a107.716,107.716,0,0,0,6.45,16.441" transform="translate(-108.923 -6.877)" fill="#995e41"/>
        <path id="Trazado_881362" data-name="Trazado 881362" d="M210.706,88.318A107.652,107.652,0,0,1,205.315,71.5c-2.17-9.41-1.541-19.266-1.113-20.191s4.042-.731,5.617,1.693c2.378,3.661,3.132,12.992,5.536,17.423,2.082,3.836,3.412,7.769,5.51,11.6" transform="translate(-109.419 -6.744)" fill="#995e41"/>
        <path id="Trazado_881363" data-name="Trazado 881363" d="M208.728,94.959a107.621,107.621,0,0,1-5.391-16.817c-2.17-9.41-1.541-19.266-1.113-20.191s4.043-.731,5.617,1.692c2.379,3.662,3.132,12.993,5.536,17.424a69.833,69.833,0,0,0,4.513,7.873" transform="translate(-109.156 -7.626)" fill="#995e41"/>
        <path id="Trazado_881364" data-name="Trazado 881364" d="M210.706,89.931a183.51,183.51,0,0,1-5.391-18.353c-2.17-9.41-1.541-19.266-1.113-20.191" transform="translate(-109.419 -6.823)" fill="none" stroke="#000" stroke-miterlimit="10" stroke-width="1"/>
        <path id="Trazado_881365" data-name="Trazado 881365" d="M208.728,95.037a107.621,107.621,0,0,1-5.391-16.817c-2.17-9.41-1.541-19.266-1.113-20.191" transform="translate(-109.156 -7.704)" fill="none" stroke="#000" stroke-miterlimit="10" stroke-width="1"/>
        <path id="Trazado_881366" data-name="Trazado 881366" d="M215.528,86.99A89.166,89.166,0,0,1,210.017,72.5c-2.765-9.253-2.765-19.129-2.4-20.079a2.508,2.508,0,0,1,2.089-.465" transform="translate(-109.906 -6.889)" fill="none" stroke="#000" stroke-miterlimit="10" stroke-width="1"/>
        <path id="Trazado_881367" data-name="Trazado 881367" d="M226.336,133.765s19.273,48.686,27.608,61.467,22.622,34.458,47.625,19.651a515.5,515.5,0,0,0,47.157-32.022l-28.184-37.554-30.3,21.915-33.863-47.945" transform="translate(-112.414 -15.837)" fill="#995e41"/>
        <path id="Trazado_881368" data-name="Trazado 881368" d="M345.995,193.848l-23.9-40.816S346.008,132.581,354,126.8c12.371-8.948,21.927-13.687,35.234-7.08s15.078,25.455,15.078,39.712-7.287,34.415-7.287,34.415L370.75,179.83Z" transform="translate(-125.129 -15.486)" fill="#f7885c"/>
        <line id="Línea_1712" data-name="Línea 1712" x1="36.263" y2="20.534" transform="translate(220.865 157.829)" fill="none" stroke="#000" stroke-miterlimit="10" stroke-width="1"/>
        <path id="Trazado_881369" data-name="Trazado 881369" d="M322.09,154.59S346.008,134.137,354,128.357" transform="translate(-125.129 -17.043)" fill="none" stroke="#000" stroke-miterlimit="10" stroke-width="1"/>
        <line id="Línea_1713" data-name="Línea 1713" x2="25.256" y2="42.71" transform="translate(206.427 129.528)" fill="none" stroke="#000" stroke-miterlimit="10" stroke-width="1"/>
        <path id="Trazado_881370" data-name="Trazado 881370" d="M300.031,174.563s9.024,13.5,10.079,15.6c3.445,6.866,3.445,9.11,3.445,9.11" transform="translate(-122.2 -23.178)" fill="none" stroke="#000" stroke-miterlimit="10" stroke-width="1"/>
        <path id="Trazado_881371" data-name="Trazado 881371" d="M449.792,272.716l-2.442,27.5-46.31-20.365,10.407-27.312,29.391,5.194Z" transform="translate(-135.612 -33.533)" fill="#f7b094"/>
        <path id="Trazado_881372" data-name="Trazado 881372" d="M471.058,205.418c-10.172-12.98-29.318-9.433-37.994,3.295-4.3,6.3-5.454,14.172-5.423,21.8.066,16.337,3.359,32.387,21.349,38.823,12.044,4.308,20.316-3.707,22.43-13.143,1.148-5.128,1.906-10.323,3.142-15.433a69.582,69.582,0,0,0,2.433-16.6c-.03-6.675-1.819-13.49-5.937-18.744" transform="translate(-139.144 -26.192)" fill="#f7b094"/>
        <path id="Trazado_881373" data-name="Trazado 881373" d="M473.693,240.429c-.679,1.321-.492,2.771.418,3.238s2.2-.223,2.877-1.544.492-2.77-.418-3.238-2.2.223-2.877,1.544" transform="translate(-145.205 -31.7)"/>
        <path id="Trazado_881374" data-name="Trazado 881374" d="M468.313,261.107a7.173,7.173,0,0,0,1.551,3.416c1.389,1.675,4.435,2.247,4.934-.548" transform="translate(-144.545 -34.67)" fill="none" stroke="#000" stroke-miterlimit="10" stroke-width="1"/>
        <path id="Trazado_881375" data-name="Trazado 881375" d="M481.916,242.046a41.451,41.451,0,0,0,.584,11.987c.61,3.1-3.23,3.863-5.6,3.017" transform="translate(-145.686 -32.139)" fill="#f7b094"/>
        <path id="Trazado_881376" data-name="Trazado 881376" d="M466.014,235.357a12.45,12.45,0,0,1,6.436-4.94c2.624-.715,6.084.2,7.357,2.421" transform="translate(-144.24 -30.563)" fill="none" stroke="#000" stroke-miterlimit="10" stroke-width="1"/>
        <path id="Trazado_881377" data-name="Trazado 881377" d="M472.576,221.353c-1.139-8.848-5.937-18.744-13.787-18.2A31.2,31.2,0,0,1,453,221.479c-2.783,3.884-7.138,7.327-11.875,6.7,0,0-2.048,13.107-4.964,17.883s-3.054,11.01-8.182,12.353-21.073-2.248-22.35-5.387.64-8.372-.733-10.384-10.47-16.468-10.538-28.6,6.691-23.084,14.711-29.338c11.162-8.7,27.46-10.2,38.866-7.142s15.118,10.007,15.118,10.007a32.546,32.546,0,0,1,20.984,14.917c6.453,10.685,1.1,20.983-11.462,18.871" transform="translate(-134.725 -23.383)" fill="#aa4e35"/>
        <path id="Trazado_881378" data-name="Trazado 881378" d="M451.917,236.861c-.228-4.916-4.38-10.787-10.886-8.682a8.468,8.468,0,0,0-4.752,4.133,16.375,16.375,0,0,0-.731,13.772c.985,2.406,2.976,4.852,5.822,5.358a6.9,6.9,0,0,0,6.75-2.724" transform="translate(-140.038 -30.239)" fill="#f7b094"/>
        <path id="Trazado_881379" data-name="Trazado 881379" d="M442.442,254.655a6.9,6.9,0,0,0,6.75-2.724" transform="translate(-141.11 -33.452)" fill="none" stroke="#000" stroke-miterlimit="10" stroke-width="1"/>
        <path id="Trazado_881380" data-name="Trazado 881380" d="M442.052,228.18c6.505-2.106,10.657,3.765,10.886,8.682" transform="translate(-141.058 -30.239)" fill="none" stroke="#000" stroke-miterlimit="10" stroke-width="1"/>
        <line id="Línea_1714" data-name="Línea 1714" x2="7.714" y2="9.683" transform="translate(300.321 204.505)" fill="none" stroke="#000" stroke-miterlimit="10" stroke-width="1"/>
        <path id="Trazado_881381" data-name="Trazado 881381" d="M443.54,272.933a18.756,18.756,0,0,0,11.418,7.871" transform="translate(-141.256 -36.24)" fill="none" stroke="#000" stroke-miterlimit="10" stroke-width="1"/>
        <path id="Trazado_881382" data-name="Trazado 881382" d="M383.007,283.32c-12.81-6.969-27.5-12.274-41.236-7.631-12.022,4.063-20.609,14.456-28.532,24.369l-19.22,24.05c-7.462,9.337-14.975,18.753-20.451,29.377s-8.84,22.67-7.419,34.538c2.1,17.567,14.267,32.338,27.853,43.669s29.084,20.363,61.282,41.42L373.6,443.3l-50.318-61.653,32.978-47.9" transform="translate(-117.658 -36.374)" fill="#783cce"/>
        <path id="Trazado_881383" data-name="Trazado 881383" d="M469.852,344c4.891,47.386,11.875,97.549,20.124,144.549l-122.323,5.67c-7.5-57.082-27.554-105.877-30.574-164.491l54.779-47.013L434.6,296.6Z" transform="translate(-127.119 -37.539)" fill="#783cce"/>
        <path id="Trazado_881384" data-name="Trazado 881384" d="M563.035,319.106l6.707-38.386a60.5,60.5,0,0,0,1.218-10.643,33.43,33.43,0,0,0-3.11-13.617c-2.535-5.576-7.109-11.5-13.234-13.954a49.194,49.194,0,0,0-7.3-2.07l-3.9-.893a3.906,3.906,0,0,0-2.576.008,2.721,2.721,0,0,0-1.352,2.308,20.578,20.578,0,0,0,.568,2.67,7.627,7.627,0,0,1-1.853-1,2.475,2.475,0,0,0-3.076.467c-.713.835-.533,2.579-.113,3.545a7.5,7.5,0,0,0,2.782,3.23s-1.839-.37-2.427.278a3.139,3.139,0,0,0-.631,2.37,8.779,8.779,0,0,0,2.889,5.868,1.987,1.987,0,0,0-2.431.906,3.348,3.348,0,0,0-.055,2.575c.957,3.158,3.548,5.689,4.064,9.007.322,2.068-.4,4.156-1.075,6.17-1.874,5.574-3.5,11.353-2.931,17.114.192,1.95.728,3.826,1.05,5.753a13.507,13.507,0,0,1-.656,5.435q-1.362,5.73-3.24,11.357" transform="translate(-153.049 -31.778)" fill="#f7b094"/>
        <path id="Trazado_881385" data-name="Trazado 881385" d="M541.186,245.457s5.889,3.524,8.987,5.057,6.2,3.942,6.717,7.358" transform="translate(-154.221 -32.592)" fill="none" stroke="#000" stroke-miterlimit="10" stroke-width="1"/>
        <path id="Trazado_881386" data-name="Trazado 881386" d="M538.472,252.328s3.985,3.31,6.137,4.8a19.88,19.88,0,0,1,7.376,9.642" transform="translate(-153.861 -33.504)" fill="none" stroke="#000" stroke-miterlimit="10" stroke-width="1"/>
        <path id="Trazado_881387" data-name="Trazado 881387" d="M538.278,262.249c1.281,1.807,3.22,3.034,4.687,4.694,2.021,2.286,3.046,5.261,4.022,8.153" transform="translate(-153.835 -34.822)" fill="none" stroke="#000" stroke-miterlimit="10" stroke-width="1"/>
        <path id="Trazado_881388" data-name="Trazado 881388" d="M542.552,283.688l-30.982-5.1a3.708,3.708,0,0,1-2.992-4.571l14.812-58.3a5.373,5.373,0,0,1,6.08-3.98l30.982,5.1a3.708,3.708,0,0,1,2.992,4.572l-14.812,58.3a5.373,5.373,0,0,1-6.08,3.98" transform="translate(-149.876 -28.105)" fill="#6d6991"/>
        <path id="Trazado_881389" data-name="Trazado 881389" d="M541.439,279.552l-26.894-4.423a3.219,3.219,0,0,1-2.6-3.968l13.367-53.586a4.664,4.664,0,0,1,5.278-3.454l26.894,4.424a3.218,3.218,0,0,1,2.6,3.968L546.717,276.1a4.664,4.664,0,0,1-5.278,3.454" transform="translate(-150.326 -28.423)" fill="#c1c0d8"/>
        <path id="Trazado_881390" data-name="Trazado 881390" d="M537.518,220.749l-2.314,8.716a.738.738,0,0,0,.593.918l19.867,3.268-1.891-2.4,1.955-7.364a.738.738,0,0,0-.593-.918l-16.785-2.76a.737.737,0,0,0-.833.539" transform="translate(-153.424 -29.238)" fill="#fff"/>
        <line id="Línea_1715" data-name="Línea 1715" x2="10.687" y2="1.758" transform="translate(386.856 193.922)" fill="none" stroke="#c1c0d8" stroke-miterlimit="10" stroke-width="1"/>
        <line id="Línea_1716" data-name="Línea 1716" x2="10.687" y2="1.758" transform="translate(385.991 196.545)" fill="none" stroke="#c1c0d8" stroke-miterlimit="10" stroke-width="1"/>
        <line id="Línea_1717" data-name="Línea 1717" x2="5.344" y2="0.878" transform="translate(385.125 199.168)" fill="none" stroke="#c1c0d8" stroke-miterlimit="10" stroke-width="1"/>
        <path id="Trazado_881391" data-name="Trazado 881391" d="M528.03,257.869l-2.314,8.715a.738.738,0,0,0,.593.918l19.867,3.268-1.891-2.4,1.955-7.363a.738.738,0,0,0-.593-.918l-16.785-2.76a.738.738,0,0,0-.833.539" transform="translate(-152.164 -34.167)" fill="#fff"/>
        <line id="Línea_1718" data-name="Línea 1718" x2="10.687" y2="1.758" transform="translate(378.628 226.112)" fill="none" stroke="#c1c0d8" stroke-miterlimit="10" stroke-width="1"/>
        <line id="Línea_1719" data-name="Línea 1719" x2="10.687" y2="1.758" transform="translate(377.763 228.736)" fill="none" stroke="#c1c0d8" stroke-miterlimit="10" stroke-width="1"/>
        <line id="Línea_1720" data-name="Línea 1720" x2="5.344" y2="0.878" transform="translate(376.897 231.359)" fill="none" stroke="#c1c0d8" stroke-miterlimit="10" stroke-width="1"/>
        <path id="Trazado_881392" data-name="Trazado 881392" d="M547.041,241.36l-19.015-3.478a.738.738,0,0,0-.833.539l-2.078,7.826-2.657,1.311,21.959,3.962a.881.881,0,0,0,1-.65l2.219-8.592a.738.738,0,0,0-.593-.918" transform="translate(-151.735 -31.585)" fill="#fff"/>
        <line id="Línea_1721" data-name="Línea 1721" x2="12.917" y2="2.475" transform="translate(378.222 209.247)" fill="none" stroke="#c1c0d8" stroke-miterlimit="10" stroke-width="1"/>
        <line id="Línea_1722" data-name="Línea 1722" x2="12.916" y2="2.475" transform="translate(377.356 211.87)" fill="none" stroke="#c1c0d8" stroke-miterlimit="10" stroke-width="1"/>
        <line id="Línea_1723" data-name="Línea 1723" x2="9.52" y2="1.566" transform="translate(376.491 214.493)" fill="none" stroke="#c1c0d8" stroke-miterlimit="10" stroke-width="1"/>
        <path id="Trazado_881393" data-name="Trazado 881393" d="M508.492,276.06a3.657,3.657,0,0,0,1.807.863l30.982,5.1a5.376,5.376,0,0,0,6.081-3.98l14.811-58.3a3.619,3.619,0,0,0,.09-1.115" transform="translate(-149.88 -29.029)" fill="none" stroke="#000" stroke-miterlimit="10" stroke-width="1"/>
        <path id="Trazado_881394" data-name="Trazado 881394" d="M559.4,238.529a1.676,1.676,0,1,1-1.465-1.569,1.531,1.531,0,0,1,1.465,1.569" transform="translate(-156.205 -31.462)" fill="#9f9fbc"/>
        <path id="Trazado_881395" data-name="Trazado 881395" d="M547.819,276.821a1.676,1.676,0,1,1-1.465-1.569,1.531,1.531,0,0,1,1.465,1.569" transform="translate(-154.667 -36.546)" fill="#9f9fbc"/>
        <path id="Trazado_881396" data-name="Trazado 881396" d="M523.859,253.449a1.675,1.675,0,1,1-1.465-1.57,1.531,1.531,0,0,1,1.465,1.57" transform="translate(-151.485 -33.443)" fill="#9f9fbc"/>
        <path id="Trazado_881397" data-name="Trazado 881397" d="M548.474,303.395a23.559,23.559,0,0,1,3.82-19.944c1.415-1.891,3.178-3.685,3.638-6a11.521,11.521,0,0,0-.05-3.652c-.425-3.432-.932-6.854-1.456-10.272-.43-2.809-.227-5.427,1.578-7.8a3.423,3.423,0,0,1,2-1.427c3.574-.651,4.167,5.926,4.992,8.154a68.247,68.247,0,0,0,5.333,11.178" transform="translate(-155.086 -33.759)" fill="#f7b094"/>
        <path id="Trazado_881398" data-name="Trazado 881398" d="M548.474,303.395a23.559,23.559,0,0,1,3.82-19.944c1.415-1.891,3.178-3.685,3.638-6a11.521,11.521,0,0,0-.05-3.652c-.425-3.432-.932-6.854-1.456-10.272-.43-2.809-.227-5.427,1.578-7.8a3.423,3.423,0,0,1,2-1.427c3.574-.651,4.167,5.926,4.992,8.154a68.247,68.247,0,0,0,5.333,11.178" transform="translate(-155.086 -33.759)" fill="none" stroke="#000" stroke-miterlimit="10" stroke-width="1"/>
        <path id="Trazado_881399" data-name="Trazado 881399" d="M520.486,316.269l-10.957,31.92s-5.956-18.9-10.39-28.183c-2.8-5.871-6.443-11.594-11.854-15.207-14.352-9.58-34.928-1.067-50.314-8.879l17.348,73.6s19.342,42.776,35.023,59.493,50.42,21,57.065-23.014c7.112-47.1,10.16-82.456,10.16-82.456Z" transform="translate(-140.383 -39.293)" fill="#783cce"/>
        <path id="Trazado_881400" data-name="Trazado 881400" d="M443.061,350.839c23.546,47.325,34.32,73.608,51.82,89.7" transform="translate(-141.192 -46.585)" fill="none" stroke="#000" stroke-miterlimit="10" stroke-width="1"/>
        <path id="Trazado_881401" data-name="Trazado 881401" d="M520.64,356.192c5.3,12.468,11.861,25.111,18.023,36.893,5.652,10.81,5.458,14.942,7.4,23.287" transform="translate(-151.493 -47.296)" fill="none" stroke="#000" stroke-miterlimit="10" stroke-width="1"/>
        <path id="Trazado_881402" data-name="Trazado 881402" d="M389.125,278.385s10.224-5.2,12.551-4.447c6.308,2.048,14.294,6.222,24.867,9.675,8.174,2.668,18.875,3.044,21.825,4.931,3,1.919,5.517,8.689,5.517,8.689s-25.18,2.456-40.78-3.833c-17.254-6.957-23.98-15.014-23.98-15.014" transform="translate(-134.03 -36.364)" fill="#783cce"/>
        <path id="Trazado_881403" data-name="Trazado 881403" d="M453.885,297.924s-25.18,2.456-40.78-3.834c-17.254-6.956-23.98-15.013-23.98-15.013" transform="translate(-134.03 -37.056)" fill="none" stroke="#000" stroke-miterlimit="10" stroke-width="1"/>
        <path id="Trazado_881404" data-name="Trazado 881404" d="M338.014,329.054c1.911,13.609,1.4,27.637,4.083,46.511,4.781,33.584,15.182,70.2,23.345,109.426" transform="translate(-127.243 -43.692)" fill="none" stroke="#000" stroke-miterlimit="10" stroke-width="1"/>
        <path id="Trazado_881405" data-name="Trazado 881405" d="M330.769,398.824c-3.8,3.8-4.6,4.161-8.814,7.49" transform="translate(-125.111 -52.957)" fill="none" stroke="#000" stroke-miterlimit="10" stroke-width="1"/>
        <line id="Línea_1724" data-name="Línea 1724" x2="39.152" y2="8.681" transform="translate(375.603 290.089)" fill="none" stroke="#000" stroke-miterlimit="10" stroke-width="1"/>
        <line id="Línea_1725" data-name="Línea 1725" x1="3.336" y2="25.763" transform="translate(402.669 282.197)" fill="none" stroke="#000" stroke-miterlimit="10" stroke-width="1"/>
        <line id="Línea_1726" data-name="Línea 1726" x1="5.596" y1="0.962" transform="translate(397.703 284.985)" fill="none" stroke="#000" stroke-miterlimit="10" stroke-width="1"/>
        <line id="Línea_1727" data-name="Línea 1727" x1="5.596" y1="0.962" transform="translate(397.073 289.608)" fill="none" stroke="#000" stroke-miterlimit="10" stroke-width="1"/>
        <path id="Trazado_881406" data-name="Trazado 881406" d="M130.323,346.884s-12.7,58.043-15.147,69.047-26,83.527-26,83.527l46.053,2.852s28.37-79.684,31.551-94.957c6.026-28.936,14.395-73.384,14.395-73.384" transform="translate(-94.201 -44.345)" fill="#d38753"/>
        <path id="Trazado_881407" data-name="Trazado 881407" d="M186.387,284.131s-17.8-1.632-28.212,4.391c-14.417,8.339-15.253,18.554-22.637,44.028-1.944,6.709-7.087,27.241-7.087,27.241l57.936,5.776,5.98-49.734" transform="translate(-99.417 -37.701)" fill="#fff"/>
        <path id="Trazado_881408" data-name="Trazado 881408" d="M172.655,308.6c2.115,12.066,1.506,22.747-3.647,31.906" transform="translate(-104.802 -40.977)" fill="none" stroke="#000" stroke-miterlimit="10" stroke-width="1"/>
        <line id="Línea_1728" data-name="Línea 1728" x2="57.253" y2="4.763" transform="translate(31.93 310.245)" fill="none" stroke="#000" stroke-miterlimit="10" stroke-width="1"/>
        <path id="Trazado_881409" data-name="Trazado 881409" d="M264.982,365.956l23.328-57.538-29.725-31.839-67.965,6.374-9.042,81.636Z" transform="translate(-106.471 -36.725)" fill="#fff"/>
        <path id="Trazado_881410" data-name="Trazado 881410" d="M171.159,324.564c-3.582,8.063-8.811,16.572-12.384,24.879-6.041,14.044-1.652,33.455,4.921,47.259L153.2,458.04l115.439,3.082s6.659-37.511,9.632-51.674c4.615-21.987,7.7-47.357,7.7-47.357l-38-35.715Z" transform="translate(-102.703 -43.096)" fill="#f9b2b2"/>
        <path id="Trazado_881411" data-name="Trazado 881411" d="M186.39,331.512l43.935.888s-4.636,29.262-5.182,30.353-28.4,8.372-29.489,7.826-13.992-11.538-14.075-12.725S186.39,331.512,186.39,331.512Z" transform="translate(-106.471 -44.019)" fill="none" stroke="#000" stroke-miterlimit="10" stroke-width="1"/>
        <line id="Línea_1729" data-name="Línea 1729" x2="44.017" y2="0.635" transform="translate(78.909 293.541)" fill="none" stroke="#000" stroke-miterlimit="10" stroke-width="1"/>
        <path id="Trazado_881412" data-name="Trazado 881412" d="M189.579,283.716s8.625,19.988,25.174,20.725c31.2,1.389,43.732-27.087,43.732-27.087" transform="translate(-107.533 -36.827)" fill="none" stroke="#000" stroke-miterlimit="10" stroke-width="1"/>
        <path id="Trazado_881413" data-name="Trazado 881413" d="M175.389,327.746l-4.235-.884c.138-.661,3.294-15.86,13.594-43.084l4.489.132c-10.18,26.909-13.814,43.677-13.847,43.836" transform="translate(-105.087 -37.68)" fill="#f9b2b2"/>
        <path id="Trazado_881414" data-name="Trazado 881414" d="M252.726,324.133l-4.263-.737c.232-1.346,4.98-30.517,14.6-46.865l4.4.042c-9.22,15.665-14.684,47.238-14.739,47.56" transform="translate(-115.352 -36.718)" fill="#f9b2b2"/>
        <path id="Trazado_881415" data-name="Trazado 881415" d="M191.578,350.859l37.567,25.968,12.888-38.34,47.189,12.674s-17.614,56.432-26.064,70.12c-7.33,11.874-25.721,24.035-48.888,5.023s-46.511-44.663-46.511-44.663Z" transform="translate(-104.636 -44.945)" fill="#d38753"/>
        <path id="Trazado_881416" data-name="Trazado 881416" d="M258.462,305.65l-11.531,41.242,52.8,18.988s9.8-39.718,9.865-55.531c.068-17.307-2.482-29.672-20.167-33.448-8.777-1.874-22.26-.245-22.26-.245" transform="translate(-115.149 -36.648)" fill="#fff"/>
        <line id="Línea_1730" data-name="Línea 1730" x1="11.531" y2="41.242" transform="translate(131.782 269.002)" fill="none" stroke="#000" stroke-miterlimit="10" stroke-width="1"/>
        <path id="Trazado_881417" data-name="Trazado 881417" d="M161.943,340.371l-26.068-4.128a3.3,3.3,0,0,1-2.771-2.95L128.36,283.3a2.893,2.893,0,0,1,3.332-3.131l26.068,4.128a3.3,3.3,0,0,1,2.771,2.95l4.745,49.993a2.893,2.893,0,0,1-3.333,3.131" transform="translate(-99.403 -37.196)" fill="#2d2943"/>
        <path id="Trazado_881418" data-name="Trazado 881418" d="M138.611,299.088l-5.293-.839a.669.669,0,0,1-.562-.6l-.963-10.15a.588.588,0,0,1,.676-.636l5.293.839a.67.67,0,0,1,.562.6l.963,10.15A.587.587,0,0,1,138.611,299.088Z" transform="translate(-99.86 -38.089)" fill="none" stroke="#6d6991" stroke-miterlimit="10" stroke-width="1"/>
        <path id="Trazado_881419" data-name="Trazado 881419" d="M130.283,281.979l26.068,4.128a3.3,3.3,0,0,1,2.771,2.95l4.745,49.993" transform="translate(-99.66 -37.442)" fill="none" stroke="#6d6991" stroke-miterlimit="10" stroke-width="1"/>
        <path id="Trazado_881420" data-name="Trazado 881420" d="M137.159,290.6a1.376,1.376,0,0,1-1.208,1.876,2.285,2.285,0,0,1-2.282-1.545,1.376,1.376,0,0,1,1.208-1.876,2.286,2.286,0,0,1,2.282,1.544" transform="translate(-100.099 -38.38)" fill="#6d6991"/>
        <path id="Trazado_881421" data-name="Trazado 881421" d="M137.672,296.01a1.375,1.375,0,0,1-1.209,1.875,2.282,2.282,0,0,1-2.281-1.544,1.376,1.376,0,0,1,1.208-1.876,2.286,2.286,0,0,1,2.282,1.545" transform="translate(-100.167 -39.098)" fill="#6d6991"/>
        <path id="Trazado_881422" data-name="Trazado 881422" d="M184.75,345.194c-3.633-4.771-6.256-10.011-10.5-14.266-3.323-3.333-7.939-6.645-11.292-9.949l.754,7.938a24.634,24.634,0,0,1-15.362-6.067c-3.63-3.119-7.959-10.61-11.059-12.04-2.592-1.2-4.1-.474-4.59.561-2.729-1.611-4.355-.51-4.643.776a14.262,14.262,0,0,0,.856,3.941c-1.715-.617-2.842.146-3.155,1.1-.2.616.539,3.775,1.5,7.28a1.922,1.922,0,0,0-1.845,1.288c-.4,1.217,2.491,12.842,4.3,16.35a108.361,108.361,0,0,0,6.782,11.113c2.2,3.236,5.705,6.185,8.473,9.016,6.714,6.869,14.8,13.457,22.49,21.348L191.8,351.431a25.714,25.714,0,0,1-7.045-6.237" transform="translate(-99.009 -41.187)" fill="#d38753"/>
        <path id="Trazado_881423" data-name="Trazado 881423" d="M126.99,324.564c1.042,4,2.6,9.078,3.408,11.353,2.337,6.57,7.464,13.432,7.464,13.432" transform="translate(-99.223 -43.096)" fill="none" stroke="#000" stroke-miterlimit="10" stroke-width="1"/>
        <path id="Trazado_881424" data-name="Trazado 881424" d="M128.958,315.243c1.077,4.052,3.883,11.792,5.58,14.509,2.21,3.541,8.761,13.129,8.761,13.129" transform="translate(-99.484 -41.858)" fill="none" stroke="#000" stroke-miterlimit="10" stroke-width="1"/>
        <path id="Trazado_881425" data-name="Trazado 881425" d="M133.618,312.281c-.119,1.311,5.454,12.3,8.076,15.4s8.958,9.978,8.958,9.978" transform="translate(-100.102 -41.465)" fill="none" stroke="#000" stroke-miterlimit="10" stroke-width="1"/>
        <path id="Trazado_881426" data-name="Trazado 881426" d="M168.577,331.793a37.487,37.487,0,0,0,5.174-.214" transform="translate(-104.745 -44.028)" fill="none" stroke="#000" stroke-miterlimit="10" stroke-width="1"/>
        <line id="Línea_1731" data-name="Línea 1731" x2="52.354" y2="18.716" transform="translate(134.88 299.162)" fill="none" stroke="#000" stroke-miterlimit="10" stroke-width="1"/>
        <path id="Trazado_881427" data-name="Trazado 881427" d="M238.5,382.175a125.95,125.95,0,0,1,16.426,10.816c5.057,4.071,9.435,9.38,11.216,15.755" transform="translate(-114.03 -50.746)" fill="none" stroke="#000" stroke-miterlimit="10" stroke-width="1"/>
        <path id="Trazado_881428" data-name="Trazado 881428" d="M192.541,256.584a7.866,7.866,0,1,1,1.233-11.056,7.866,7.866,0,0,1-1.233,11.056" transform="translate(-106.23 -32.209)" fill="#4c1e43"/>
        <path id="Trazado_881429" data-name="Trazado 881429" d="M178.482,262.641a6.369,6.369,0,1,1,1-8.951,6.369,6.369,0,0,1-1,8.951" transform="translate(-104.686 -33.367)" fill="#4c1e43"/>
        <path id="Trazado_881430" data-name="Trazado 881430" d="M165.278,265.033a5.128,5.128,0,1,1,.8-7.207,5.128,5.128,0,0,1-.8,7.207" transform="translate(-103.201 -33.979)" fill="#4c1e43"/>
        <path id="Trazado_881431" data-name="Trazado 881431" d="M154.3,262.924a4.486,4.486,0,1,1,.7-6.3,4.485,4.485,0,0,1-.7,6.3" transform="translate(-101.881 -33.85)" fill="#4c1e43"/>
        <path id="Trazado_881432" data-name="Trazado 881432" d="M145.276,256.064c-.511-1.7-2.092-3-3.585-4.092-2.093-1.531-4.24-2.977-8.115-5.886l-4.383,11.2c5.162,4.216,9.919,5.355,13.4,3.773,1.764-.8,3.364-2.718,2.681-4.993" transform="translate(-99.515 -32.676)" fill="#4c1e43"/>
        <path id="Trazado_881433" data-name="Trazado 881433" d="M205.757,258.641V275l-10.312,1.642s7.347,18.156,21.457,17.664c24.934-.868,37.275-23.087,37.275-23.087l-5.766-1.473-14.183-38.565Z" transform="translate(-108.312 -30.697)" fill="#d38753"/>
        <path id="Trazado_881434" data-name="Trazado 881434" d="M232.121,205.519q-.258-.691-.537-1.372c-1.943-4.751-4.527-9.289-8.571-12.555-4.741-3.828-8.914-3.834-14.632-3.761a23.347,23.347,0,0,0-20.651,13.78c-2.862,6.647-2.409,14.206-1.6,21.4q.94,8.359,2.429,16.644c1.009,5.613,2.449,11.619,6.787,15.321,4.823,4.115,12.072,4.183,18.027,2.008,20.176-7.367,25.617-33.065,18.747-51.464" transform="translate(-106.994 -24.938)" fill="#d38753"/>
        <path id="Trazado_881435" data-name="Trazado 881435" d="M234.162,220.624c-3.719,2.69-9.963-.372-11.606-1.184-9.981-4.928-15.887-13.345-17.716-25.638-12.093-1.143-17.012,7.4-19.271,12.789s-1.235,14.731-1.235,14.731-11.424-2.659-12.271-12.633,6.211-22.79,27.522-25.945c0,0,8.371-8.278,23.887-7.6s22.253,8.023,27,14.01c5.227,6.59,11.467,23.043,7.494,35.267-5.077,15.621-15.29,19.03-22.989,15.071-4.266-2.194-.817-18.873-.817-18.873" transform="translate(-105.199 -23.251)" fill="#4c1e43"/>
        <path id="Trazado_881436" data-name="Trazado 881436" d="M261.556,256.667a8.654,8.654,0,1,1-9.5-7.713,8.654,8.654,0,0,1,9.5,7.713" transform="translate(-114.799 -33.05)" fill="#4c1e43"/>
        <path id="Trazado_881437" data-name="Trazado 881437" d="M255.962,273.7a6.59,6.59,0,1,1-7.236-5.873,6.591,6.591,0,0,1,7.236,5.873" transform="translate(-114.603 -35.558)" fill="#4c1e43"/>
        <path id="Trazado_881438" data-name="Trazado 881438" d="M250.427,286.138a5.305,5.305,0,1,1-5.825-4.728,5.305,5.305,0,0,1,5.825,4.728" transform="translate(-114.208 -37.362)" fill="#4c1e43"/>
        <path id="Trazado_881439" data-name="Trazado 881439" d="M243.742,294.84a4.641,4.641,0,1,1-5.1-4.137,4.641,4.641,0,0,1,5.1,4.137" transform="translate(-113.496 -38.597)" fill="#4c1e43"/>
        <path id="Trazado_881440" data-name="Trazado 881440" d="M233.356,299.374c-1.7.533-3.149,2.072-4.388,3.521-1.738,2.031-3.4,4.111-6.69,7.873l9.819,5.571c4.708-5.021,6.8-11.293,5.719-14.557a3.488,3.488,0,0,0-4.46-2.408" transform="translate(-111.875 -39.727)" fill="#4c1e43"/>
        <path id="Trazado_881441" data-name="Trazado 881441" d="M200.147,229.235a21.293,21.293,0,0,1-.312,9.531c-.441,1.681-1.853,4.4-.591,6.06.661.867,2.535,1.21,3.536,1.215" transform="translate(-108.749 -30.438)" fill="none" stroke="#000" stroke-miterlimit="10" stroke-width="1"/>
        <path id="Trazado_881442" data-name="Trazado 881442" d="M208.372,223.179c5.352-2.943,11-.892,14.459,3.795" transform="translate(-110.029 -29.452)" fill="none" stroke="#000" stroke-miterlimit="10" stroke-width="1"/>
        <path id="Trazado_881443" data-name="Trazado 881443" d="M185.67,225.8c1.995-4.205,8.057-3.059,10.48-.182" transform="translate(-107.014 -29.615)" fill="none" stroke="#000" stroke-miterlimit="10" stroke-width="1"/>
        <path id="Trazado_881444" data-name="Trazado 881444" d="M215.135,232.063c-.028,1.486-.881,2.676-1.905,2.657s-1.832-1.239-1.8-2.726.88-2.677,1.905-2.658,1.832,1.24,1.8,2.727" transform="translate(-110.434 -30.451)"/>
        <path id="Trazado_881445" data-name="Trazado 881445" d="M193.375,234.04c-.028,1.486-.88,2.676-1.905,2.657s-1.832-1.239-1.8-2.726.88-2.677,1.905-2.658,1.832,1.24,1.8,2.727" transform="translate(-107.545 -30.714)"/>
        <path id="Trazado_881446" data-name="Trazado 881446" d="M204.14,252.415a3.288,3.288,0,0,0,3.821.8c1.584-.889,2.054-3.307,1.61-4.923" transform="translate(-109.467 -32.969)" fill="none" stroke="#000" stroke-miterlimit="10" stroke-width="1"/>
        <path id="Trazado_881447" data-name="Trazado 881447" d="M234.262,231.639c.966-4.8,5.608-9.839,11.135-6.6a8.481,8.481,0,0,1,3.635,4.923,17.724,17.724,0,0,1-1.473,13.7c-1.258,2.192-3.428,4.244-6.067,4.23a6.349,6.349,0,0,1-5.65-3.894" transform="translate(-113.467 -29.745)" fill="#d38753"/>
        <path id="Trazado_881448" data-name="Trazado 881448" d="M236.085,247.057a6.352,6.352,0,0,0,5.651,3.9,4.911,4.911,0,0,0,3.537-1.466" transform="translate(-113.709 -32.804)" fill="none" stroke="#000" stroke-miterlimit="10" stroke-width="1"/>
        <path id="Trazado_881449" data-name="Trazado 881449" d="M234.262,231.639c.966-4.8,5.608-9.839,11.135-6.6" transform="translate(-113.467 -29.745)" fill="none" stroke="#000" stroke-miterlimit="10" stroke-width="1"/>
        <line id="Línea_1732" data-name="Línea 1732" x1="8.436" y2="8.152" transform="translate(123.084 201.883)" fill="none" stroke="#000" stroke-miterlimit="10" stroke-width="1"/>
        <path id="Trazado_881450" data-name="Trazado 881450" d="M207.325,268.26c7.458.047,14.192-2.521,20.156-9.06" transform="translate(-109.89 -34.417)" fill="none" stroke="#000" stroke-miterlimit="10" stroke-width="1"/>
        <line id="Línea_1733" data-name="Línea 1733" y1="6.185" x2="8.742" transform="translate(104.353 178.933)" fill="none" stroke="#fef3cd" stroke-miterlimit="10" stroke-width="1"/>
        <line id="Línea_1734" data-name="Línea 1734" y1="11.199" x2="3.959" transform="translate(106.278 176.531)" fill="none" stroke="#fef3cd" stroke-miterlimit="10" stroke-width="1"/>
        <line id="Línea_1735" data-name="Línea 1735" y1="9.262" x2="4.002" transform="translate(111.45 183.459)" fill="none" stroke="#fef3cd" stroke-miterlimit="10" stroke-width="1"/>
        <line id="Línea_1736" data-name="Línea 1736" y1="9.659" x2="4.025" transform="translate(115.474 185.768)" fill="none" stroke="#fef3cd" stroke-miterlimit="10" stroke-width="1"/>
      </g>
    </g>
    <g id="Grupo_1102027" data-name="Grupo 1102027" transform="translate(0 0)">
      <g id="Grupo_1102026" data-name="Grupo 1102026" clip-path="url(#clip-path)">
        <path id="Trazado_881451" data-name="Trazado 881451" d="M141.5,192.275H59.379a15.961,15.961,0,0,1-15.96-15.96V135.632a15.96,15.96,0,0,1,15.96-15.96h54.158a15.96,15.96,0,0,1,15.96,15.96v44.244l12.623,10.7a.961.961,0,0,1-.622,1.695" transform="translate(-5.765 -15.891)" fill="#fff"/>
        <path id="Trazado_881452" data-name="Trazado 881452" d="M115.162,157.122a28.8,28.8,0,1,1-28.8-28.8,28.8,28.8,0,0,1,28.8,28.8" transform="translate(-7.642 -17.038)" fill="#ffbf01"/>
        <path id="Trazado_881453" data-name="Trazado 881453" d="M98.944,161.532a9.654,9.654,0,0,1-19.309,0" transform="translate(-10.574 -21.449)" fill="none" stroke="#000" stroke-miterlimit="10" stroke-width="1.5"/>
        <path id="Trazado_881454" data-name="Trazado 881454" d="M79.317,153.323c0,1.78-1.107,3.224-2.471,3.224s-2.472-1.444-2.472-3.224,1.107-3.224,2.472-3.224,2.471,1.444,2.471,3.224" transform="translate(-9.876 -19.931)"/>
        <path id="Trazado_881455" data-name="Trazado 881455" d="M106.4,153.323c0,1.78-1.107,3.224-2.471,3.224s-2.472-1.444-2.472-3.224,1.107-3.224,2.472-3.224,2.471,1.444,2.471,3.224" transform="translate(-13.472 -19.931)"/>
        <path id="Trazado_881456" data-name="Trazado 881456" d="M80.655,321.957H7.469A7.469,7.469,0,0,0,0,329.426v19.04a7.469,7.469,0,0,0,7.469,7.469H68.964a7.47,7.47,0,0,0,7.469-7.469V327.76l4.843-4.107a.962.962,0,0,0-.622-1.7" transform="translate(0 -42.751)" fill="#fff"/>
        <path id="Trazado_881457" data-name="Trazado 881457" d="M25.557,341.087a3.007,3.007,0,1,1-3.007-3.007,3.006,3.006,0,0,1,3.007,3.007" transform="translate(-2.595 -44.892)" fill="#e0809e"/>
        <path id="Trazado_881458" data-name="Trazado 881458" d="M45.965,341.087a3.007,3.007,0,1,1-3.007-3.007,3.006,3.006,0,0,1,3.007,3.007" transform="translate(-5.305 -44.892)" fill="#e0809e"/>
        <path id="Trazado_881459" data-name="Trazado 881459" d="M66.374,341.087a3.007,3.007,0,1,1-3.007-3.007,3.006,3.006,0,0,1,3.007,3.007" transform="translate(-8.015 -44.892)" fill="#e0809e"/>
        <path id="Trazado_881460" data-name="Trazado 881460" d="M589.725,218.246h62.167A10.807,10.807,0,0,0,662.7,207.439V191.953a10.808,10.808,0,0,0-10.807-10.807h-44.08a10.808,10.808,0,0,0-10.807,10.807v17.9l-7.9,6.7a.962.962,0,0,0,.622,1.7" transform="translate(-78.178 -24.053)" fill="#ef8f60"/>
        <path id="Trazado_881461" data-name="Trazado 881461" d="M619.428,202.362a3.007,3.007,0,1,1-3.007-3.007,3.006,3.006,0,0,1,3.007,3.007" transform="translate(-81.452 -26.471)" fill="#fff"/>
        <path id="Trazado_881462" data-name="Trazado 881462" d="M639.837,202.362a3.007,3.007,0,1,1-3.007-3.007,3.006,3.006,0,0,1,3.007,3.007" transform="translate(-84.162 -26.471)" fill="#fff"/>
        <path id="Trazado_881463" data-name="Trazado 881463" d="M660.246,202.362a3.007,3.007,0,1,1-3.007-3.007,3.006,3.006,0,0,1,3.007,3.007" transform="translate(-86.872 -26.471)" fill="#fff"/>
        <path id="Trazado_881464" data-name="Trazado 881464" d="M598.58,308.658h45.133a8.994,8.994,0,0,1,8.994,8.994v22.927a8.994,8.994,0,0,1-8.994,8.994h-30.52a8.994,8.994,0,0,1-8.994-8.994V315.645l-6.241-5.292a.962.962,0,0,1,.622-1.7" transform="translate(-79.354 -40.985)" fill="#fff"/>
        <path id="Trazado_881465" data-name="Trazado 881465" d="M641.146,316.284a8.464,8.464,0,0,0-10.15,8.29,8.457,8.457,0,1,0-14.432,5.979l12.913,12.913a2.149,2.149,0,0,0,3.04,0l12.913-12.913a8.455,8.455,0,0,0-4.283-14.268" transform="translate(-81.541 -41.976)" fill="#e07365"/>
        <path id="Trazado_881466" data-name="Trazado 881466" d="M97.24,406.49H34.421A11.271,11.271,0,0,1,23.15,395.219v-28.73a11.271,11.271,0,0,1,11.271-11.27H78.264a11.27,11.27,0,0,1,11.27,11.27v31.246l8.327,7.06a.962.962,0,0,1-.622,1.7" transform="translate(-3.074 -47.167)" fill="#ef8f60"/>
        <path id="Trazado_881467" data-name="Trazado 881467" d="M62.563,367.9c-.513-1.178-.4-2.8-1.584-3.335a2.076,2.076,0,0,0-2.286.515,4.418,4.418,0,0,0-1.064,3.127,12.166,12.166,0,0,0,.662,4.268H44.6a3,3,0,1,0,0,6,3,3,0,1,0,0,6,3,3,0,1,0,0,6,3,3,0,1,0,0,6H61.357c3.21,0,5.116-2.374,5.77-2.374h2.581V372.925c-3.4-.573-5.762-1.848-7.146-5.023" transform="translate(-5.523 -48.388)" fill="#fff"/>
        <path id="Trazado_881468" data-name="Trazado 881468" d="M79.672,397.007H76.018a2,2,0,0,1-2-2V374.853a2.006,2.006,0,0,1,2-2.006h3.654a2.006,2.006,0,0,1,2.006,2.006V395a2.006,2.006,0,0,1-2.006,2.006" transform="translate(-9.828 -49.508)" fill="#3d2379"/>
        <path id="Trazado_881469" data-name="Trazado 881469" d="M531.271,122.508l-21.33,31.354,66.572-10.115-19.181-9-8.533,3.442-.381-7.627Z" transform="translate(-67.712 -16.267)" fill="none" stroke="#ef8f60" stroke-linecap="round" stroke-miterlimit="10" stroke-width="1.5"/>
        <path id="Trazado_881470" data-name="Trazado 881470" d="M548.8,139.418l-.382-7.628-38.476,23.3Z" transform="translate(-67.712 -17.5)" fill="none" stroke="#ef8f60" stroke-linecap="round" stroke-miterlimit="10" stroke-width="1.5"/>
        <path id="Rectángulo_401929" data-name="Rectángulo 401929" d="M8.063,0H19.881a8.063,8.063,0,0,1,8.063,8.063V19.881a8.062,8.062,0,0,1-8.062,8.062H8.063A8.063,8.063,0,0,1,0,19.88V8.063A8.063,8.063,0,0,1,8.063,0Z" transform="translate(117.558 116.441)" fill="none" stroke="#ef8f60" stroke-miterlimit="10" stroke-width="1.5"/>
        <rect id="Rectángulo_401930" data-name="Rectángulo 401930" width="45.825" height="45.825" rx="13.222" transform="translate(104.155 24.883)" fill="none" stroke="#fff" stroke-miterlimit="10" stroke-width="1.5"/>
        <rect id="Rectángulo_401931" data-name="Rectángulo 401931" width="21.865" height="21.865" rx="6.309" transform="translate(220.641 8.138)" fill="none" stroke="#ef8f60" stroke-miterlimit="10" stroke-width="1.5"/>
        <path id="Trazado_881471" data-name="Trazado 881471" d="M185.047,131.9h-5.8a1.333,1.333,0,0,1-1.333-1.333v-5.8a1.333,1.333,0,0,1,1.333-1.333h5.8a1.333,1.333,0,0,1,1.333,1.333v5.8a1.333,1.333,0,0,1-1.333,1.333" transform="translate(-23.625 -16.391)" fill="#fff"/>
        <path id="Trazado_881472" data-name="Trazado 881472" d="M43.79,272.02H32.514a6.117,6.117,0,0,0-6.117,6.117v11.276a6.117,6.117,0,0,0,6.117,6.117H43.79a6.117,6.117,0,0,0,6.117-6.117V278.137a6.117,6.117,0,0,0-6.117-6.117" transform="translate(-3.505 -36.12)" fill="#fff"/>
        <rect id="Rectángulo_401932" data-name="Rectángulo 401932" width="23.92" height="23.92" rx="7.829" transform="translate(555.401 235.695)" fill="none" stroke="#fff" stroke-linecap="round" stroke-miterlimit="10" stroke-width="1.5"/>
        <rect id="Rectángulo_401933" data-name="Rectángulo 401933" width="17.1" height="17.1" rx="5.597" transform="translate(361.604 75.526)" fill="none" stroke="#fff" stroke-linecap="round" stroke-miterlimit="10" stroke-width="1.5"/>
        <path id="Trazado_881473" data-name="Trazado 881473" d="M580.173,187.724h-9.236a1.333,1.333,0,0,1-1.333-1.333v-9.237a1.333,1.333,0,0,1,1.333-1.333h9.236a1.333,1.333,0,0,1,1.333,1.333v9.237a1.333,1.333,0,0,1-1.333,1.333" transform="translate(-75.634 -23.346)" fill="#fff"/>
        <path id="Trazado_881474" data-name="Trazado 881474" d="M280.064,36.795h-5.531a3.186,3.186,0,0,1-3.186-3.185V28.077a3.186,3.186,0,0,1,3.186-3.185h5.531a3.185,3.185,0,0,1,3.185,3.185v5.532a3.185,3.185,0,0,1-3.185,3.185" transform="translate(-36.031 -3.305)" fill="#fff"/>
        <path id="Rectángulo_401934" data-name="Rectángulo 401934" d="M1.537,0H6.206A1.537,1.537,0,0,1,7.743,1.537V6.205A1.538,1.538,0,0,1,6.205,7.743H1.538A1.538,1.538,0,0,1,0,6.205V1.537A1.537,1.537,0,0,1,1.537,0Z" transform="translate(379.603 99.07)" fill="none" stroke="#fff" stroke-linecap="round" stroke-miterlimit="10" stroke-width="1.5"/>
        <path id="Trazado_881475" data-name="Trazado 881475" d="M451.415,83.513h75.657A14.743,14.743,0,0,0,541.816,68.77V31.189a14.744,14.744,0,0,0-14.743-14.744H477.045A14.744,14.744,0,0,0,462.3,31.189V72.06l-11.508,9.758a.962.962,0,0,0,.622,1.7" transform="translate(-59.813 -2.184)" fill="#fff"/>
        <path id="Trazado_881476" data-name="Trazado 881476" d="M519.994,74.065H494.729a9.756,9.756,0,0,1-9.746-9.746V39.055a9.756,9.756,0,0,1,9.746-9.746h25.265a9.756,9.756,0,0,1,9.745,9.746V64.319a9.756,9.756,0,0,1-9.745,9.746M494.729,32.511a6.551,6.551,0,0,0-6.544,6.544V64.319a6.55,6.55,0,0,0,6.544,6.544h25.265a6.55,6.55,0,0,0,6.543-6.544V39.055a6.551,6.551,0,0,0-6.543-6.544Zm12.633,33.167a13.99,13.99,0,1,1,13.99-13.99,14.006,14.006,0,0,1-13.99,13.99m0-24.779A10.789,10.789,0,1,0,518.15,51.688,10.8,10.8,0,0,0,507.362,40.9m14.38-5.412a2.185,2.185,0,1,0,2.184,2.185,2.185,2.185,0,0,0-2.184-2.185" transform="translate(-64.398 -3.892)" fill="#e07365"/>
        <line id="Línea_1737" data-name="Línea 1737" x2="30.62" transform="translate(37.413 250.587)" fill="none" stroke="#ef8f60" stroke-miterlimit="10" stroke-width="1.5"/>
        <line id="Línea_1738" data-name="Línea 1738" x2="33.333" transform="translate(139.723 91.504)" fill="none" stroke="#ef8f60" stroke-miterlimit="10" stroke-width="1.5"/>
        <line id="Línea_1739" data-name="Línea 1739" x2="58.188" transform="translate(428.553 91.504)" fill="none" stroke="#ef8f60" stroke-miterlimit="10" stroke-width="1.5"/>
        <line id="Línea_1740" data-name="Línea 1740" x2="16.078" transform="translate(498.901 91.504)" fill="none" stroke="#ef8f60" stroke-miterlimit="10" stroke-width="1.5"/>
        <line id="Línea_1741" data-name="Línea 1741" x1="19.129" transform="translate(548.231 366.38)" fill="none" stroke="#ef8f60" stroke-miterlimit="10" stroke-width="1.5"/>
        <line id="Línea_1742" data-name="Línea 1742" x1="38.222" transform="translate(497.493 366.38)" fill="none" stroke="#ef8f60" stroke-miterlimit="10" stroke-width="1.5"/>
        <path id="Trazado_881477" data-name="Trazado 881477" d="M481.246,361.3H400.463a9.394,9.394,0,0,0-9.394,9.395V394.64a9.394,9.394,0,0,0,9.394,9.395h62.782a9.394,9.394,0,0,0,9.395-9.395V368.6Z" transform="translate(-51.928 -47.975)" fill="#e0809e"/>
        <path id="Trazado_881478" data-name="Trazado 881478" d="M421.319,378.035a5.422,5.422,0,1,1-5.422-5.422,5.422,5.422,0,0,1,5.422,5.422" transform="translate(-54.504 -49.477)" fill="#fff"/>
        <path id="Trazado_881479" data-name="Trazado 881479" d="M423.566,394.77H407.415v-3.246a8.076,8.076,0,0,1,16.151,0Z" transform="translate(-54.098 -50.916)" fill="#fff"/>
        <path id="Trazado_881480" data-name="Trazado 881480" d="M441.767,394.029a10.04,10.04,0,0,1-3.408-.591,7.452,7.452,0,0,1-2.694-1.59l1.093-2.028a6.254,6.254,0,0,0,2.16,1.386,7.455,7.455,0,0,0,2.826.539,4.37,4.37,0,0,0,2.921-.873,2.917,2.917,0,0,0,1.022-2.335,3.3,3.3,0,0,0-.452-1.746,2.87,2.87,0,0,0-1.556-1.141,9.22,9.22,0,0,0-3.027-.4h-3.776l.879-9.392h9.381v2.232h-8.5l1.235-1.257-.689,7.416-1.235-1.231h3.205a9.792,9.792,0,0,1,4.013.692,4.64,4.64,0,0,1,2.208,1.913,5.613,5.613,0,0,1,.689,2.81,5.806,5.806,0,0,1-.689,2.81,5.019,5.019,0,0,1-2.078,2.028,7.317,7.317,0,0,1-3.526.756" transform="translate(-57.849 -49.908)" fill="#fff"/>
        <path id="Trazado_881481" data-name="Trazado 881481" d="M453.791,375.86h2.374v17.964h-2.374Zm2.09,13.627-.119-3.131,9.427-10.5H467.9l-7.291,8.315-1.33,1.59Zm9.689,4.337-6.815-8.572,1.59-1.9,8,10.47Z" transform="translate(-60.256 -49.908)" fill="#fff"/>
        <path id="Trazado_881482" data-name="Trazado 881482" d="M94.774,241.266a15.307,15.307,0,1,1-15.307-15.307A15.307,15.307,0,0,1,94.774,241.266Z" transform="translate(-8.519 -30.004)" fill="none" stroke="#ef8f60" stroke-miterlimit="10" stroke-width="1.5"/>
        <path id="Trazado_881483" data-name="Trazado 881483" d="M91.17,241.266c0,8.454-4.947,15.307-11.051,15.307s-11.052-6.854-11.052-15.307,4.948-15.307,11.052-15.307S91.17,232.813,91.17,241.266Z" transform="translate(-9.171 -30.004)" fill="none" stroke="#ef8f60" stroke-miterlimit="10" stroke-width="1.5"/>
        <ellipse id="Elipse_12010" data-name="Elipse 12010" cx="4.75" cy="15.307" rx="4.75" ry="15.307" transform="translate(66.198 195.955)" fill="none" stroke="#ef8f60" stroke-miterlimit="10" stroke-width="1.5"/>
        <path id="Trazado_881484" data-name="Trazado 881484" d="M91.476,231.851a19.51,19.51,0,0,1-22.826,0" transform="translate(-9.116 -30.786)" fill="none" stroke="#ef8f60" stroke-miterlimit="10" stroke-width="1.5"/>
        <path id="Trazado_881485" data-name="Trazado 881485" d="M68.65,254.8a19.51,19.51,0,0,1,22.826,0" transform="translate(-9.116 -33.345)" fill="none" stroke="#ef8f60" stroke-miterlimit="10" stroke-width="1.5"/>
        <line id="Línea_1743" data-name="Línea 1743" x2="30.614" transform="translate(55.64 211.262)" fill="none" stroke="#ef8f60" stroke-miterlimit="10" stroke-width="1.5"/>
        <circle id="Elipse_12011" data-name="Elipse 12011" cx="5.768" cy="5.768" r="5.768" transform="translate(58.662 54.766) rotate(-22.5)" fill="none" stroke="#ef8f60" stroke-miterlimit="10" stroke-width="1.5"/>
        <circle id="Elipse_12012" data-name="Elipse 12012" cx="12.38" cy="12.38" r="12.38" transform="translate(507.026 316.711) rotate(-5.655)" fill="none" stroke="#ef8f60" stroke-miterlimit="10" stroke-width="1.5"/>
        <circle id="Elipse_12013" data-name="Elipse 12013" cx="6.058" cy="6.058" r="6.058" transform="translate(7.73 261.796)" fill="none" stroke="#ef8f60" stroke-miterlimit="10" stroke-width="1.5"/>
        <path id="Rectángulo_401935" data-name="Rectángulo 401935" d="M6.66,0h5.185A6.66,6.66,0,0,1,18.5,6.66v5.185A6.659,6.659,0,0,1,11.846,18.5H6.66A6.66,6.66,0,0,1,0,11.844V6.66A6.66,6.66,0,0,1,6.66,0Z" transform="translate(329.888 348.553)" fill="none" stroke="#fff" stroke-linecap="round" stroke-miterlimit="10" stroke-width="1.5"/>
      </g>
    </g>
  </g>
</svg>
