<svg xmlns="http://www.w3.org/2000/svg" xmlns:xlink="http://www.w3.org/1999/xlink" width="129.737" height="110.976" viewBox="0 0 129.737 110.976">
  <defs>
    <clipPath id="clip-path">
      <rect id="Rectángulo_401593" data-name="Rectángulo 401593" width="107.314" height="106.976" fill="none"/>
    </clipPath>
  </defs>
  <g id="Grupo_1102052" data-name="Grupo 1102052" transform="translate(-652.995 -5857.833)">
    <path id="_12068" data-name="12068" d="M98.737,72.292c-13.285-1.834-27.318-1.386-39.407,4.421-16.765,8.052-27.775,26.309-28.2,44.9S40.4,158.479,55.36,169.523s34.7,14.959,53,11.643c18.453-3.344,35.773-14.186,45.4-30.28,6.172-10.321,9.057-23.065,5.647-34.6-2.059-6.961-6.267-13.128-11.217-18.437A82.875,82.875,0,0,0,98.737,72.292Z" transform="translate(621.876 5786.5)" fill="#26aab7"/>
    <g id="Grupo_1100048" data-name="Grupo 1100048" transform="translate(667.436 5857.833)">
      <g id="Grupo_1100047" data-name="Grupo 1100047" transform="translate(0 0)">
        <g id="Grupo_1100046" data-name="Grupo 1100046" clip-path="url(#clip-path)">
          <path id="Trazado_875968" data-name="Trazado 875968" d="M71.4,37.6l-6.816,5.622a5.493,5.493,0,0,0-1.75,5.864l2.712,8.743a5.484,5.484,0,0,1,.159,2.609L63.49,72.64A5.49,5.49,0,0,1,61.7,75.79l-3.827,3.349a5.493,5.493,0,0,1-8.75-2.18l-.519-1.365a5.493,5.493,0,0,1,2.8-6.925A5.492,5.492,0,0,0,53.7,60.737L45.794,48.378a5.494,5.494,0,0,1-.129-5.708l10.055-17.4A39.806,39.806,0,0,0,.228,57.191L20.763,43.219a4.239,4.239,0,0,1,6.567,2.808l.9,5.415a4.243,4.243,0,0,1-1.084,3.591l-6.586,7.05a4.241,4.241,0,0,0,1,6.581l2.392,1.36a4.25,4.25,0,0,1,1.883,2.221l1.46,3.967a4.24,4.24,0,0,1-1.968,5.2,4.241,4.241,0,0,0-2.127,4.663l2.947,13.1A39.784,39.784,0,0,0,71.4,37.6" transform="translate(0.056 5.353)" fill="#fff" stroke="#62529b" stroke-linecap="round" stroke-linejoin="round" stroke-width="3"/>
          <path id="Trazado_875969" data-name="Trazado 875969" d="M37.026,47.724l7.907,12.359a5.493,5.493,0,0,1-2.293,7.932,5.492,5.492,0,0,0-2.8,6.924l.52,1.366a5.492,5.492,0,0,0,8.749,2.18l3.827-3.349a5.494,5.494,0,0,0,1.786-3.15l2.219-12.205a5.505,5.505,0,0,0-.158-2.61L54.07,48.429a5.492,5.492,0,0,1,1.75-5.864l6.816-5.622A39.908,39.908,0,0,0,46.952,24.615L36.9,42.016a5.494,5.494,0,0,0,.129,5.708" transform="translate(8.824 6.007)" fill="#62529b"/>
          <path id="Trazado_875970" data-name="Trazado 875970" d="M25.392,77.382a4.242,4.242,0,0,0,1.969-5.2L25.9,68.215a4.24,4.24,0,0,0-1.883-2.221l-2.392-1.36a4.24,4.24,0,0,1-1-6.581L27.206,51a4.24,4.24,0,0,0,1.084-3.591L27.387,42a4.24,4.24,0,0,0-6.568-2.808L.285,53.161A39.567,39.567,0,0,0,26.212,95.148l-2.947-13.1a4.241,4.241,0,0,1,2.127-4.663" transform="translate(0 9.383)" fill="#62529b"/>
          <path id="Trazado_875971" data-name="Trazado 875971" d="M86.621,0h-32.2a9.8,9.8,0,0,0-9.8,9.8V53.117a9.8,9.8,0,0,0,9.8,9.8h32.2a9.8,9.8,0,0,0,9.8-9.8V9.8a9.8,9.8,0,0,0-9.8-9.8" transform="translate(10.889 0)" fill="#ff5023" stroke="#fff" stroke-width="1"/>
        </g>
      </g>
      <text id="_22" data-name="22" transform="translate(65.387 38.43)" fill="#fff" font-size="30" font-family="SegoeUI, Segoe UI"><tspan x="0" y="0">22</tspan></text>
    </g>
  </g>
</svg>
