<svg xmlns="http://www.w3.org/2000/svg" width="139.737" height="168.529" viewBox="0 0 139.737 168.529">
  <g id="Grupo_1102048" data-name="Grupo 1102048" transform="translate(-1151.126 -17344)">
    <path id="_12068" data-name="12068" d="M103.949,72.366C89.64,70.39,74.525,70.874,61.5,77.128,43.447,85.8,31.588,105.464,31.133,125.491s9.978,39.705,26.1,51.6S94.6,193.2,114.312,189.632c19.875-3.6,38.53-15.279,48.9-32.614,6.648-11.116,9.755-24.842,6.082-37.264-2.217-7.5-6.75-14.14-12.082-19.858A89.263,89.263,0,0,0,103.949,72.366Z" transform="translate(1120.007 17321.668)" fill="#ffd947"/>
    <g id="desarrollo-de-aplicaciones" transform="translate(1123.556 17343)">
      <g id="Grupo_1100120" data-name="Grupo 1100120" transform="translate(39.783 3.134)">
        <g id="Grupo_1100117" data-name="Grupo 1100117" transform="translate(0 0)">
          <path id="Trazado_876173" data-name="Trazado 876173" d="M133.358,143.357a6.008,6.008,0,0,1-5.991,5.991H51.142a6.008,6.008,0,0,1-5.991-5.991V14.491A6.008,6.008,0,0,1,51.142,8.5h76.225a6.008,6.008,0,0,1,5.991,5.991Z" transform="translate(-45.151 -8.5)" fill="#c9f0ff" fill-rule="evenodd"/>
          <path id="Trazado_876174" data-name="Trazado 876174" d="M128.766,8.5l2.629,6.459a2.262,2.262,0,0,0,2.132,1.434H164.8a2.262,2.262,0,0,0,2.132-1.434L169.561,8.5Z" transform="translate(-104.974 -8.5)" fill="#b0a0ea" fill-rule="evenodd"/>
          <path id="Trazado_876175" data-name="Trazado 876175" d="M133.358,433.455H45.151v13.94a6.008,6.008,0,0,0,5.991,5.991h76.225a6.008,6.008,0,0,0,5.991-5.991Z" transform="translate(-45.151 -312.538)" fill="#b0a0ea" fill-rule="evenodd"/>
          <path id="Trazado_876176" data-name="Trazado 876176" d="M184.267,456.276a3.472,3.472,0,0,1,0,6.944h-9.444a3.472,3.472,0,1,1,0-6.944Z" transform="translate(-135.442 -328.865)" fill="#c9f0ff" fill-rule="evenodd"/>
        </g>
        <path id="Trazado_876177" data-name="Trazado 876177" d="M145.339,304.421H174.9a1.142,1.142,0,0,1,1.138,1.138v7.21a1.142,1.142,0,0,1-1.138,1.138H145.339a1.142,1.142,0,0,1-1.138-1.138v-7.21A1.141,1.141,0,0,1,145.339,304.421Z" transform="translate(-116.017 -220.219)" fill="#ffd947" fill-rule="evenodd"/>
        <path id="Trazado_876178" data-name="Trazado 876178" d="M145.339,364.071H174.9a1.142,1.142,0,0,1,1.138,1.138v7.21a1.142,1.142,0,0,1-1.138,1.138H145.339a1.142,1.142,0,0,1-1.138-1.138v-7.21A1.141,1.141,0,0,1,145.339,364.071Z" transform="translate(-116.017 -262.896)" fill="#59836b" fill-rule="evenodd"/>
        <g id="Grupo_1100118" data-name="Grupo 1100118" transform="translate(15.649 18.332)">
          <path id="Trazado_876179" data-name="Trazado 876179" d="M104.7,72.928h47.8a4.566,4.566,0,0,1,4.553,4.553v47.8a4.566,4.566,0,0,1-4.553,4.553H104.7a4.566,4.566,0,0,1-4.553-4.553v-47.8a4.566,4.566,0,0,1,4.553-4.553Z" transform="translate(-100.148 -72.928)" fill="#59836b" fill-rule="evenodd"/>
          <path id="Trazado_876180" data-name="Trazado 876180" d="M141.373,94.469h5.277a1.371,1.371,0,0,1,1.367,1.367v2.489a3.645,3.645,0,0,0,6.222,2.577l1.76-1.76a1.371,1.371,0,0,1,1.933,0l3.731,3.731a1.371,1.371,0,0,1,0,1.933l-1.76,1.76a3.645,3.645,0,0,0,2.577,6.222h2.489a1.371,1.371,0,0,1,1.367,1.367v5.276a1.371,1.371,0,0,1-1.367,1.367H162.48a3.645,3.645,0,0,0-2.577,6.222l1.76,1.76a1.371,1.371,0,0,1,0,1.933l-3.731,3.731a1.371,1.371,0,0,1-1.933,0l-1.76-1.76a3.645,3.645,0,0,0-6.222,2.577v2.489a1.371,1.371,0,0,1-1.367,1.367h-5.277a1.371,1.371,0,0,1-1.367-1.367v-2.489a3.645,3.645,0,0,0-6.222-2.577l-1.76,1.76a1.371,1.371,0,0,1-1.933,0l-3.731-3.731a1.371,1.371,0,0,1,0-1.933l1.76-1.76a3.645,3.645,0,0,0-2.577-6.222h-2.489a1.371,1.371,0,0,1-1.367-1.367v-5.277a1.371,1.371,0,0,1,1.367-1.367h2.489a3.645,3.645,0,0,0,2.577-6.222l-1.76-1.76a1.371,1.371,0,0,1,0-1.933l3.731-3.731a1.371,1.371,0,0,1,1.933,0l1.76,1.76a3.645,3.645,0,0,0,6.222-2.577V95.835A1.372,1.372,0,0,1,141.373,94.469Z" transform="translate(-115.558 -88.34)" fill="#ffd947" fill-rule="evenodd"/>
          <circle id="Elipse_11825" data-name="Elipse 11825" cx="10.332" cy="10.332" r="10.332" transform="translate(18.122 18.122)" fill="#f0f0f0"/>
        </g>
        <g id="Grupo_1100119" data-name="Grupo 1100119" transform="translate(64.415 87.446)">
          <path id="Trazado_876181" data-name="Trazado 876181" d="M274.89,316.385a4.226,4.226,0,0,1,5.756,1.542l6.875,11.907a4.213,4.213,0,0,1,7.3-4.214l1.331,2.3a4.213,4.213,0,1,1,7.3-4.213l1.857,3.216a3.437,3.437,0,0,1,5.953-3.437l6.37,11.033c2.612,5.273,3.962,10.1,5.684,18.272l-23.43,13.527-3.592-4.892a13.947,13.947,0,0,0-4.834-4.527l-17.819-10.288a4.213,4.213,0,1,1,4.214-7.3l8.124,4.69-12.626-21.868a4.225,4.225,0,0,1,1.542-5.756Z" transform="translate(-271.533 -315.824)" fill="#fedfc5" fill-rule="evenodd"/>
          <path id="Trazado_876182" data-name="Trazado 876182" d="M357.645,443.729l26.467-15.281a1.521,1.521,0,0,1,2.071.555l1.791,3.1a1.521,1.521,0,0,1-.555,2.071l-26.467,15.281a1.521,1.521,0,0,1-2.071-.555l-1.791-3.1A1.521,1.521,0,0,1,357.645,443.729Z" transform="translate(-332.601 -396.257)" fill="#c9f0ff" fill-rule="evenodd"/>
        </g>
      </g>
      <path id="Trazado_876183" data-name="Trazado 876183" d="M83.885,41.725a8.2,8.2,0,1,1-8.2,8.2A8.206,8.206,0,0,1,83.885,41.725Zm0,20.663A12.466,12.466,0,1,0,71.419,49.922,12.481,12.481,0,0,0,83.885,62.388ZM63.694,48.05v3.741h1.723A5.78,5.78,0,0,1,69.5,61.657l-1.219,1.219,2.647,2.645L72.149,64.3a5.78,5.78,0,0,1,9.866,4.087v1.723h3.741V68.39A5.779,5.779,0,0,1,95.622,64.3l1.217,1.217,2.647-2.645-1.217-1.219a5.779,5.779,0,0,1,4.085-9.865h1.723V48.05h-1.723a5.779,5.779,0,0,1-4.085-9.865l1.217-1.218-2.647-2.645-1.217,1.217a5.779,5.779,0,0,1-9.865-4.086V29.731H82.015v1.721a5.78,5.78,0,0,1-9.866,4.086l-1.217-1.217-2.647,2.645L69.5,38.184a5.78,5.78,0,0,1-4.087,9.865Zm-.766,8.009h2.489a1.512,1.512,0,0,1,1.068,2.581L64.725,60.4a3.5,3.5,0,0,0,0,4.951l3.731,3.731a3.509,3.509,0,0,0,4.952,0l1.759-1.762a1.511,1.511,0,0,1,2.579,1.068v2.489a3.506,3.506,0,0,0,3.5,3.5h5.277a3.505,3.505,0,0,0,3.5-3.5V68.389A1.511,1.511,0,0,1,92.6,67.321l1.761,1.759a3.507,3.507,0,0,0,4.951,0l3.731-3.733a3.5,3.5,0,0,0,0-4.951l-1.759-1.759a1.511,1.511,0,0,1,1.067-2.581h2.491a3.5,3.5,0,0,0,3.5-3.5v-5.28a3.5,3.5,0,0,0-3.5-3.5h-2.491a1.51,1.51,0,0,1-1.067-2.579l1.759-1.761a3.5,3.5,0,0,0,0-4.951L99.315,30.76a3.5,3.5,0,0,0-4.951,0L92.6,32.52a1.511,1.511,0,0,1-2.579-1.068V28.962a3.5,3.5,0,0,0-3.5-3.5H81.248a3.505,3.505,0,0,0-3.5,3.5v2.489a1.511,1.511,0,0,1-2.579,1.068L73.408,30.76a3.505,3.505,0,0,0-4.952,0l-3.731,3.731a3.5,3.5,0,0,0,0,4.951L66.484,41.2a1.511,1.511,0,0,1-1.067,2.579H62.928a3.5,3.5,0,0,0-3.5,3.5V52.56a3.5,3.5,0,0,0,3.5,3.5ZM57.565,26.02v47.8a2.422,2.422,0,0,0,2.42,2.418h47.8a2.423,2.423,0,0,0,2.418-2.418V26.02a2.421,2.421,0,0,0-2.418-2.418h-47.8a2.421,2.421,0,0,0-2.42,2.418Zm2.42,54.49h47.8a6.7,6.7,0,0,0,6.686-6.687V26.02a6.693,6.693,0,0,0-6.686-6.687h-47.8A6.694,6.694,0,0,0,53.3,26.02v47.8A6.7,6.7,0,0,0,59.985,80.51Zm37.687,31.151H70.1v-5.218H97.671Zm2.134-9.487H67.966a2.135,2.135,0,0,0-2.134,2.135V113.8a2.135,2.135,0,0,0,2.134,2.135H99.8a2.135,2.135,0,0,0,2.134-2.135V104.31A2.135,2.135,0,0,0,99.805,102.175Zm32.21,39.449-1.172-2.03,25.239-14.572a.059.059,0,0,0,.016-.012l.142-.082,1.173,2.034Zm-1.706-1.724h0ZM122,141.849H45.774a3.862,3.862,0,0,1-3.858-3.858V126.185h68.452l12.685,7.323a12.069,12.069,0,0,1,2.8,2.189v2.293A3.861,3.861,0,0,1,122,141.849ZM45.774,5.269a3.862,3.862,0,0,0-3.858,3.856V121.916h61.728a6.337,6.337,0,0,1,3.123-10.316,6.29,6.29,0,0,1,4.814.628l1.227.709-8.643-14.973a6.348,6.348,0,0,1,10.995-6.348l3.876,6.713a6.211,6.211,0,0,1,1.625-1.341,6.3,6.3,0,0,1,4.814-.629c.13.035.256.075.381.117V9.125A3.861,3.861,0,0,0,122,5.269H105.8l-2.672,6.561a2.135,2.135,0,0,1-1.977,1.333H66.616a2.134,2.134,0,0,1-1.977-1.333L61.967,5.269H45.774Zm55.423,0L99.721,8.894H68.05L66.575,5.269Zm29.263,94.769a2.059,2.059,0,0,0,.2,1.573l0,0v0l2.08,3.6a2.134,2.134,0,1,1-3.7,2.134l-3.412-5.91a2.075,2.075,0,0,0-3.8.5,2.074,2.074,0,0,0,.2,1.573l0,0,3.409,5.908a2.134,2.134,0,1,1-3.7,2.134L111.464,93.75a2.08,2.08,0,0,0-3.6,2.08l12.626,21.87a2.133,2.133,0,0,1-2.914,2.914l-8.126-4.689a2.079,2.079,0,0,0-2.079,3.6l17.819,10.288a16.137,16.137,0,0,1,5.406,5l21.97-12.685a54.977,54.977,0,0,0-4.155-11.834l-6.333-10.975a1.325,1.325,0,0,0-1.782-.478,1.319,1.319,0,0,0-.478,1.782,2.134,2.134,0,0,1-3.7,2.134.022.022,0,0,0-.005-.012l-1.851-3.206a2.073,2.073,0,0,0-3.8.5Zm30.96,25.324-1.793-3.1a3.652,3.652,0,0,0-3.087-1.819,57.69,57.69,0,0,0-4.336-12.1,1.344,1.344,0,0,0-.066-.121l-6.368-11.034a5.57,5.57,0,0,0-8.821-1.1,6.363,6.363,0,0,0-6.826-1.4V9.125A8.135,8.135,0,0,0,122,1H45.774a8.134,8.134,0,0,0-8.126,8.125V137.991a8.135,8.135,0,0,0,8.126,8.126H122a8.113,8.113,0,0,0,6.093-2.756l.539.933a3.648,3.648,0,0,0,4.986,1.334l26.467-15.279a3.657,3.657,0,0,0,1.338-4.986ZM97.671,94.689H70.1V89.471H97.671ZM99.805,85.2a2.135,2.135,0,0,1,2.134,2.134v9.487a2.134,2.134,0,0,1-2.134,2.134H67.966a2.134,2.134,0,0,1-2.134-2.134V87.336A2.135,2.135,0,0,1,67.966,85.2Zm-11.2,50.154a1.339,1.339,0,0,0,0-2.679H79.164a1.339,1.339,0,0,0,0,2.679Zm0-6.947H79.164a5.607,5.607,0,0,0,0,11.214h9.444a5.607,5.607,0,0,0,0-11.214Z" transform="translate(0 0)" fill="#00223d" fill-rule="evenodd"/>
    </g>
  </g>
</svg>
