<svg xmlns="http://www.w3.org/2000/svg" width="78.501" height="72.847" viewBox="0 0 78.501 72.847">
  <g id="Grupo_1102008" data-name="Grupo 1102008" transform="translate(-253 -14486.583)">
    <path id="_12068" data-name="12068" d="M72.033,71.913c-8.038-1.11-16.53-.839-23.844,2.675C38.045,79.46,31.382,90.507,31.127,101.757s5.606,22.305,14.66,28.988,21,9.051,32.068,7.045c11.165-2.023,21.645-8.583,27.469-18.322,3.735-6.245,5.48-13.956,3.417-20.934a28.6,28.6,0,0,0-6.787-11.156A50.145,50.145,0,0,0,72.033,71.913Z" transform="translate(221.881 14420.947)" fill="#26aab7"/>
    <g id="Linked_Page" data-name="Linked Page" transform="translate(251 14479.583)">
      <rect id="Frame" width="76" height="63" rx="4" transform="translate(3 8.417)" fill="#d6ecf9"/>
      <path id="Trazado_881311" data-name="Trazado 881311" d="M8.233,8H73.65a5.233,5.233,0,0,1,5.233,5.233V23.7H3V13.233A5.233,5.233,0,0,1,8.233,8Z" transform="translate(0.308 0.308)" fill="#7d6eb2"/>
      <circle id="Button_3" cx="3" cy="3" r="3" transform="translate(11 13.417)" fill="#aee6e6"/>
      <circle id="Button_2" cx="3" cy="3" r="3" transform="translate(22 13.417)" fill="#ffd947"/>
      <circle id="Button_2-2" data-name="Button_2" cx="3" cy="3" r="3" transform="translate(33 13.417)" fill="#26aab7"/>
      <path id="Trazado_881312" data-name="Trazado 881312" d="M73.959,7H8.542A6.542,6.542,0,0,0,2,13.542V65.875a6.542,6.542,0,0,0,6.542,6.542H73.959A6.542,6.542,0,0,0,80.5,65.875V13.542A6.542,6.542,0,0,0,73.959,7ZM8.542,9.617H73.959a3.925,3.925,0,0,1,3.925,3.925V22.7H4.617V13.542A3.925,3.925,0,0,1,8.542,9.617ZM73.959,69.8H8.542a3.925,3.925,0,0,1-3.925-3.925V25.317H77.884V65.875A3.925,3.925,0,0,1,73.959,69.8Z" transform="translate(0 0)" fill="#050505"/>
      <path id="Trazado_881313" data-name="Trazado 881313" d="M50.807,25.93a6.673,6.673,0,0,0-9.433,0l-4.736,4.736a6.673,6.673,0,0,0-.837,8.413l-2.015,2.015a6.542,6.542,0,0,0-8.151.837L20.6,46.968a6.476,6.476,0,1,0,9.158,9.158l5.037-5.063a6.542,6.542,0,0,0,.824-8.112l2.015-2.015a6.673,6.673,0,0,0,8.413-.837l4.736-4.736a6.673,6.673,0,0,0,.026-9.433ZM32.961,49.219l-5.037,5.037a3.847,3.847,0,0,1-5.43-5.39l5.037-5.037a3.807,3.807,0,0,1,4.344-.746l-3.232,3.166a1.308,1.308,0,1,0,1.845,1.845l3.219-3.153a3.847,3.847,0,0,1-.746,4.278Zm16-15.7-4.736,4.736A4.161,4.161,0,0,1,39.594,39l3.219-3.219a1.308,1.308,0,0,0-1.845-1.845l-3.232,3.232a4,4,0,0,1,.759-4.645l4.736-4.736a4.056,4.056,0,1,1,5.731,5.731Z" transform="translate(5.149 5.235)" fill="#62529b"/>
    </g>
  </g>
</svg>
