<svg xmlns="http://www.w3.org/2000/svg" width="78.501" height="73.271" viewBox="0 0 78.501 73.271">
  <g id="Grupo_1101866" data-name="Grupo 1101866" transform="translate(-288 -7908.366)">
    <g id="Grupo_1101862" data-name="Grupo 1101862">
      <path id="_12068" data-name="12068" d="M72.033,71.913c-8.038-1.11-16.53-.839-23.844,2.675C38.045,79.46,31.382,90.507,31.127,101.757s5.606,22.305,14.66,28.988,21,9.051,32.068,7.045c11.165-2.023,21.645-8.583,27.469-18.322,3.735-6.245,5.48-13.956,3.417-20.934a28.6,28.6,0,0,0-6.787-11.156A50.145,50.145,0,0,0,72.033,71.913Z" transform="translate(256.881 7843.155)" fill="#26aab7"/>
      <g id="pago-por-clic" transform="translate(256 7766.466)">
        <g id="Grupo_1101849" data-name="Grupo 1101849" transform="translate(36.019 142.919)">
          <g id="Grupo_1101848" data-name="Grupo 1101848" transform="translate(0 0)">
            <g id="XMLID_2_">
              <g id="Grupo_1101844" data-name="Grupo 1101844" transform="translate(8.277 6.822)">
                <path id="Trazado_880473" data-name="Trazado 880473" d="M229.244,303.5a2.644,2.644,0,1,1-2.644,2.644A2.644,2.644,0,0,1,229.244,303.5Z" transform="translate(-226.6 -303.5)" fill="#d8923e"/>
              </g>
              <g id="Grupo_1101845" data-name="Grupo 1101845" transform="translate(21.232 16.564)">
                <path id="Trazado_880474" data-name="Trazado 880474" d="M496.244,504.3a2.644,2.644,0,1,1-2.644,2.644A2.644,2.644,0,0,1,496.244,504.3Z" transform="translate(-493.6 -504.3)" fill="#d8923e"/>
              </g>
              <g id="Grupo_1101846" data-name="Grupo 1101846">
                <path id="Trazado_880475" data-name="Trazado 880475" d="M90.8,162.9v28.674H56V162.9Zm-8.277,19.208a2.644,2.644,0,1,0-2.644,2.644A2.644,2.644,0,0,0,82.525,182.108Zm-12.959-9.742a2.644,2.644,0,1,0-2.644,2.644A2.644,2.644,0,0,0,69.566,172.366Z" transform="translate(-56 -162.9)" fill="#ffd947"/>
              </g>
              <g id="Grupo_1101847" data-name="Grupo 1101847" transform="translate(32.5 10.945)">
                <path id="Trazado_880476" data-name="Trazado 880476" d="M758.217,410.3a3.693,3.693,0,0,1,3.459-3.707,3.653,3.653,0,0,1,3.848,3.649v15.079c0,3.139.257,6.6-1.587,9.369a10.52,10.52,0,0,1-7.113,4.6,9.34,9.34,0,0,1-.975.082l-12.319-.068a9.982,9.982,0,0,1-6.948-3.62c-1.882-2.188-3.023-4.992-4.342-7.53q-2.3-4.41-4.595-8.821c-.3-.568-.587-1.14-.883-1.708a5.144,5.144,0,0,1-.82-3.678,3.353,3.353,0,0,1,1.878-2.406,4,4,0,0,1,2.159-.209A6.562,6.562,0,0,1,733.119,413a15.73,15.73,0,0,1,2.431,2.829c.267.388.514.786.742,1.2V392.2a3.689,3.689,0,0,1,3.459-3.707,3.653,3.653,0,0,1,3.848,3.649v14.963a3.656,3.656,0,0,1,7.312,0v1.043a3.656,3.656,0,0,1,7.312,0V410.3Z" transform="translate(-725.843 -388.492)" fill="#ffe5c0"/>
              </g>
            </g>
          </g>
        </g>
        <g id="Grupo_1101861" data-name="Grupo 1101861" transform="translate(35 141.9)">
          <g id="Grupo_1101854" data-name="Grupo 1101854">
            <g id="Grupo_1101850" data-name="Grupo 1101850">
              <path id="Trazado_880477" data-name="Trazado 880477" d="M70.821,172.612h-34.8A1.019,1.019,0,0,1,35,171.593V142.919a1.019,1.019,0,0,1,1.019-1.019h34.8a1.019,1.019,0,0,1,1.019,1.019v28.674A1.019,1.019,0,0,1,70.821,172.612Zm-33.783-2.038H69.8V143.938H37.038Z" transform="translate(-35 -141.9)" fill="#00223d"/>
            </g>
            <g id="Grupo_1101851" data-name="Grupo 1101851" transform="translate(11.278 8.212)">
              <path id="Trazado_880478" data-name="Trazado 880478" d="M268.466,325.436a1.021,1.021,0,0,1-.718-1.742l12.246-12.246a1.019,1.019,0,1,1,1.441,1.441L269.185,325.14A1.006,1.006,0,0,1,268.466,325.436Z" transform="translate(-267.45 -311.15)" fill="#00223d"/>
            </g>
            <g id="Grupo_1101852" data-name="Grupo 1101852" transform="translate(8.277 6.822)">
              <path id="Trazado_880479" data-name="Trazado 880479" d="M209.263,289.826a3.663,3.663,0,1,1,3.663-3.663A3.669,3.669,0,0,1,209.263,289.826Zm0-5.288a1.625,1.625,0,1,0,1.625,1.625A1.625,1.625,0,0,0,209.263,284.538Z" transform="translate(-205.6 -282.5)" fill="#00223d"/>
            </g>
            <g id="Grupo_1101853" data-name="Grupo 1101853" transform="translate(21.232 16.564)">
              <path id="Trazado_880480" data-name="Trazado 880480" d="M476.263,490.626a3.663,3.663,0,1,1,3.663-3.663A3.669,3.669,0,0,1,476.263,490.626Zm0-5.288a1.625,1.625,0,1,0,1.625,1.625A1.625,1.625,0,0,0,476.263,485.338Z" transform="translate(-472.6 -483.3)" fill="#00223d"/>
            </g>
          </g>
          <g id="Grupo_1101860" data-name="Grupo 1101860" transform="translate(32.493 6.768)">
            <g id="Grupo_1101855" data-name="Grupo 1101855" transform="translate(6.278)">
              <path id="Trazado_880481" data-name="Trazado 880481" d="M850.781,291.269a1.019,1.019,0,0,1-1.019-1.019,6.812,6.812,0,1,0-13.624,0,1.019,1.019,0,1,1-2.038,0,8.85,8.85,0,1,1,17.7,0A1.019,1.019,0,0,1,850.781,291.269Z" transform="translate(-834.1 -281.4)" fill="#00223d"/>
            </g>
            <g id="Grupo_1101859" data-name="Grupo 1101859" transform="translate(0 4.176)">
              <g id="Grupo_1101856" data-name="Grupo 1101856" transform="translate(17.767 14.965)">
                <path id="Trazado_880482" data-name="Trazado 880482" d="M1079.225,686.7a1.019,1.019,0,0,1-1.019-1.019v-5.114a2.635,2.635,0,0,0-5.269,0,1.019,1.019,0,1,1-2.038,0,4.672,4.672,0,1,1,9.344,0v5.114A1.019,1.019,0,0,1,1079.225,686.7Z" transform="translate(-1070.9 -675.9)" fill="#00223d"/>
              </g>
              <g id="Grupo_1101857" data-name="Grupo 1101857" transform="translate(25.074 16.008)">
                <path id="Trazado_880483" data-name="Trazado 880483" d="M1229.826,705.842a1.019,1.019,0,0,1-1.019-1.019v-2.751a2.635,2.635,0,0,0-5.269,0,1.019,1.019,0,1,1-2.038,0,4.672,4.672,0,1,1,9.345,0v2.751A1.019,1.019,0,0,1,1229.826,705.842Z" transform="translate(-1221.5 -697.4)" fill="#00223d"/>
              </g>
              <g id="Grupo_1101858" data-name="Grupo 1101858">
                <path id="Trazado_880484" data-name="Trazado 880484" d="M735.735,420.379l-12.324-.068h-.058a11.016,11.016,0,0,1-7.656-3.974,27.374,27.374,0,0,1-3.585-5.943c-.291-.592-.592-1.2-.893-1.781l-4.595-8.821c-.223-.427-.442-.854-.665-1.281l-.223-.432a6.149,6.149,0,0,1-.907-4.386,4.335,4.335,0,0,1,2.5-3.115,5.028,5.028,0,0,1,2.712-.262,7.506,7.506,0,0,1,3.644,1.921,15.329,15.329,0,0,1,1.475,1.533V372.2a4.7,4.7,0,0,1,4.425-4.726,4.641,4.641,0,0,1,3.464,1.276,4.691,4.691,0,0,1,1.456,3.391v20.776a1.019,1.019,0,0,1-2.038,0V372.137a2.63,2.63,0,0,0-2.775-2.63A2.662,2.662,0,0,0,717.2,372.2v24.827a1.018,1.018,0,0,1-1.907.495c-.209-.378-.442-.752-.694-1.121a14.877,14.877,0,0,0-2.271-2.644,5.535,5.535,0,0,0-2.639-1.431,2.951,2.951,0,0,0-1.611.16,2.335,2.335,0,0,0-1.257,1.7,4.224,4.224,0,0,0,.737,2.969l.223.432c.218.422.437.849.66,1.271l4.595,8.821c.31.6.616,1.218.912,1.819a25.805,25.805,0,0,0,3.3,5.517,8.987,8.987,0,0,0,6.21,3.265c.209,0,1.689.01,12.27.068a8.241,8.241,0,0,0,.844-.073,9.471,9.471,0,0,0,6.409-4.158c1.47-2.208,1.446-5.026,1.422-7.758,0-.344,0-.7,0-1.043V390.23a2.63,2.63,0,0,0-2.775-2.63,2.662,2.662,0,0,0-2.494,2.688v1.785a1.019,1.019,0,1,1-2.038,0v-1.785a4.7,4.7,0,0,1,4.425-4.726,4.641,4.641,0,0,1,3.464,1.276,4.691,4.691,0,0,1,1.456,3.391v15.079c0,.335,0,.689,0,1.024.024,2.9.053,6.181-1.761,8.908a11.553,11.553,0,0,1-7.821,5.046,10.169,10.169,0,0,1-1.087.092Z" transform="translate(-704.703 -367.463)" fill="#00223d"/>
              </g>
            </g>
          </g>
        </g>
      </g>
    </g>
  </g>
</svg>
