<svg xmlns="http://www.w3.org/2000/svg" width="129.737" height="122.746" viewBox="0 0 129.737 122.746">
  <g id="Grupo_1102055" data-name="Grupo 1102055" transform="translate(-250.264 -1970.946)">
    <path id="_12068" data-name="12068" d="M98.737,72.292c-13.285-1.834-27.318-1.386-39.407,4.421-16.765,8.052-27.775,26.309-28.2,44.9S40.4,158.479,55.36,169.523s34.7,14.959,53,11.643c18.453-3.344,35.773-14.186,45.4-30.28,6.172-10.321,9.057-23.065,5.647-34.6-2.059-6.961-6.267-13.128-11.217-18.437A82.875,82.875,0,0,0,98.737,72.292Z" transform="translate(219.145 1911.384)" fill="#26aab7"/>
    <g id="investigacion-del-consumidor" transform="translate(252.146 1962.905)">
      <path id="Trazado_875934" data-name="Trazado 875934" d="M82.455,22.753a27.547,27.547,0,1,0,0,38.962,27.356,27.356,0,0,0,0-38.962ZM56.725,63.615v2.258a24.141,24.141,0,0,1-6.3-2.655V47.258h6.3Zm3.1,2.862V39.792h6.3V66.477a24.808,24.808,0,0,1-6.3,0Zm9.4-28.236V32.383h6.3V63.219a24.135,24.135,0,0,1-6.3,2.655V38.24ZM80.26,59.52Q79.477,60.3,78.636,61V30.832a1.552,1.552,0,0,0-1.552-1.552H67.677a1.552,1.552,0,0,0-1.552,1.552v5.857H58.277a1.552,1.552,0,0,0-1.552,1.552v5.914H48.87a1.552,1.552,0,0,0-1.552,1.552V61q-.839-.7-1.624-1.484a24.475,24.475,0,0,1,0-34.573h0A24.444,24.444,0,0,1,80.26,59.52Zm26.723,54.253v2.652a1.552,1.552,0,0,1-3.1,0v-2.652a1.552,1.552,0,0,1,3.1,0Zm-20.485,0v2.652a1.552,1.552,0,1,1-3.1,0v-2.652a1.552,1.552,0,0,1,3.1,0Zm21.98-10.318a9.225,9.225,0,0,0,2.4-6.177V90.454a3.815,3.815,0,0,0,0-1.309v-4.95a15.719,15.719,0,0,0-31.437,0V97.278a9.223,9.223,0,0,0,2.428,6.209c-.281.143-.553.29-.814.442-3.9,2.28-4.724,5.132-4.724,7.123v5.373a1.552,1.552,0,1,0,3.1,0v-5.373c0-2.233,1.832-3.894,4.372-5.046a9.47,9.47,0,0,0,9.22,7.358h4.556a9.466,9.466,0,0,0,9.19-7.253c2.425,1.149,4.17,2.779,4.17,4.941v5.373a1.552,1.552,0,1,0,3.1,0v-5.373c0-3.167-1.99-5.792-5.568-7.6Zm-7.175-2.172V99.267a13.1,13.1,0,0,0,3.723-5.3h1.739a4.153,4.153,0,0,0,1.012-.129v3.441a6.142,6.142,0,0,1-2.5,4.912A29.553,29.553,0,0,0,101.3,101.284ZM87.249,88.647a11.259,11.259,0,0,0,7.94-4.267,11.259,11.259,0,0,0,7.94,4.267c-.432,4.243-2.725,9.7-7.94,9.7S87.681,92.889,87.249,88.647Zm-3.109.085a18.82,18.82,0,0,0,.315,2.131h-.841a1.066,1.066,0,1,1,0-2.131Zm23.636,1.387a1.081,1.081,0,0,1-1.012.744h-.821a18.849,18.849,0,0,0,.3-2.131h.52a1.082,1.082,0,0,1,1.012.748ZM95.163,71.583a12.626,12.626,0,0,1,12.612,12.612v1.562a4.153,4.153,0,0,0-1.012-.129h-2a8.655,8.655,0,0,1-8.227-4.773,1.552,1.552,0,0,0-2.687,0,8.654,8.654,0,0,1-8.227,4.773h-2a4.155,4.155,0,0,0-1.069.144V84.2A12.629,12.629,0,0,1,95.163,71.583Zm-12.618,25.7V93.822a4.157,4.157,0,0,0,1.069.144h1.769a15.381,15.381,0,0,0,1.176,2.369,11.486,11.486,0,0,0,3.013,3.326V101.2a29.91,29.91,0,0,0-4.5,1.006,6.139,6.139,0,0,1-2.522-4.932Zm15.038,12.983H93.027a6.361,6.361,0,0,1-6.266-5.3,29.365,29.365,0,0,1,4.529-.848,1.552,1.552,0,0,0,1.384-1.543v-1.434a9.943,9.943,0,0,0,2.514.315,9.679,9.679,0,0,0,3.01-.469v1.651a1.552,1.552,0,0,0,1.364,1.54,28.15,28.15,0,0,1,4.268.854A6.356,6.356,0,0,1,97.583,110.261Zm-65.264,6.164a1.552,1.552,0,1,1-1.552-1.552A1.556,1.556,0,0,1,32.318,116.425ZM36.88,98.061v-1.05a13.1,13.1,0,0,0,3.722-5.3h1.739a4.164,4.164,0,0,0,2.218-7.693l.433-1.549c.844-3.035.064-4.371-.98-5.3,1.065-2.331,1.125-4.263.176-5.746-1.978-3.093-7.515-3-13.377-2.912h-.065c-4.07,0-9.482,1.275-12.481,4.84a8.171,8.171,0,0,0-1.829,6.856l.652,3.739a4.164,4.164,0,0,0,2.1,7.764H20.96a15.379,15.379,0,0,0,1.176,2.369,11.487,11.487,0,0,0,3.013,3.326v.581a24.074,24.074,0,0,0-8.515,2.725c-3.9,2.279-4.724,5.128-4.724,7.118v8.6a1.552,1.552,0,1,0,3.1,0v-8.6c0-3.164,3.683-5.177,7.85-6.224l2.082,6.916a1.552,1.552,0,0,0,2.515.714l3.558-3.153,3.558,3.153a1.552,1.552,0,0,0,2.516-.715l2.04-6.793c3.94,1.078,7.389,3.068,7.389,6.1v8.6a1.552,1.552,0,1,0,3.1,0v-8.6c0-4.879-4.735-8.478-12.744-9.768Zm-5.863,3.678L28.354,98.9a9.96,9.96,0,0,0,2.412.292,9.678,9.678,0,0,0,3.01-.469v.07ZM42.341,88.607H41.52a18.847,18.847,0,0,0,.3-2.131h.52a1.066,1.066,0,1,1,0,2.131Zm-23.15,0a1.065,1.065,0,1,1,0-2.131h.526a18.822,18.822,0,0,0,.315,2.131h-.841Zm2-7.3a4.688,4.688,0,0,0-1.135,1.58l-.561-3.216a5.024,5.024,0,0,1,1.147-4.326c1.908-2.269,5.88-3.735,10.118-3.735h.1c4.079-.065,9.667-.154,10.713,1.481.452.706-.009,2.008-.474,2.974a2.483,2.483,0,0,0,.748,3.332c.338.28.63.522.154,2.234l-.2.731a3.46,3.46,0,0,0-3.089-2.59c-.671-.049-1.4-.112-2.163-.178-5.492-.475-12.328-1.065-15.356,1.712Zm1.557,3.614a1.657,1.657,0,0,1,.541-1.327c1.091-1,3.515-1.3,6.2-1.3,2.293,0,4.778.215,6.789.388.778.067,1.519.131,2.2.181a.341.341,0,0,1,.324.346l-.019,1.69v.017c0,4.317-2.177,11.167-8.018,11.167s-8.019-6.85-8.019-11.167Zm4.469,20.38-1.292-4.291.136-.018,2.733,2.912Zm7.6,0-1.576-1.4,2.671-2.85.173.026Zm-12.742,6.379v4.744a1.552,1.552,0,1,1-3.1,0v-4.744a1.552,1.552,0,0,1,3.1,0Zm20.485,0v4.744a1.552,1.552,0,1,1-3.1,0v-4.744a1.552,1.552,0,0,1,3.1,0Zm74.8-58.784L106.65,44.539a1.552,1.552,0,0,0-2.507,1.223v1.515H96.822a34.7,34.7,0,0,0,.367-5.044,34.212,34.212,0,0,0-58.4-24.193,34.546,34.546,0,0,0-4.443,5.452H21.811V21.984A1.552,1.552,0,0,0,19.3,20.76L8.6,29.118a1.552,1.552,0,0,0,0,2.446L19.3,39.922A1.552,1.552,0,0,0,21.811,38.7V37.19h7.321a34.706,34.706,0,0,0-.367,5.042A34.228,34.228,0,0,0,56.241,75.777v2.9h-.428a1.552,1.552,0,0,0-1.552,1.552v2.5a1.551,1.551,0,0,0-1.376,1.541V89a1.551,1.551,0,0,0,1.376,1.541V109.28a8.7,8.7,0,1,0,17.393,0V90.543A1.551,1.551,0,0,0,73.031,89V84.27a1.551,1.551,0,0,0-1.376-1.541v-2.5A1.552,1.552,0,0,0,70.1,78.678h-.421v-2.9a33.9,33.9,0,0,0,17.486-9.358,34.528,34.528,0,0,0,4.444-5.453h12.531v1.515a1.552,1.552,0,0,0,2.507,1.223l10.708-8.364a1.552,1.552,0,0,0,0-2.446Zm-97.1-18.81a1.552,1.552,0,0,0-1.547,1.436l-6.638-5.181,6.638-5.181A1.552,1.552,0,0,0,20.26,26.6H32.531a33.783,33.783,0,0,0-2.794,7.491H20.26Zm35.73,51.735H69.928V87.45H55.989Zm12.562-4.041v.937H57.366v-.937Zm0,27.5a5.593,5.593,0,1,1-11.186,0V90.554H68.552ZM84.973,64.227a30.821,30.821,0,0,1-17.085,8.72,1.552,1.552,0,0,0-1.31,1.533v4.2H59.345v-4.2a1.552,1.552,0,0,0-1.307-1.532,31.115,31.115,0,1,1,26.935-8.721Zm22.27-4.921a1.552,1.552,0,0,0-1.548-1.44H93.425a33.768,33.768,0,0,0,2.792-7.485H105.7a1.552,1.552,0,0,0,1.548-1.442l6.638,5.181ZM32.318,111.467a1.552,1.552,0,1,1-1.552-1.552A1.556,1.556,0,0,1,32.318,111.467Zm66.9-75.828a1.549,1.549,0,1,1,1.552,1.552A1.556,1.556,0,0,1,99.216,35.639Zm4.242,0a1.552,1.552,0,1,1,1.552,1.552A1.556,1.556,0,0,1,103.458,35.639Zm4.248,0a1.549,1.549,0,1,1,1.546,1.552A1.55,1.55,0,0,1,107.706,35.639Zm4.242,0a1.552,1.552,0,1,1,1.552,1.552A1.556,1.556,0,0,1,111.948,35.639ZM25.186,50.381a1.552,1.552,0,1,1,1.552-1.552A1.555,1.555,0,0,1,25.186,50.381Zm-4.242,0A1.552,1.552,0,1,1,22.5,48.829,1.555,1.555,0,0,1,20.945,50.381Zm-4.248,0a1.552,1.552,0,1,1,1.552-1.552A1.55,1.55,0,0,1,16.7,50.381Zm-4.242,0a1.552,1.552,0,1,1,1.552-1.552,1.555,1.555,0,0,1-1.552,1.552Z" fill="#00223d"/>
      <path id="Trazado_875935" data-name="Trazado 875935" d="M159.208,363.989h.821a1.065,1.065,0,1,0,0-2.131h-.52A18.855,18.855,0,0,1,159.208,363.989Z" transform="translate(-117.688 -275.382)" fill="#fcc9c0"/>
      <path id="Trazado_875936" data-name="Trazado 875936" d="M54.732,361.856a1.065,1.065,0,1,0,0,2.131h.841a18.821,18.821,0,0,1-.315-2.131h-.526Z" transform="translate(-35.54 -275.381)" fill="#fcc9c0"/>
      <path id="Trazado_875937" data-name="Trazado 875937" d="M90.562,345.631l.019-1.69a.342.342,0,0,0-.324-.346c-.681-.05-1.423-.114-2.2-.181-2.011-.174-4.5-.388-6.789-.388-2.687,0-5.111.295-6.2,1.3a1.657,1.657,0,0,0-.541,1.327c0,4.318,2.177,11.167,8.018,11.167s8.018-6.85,8.018-11.167Z" transform="translate(-51.778 -260.725)" fill="#ffdbd3"/>
      <path id="Trazado_875938" data-name="Trazado 875938" d="M121.86,430.474l1.576,1.4,1.268-4.221-.173-.026Z" transform="translate(-88.619 -326.569)" fill="#f96353"/>
      <path id="Trazado_875939" data-name="Trazado 875939" d="M76.576,302.7c.763.066,1.491.129,2.163.178a3.459,3.459,0,0,1,3.089,2.59l.2-.731c.476-1.712.184-1.954-.154-2.234a2.483,2.483,0,0,1-.748-3.332c.465-.966.925-2.268.474-2.974-1.045-1.635-6.633-1.546-10.713-1.481h-.1c-4.239,0-8.21,1.466-10.118,3.735a5.024,5.024,0,0,0-1.147,4.326l.561,3.216a4.68,4.68,0,0,1,1.135-1.58c3.028-2.778,9.864-2.187,15.356-1.712Z" transform="translate(-40.03 -223.1)" fill="#656d78"/>
      <path id="Trazado_875940" data-name="Trazado 875940" d="M105.238,417.114a9.679,9.679,0,0,1-3.01.469,9.958,9.958,0,0,1-2.412-.292l2.663,2.837,2.76-2.945v-.07Z" transform="translate(-71.461 -318.389)" fill="#fcc9c0"/>
      <path id="Trazado_875941" data-name="Trazado 875941" d="M88.859,427.367l1.292,4.291,1.577-1.4-2.733-2.912Z" transform="translate(-62.934 -326.355)" fill="#f96353"/>
      <path id="Trazado_875942" data-name="Trazado 875942" d="M351.3,400.837a11.482,11.482,0,0,1-3.013-3.326,15.4,15.4,0,0,1-1.176-2.369h-1.769a4.154,4.154,0,0,1-1.069-.144v3.456a6.139,6.139,0,0,0,2.522,4.932,29.881,29.881,0,0,1,4.5-1.006Z" transform="translate(-261.724 -301.176)" fill="#b27946"/>
      <path id="Trazado_875943" data-name="Trazado 875943" d="M405.617,201.457a1.552,1.552,0,0,1,1.548,1.44l6.638-5.185-6.638-5.181a1.552,1.552,0,0,1-1.548,1.442h-9.478a33.773,33.773,0,0,1-2.792,7.485Z" transform="translate(-299.921 -143.592)" fill="#ffd947"/>
      <path id="Trazado_875944" data-name="Trazado 875944" d="M199.363,200.906a24.135,24.135,0,0,0,6.3,2.655V184.945h-6.3Z" transform="translate(-148.941 -137.688)" fill="#ff826e"/>
      <path id="Trazado_875945" data-name="Trazado 875945" d="M230.686,340.682h11.186v.937H230.686Z" transform="translate(-173.32 -258.901)" fill="#abc5c9"/>
      <path id="Trazado_875946" data-name="Trazado 875946" d="M241.8,157.184v20.771a24.807,24.807,0,0,0,6.3,0V151.27h-6.3Z" transform="translate(-181.968 -111.478)" fill="#ff826e"/>
      <path id="Trazado_875947" data-name="Trazado 875947" d="M356.887,294.675a12.63,12.63,0,0,0-12.618,12.612v1.577a4.156,4.156,0,0,1,1.069-.144h2a8.655,8.655,0,0,0,8.227-4.773,1.552,1.552,0,0,1,2.687,0,8.654,8.654,0,0,0,8.227,4.773h2a4.152,4.152,0,0,1,1.012.129v-1.562A12.626,12.626,0,0,0,356.887,294.675Z" transform="translate(-261.724 -223.092)" fill="#b27946"/>
      <path id="Trazado_875948" data-name="Trazado 875948" d="M284.2,123.707V151.34a24.141,24.141,0,0,0,6.3-2.655V117.85h-6.3Z" transform="translate(-214.974 -85.466)" fill="#ff826e"/>
      <path id="Trazado_875949" data-name="Trazado 875949" d="M34.563,94.193H44.04A33.79,33.79,0,0,1,46.835,86.7H34.563a1.552,1.552,0,0,1-1.547-1.436l-6.638,5.181,6.638,5.181A1.552,1.552,0,0,1,34.563,94.193Z" transform="translate(-14.303 -60.106)" fill="#ffd947"/>
      <path id="Trazado_875950" data-name="Trazado 875950" d="M152.939,93.735q.783.783,1.624,1.484V79.92a1.552,1.552,0,0,1,1.552-1.552h7.855V72.455a1.552,1.552,0,0,1,1.552-1.552h7.849V65.046a1.552,1.552,0,0,1,1.552-1.552h9.407a1.552,1.552,0,0,1,1.552,1.552V95.219q.839-.7,1.624-1.484a24.445,24.445,0,1,0-34.566-34.573h0A24.475,24.475,0,0,0,152.939,93.735Z" transform="translate(-107.244 -34.214)" fill="#69d6f4"/>
      <path id="Trazado_875951" data-name="Trazado 875951" d="M124.782,75.117a30.882,30.882,0,0,0,17.057,8.721,1.552,1.552,0,0,1,1.307,1.532v4.2h7.234v-4.2a1.552,1.552,0,0,1,1.31-1.533,31.105,31.105,0,0,0,17.085-52.713,31.107,31.107,0,1,0-43.992,43.992ZM127.3,33.643a27.547,27.547,0,1,1,0,38.962,27.356,27.356,0,0,1,0-38.962Z" transform="translate(-83.801 -10.89)" fill="#cfd2d3"/>
      <path id="Trazado_875952" data-name="Trazado 875952" d="M230.686,398.98a5.593,5.593,0,1,0,11.186,0V380.254H230.686Z" transform="translate(-173.32 -289.7)" fill="#abc5c9"/>
      <path id="Trazado_875953" data-name="Trazado 875953" d="M224.478,358.909h13.938v1.628H224.478Z" transform="translate(-168.489 -273.087)" fill="#bacace"/>
      <path id="Trazado_875954" data-name="Trazado 875954" d="M346.178,374.164a18.82,18.82,0,0,1-.315-2.131h-.526a1.066,1.066,0,1,0,0,2.131Z" transform="translate(-261.724 -283.302)" fill="#fcc9c0"/>
      <path id="Trazado_875955" data-name="Trazado 875955" d="M374.726,428.942v-1.651a9.679,9.679,0,0,1-3.01.469,9.941,9.941,0,0,1-2.514-.315v1.434a1.552,1.552,0,0,1-1.384,1.543,29.367,29.367,0,0,0-4.529.848,6.361,6.361,0,0,0,6.266,5.3h4.556a6.356,6.356,0,0,0,6.247-5.235,28.155,28.155,0,0,0-4.268-.854A1.552,1.552,0,0,1,374.726,428.942Z" transform="translate(-276.528 -326.31)" fill="#fcc9c0"/>
      <path id="Trazado_875956" data-name="Trazado 875956" d="M373.427,366.368c5.215,0,7.507-5.457,7.94-9.7a11.259,11.259,0,0,1-7.94-4.267,11.259,11.259,0,0,1-7.94,4.267C365.919,360.911,368.212,366.368,373.427,366.368Z" transform="translate(-278.238 -268.022)" fill="#ffdbd3"/>
      <path id="Trazado_875957" data-name="Trazado 875957" d="M432.6,395.192a13.1,13.1,0,0,1-3.723,5.3v2.016a29.565,29.565,0,0,1,3.975.906,6.142,6.142,0,0,0,2.5-4.912v-3.441a4.153,4.153,0,0,1-1.012.129Z" transform="translate(-327.58 -301.226)" fill="#b27946"/>
      <path id="Trazado_875958" data-name="Trazado 875958" d="M450.635,372.033h-.52a18.853,18.853,0,0,1-.3,2.131h.821a1.081,1.081,0,0,0,1.012-.744v-.639A1.082,1.082,0,0,0,450.635,372.033Z" transform="translate(-343.872 -283.302)" fill="#fcc9c0"/>
      <g id="Grupo_1100018" data-name="Grupo 1100018" transform="translate(13.46 101.605)">
        <path id="Trazado_875959" data-name="Trazado 875959" d="M65.689,444.924v-8.6c0-3.034-3.449-5.024-7.389-6.1l-2.04,6.793a1.552,1.552,0,0,1-2.516.715l-3.558-3.153-3.558,3.153a1.552,1.552,0,0,1-2.515-.714L42.031,430.1c-4.167,1.047-7.85,3.06-7.85,6.224v8.6a1.552,1.552,0,0,1-1.552,1.552h7.063a1.552,1.552,0,0,1-1.552-1.552V440.18a1.552,1.552,0,1,1,3.1,0v4.744a1.552,1.552,0,0,1-1.552,1.552H49.928a1.552,1.552,0,1,1,.013,0H60.178a1.552,1.552,0,0,1-1.552-1.552V440.18a1.552,1.552,0,1,1,3.1,0v4.744a1.552,1.552,0,0,1-1.552,1.552h7.063a1.551,1.551,0,0,1-1.551-1.552Zm-15.754-3.406a1.552,1.552,0,1,1,1.552-1.552A1.556,1.556,0,0,1,49.935,441.518Z" transform="translate(-32.629 -430.104)" fill="#7d6eb2"/>
        <path id="Trazado_875960" data-name="Trazado 875960" d="M356.3,460.377V455c0-2.162-1.745-3.792-4.17-4.941a9.465,9.465,0,0,1-9.19,7.253h-4.556a9.47,9.47,0,0,1-9.22-7.358c-2.54,1.153-4.372,2.813-4.372,5.046v5.373a1.552,1.552,0,0,1-1.552,1.552H330.3a1.552,1.552,0,0,1-1.552-1.552v-2.652a1.552,1.552,0,1,1,3.1,0v2.652a1.552,1.552,0,0,1-1.552,1.552h20.485a1.552,1.552,0,0,1-1.552-1.552v-2.652a1.552,1.552,0,1,1,3.1,0v2.652a1.552,1.552,0,0,1-1.552,1.552h7.063A1.551,1.551,0,0,1,356.3,460.377Z" transform="translate(-258.815 -445.557)" fill="#7d6eb2"/>
      </g>
    </g>
  </g>
</svg>
