<svg xmlns="http://www.w3.org/2000/svg" width="78.501" height="73.271" viewBox="0 0 78.501 73.271">
  <g id="Grupo_1102052" data-name="Grupo 1102052" transform="translate(-603 -7908.366)">
    <path id="_12068" data-name="12068" d="M72.033,71.913c-8.038-1.11-16.53-.839-23.844,2.675C38.045,79.46,31.382,90.507,31.127,101.757s5.606,22.305,14.66,28.988,21,9.051,32.068,7.045c11.165-2.023,21.645-8.583,27.469-18.322,3.735-6.245,5.48-13.956,3.417-20.934a28.6,28.6,0,0,0-6.787-11.156A50.145,50.145,0,0,0,72.033,71.913Z" transform="translate(571.881 7843.155)" fill="#26aab7"/>
    <g id="costo-por-click-2" transform="translate(521.69 7826.366)">
      <g id="Grupo_1101868" data-name="Grupo 1101868" transform="translate(90.308 82.998)">
        <g id="Grupo_1101867" data-name="Grupo 1101867" transform="translate(0 0)">
          <g id="XMLID_2_">
            <path id="Trazado_880485" data-name="Trazado 880485" d="M813.119,923.249A1.9,1.9,0,0,1,815,921.373a1.867,1.867,0,0,1,1.854,1.867v5.519a7.968,7.968,0,0,1-1.274,4.287,8,8,0,0,0-1.256,4.3v1.6H802.88v-2.9a4.242,4.242,0,0,0-1.141-2.894l-5.845-6.361-.375-.408a1.933,1.933,0,0,1,2.791-2.675l3.595,3.595V912.4a1.867,1.867,0,1,1,3.733,0v7.193h.007a1.867,1.867,0,0,1,3.733,0V921.6h.007a1.867,1.867,0,0,1,3.733,0Z" transform="translate(-766.669 -877.081)" fill="#ffccb6"/>
            <path id="Trazado_880486" data-name="Trazado 880486" d="M635.723,586.137a9.674,9.674,0,0,1-1.546,5.261,1.867,1.867,0,0,0-3.563.78v2.516a9.718,9.718,0,1,1,5.108-8.556Z" transform="translate(-595.379 -556.862)" fill="#ffd947"/>
            <path id="Trazado_880487" data-name="Trazado 880487" d="M174.575,318.61v38.183a2.686,2.686,0,0,1-2.686,2.686H163.5v-3.551a1.867,1.867,0,0,0-1.854-1.867,1.9,1.9,0,0,0-1.879,1.876V354.29a1.867,1.867,0,0,0-3.733,0h-.007v-2.011a1.867,1.867,0,0,0-3.733,0h-.007v-7.193a1.853,1.853,0,0,0-.17-.78,9.709,9.709,0,1,0-3.563,3.3v12.391l-3.595-3.595a1.933,1.933,0,0,0-2.791,2.675l.375.408H116.007a2.686,2.686,0,0,1-2.687-2.686V318.61h61.255Z" transform="translate(-113.32 -309.771)" fill="#eafaff"/>
            <path id="Trazado_880488" data-name="Trazado 880488" d="M174.575,108.687v6.153H113.32v-6.153A2.687,2.687,0,0,1,116.007,106h55.883A2.686,2.686,0,0,1,174.575,108.687Z" transform="translate(-113.32 -106)" fill="#ff725c"/>
          </g>
        </g>
      </g>
      <g id="Grupo_1101890" data-name="Grupo 1101890" transform="translate(89.31 82)">
        <g id="Grupo_1101876" data-name="Grupo 1101876" transform="translate(0 0)">
          <g id="Grupo_1101869" data-name="Grupo 1101869">
            <path id="Trazado_880489" data-name="Trazado 880489" d="M148.877,133.705h-8.386a1,1,0,1,1,0-2h8.386a1.691,1.691,0,0,0,1.689-1.689V85.684A1.691,1.691,0,0,0,148.877,84H92.994a1.691,1.691,0,0,0-1.689,1.689v44.337a1.691,1.691,0,0,0,1.689,1.689h26.539a1,1,0,1,1,0,2H92.994a3.689,3.689,0,0,1-3.684-3.684V85.684A3.689,3.689,0,0,1,92.994,82h55.883a3.689,3.689,0,0,1,3.684,3.684v44.337A3.688,3.688,0,0,1,148.877,133.705Z" transform="translate(-89.31 -82)" fill="#00223d"/>
          </g>
          <g id="Grupo_1101870" data-name="Grupo 1101870" transform="translate(0 8.839)">
            <path id="Trazado_880490" data-name="Trazado 880490" d="M151.574,296.606H90.318a1,1,0,1,1,0-2h61.256a1,1,0,1,1,0,2Z" transform="translate(-89.32 -294.61)" fill="#00223d"/>
          </g>
          <g id="Grupo_1101871" data-name="Grupo 1101871" transform="translate(28.474 4.42)">
            <path id="Trazado_880491" data-name="Trazado 880491" d="M801.91,190.306H775.178a1,1,0,0,1,0-2H801.91a1,1,0,0,1,0,2Z" transform="translate(-774.18 -188.31)" fill="#00223d"/>
          </g>
          <g id="Grupo_1101875" data-name="Grupo 1101875" transform="translate(7.049 4.096)">
            <g id="Grupo_1101872" data-name="Grupo 1101872" transform="translate(0)">
              <circle id="Elipse_11853" data-name="Elipse 11853" cx="1.321" cy="1.321" r="1.321" fill="#00223d"/>
            </g>
            <g id="Grupo_1101873" data-name="Grupo 1101873" transform="translate(5.53)">
              <circle id="Elipse_11854" data-name="Elipse 11854" cx="1.321" cy="1.321" r="1.321" fill="#00223d"/>
            </g>
            <g id="Grupo_1101874" data-name="Grupo 1101874" transform="translate(11.06)">
              <circle id="Elipse_11855" data-name="Elipse 11855" cx="1.321" cy="1.321" r="1.321" fill="#00223d"/>
            </g>
          </g>
        </g>
        <g id="Grupo_1101882" data-name="Grupo 1101882" transform="translate(20.912 19.558)">
          <g id="Grupo_1101877" data-name="Grupo 1101877">
            <path id="Trazado_880492" data-name="Trazado 880492" d="M603,573.839a10.711,10.711,0,1,1,9.009-4.913,1,1,0,1,1-1.677-1.082,8.708,8.708,0,1,0-3.2,2.959,1,1,0,1,1,.948,1.756A10.73,10.73,0,0,1,603,573.839Z" transform="translate(-592.29 -552.41)" fill="#00223d"/>
          </g>
          <g id="Grupo_1101881" data-name="Grupo 1101881" transform="translate(6.59 3.861)">
            <g id="Grupo_1101878" data-name="Grupo 1101878" transform="translate(0 1.555)">
              <path id="Trazado_880493" data-name="Trazado 880493" d="M758.419,688.271a3.6,3.6,0,0,0-1.422-.942,15.924,15.924,0,0,0-1.986-.549,5.833,5.833,0,0,1-1.707-.56.69.69,0,0,1-.318-.639.835.835,0,0,1,.449-.775,2.776,2.776,0,0,1,1.422-.318,2.326,2.326,0,0,1,1.457.388,1.358,1.358,0,0,1,.457.709.962.962,0,0,0,1,.7h.017a.953.953,0,0,0,.849-1.183,2.881,2.881,0,0,0-1.052-1.607,4.439,4.439,0,0,0-2.776-.82,4.068,4.068,0,0,0-2.678.832,2.71,2.71,0,0,0-1.025,2.165,2.438,2.438,0,0,0,.827,1.9,5.527,5.527,0,0,0,2.487,1.063,9.709,9.709,0,0,1,2.221.679.871.871,0,0,1,.5.844,1.021,1.021,0,0,1-.506.908,2.742,2.742,0,0,1-1.535.381,3.154,3.154,0,0,1-1.757-.471,1.555,1.555,0,0,1-.666-.967.956.956,0,0,0-1.7-.327.942.942,0,0,0-.16.764,3.446,3.446,0,0,0,1.08,1.836,4.746,4.746,0,0,0,3.254.99,4.233,4.233,0,0,0,2.786-.9,2.9,2.9,0,0,0,1.108-2.316A2.538,2.538,0,0,0,758.419,688.271Z" transform="translate(-750.796 -682.67)" fill="#00223d"/>
            </g>
            <g id="Grupo_1101879" data-name="Grupo 1101879" transform="translate(3.127 10.947)">
              <path id="Trazado_880494" data-name="Trazado 880494" d="M827,911.341a1,1,0,0,1-1-1v-.765a1,1,0,0,1,2,0v.765A1,1,0,0,1,827,911.341Z" transform="translate(-826 -908.58)" fill="#00223d"/>
            </g>
            <g id="Grupo_1101880" data-name="Grupo 1101880" transform="translate(3.127)">
              <path id="Trazado_880495" data-name="Trazado 880495" d="M827,648.029a1,1,0,0,1-1-1v-.763a1,1,0,0,1,2,0v.763A1,1,0,0,1,827,648.029Z" transform="translate(-826 -645.27)" fill="#00223d"/>
            </g>
          </g>
        </g>
        <g id="Grupo_1101889" data-name="Grupo 1101889" transform="translate(28.339 33.448)">
          <g id="Grupo_1101888" data-name="Grupo 1101888">
            <g id="Grupo_1101887" data-name="Grupo 1101887">
              <g id="Grupo_1101883" data-name="Grupo 1101883">
                <path id="Trazado_880496" data-name="Trazado 880496" d="M791.258,916.932H779.817a1,1,0,0,1-1-1v-2.9a3.232,3.232,0,0,0-.873-2.213l-.005-.006-6.219-6.769a2.931,2.931,0,0,1,4.23-4.055l1.891,1.891v-12.5a2.864,2.864,0,0,1,5.729,0v11.537a1,1,0,0,1-2,0V889.385a.87.87,0,0,0-.869-.869.87.87,0,0,0-.869.869v14.907a1,1,0,0,1-1.7.705L774.54,901.4a.935.935,0,0,0-1.35,1.294l6.217,6.767a5.22,5.22,0,0,1,1.406,3.572v1.9h9.445v-.6a8.994,8.994,0,0,1,1.413-4.839,6.969,6.969,0,0,0,1.117-3.75v-5.519a.869.869,0,0,0-.863-.869h-.005a.9.9,0,0,0-.87.891v.672a1,1,0,0,1-2,0v-.661c0-.015,0-.03,0-.045a2.888,2.888,0,0,1,2.864-2.853h.018a2.864,2.864,0,0,1,2.846,2.865v5.519a8.955,8.955,0,0,1-1.431,4.824,7,7,0,0,0-1.1,3.765v1.6A1,1,0,0,1,791.258,916.932Z" transform="translate(-770.947 -886.52)" fill="#00223d"/>
              </g>
              <g id="Grupo_1101886" data-name="Grupo 1101886" transform="translate(10.637 7.194)">
                <g id="Grupo_1101884" data-name="Grupo 1101884">
                  <path id="Trazado_880497" data-name="Trazado 880497" d="M1031.521,1067.756a1,1,0,0,1-1-1v-4.344a.869.869,0,0,0-1.738,0v4.344a1,1,0,1,1-2,0v-4.344a2.865,2.865,0,1,1,5.729,0v4.344A1,1,0,0,1,1031.521,1067.756Z" transform="translate(-1026.79 -1059.55)" fill="#00223d"/>
                </g>
                <g id="Grupo_1101885" data-name="Grupo 1101885" transform="translate(3.741 2.01)">
                  <path id="Trazado_880498" data-name="Trazado 880498" d="M1121.491,1114.1a1,1,0,0,1-1-1v-2.334a.869.869,0,0,0-1.738,0v2.334a1,1,0,0,1-2,0v-2.334a2.865,2.865,0,0,1,5.729,0v2.334A1,1,0,0,1,1121.491,1114.1Z" transform="translate(-1116.76 -1107.9)" fill="#00223d"/>
                </g>
              </g>
            </g>
          </g>
        </g>
      </g>
    </g>
  </g>
</svg>
