<svg xmlns="http://www.w3.org/2000/svg" width="129.737" height="122.746" viewBox="0 0 129.737 122.746">
  <g id="Grupo_1102046" data-name="Grupo 1102046" transform="translate(-1052.264 -1970.946)">
    <path id="_12068" data-name="12068" d="M98.737,72.292c-13.285-1.834-27.318-1.386-39.407,4.421-16.765,8.052-27.775,26.309-28.2,44.9S40.4,158.479,55.36,169.523s34.7,14.959,53,11.643c18.453-3.344,35.773-14.186,45.4-30.28,6.172-10.321,9.057-23.065,5.647-34.6-2.059-6.961-6.267-13.128-11.217-18.437A82.875,82.875,0,0,0,98.737,72.292Z" transform="translate(1021.145 1911.384)" fill="#26aab7"/>
    <g id="_9._Workd" data-name="9. Workd" transform="translate(1062.243 1970.931)">
      <circle id="Elipse_11816" data-name="Elipse 11816" cx="46.391" cy="46.391" r="46.391" transform="translate(8.606 8.58)" fill="#f5f7ff"/>
      <path id="Trazado_875894" data-name="Trazado 875894" d="M51.391,74.313A46.391,46.391,0,0,1,5,30.5a46.391,46.391,0,1,0,92.781,0A46.391,46.391,0,0,1,51.391,74.313Z" transform="translate(3.606 21.893)" fill="#ccd3eb"/>
      <path id="Trazado_875895" data-name="Trazado 875895" d="M55.23,30.236l.6,2.99A5.155,5.155,0,0,1,54.4,37.882l-6.873,6.873a5.154,5.154,0,0,0-1.478,3.608v1.306A5.155,5.155,0,0,1,40.9,54.823H39.182a5.155,5.155,0,0,1-5.155-5.155V45.545a5.155,5.155,0,0,0-4.433-5.155L22,39.36V8.295a46.271,46.271,0,0,1,46.236,7.01L56.862,25.425a5.155,5.155,0,0,0-1.632,4.811Z" transform="translate(15.815 3.584)" fill="#aee6e6"/>
      <path id="Trazado_875961" data-name="Trazado 875961" d="M22.336,0A22.336,22.336,0,1,1,0,22.336,22.336,22.336,0,0,1,22.336,0Z" transform="translate(1.733 1.707)" fill="#ffd947"/>
      <rect id="Rect치ngulo_401360" data-name="Rect치ngulo 401360" width="51.545" height="17.182" rx="2" transform="translate(56.715 91.052)" fill="#96a1c3"/>
      <path id="Trazado_875896" data-name="Trazado 875896" d="M81.109,61.436H36.436A3.436,3.436,0,0,1,33,58v5.155a3.436,3.436,0,0,0,3.436,3.436H81.109a3.436,3.436,0,0,0,3.436-3.436V58A3.436,3.436,0,0,1,81.109,61.436Z" transform="translate(23.715 41.643)" fill="#647499"/>
      <rect id="Rect치ngulo_401361" data-name="Rect치ngulo 401361" width="51.545" height="17.182" rx="2" transform="translate(56.715 66.998)" fill="#96a1c3"/>
      <path id="Trazado_875897" data-name="Trazado 875897" d="M81.109,47.436H36.436A3.436,3.436,0,0,1,33,44v5.155a3.436,3.436,0,0,0,3.436,3.436H81.109a3.436,3.436,0,0,0,3.436-3.436V44A3.436,3.436,0,0,1,81.109,47.436Z" transform="translate(23.715 31.589)" fill="#647499"/>
      <path id="Trazado_875898" data-name="Trazado 875898" d="M36,49H77.236v6.873H36Z" transform="translate(25.87 35.179)" fill="#62529b"/>
      <path id="Trazado_875899" data-name="Trazado 875899" d="M41.981,58.347,34.9,71.474A46.391,46.391,0,0,1,6.14,41.148l4.519-2.594a5.155,5.155,0,0,1,6.581,1.254l2.577,3.213a5.154,5.154,0,0,0,4.021,1.942h8.849a5.155,5.155,0,0,1,3.969,1.856l4.811,5.773a5.155,5.155,0,0,1,.515,5.756Z" transform="translate(4.425 27.19)" fill="#aee6e6"/>
      <path id="Trazado_875900" data-name="Trazado 875900" d="M7.639,39.27l-1.529.876A46.391,46.391,0,0,0,34.993,70.472l2.354-4.381A46.494,46.494,0,0,1,7.639,39.27Z" transform="translate(4.403 28.192)" fill="#96a1c3"/>
      <g id="Grupo_1100015" data-name="Grupo 1100015" transform="translate(-0.021 0.016)">
        <path id="Trazado_875901" data-name="Trazado 875901" d="M57.378,27.1c.241,1.082.447,2.2.619,3.316a1.737,1.737,0,0,0,3.436-.515q-.275-1.8-.67-3.557a1.734,1.734,0,0,0-3.385.756Z" transform="translate(41.213 17.924)" fill="#00223d"/>
        <path id="Trazado_875902" data-name="Trazado 875902" d="M36.887,44.369c.5.326.12.189,8.282,1.357a3.436,3.436,0,0,1,2.955,3.436v4.089A6.873,6.873,0,0,0,55,60.125h1.718a6.873,6.873,0,0,0,6.873-6.873c0-1.6-.1-2.612,1.014-3.728l6.873-6.873a6.873,6.873,0,0,0,1.89-6.22l-.6-2.99a3.436,3.436,0,0,1,1.134-3.2l10.309-9.175A44.827,44.827,0,0,1,96.594,38.424a1.72,1.72,0,1,0,3.2-1.271A47.989,47.989,0,0,0,42.437,8.58,24.054,24.054,0,1,0,36.887,44.4ZM5.359,32.634H11.6a27.491,27.491,0,0,0,6.873,11.237A20.618,20.618,0,0,1,5.359,32.634ZM24.07,3.855a26.271,26.271,0,0,1,8.831,11.6H15.238a26.271,26.271,0,0,1,8.831-11.6Zm9.776,15.034a25.412,25.412,0,0,1,0,10.309H14.293a25.412,25.412,0,0,1,0-10.309Zm-4.21,24.982a27.491,27.491,0,0,0,6.873-11.237h6.237a20.618,20.618,0,0,1-13.11,11.237Zm-14.4-11.237H32.9a26.271,26.271,0,0,1-8.831,11.6,26.271,26.271,0,0,1-8.831-11.6ZM44.018,29.2H37.368a30.1,30.1,0,0,0,0-10.309h6.649A19.965,19.965,0,0,1,44.018,29.2Zm-33.247,0H4.122a19.965,19.965,0,0,1,0-10.309h6.649a30.1,30.1,0,0,0,0,10.309ZM81.388,18.889l-9.845,8.763a6.873,6.873,0,0,0-2.182,6.495l.6,2.972A3.436,3.436,0,0,1,69,40.229L62.127,47.1a6.976,6.976,0,0,0-1.976,4.845v1.306a3.436,3.436,0,0,1-3.436,3.436H55a3.436,3.436,0,0,1-3.436-3.436V49.129a6.873,6.873,0,0,0-5.911-6.873L40.5,41.517a23.9,23.9,0,0,0,4.089-29.965,44.552,44.552,0,0,1,36.8,7.337ZM42.781,15.452H36.544A27.491,27.491,0,0,0,29.671,4.216a20.618,20.618,0,0,1,13.11,11.237ZM18.5,4.216A27.491,27.491,0,0,0,11.6,15.452H5.359A20.618,20.618,0,0,1,18.5,4.216Z" transform="translate(0.021 -0.016)" fill="#00223d"/>
        <path id="Trazado_875903" data-name="Trazado 875903" d="M59.718,56A1.718,1.718,0,0,0,58,57.718v3.436a1.718,1.718,0,0,0,3.436,0V57.718A1.718,1.718,0,0,0,59.718,56Z" transform="translate(41.691 40.191)" fill="#00223d"/>
        <path id="Trazado_875904" data-name="Trazado 875904" d="M55.718,56A1.718,1.718,0,0,0,54,57.718v3.436a1.718,1.718,0,0,0,3.436,0V57.718A1.718,1.718,0,0,0,55.718,56Z" transform="translate(38.818 40.191)" fill="#00223d"/>
        <path id="Trazado_875905" data-name="Trazado 875905" d="M107.094,60.649V50.34a5.155,5.155,0,0,0-5.155-5.155H99.087a48.109,48.109,0,0,0,1.134-10.309,1.718,1.718,0,0,0-3.436,0,45.1,45.1,0,0,1-1.22,10.309h-38.3a5.155,5.155,0,0,0-5.155,5.155V60.649A5.155,5.155,0,0,0,57.267,65.8V69.24a5.155,5.155,0,0,0-5.155,5.155v5.155A44.019,44.019,0,0,1,39,77.574l6.1-11.323a6.873,6.873,0,0,0-.773-7.663l-4.811-5.773a6.873,6.873,0,0,0-5.292-2.474H25.377a3.436,3.436,0,0,1-2.68-1.289L20.12,45.839a6.873,6.873,0,0,0-8.763-1.718L8.763,45.6A44.484,44.484,0,0,1,7.714,29.86,1.718,1.718,0,0,0,4.3,29.516,48.109,48.109,0,0,0,36.03,80.2h.086a47.9,47.9,0,0,0,16,2.783V84.7a5.155,5.155,0,0,0,5.155,5.155h44.673a5.155,5.155,0,0,0,5.155-5.155V74.395a5.155,5.155,0,0,0-5.155-5.155V65.8a5.155,5.155,0,0,0,5.155-5.155ZM9.759,49.035l3.3-1.89a3.436,3.436,0,0,1,4.381.842L20.017,51.2a6.873,6.873,0,0,0,5.361,2.577h8.849a3.436,3.436,0,0,1,2.646,1.237l4.811,5.773a3.436,3.436,0,0,1,.4,3.832l-6.357,11.8A44.862,44.862,0,0,1,9.759,49.035ZM55.548,60.649V50.34a1.718,1.718,0,0,1,1.718-1.718h44.673a1.718,1.718,0,0,1,1.718,1.718V60.649a1.718,1.718,0,0,1-1.718,1.718H57.267A1.718,1.718,0,0,1,55.548,60.649Zm48.109,13.745V84.7a1.718,1.718,0,0,1-1.718,1.718H57.267A1.718,1.718,0,0,1,55.548,84.7V74.395a1.718,1.718,0,0,1,1.718-1.718h44.673A1.718,1.718,0,0,1,103.657,74.395ZM98.5,69.24H60.7V65.8H98.5Z" transform="translate(2.906 20.078)" fill="#00223d"/>
        <path id="Trazado_875906" data-name="Trazado 875906" d="M59.718,48.873a1.718,1.718,0,0,0,1.718-1.718V43.718a1.718,1.718,0,1,0-3.436,0v3.436A1.718,1.718,0,0,0,59.718,48.873Z" transform="translate(41.691 30.137)" fill="#00223d"/>
        <path id="Trazado_875907" data-name="Trazado 875907" d="M55.718,48.873a1.718,1.718,0,0,0,1.718-1.718V43.718a1.718,1.718,0,1,0-3.436,0v3.436A1.718,1.718,0,0,0,55.718,48.873Z" transform="translate(38.818 30.137)" fill="#00223d"/>
        <path id="Trazado_875908" data-name="Trazado 875908" d="M53.182,57H37.718a1.718,1.718,0,0,0,0,3.436H53.182a1.718,1.718,0,1,0,0-3.436Z" transform="translate(25.891 40.909)" fill="#00223d"/>
        <path id="Trazado_875909" data-name="Trazado 875909" d="M37.718,46.436H53.182a1.718,1.718,0,0,0,0-3.436H37.718a1.718,1.718,0,0,0,0,3.436Z" transform="translate(25.891 30.855)" fill="#00223d"/>
      </g>
      <path id="Trazado_875910" data-name="Trazado 875910" d="M54.718,34a1.718,1.718,0,1,0,1.718,1.718A1.718,1.718,0,0,0,54.718,34Z" transform="translate(38.079 24.407)" fill="#7d6eb2"/>
      <path id="Trazado_875911" data-name="Trazado 875911" d="M50.718,34a1.718,1.718,0,1,0,1.718,1.718A1.718,1.718,0,0,0,50.718,34Z" transform="translate(35.206 24.407)" fill="#7d6eb2"/>
      <path id="Trazado_875912" data-name="Trazado 875912" d="M31.718,11.436h3.436a1.718,1.718,0,1,0,0-3.436H31.718a1.718,1.718,0,1,0,0,3.436Z" transform="translate(21.561 5.734)" fill="#96a1c3"/>
      <path id="Trazado_875913" data-name="Trazado 875913" d="M35.155,12H31.718a1.718,1.718,0,1,0,0,3.436h3.436a1.718,1.718,0,1,0,0-3.436Z" transform="translate(21.561 8.607)" fill="#96a1c3"/>
    </g>
  </g>
</svg>
