<svg xmlns="http://www.w3.org/2000/svg" width="78.501" height="67.636" viewBox="0 0 78.501 67.636">
  <g id="Grupo_1102051" data-name="Grupo 1102051" transform="translate(-446 -7434)">
    <path id="_12068" data-name="12068" d="M72.033,71.913c-8.038-1.11-16.53-.839-23.844,2.675C38.045,79.46,31.382,90.507,31.127,101.757s5.606,22.305,14.66,28.988,21,9.051,32.068,7.045c11.165-2.023,21.645-8.583,27.469-18.322,3.735-6.245,5.48-13.956,3.417-20.934a28.6,28.6,0,0,0-6.787-11.156A50.145,50.145,0,0,0,72.033,71.913Z" transform="translate(414.881 7363.154)" fill="#26aab7"/>
    <g id="impresion" transform="translate(455 7434)">
      <g id="Grupo_1101842" data-name="Grupo 1101842" transform="translate(0.968 0.968)">
        <g id="Grupo_1101832" data-name="Grupo 1101832" transform="translate(13.325 26.874)">
          <circle id="Elipse_11850" data-name="Elipse 11850" cx="15.484" cy="15.484" r="15.484" transform="translate(0 0)" fill="#aee6e6"/>
        </g>
        <g id="Grupo_1101833" data-name="Grupo 1101833" transform="translate(29.25 27.098)">
          <path id="Trazado_880460" data-name="Trazado 880460" d="M278.46,246.579a2.763,2.763,0,0,1-.45,2.637l-.126.158a36.243,36.243,0,0,1-28.084,13.6,15.484,15.484,0,0,0,0-30.965,36.242,36.242,0,0,1,28.084,13.6l.126.158A2.781,2.781,0,0,1,278.46,246.579Z" transform="translate(-249.8 -232.01)" fill="#ccd1d9"/>
        </g>
        <g id="Grupo_1101834" data-name="Grupo 1101834" transform="translate(0 27.098)">
          <path id="Trazado_880461" data-name="Trazado 880461" d="M21.332,235.586a36.7,36.7,0,0,1,15.483-3.576,15.484,15.484,0,0,0,0,30.965,36.242,36.242,0,0,1-28.084-13.6l-.126-.158a2.759,2.759,0,0,1,0-3.448l.126-.158A36.223,36.223,0,0,1,21.332,235.586Z" transform="translate(-8 -232.01)" fill="#ccd1d9"/>
        </g>
        <g id="Grupo_1101835" data-name="Grupo 1101835" transform="translate(48.461 40.571)">
          <ellipse id="Elipse_11851" data-name="Elipse 11851" cx="1.787" cy="2.084" rx="1.787" ry="2.084" transform="translate(0 0)" fill="#7d6eb2"/>
        </g>
        <g id="Grupo_1101836" data-name="Grupo 1101836" transform="translate(5.583 40.571)">
          <circle id="Elipse_11852" data-name="Elipse 11852" cx="2.084" cy="2.084" r="2.084" transform="translate(0 0)" fill="#7d6eb2"/>
        </g>
        <g id="Grupo_1101837" data-name="Grupo 1101837" transform="translate(38.71 33.871)">
          <path id="Trazado_880462" data-name="Trazado 880462" d="M331.592,288.931a1.935,1.935,0,0,1-2.955,2.436h0a10.867,10.867,0,0,0-.586-1h0a1.935,1.935,0,0,1,3.542-1.432Z" transform="translate(-328 -288)" fill="#7d6eb2"/>
        </g>
        <g id="Grupo_1101838" data-name="Grupo 1101838" transform="translate(15.484 47.419)">
          <path id="Trazado_880463" data-name="Trazado 880463" d="M139.821,401.507a1.938,1.938,0,1,1-.587-1h0a10.876,10.876,0,0,0,.585,1Z" transform="translate(-136 -400)" fill="#7d6eb2"/>
        </g>
        <g id="Grupo_1101839" data-name="Grupo 1101839" transform="translate(17.419 30.968)">
          <path id="Trazado_880464" data-name="Trazado 880464" d="M173.927,270.271a11.615,11.615,0,0,1-20.041,11.688h0a10.873,10.873,0,0,1-.585-1h0a11.615,11.615,0,0,1,20.041-11.688h0a10.888,10.888,0,0,1,.585,1Z" transform="translate(-152 -264)" fill="#ffd947"/>
        </g>
        <g id="Grupo_1101840" data-name="Grupo 1101840" transform="translate(11.613)">
          <path id="Trazado_880465" data-name="Trazado 880465" d="M138.839,9.935V29.29a1.935,1.935,0,0,1-1.935,1.935H124.323l-1.5,3a1.566,1.566,0,0,1-2.8,0l-1.5-3H105.935A1.935,1.935,0,0,1,104,29.29V9.935A1.935,1.935,0,0,1,105.935,8H136.9a1.935,1.935,0,0,1,1.935,1.935Z" transform="translate(-104 -8)" fill="#e6e9ed"/>
        </g>
        <g id="Grupo_1101841" data-name="Grupo 1101841" transform="translate(15.484 3.871)">
          <path id="Trazado_880466" data-name="Trazado 880466" d="M153.419,44.79v.162a4.792,4.792,0,0,1-1.21,3.183l-5.89,6.625a2.154,2.154,0,0,1-3.22,0l-5.89-6.625A4.792,4.792,0,0,1,136,44.952V44.79a4.79,4.79,0,0,1,8.177-3.387l.532.532.532-.532a4.79,4.79,0,0,1,8.177,3.387Z" transform="translate(-136 -40)" fill="#ef5067"/>
        </g>
      </g>
      <g id="Grupo_1101843" data-name="Grupo 1101843" transform="translate(0 0)">
        <path id="Trazado_880467" data-name="Trazado 880467" d="M147.355,37.921v-.163a5.758,5.758,0,0,0-9.677-4.218A5.758,5.758,0,0,0,128,37.758v.163a5.752,5.752,0,0,0,1.454,3.825l5.889,6.625a3.123,3.123,0,0,0,4.668,0l5.889-6.625A5.752,5.752,0,0,0,147.355,37.921Zm-1.935,0a3.818,3.818,0,0,1-.965,2.539l-5.889,6.625a1.187,1.187,0,0,1-1.775,0L130.9,40.46a3.818,3.818,0,0,1-.965-2.539v-.163a3.822,3.822,0,0,1,6.525-2.7l1.217,1.217,1.217-1.217a3.822,3.822,0,0,1,6.525,2.7Z" transform="translate(-112.516 -28.129)" fill="#00223d"/>
        <path id="Trazado_880468" data-name="Trazado 880468" d="M308.18,34.062a.228.228,0,0,1,.433.1v13.32h-1.935v1.935h5.806V47.484h-1.935V34.164a2.164,2.164,0,0,0-4.1-.968l-1.6,3.21,1.731.866Z" transform="translate(-267.968 -28.129)" fill="#00223d"/>
        <path id="Trazado_880469" data-name="Trazado 880469" d="M211.871,291.871h1.936a1.938,1.938,0,0,1,1.935,1.935h1.935a3.875,3.875,0,0,0-3.871-3.871V288h-1.936v1.935a3.871,3.871,0,1,0,0,7.742h1.936a1.935,1.935,0,1,1,0,3.871h-1.936a1.938,1.938,0,0,1-1.935-1.935H208a3.875,3.875,0,0,0,3.871,3.871v1.935h1.936v-1.935a3.871,3.871,0,0,0,0-7.742h-1.936a1.936,1.936,0,0,1,0-3.871Z" transform="translate(-182.839 -253.161)" fill="#00223d"/>
        <path id="Trazado_880470" data-name="Trazado 880470" d="M59.183,41.22l-.126-.158a37.2,37.2,0,0,0-26.566-13.88l1.01-2.021H45.484a2.907,2.907,0,0,0,2.9-2.9V2.9a2.907,2.907,0,0,0-2.9-2.9H14.516a2.907,2.907,0,0,0-2.9,2.9V22.258a2.907,2.907,0,0,0,2.9,2.9H26.5l1.011,2.021A37.2,37.2,0,0,0,.943,41.062l-.127.158a3.726,3.726,0,0,0,0,4.656l.126.158a37.211,37.211,0,0,0,58.114,0l.127-.158a3.727,3.727,0,0,0,0-4.656ZM44.516,43.548a14.509,14.509,0,0,1-25.407,9.586,2.911,2.911,0,0,0,1.616-1.095A12.577,12.577,0,0,0,41.963,39.656a2.9,2.9,0,0,0,1.747-.877,14.452,14.452,0,0,1,.806,4.77Zm-3.871-6.774a.975.975,0,1,1,.422.8q-.2-.363-.417-.71C40.647,36.831,40.645,36.8,40.645,36.774Zm0,6.774A10.645,10.645,0,1,1,30,32.9,10.657,10.657,0,0,1,40.645,43.548ZM18.933,49.527q.2.363.417.71c0,.029.005.057.005.085a.975.975,0,1,1-.422-.8Zm20.341-14.47A12.577,12.577,0,0,0,18.037,47.441a2.9,2.9,0,0,0-1.747.877,14.511,14.511,0,0,1,24.6-14.356,2.911,2.911,0,0,0-1.616,1.095Zm-9.809-8.291-1.77-3.54H14.516a.969.969,0,0,1-.968-.968V2.9a.969.969,0,0,1,.968-.968H45.484a.969.969,0,0,1,.968.968V22.258a.969.969,0,0,1-.968.968H32.305l-1.77,3.54a.6.6,0,0,1-1.07,0ZM2.454,44.825l-.126-.158a1.791,1.791,0,0,1,0-2.238l.127-.158h0A35.112,35.112,0,0,1,20.062,30.447a16.433,16.433,0,0,0,0,26.2A35.113,35.113,0,0,1,2.454,44.825Zm55.218-.158-.127.158A35.112,35.112,0,0,1,39.938,56.65a16.433,16.433,0,0,0,0-26.2A35.113,35.113,0,0,1,57.546,42.271l.126.158a1.791,1.791,0,0,1,0,2.238Z" transform="translate(0 0)" fill="#00223d"/>
        <path id="Trazado_880471" data-name="Trazado 880471" d="M402.9,336a2.9,2.9,0,1,0,2.9,2.9A2.907,2.907,0,0,0,402.9,336Zm0,3.871a.968.968,0,1,1,.968-.968A.969.969,0,0,1,402.9,339.871Z" transform="translate(-351.613 -295.355)" fill="#00223d"/>
        <path id="Trazado_880472" data-name="Trazado 880472" d="M50.9,336a2.9,2.9,0,1,0,2.9,2.9A2.907,2.907,0,0,0,50.9,336Zm0,3.871a.968.968,0,1,1,.968-.968A.969.969,0,0,1,50.9,339.871Z" transform="translate(-42.194 -295.355)" fill="#00223d"/>
      </g>
    </g>
  </g>
</svg>
