<svg xmlns="http://www.w3.org/2000/svg" width="139.737" height="168.527" viewBox="0 0 139.737 168.527">
  <g id="Grupo_1102047" data-name="Grupo 1102047" transform="translate(-730.131 -17344.002)">
    <path id="_12068" data-name="12068" d="M103.949,72.366C89.64,70.39,74.525,70.874,61.5,77.128,43.447,85.8,31.588,105.464,31.133,125.491s9.978,39.705,26.1,51.6S94.6,193.2,114.312,189.632c19.875-3.6,38.53-15.279,48.9-32.614,6.648-11.116,9.755-24.842,6.082-37.264-2.217-7.5-6.75-14.14-12.082-19.858A89.263,89.263,0,0,0,103.949,72.366Z" transform="translate(699.012 17321.668)" fill="#7d6eb2"/>
    <g id="alcance" transform="translate(662.366 17328)">
      <path id="Trazado_876165" data-name="Trazado 876165" d="M128.745,21.126a10.327,10.327,0,0,1,3.3-3.464,10.246,10.246,0,0,1,11.186,0,10.339,10.339,0,0,1,3.3,3.464h6.627a3.371,3.371,0,0,1,3.358,3.148h26.028a6.406,6.406,0,0,1,6.392,6.392V154.727a6.406,6.406,0,0,1-6.391,6.391h-89.8a6.406,6.406,0,0,1-6.391-6.391V30.665a6.406,6.406,0,0,1,6.392-6.392h26.028a3.371,3.371,0,0,1,3.358-3.148h6.627Z" fill="#00223d" fill-rule="evenodd"/>
      <g id="Grupo_1100116" data-name="Grupo 1100116" transform="translate(89.664 19.322)">
        <path id="Trazado_876166" data-name="Trazado 876166" d="M209.866,166.177a13.335,13.335,0,0,0-3.61,3.653,1.658,1.658,0,0,1-2.086.586l-2.218-.912-.572.239-.652,1.586.239.572,2.187.9a1.661,1.661,0,0,1,1.105,1.893,13.411,13.411,0,0,0-.011,5.118,1.659,1.659,0,0,1-.965,1.966l-2.291.956-.231.563.665,1.593.563.231,2.3-.959a1.659,1.659,0,0,1,2.059.68A13.462,13.462,0,0,0,210,188.452a1.658,1.658,0,0,1,.586,2.086l-.912,2.218.239.573,1.586.652.572-.239.9-2.187a1.661,1.661,0,0,1,1.893-1.1,13.41,13.41,0,0,0,5.118.011,1.659,1.659,0,0,1,1.966.965l.956,2.291.563.231,1.593-.665.231-.563-.959-2.3a1.659,1.659,0,0,1,.68-2.059,13.472,13.472,0,0,0,3.61-3.653,1.658,1.658,0,0,1,2.086-.586l2.218.912.573-.239.652-1.586-.239-.572-2.187-.9a1.66,1.66,0,0,1-1.1-1.893,13.411,13.411,0,0,0,.011-5.118,1.659,1.659,0,0,1,.965-1.966l2.291-.956.231-.563-.665-1.593-.563-.231-2.3.959a1.659,1.659,0,0,1-2.059-.68,13.476,13.476,0,0,0-3.653-3.61,1.658,1.658,0,0,1-.586-2.086l.912-2.218-.239-.573-1.586-.652-.572.239-.9,2.187a1.661,1.661,0,0,1-1.893,1.105,13.411,13.411,0,0,0-5.118-.011,1.659,1.659,0,0,1-1.966-.965l-.956-2.291-.563-.231-1.593.665-.231.563.959,2.3a1.659,1.659,0,0,1-.68,2.059Zm11.607,20.768a10.482,10.482,0,1,1,5.639-13.71A10.487,10.487,0,0,1,221.473,186.945Z" transform="translate(-169.469 -120.177)" fill="#7d6eb2" fill-rule="evenodd"/>
        <path id="Trazado_876167" data-name="Trazado 876167" d="M184.414,196.256V177.366a1.662,1.662,0,0,1,1.662-1.662h18.891V83.945H126.914V196.256ZM136.5,165.064h14.893a4.367,4.367,0,0,1,4.358,4.358v14.893a4.367,4.367,0,0,1-4.358,4.358H136.5a4.367,4.367,0,0,1-4.358-4.358V169.423A4.367,4.367,0,0,1,136.5,165.064Zm36.839,3.376a1.662,1.662,0,1,1,0-3.323h27.883a1.662,1.662,0,0,1,0,3.323Zm-13.845,0a1.662,1.662,0,1,1,0-3.323h6.272a1.662,1.662,0,1,1,0,3.323Zm0,10.108a1.662,1.662,0,1,1,0-3.323h19.943a1.662,1.662,0,0,1,0,3.323Zm0,10.108a1.662,1.662,0,1,1,0-3.323h19.943a1.662,1.662,0,1,1,0,3.323Zm24.717-44.216a1.661,1.661,0,1,1,2.35-2.35l9.695,9.695-.1-2.711a1.656,1.656,0,1,1,3.31-.117l.262,6.8a1.654,1.654,0,0,1-1.835,1.847c-.654-.02-3.638-.115-6.824-.263a1.657,1.657,0,0,1,.143-3.31c.954.044,1.873.084,2.711.118l-9.708-9.708Zm4.142-18.96a1.662,1.662,0,0,1,0-3.323H195.7c-.616-.568-1.291-1.188-1.994-1.828a1.659,1.659,0,1,1,2.233-2.453c2.39,2.177,4.582,4.235,5.03,4.657a1.654,1.654,0,0,1-.049,2.611l-4.975,4.606a1.654,1.654,0,1,1-2.246-2.427l1.989-1.841h-7.336Zm-1.792-19.934a1.661,1.661,0,0,1-2.35-2.35l9.695-9.695-2.711.1a1.656,1.656,0,1,1-.117-3.31l6.8-.262a1.654,1.654,0,0,1,1.847,1.835c-.02.654-.115,3.638-.263,6.824a1.657,1.657,0,0,1-3.311-.143c.044-.954.084-1.873.118-2.711l-9.708,9.708ZM167.6,101.4a1.662,1.662,0,0,1-3.323,0V94.068l-1.841,1.989a1.654,1.654,0,1,1-2.427-2.246l4.606-4.975a1.654,1.654,0,0,1,2.611-.049c.422.449,2.48,2.64,4.657,5.03a1.659,1.659,0,0,1-2.453,2.233c-.64-.7-1.26-1.378-1.828-1.994V101.4ZM147.668,103.2a1.661,1.661,0,1,1-2.35,2.35l-9.695-9.695.1,2.711a1.656,1.656,0,1,1-3.31.117l-.262-6.8a1.654,1.654,0,0,1,1.835-1.847c.654.02,3.638.115,6.824.263a1.657,1.657,0,0,1-.143,3.31c-.954-.044-1.873-.084-2.711-.118l9.708,9.708Zm-4.142,18.96a1.662,1.662,0,0,1,0,3.323H136.19l1.989,1.841a1.654,1.654,0,1,1-2.246,2.427l-4.975-4.605a1.654,1.654,0,0,1-.049-2.611c.449-.422,2.64-2.48,5.03-4.657a1.659,1.659,0,1,1,2.233,2.453c-.7.64-1.378,1.26-1.994,1.828h7.347Zm1.792,19.934a1.661,1.661,0,0,1,2.35,2.35l-9.695,9.695,2.711-.1a1.656,1.656,0,0,1,.117,3.311l-6.8.262a1.654,1.654,0,0,1-1.847-1.835c.02-.654.115-3.638.263-6.824a1.657,1.657,0,1,1,3.311.143c-.044.954-.084,1.873-.118,2.711l9.708-9.708Zm7.481-28.656a16.665,16.665,0,0,1,2.684-2.7c-1.141-2.733-1.129-2,.035-4.83a1.652,1.652,0,0,1,.9-.9l2.854-1.194a1.656,1.656,0,0,1,1.348.034l1.756.722a1.651,1.651,0,0,1,.9.9l.721,1.721a16.872,16.872,0,0,1,3.8-.015l.708-1.724a1.651,1.651,0,0,1,.9-.9l1.833-.768a1.656,1.656,0,0,1,1.348.034l2.779,1.142a1.652,1.652,0,0,1,.9.9c1.154,2.765,1.194,2.063.059,4.823a16.666,16.666,0,0,1,2.7,2.684c2.733-1.141,2-1.129,4.83.035a1.651,1.651,0,0,1,.9.9l1.194,2.854a1.656,1.656,0,0,1-.034,1.348l-.722,1.756a1.651,1.651,0,0,1-.9.9l-1.721.721a16.873,16.873,0,0,1,.015,3.8l1.724.708a1.651,1.651,0,0,1,.9.9l.768,1.833a1.656,1.656,0,0,1-.034,1.348l-1.142,2.779a1.652,1.652,0,0,1-.9.9c-2.765,1.154-2.063,1.194-4.823.059a16.653,16.653,0,0,1-2.684,2.7c1.141,2.733,1.129,2-.035,4.83a1.652,1.652,0,0,1-.9.9l-2.854,1.194a1.656,1.656,0,0,1-1.348-.034l-1.756-.722a1.652,1.652,0,0,1-.9-.9l-.721-1.721a16.855,16.855,0,0,1-3.8.015l-.708,1.724a1.651,1.651,0,0,1-.9.9l-1.833.768a1.656,1.656,0,0,1-1.348-.034l-2.779-1.142a1.651,1.651,0,0,1-.9-.9c-1.154-2.766-1.193-2.063-.059-4.823a16.653,16.653,0,0,1-2.7-2.684c-2.733,1.141-2,1.129-4.83-.035a1.652,1.652,0,0,1-.9-.9l-1.194-2.854a1.656,1.656,0,0,1,.034-1.348l.722-1.756a1.651,1.651,0,0,1,.9-.9l1.721-.721a16.871,16.871,0,0,1-.015-3.8l-1.724-.708a1.651,1.651,0,0,1-.9-.9l-.768-1.833a1.656,1.656,0,0,1,.034-1.348l1.142-2.779a1.652,1.652,0,0,1,.9-.9c2.826-1.18,2.091-1.182,4.823-.059Zm11.479,32.8a1.662,1.662,0,1,1,3.323,0v7.347c.568-.616,1.188-1.291,1.828-1.994a1.659,1.659,0,1,1,2.453,2.233c-2.177,2.39-4.235,4.582-4.657,5.03a1.654,1.654,0,0,1-2.611-.049l-4.606-4.975a1.654,1.654,0,0,1,2.427-2.246l1.841,1.989v-7.336Z" transform="translate(-117.971 -66.725)" fill="#fff" fill-rule="evenodd"/>
        <path id="Trazado_876168" data-name="Trazado 876168" d="M171.132,363.253H156.24a1.042,1.042,0,0,0-1.035,1.035V379.18a1.042,1.042,0,0,0,1.035,1.035h14.893a1.042,1.042,0,0,0,1.035-1.035V364.288A1.042,1.042,0,0,0,171.132,363.253Zm-3.432,3.628a1.659,1.659,0,0,1,2.453,2.233l-6.78,7.472a1.66,1.66,0,0,1-2.5-.052l-3.7-4.429a1.659,1.659,0,0,1,2.544-2.129l2.482,2.969,5.5-6.064Z" transform="translate(-137.709 -261.59)" fill="#7d6eb2" fill-rule="evenodd"/>
        <path id="Trazado_876169" data-name="Trazado 876169" d="M236.735,205.954a7.166,7.166,0,1,0-3.9-9.354A7.174,7.174,0,0,0,236.735,205.954Z" transform="translate(-191.49 -142.231)" fill="#fff" fill-rule="evenodd"/>
        <g id="Grupo_1100115" data-name="Grupo 1100115" transform="translate(0 0)">
          <path id="Trazado_876170" data-name="Trazado 876170" d="M226.427,31.051a6.952,6.952,0,0,0-12.651,0,1.663,1.663,0,0,1-1.551,1.064l-7.667.013-.013,8.754h31.113l-.013-8.754-7.667-.013a1.662,1.662,0,0,1-1.551-1.064Z" transform="translate(-172.132 -26.986)" fill="#aee6e6" fill-rule="evenodd"/>
          <path id="Trazado_876171" data-name="Trazado 876171" d="M342.977,398.445H328.1v14.879Z" transform="translate(-258.331 -286.143)" fill="#aee6e6" fill-rule="evenodd"/>
          <path id="Trazado_876172" data-name="Trazado 876172" d="M165.438,178.942H104.615a1.662,1.662,0,0,1-1.662-1.662V61.646a1.662,1.662,0,0,1,1.662-1.662h21.808v-5.62H100.4a3.081,3.081,0,0,0-3.068,3.068V181.494a3.081,3.081,0,0,0,3.068,3.068h89.8a3.082,3.082,0,0,0,3.068-3.068V57.432a3.081,3.081,0,0,0-3.068-3.068H164.183v5.62H185.99a1.662,1.662,0,0,1,1.662,1.662v95.082a1.655,1.655,0,0,1-.5,1.189L166.627,178.44a1.645,1.645,0,0,1-1.19.5Z" transform="translate(-97.333 -46.087)" fill="#aee6e6" fill-rule="evenodd"/>
        </g>
      </g>
    </g>
  </g>
</svg>
