<svg xmlns="http://www.w3.org/2000/svg" width="78.501" height="74.271" viewBox="0 0 78.501 74.271">
  <g id="Grupo_1102010" data-name="Grupo 1102010" transform="translate(-253 -14055.601)">
    <path id="_12068" data-name="12068" d="M72.033,71.913c-8.038-1.11-16.53-.839-23.844,2.675C38.045,79.46,31.382,90.507,31.127,101.757s5.606,22.305,14.66,28.988,21,9.051,32.068,7.045c11.165-2.023,21.645-8.583,27.469-18.322,3.735-6.245,5.48-13.956,3.417-20.934a28.6,28.6,0,0,0-6.787-11.156A50.145,50.145,0,0,0,72.033,71.913Z" transform="translate(221.881 13991.391)" fill="#26aab7"/>
    <g id="trafico-web-2" transform="translate(246.753 14018.78)">
      <g id="Grupo_1102006" data-name="Grupo 1102006" transform="translate(9.215 38.03)">
        <g id="Grupo_1102001" data-name="Grupo 1102001" transform="translate(0 0)">
          <path id="Trazado_881239" data-name="Trazado 881239" d="M19.157,44.819H85.407a3.166,3.166,0,0,1,3.157,3.157V96.645A3.166,3.166,0,0,1,85.407,99.8H19.157A3.166,3.166,0,0,1,16,96.645V47.976a3.166,3.166,0,0,1,3.157-3.157Z" transform="translate(-16 -44.819)" fill="#eceff1" fill-rule="evenodd"/>
          <path id="Trazado_881240" data-name="Trazado 881240" d="M455.186,44.819H458.2a3.166,3.166,0,0,1,3.157,3.157V96.645A3.166,3.166,0,0,1,458.2,99.8h-3.013a3.166,3.166,0,0,0,3.157-3.157V47.976A3.166,3.166,0,0,0,455.186,44.819Z" transform="translate(-388.792 -44.819)" fill="#d1d1d6" fill-rule="evenodd"/>
          <path id="Trazado_881241" data-name="Trazado 881241" d="M19.157,44.819H85.407a3.166,3.166,0,0,1,3.157,3.157v8.117H16V47.976a3.166,3.166,0,0,1,3.157-3.157Z" transform="translate(-16 -44.819)" fill="#7d6eb2" fill-rule="evenodd"/>
          <path id="Trazado_881242" data-name="Trazado 881242" d="M455.186,44.819H458.2a3.166,3.166,0,0,1,3.157,3.157v8.117h-3.013V47.976a3.166,3.166,0,0,0-3.157-3.157Z" transform="translate(-388.792 -44.819)" fill="#62529b" fill-rule="evenodd"/>
        </g>
        <g id="Grupo_1102002" data-name="Grupo 1102002" transform="translate(5.136 16.787)">
          <path id="Trazado_881243" data-name="Trazado 881243" d="M50.551,212.04H63.946a.573.573,0,0,0,.563-.69,7.412,7.412,0,0,0-14.521,0A.573.573,0,0,0,50.551,212.04Z" transform="translate(-49.976 -197.934)" fill="#8ac9fe" fill-rule="evenodd"/>
          <path id="Trazado_881244" data-name="Trazado 881244" d="M99.8,212.04h1.31a.573.573,0,0,0,.563-.69,7.413,7.413,0,0,0-7.261-5.923q-.331,0-.655.029a7.415,7.415,0,0,1,6.606,5.894A.573.573,0,0,1,99.8,212.04Z" transform="translate(-87.135 -197.934)" fill="#60b7ff" fill-rule="evenodd"/>
          <circle id="Elipse_12000" data-name="Elipse 12000" cx="3.747" cy="3.747" r="3.747" transform="translate(3.526)" fill="#f6dccd"/>
          <path id="Trazado_881245" data-name="Trazado 881245" d="M95.153,155.861a3.747,3.747,0,1,1-.522,7.457,3.747,3.747,0,0,0,0-7.42A3.76,3.76,0,0,1,95.153,155.861Z" transform="translate(-87.88 -155.861)" fill="#f1cbbc" fill-rule="evenodd"/>
        </g>
        <g id="Grupo_1102003" data-name="Grupo 1102003" transform="translate(25.403 37.301)">
          <path id="Trazado_881246" data-name="Trazado 881246" d="M185.29,398.665h2.9a1.252,1.252,0,0,1,1.25,1.25v7.858a1.252,1.252,0,0,1-1.25,1.25h-2.9a1.252,1.252,0,0,1-1.25-1.25v-7.858A1.252,1.252,0,0,1,185.29,398.665Z" transform="translate(-184.04 -382.473)" fill="#fe646f" fill-rule="evenodd"/>
          <path id="Trazado_881247" data-name="Trazado 881247" d="M201.152,398.665h1.562a1.252,1.252,0,0,1,1.25,1.25v7.858a1.252,1.252,0,0,1-1.25,1.25h-1.562a1.252,1.252,0,0,0,1.25-1.25v-7.858A1.252,1.252,0,0,0,201.152,398.665Z" transform="translate(-198.565 -382.473)" fill="#fd4755" fill-rule="evenodd"/>
          <path id="Trazado_881248" data-name="Trazado 881248" d="M261.358,338.41h2.9a1.252,1.252,0,0,1,1.25,1.25v16.967a1.252,1.252,0,0,1-1.25,1.25h-2.9a1.252,1.252,0,0,1-1.25-1.25V339.66A1.252,1.252,0,0,1,261.358,338.41Z" transform="translate(-248.608 -331.328)" fill="#ffe177" fill-rule="evenodd"/>
          <path id="Trazado_881249" data-name="Trazado 881249" d="M277.221,338.41h1.562a1.252,1.252,0,0,1,1.25,1.25v16.967a1.252,1.252,0,0,1-1.25,1.25h-1.562a1.252,1.252,0,0,0,1.25-1.25V339.66A1.252,1.252,0,0,0,277.221,338.41Z" transform="translate(-263.134 -331.328)" fill="#ffd064" fill-rule="evenodd"/>
          <path id="Trazado_881250" data-name="Trazado 881250" d="M337.426,362.767h2.9a1.252,1.252,0,0,1,1.25,1.25V377.3a1.252,1.252,0,0,1-1.25,1.25h-2.9a1.252,1.252,0,0,1-1.25-1.25V364.017A1.252,1.252,0,0,1,337.426,362.767Z" transform="translate(-313.177 -352.002)" fill="#6cf5c2" fill-rule="evenodd"/>
          <path id="Trazado_881251" data-name="Trazado 881251" d="M353.29,362.767h1.562a1.252,1.252,0,0,1,1.25,1.25V377.3a1.252,1.252,0,0,1-1.25,1.25H353.29a1.252,1.252,0,0,0,1.25-1.25V364.017A1.252,1.252,0,0,0,353.29,362.767Z" transform="translate(-327.704 -352.002)" fill="#00e499" fill-rule="evenodd"/>
          <path id="Trazado_881252" data-name="Trazado 881252" d="M413.495,291.561h2.9a1.252,1.252,0,0,1,1.25,1.25v24.05a1.252,1.252,0,0,1-1.25,1.25h-2.9a1.252,1.252,0,0,1-1.25-1.25v-24.05A1.252,1.252,0,0,1,413.495,291.561Z" transform="translate(-377.746 -291.561)" fill="#8ac9fe" fill-rule="evenodd"/>
          <path id="Trazado_881253" data-name="Trazado 881253" d="M429.358,291.561h1.562a1.252,1.252,0,0,1,1.25,1.25v24.05a1.252,1.252,0,0,1-1.25,1.25h-1.562a1.252,1.252,0,0,0,1.25-1.25v-24.05a1.252,1.252,0,0,0-1.25-1.25Z" transform="translate(-392.272 -291.561)" fill="#60b7ff" fill-rule="evenodd"/>
        </g>
        <g id="Grupo_1102004" data-name="Grupo 1102004" transform="translate(22.948 16.787)">
          <path id="Trazado_881254" data-name="Trazado 881254" d="M168.375,212.044H181.77a.573.573,0,0,0,.563-.69,7.412,7.412,0,0,0-14.521,0A.573.573,0,0,0,168.375,212.044Z" transform="translate(-167.8 -197.938)" fill="#8ac9fe" fill-rule="evenodd"/>
          <path id="Trazado_881255" data-name="Trazado 881255" d="M217.619,212.043h1.31a.573.573,0,0,0,.563-.69,7.413,7.413,0,0,0-7.261-5.923q-.331,0-.655.029a7.415,7.415,0,0,1,6.606,5.894.573.573,0,0,1-.564.69Z" transform="translate(-204.959 -197.937)" fill="#60b7ff" fill-rule="evenodd"/>
          <circle id="Elipse_12001" data-name="Elipse 12001" cx="3.747" cy="3.747" r="3.747" transform="translate(3.526)" fill="#f6dccd"/>
          <path id="Trazado_881256" data-name="Trazado 881256" d="M212.977,155.863a3.747,3.747,0,1,1-.522,7.457,3.747,3.747,0,0,0,0-7.42A3.784,3.784,0,0,1,212.977,155.863Z" transform="translate(-205.704 -155.863)" fill="#f1cbbc" fill-rule="evenodd"/>
        </g>
        <g id="Grupo_1102005" data-name="Grupo 1102005" transform="translate(14.042 20.301)">
          <path id="Trazado_881257" data-name="Trazado 881257" d="M109.463,238.956h13.394a.573.573,0,0,0,.563-.69,7.412,7.412,0,0,0-14.521,0A.573.573,0,0,0,109.463,238.956Z" transform="translate(-108.888 -224.295)" fill="#8ac9fe" fill-rule="evenodd"/>
          <path id="Trazado_881258" data-name="Trazado 881258" d="M158.707,238.956h1.31a.573.573,0,0,0,.563-.69,7.413,7.413,0,0,0-7.261-5.923q-.331,0-.655.029a7.415,7.415,0,0,1,6.606,5.894A.573.573,0,0,1,158.707,238.956Z" transform="translate(-146.047 -224.295)" fill="#60b7ff" fill-rule="evenodd"/>
          <circle id="Elipse_12002" data-name="Elipse 12002" cx="3.747" cy="3.747" r="3.747" transform="matrix(0.16, -0.987, 0.987, 0.16, 2.968, 7.396)" fill="#f6dccd"/>
          <path id="Trazado_881259" data-name="Trazado 881259" d="M154.065,182.777a3.747,3.747,0,1,1-.522,7.457,3.747,3.747,0,0,0,0-7.42A3.763,3.763,0,0,1,154.065,182.777Z" transform="translate(-146.792 -182.223)" fill="#f1cbbc" fill-rule="evenodd"/>
        </g>
      </g>
      <path id="Trazado_881260" data-name="Trazado 881260" d="M24.662,71.783a6.181,6.181,0,0,1,5.862-4.193h.007a6.183,6.183,0,0,1,5.87,4.193Zm-8.908-4.068h8.651a8.678,8.678,0,0,1,2.241-1.627,6.2,6.2,0,0,0-10.892,1.627Zm3.33-9.151a2.54,2.54,0,1,1,2.54,2.537A2.541,2.541,0,0,1,19.084,58.564Zm6.524,3.516-.334-.166a4.642,4.642,0,0,0,.484-.624A4.849,4.849,0,0,0,25.609,62.081ZM30.532,60.1a2.537,2.537,0,0,1,0,5.075c-1.4,0,0,0-.007,0a2.537,2.537,0,0,1,.007-5.075Zm5.258,1.819c-.114.053-.228.109-.334.166a4.823,4.823,0,0,0-.156-.789A5.361,5.361,0,0,0,35.79,61.914Zm3.65-5.887a2.537,2.537,0,1,1-2.54,2.537A2.539,2.539,0,0,1,39.439,56.028Zm5.87,11.687a6.206,6.206,0,0,0-10.9-1.626,8.445,8.445,0,0,1,2.241,1.627h8.658ZM38.8,73.8a1.217,1.217,0,0,0,.3-.937,8.527,8.527,0,0,0-.754-2.73H46.8a1.213,1.213,0,0,0,1.2-1.338,8.589,8.589,0,0,0-4.916-6.886,4.954,4.954,0,1,0-8.424-2,4.953,4.953,0,0,0-8.274,0,4.956,4.956,0,1,0-8.424,2A8.6,8.6,0,0,0,13.052,68.8a1.223,1.223,0,0,0,.306.937,1.207,1.207,0,0,0,.9.4H22.72a8.718,8.718,0,0,0-.761,2.73,1.214,1.214,0,0,0,1.2,1.338H37.9A1.229,1.229,0,0,0,38.8,73.8Zm32.884-6.774a1.225,1.225,0,0,0-.932-.44h-.007l-4.3.017a1.209,1.209,0,0,0,.007,2.419l1.153,0-7.527,6.85L49.293,71.23a1.212,1.212,0,0,0-1.21.148l-11.5,8.732a1.21,1.21,0,0,0,1.465,1.926L48.987,73.73,59.837,78.4a1.213,1.213,0,0,0,1.295-.216l7.719-7.022-.121.618a1.207,1.207,0,0,0,.953,1.421,1.25,1.25,0,0,0,.235.024,1.21,1.21,0,0,0,1.181-.977l.832-4.215A1.214,1.214,0,0,0,71.683,67.027ZM23.83,43.743A1.757,1.757,0,1,1,25.587,45.5,1.757,1.757,0,0,1,23.83,43.743Zm6.745,0a1.754,1.754,0,1,1,1.75,1.755A1.751,1.751,0,0,1,30.574,43.743Zm-13.482,0A1.757,1.757,0,1,1,18.85,45.5,1.757,1.757,0,0,1,17.092,43.743ZM78.776,91.8a1.8,1.8,0,0,0,1.793-1.794V50.664H10.426V90.011A1.8,1.8,0,0,0,12.219,91.8H33.406v-.281a1.214,1.214,0,0,1,1.21-1.21h5.4a1.209,1.209,0,0,1,1.209,1.21V91.8H44.91V82.414A1.21,1.21,0,0,1,46.12,81.2h5.4a1.214,1.214,0,0,1,1.209,1.21V91.8h3.678V86.1a1.209,1.209,0,0,1,1.209-1.21h5.4a1.209,1.209,0,0,1,1.209,1.21V91.8H67.9V75.333a1.213,1.213,0,0,1,1.21-1.21h5.4a1.209,1.209,0,0,1,1.209,1.21V91.8ZM73.3,100.671H70.324V76.542H73.3Zm-11.5,0H58.827V87.306h2.981Zm-11.5,0H47.33V83.623h2.981Zm-11.5,0H35.825V92.733h2.981ZM12.219,39.24a1.8,1.8,0,0,0-1.793,1.794v7.211H80.569V41.034a1.8,1.8,0,0,0-1.793-1.794Zm66.557-2.419H12.219a4.216,4.216,0,0,0-4.212,4.213V90.011a4.216,4.216,0,0,0,4.212,4.213H33.406v7.657a1.213,1.213,0,0,0,1.21,1.209h5.4a1.209,1.209,0,0,0,1.209-1.209V94.224h3.685v7.657a1.209,1.209,0,0,0,1.209,1.209h5.4a1.213,1.213,0,0,0,1.209-1.209V94.224h3.678v7.657a1.209,1.209,0,0,0,1.209,1.209h5.4a1.209,1.209,0,0,0,1.209-1.209V94.224H67.9v7.657a1.213,1.213,0,0,0,1.21,1.209h5.4a1.209,1.209,0,0,0,1.209-1.209V94.224h3.052a4.22,4.22,0,0,0,4.212-4.213V41.034A4.22,4.22,0,0,0,78.776,36.821Z" transform="translate(0 0)" fill="#00223d" fill-rule="evenodd"/>
    </g>
  </g>
</svg>
