<svg xmlns="http://www.w3.org/2000/svg" width="78.501" height="74.271" viewBox="0 0 78.501 74.271">
  <g id="Grupo_1101864" data-name="Grupo 1101864" transform="translate(-760.749 -7427.365)">
    <path id="_12068" data-name="12068" d="M72.033,71.913c-8.038-1.11-16.53-.839-23.844,2.675C38.045,79.46,31.382,90.507,31.127,101.757s5.606,22.305,14.66,28.988,21,9.051,32.068,7.045c11.165-2.023,21.645-8.583,27.469-18.322,3.735-6.245,5.48-13.956,3.417-20.934a28.6,28.6,0,0,0-6.787-11.156A50.145,50.145,0,0,0,72.033,71.913Z" transform="translate(729.63 7363.154)" fill="#26aab7"/>
    <g id="flujo-de-clics" transform="translate(765.086 7427.365)">
      <g id="Grupo_1101829" data-name="Grupo 1101829" transform="translate(1.15 1.15)">
        <g id="Grupo_1101816" data-name="Grupo 1101816" transform="translate(10.354 64.425)">
          <path id="Trazado_880435" data-name="Trazado 880435" d="M112.212,456v4.6H80V456h32.212Z" transform="translate(-80 -456)" fill="#969faa"/>
        </g>
        <g id="Grupo_1101817" data-name="Grupo 1101817" transform="translate(14.956 59.823)">
          <path id="Trazado_880436" data-name="Trazado 880436" d="M112,424h23.009v4.6H112Z" transform="translate(-112 -424)" fill="#aab2bd"/>
        </g>
        <g id="Grupo_1101818" data-name="Grupo 1101818" transform="translate(0 18.407)">
          <path id="Trazado_880437" data-name="Trazado 880437" d="M51.678,136h4.641a4.6,4.6,0,0,1,4.6,4.6v32.212a4.6,4.6,0,0,1-4.6,4.6H12.6a4.6,4.6,0,0,1-4.6-4.6V140.6a4.6,4.6,0,0,1,4.6-4.6h4.641a17.113,17.113,0,0,0,.943,4.6H13.752a1.15,1.15,0,0,0-1.15,1.15v27.611a1.15,1.15,0,0,0,1.15,1.15H55.168a1.15,1.15,0,0,0,1.15-1.15V141.752a1.15,1.15,0,0,0-1.15-1.15H50.733A17.07,17.07,0,0,0,51.678,136Z" transform="translate(-8 -136)" fill="#ccd1d9"/>
        </g>
        <g id="Grupo_1101819" data-name="Grupo 1101819" transform="translate(4.602 23.009)">
          <path id="Trazado_880438" data-name="Trazado 880438" d="M82.566,168H41.15A1.15,1.15,0,0,0,40,169.15v27.611a1.15,1.15,0,0,0,1.15,1.15H82.566a1.15,1.15,0,0,0,1.15-1.15V169.15A1.15,1.15,0,0,0,82.566,168Z" transform="translate(-40 -168)" fill="#aee6e6"/>
        </g>
        <g id="Grupo_1101820" data-name="Grupo 1101820" transform="translate(26.46 5.055)">
          <path id="Trazado_880439" data-name="Trazado 880439" d="M209.257,55.352q0,.58-.039,1.15a17.2,17.2,0,0,1-5.089,11.123l-6.376-.769.5,4.582a17.135,17.135,0,0,1-5.107,1.132q-.569.039-1.15.039V55.352l12.2-12.2A17.2,17.2,0,0,1,209.257,55.352Z" transform="translate(-192 -43.15)" fill="#5cd6b3"/>
        </g>
        <g id="Grupo_1101821" data-name="Grupo 1101821" transform="translate(9.204 5.055)">
          <path id="Trazado_880440" data-name="Trazado 880440" d="M89.257,55.352V72.609A17.26,17.26,0,0,1,75.3,65.5,17.133,17.133,0,0,1,72.984,61.1h0a17.113,17.113,0,0,1-.943-4.6Q72,55.933,72,55.352a17.2,17.2,0,0,1,5.055-12.2Z" transform="translate(-72 -43.15)" fill="#ef7385"/>
        </g>
        <g id="Grupo_1101822" data-name="Grupo 1101822" transform="translate(14.258)">
          <path id="Trazado_880441" data-name="Trazado 880441" d="M119.352,8a17.2,17.2,0,0,1,12.2,5.055l-12.2,12.2-12.2-12.2A17.2,17.2,0,0,1,119.352,8Z" transform="translate(-107.15 -8)" fill="#ffd947"/>
        </g>
        <g id="Grupo_1101823" data-name="Grupo 1101823" transform="translate(9.204 27.404)">
          <path id="Trazado_880442" data-name="Trazado 880442" d="M90.407,205.631v2.34l-1.675.558c-.056.15-.118.3-.183.443l.789,1.579L86.084,213.8l-1.579-.79c-.145.065-.293.127-.443.183l-.558,1.675H78.9l-.558-1.675c-.15-.056-.3-.118-.443-.183l-1.579.79-3.254-3.254.789-1.579c-.065-.145-.127-.293-.183-.443L72,207.971v-4.6l1.675-.558c.056-.15.118-.3.183-.443l-.789-1.579L75.3,198.56a17.352,17.352,0,0,0,3.228,3.368,4.6,4.6,0,1,0,7.279,3.742c0-.118-.006-.233-.014-.348a17.315,17.315,0,0,0,3.466.348Q89.837,205.67,90.407,205.631Z" transform="translate(-72 -198.56)" fill="#ffd947"/>
        </g>
        <g id="Grupo_1101824" data-name="Grupo 1101824" transform="translate(32.212 28.761)">
          <path id="Trazado_880443" data-name="Trazado 880443" d="M244.655,217.3l-3.352,3.352-5.177-5.177-2.975,2.975-.646-5.872L232,208l6.376.769,3.978.48-2.975,2.974Z" transform="translate(-232 -208)" fill="#ef7385"/>
        </g>
        <g id="Grupo_1101825" data-name="Grupo 1101825" transform="translate(52.921 52.921)">
          <path id="Trazado_880444" data-name="Trazado 880444" d="M392.106,376v8.053a8.053,8.053,0,1,1-16.106,0V376h16.106Z" transform="translate(-376 -376)" fill="#969faa"/>
        </g>
        <g id="Grupo_1101826" data-name="Grupo 1101826" transform="translate(63.275 46.018)">
          <path id="Trazado_880445" data-name="Trazado 880445" d="M453.752,332.6v2.3H448V328h1.15A4.6,4.6,0,0,1,453.752,332.6Z" transform="translate(-448 -328)" fill="#aab2bd"/>
        </g>
        <g id="Grupo_1101827" data-name="Grupo 1101827" transform="translate(52.921 46.018)">
          <path id="Trazado_880446" data-name="Trazado 880446" d="M381.752,328v6.9H376v-2.3a4.6,4.6,0,0,1,4.6-4.6Z" transform="translate(-376 -328)" fill="#aab2bd"/>
        </g>
        <g id="Grupo_1101828" data-name="Grupo 1101828" transform="translate(58.673 46.018)">
          <path id="Trazado_880447" data-name="Trazado 880447" d="M416,328h4.6v6.9H416Z" transform="translate(-416 -328)" fill="#ef7385"/>
        </g>
      </g>
      <g id="Grupo_1101830" data-name="Grupo 1101830" transform="translate(0)">
        <path id="Trazado_880448" data-name="Trazado 880448" d="M65.575,46.018h-2.3v-1.15a3.455,3.455,0,0,0-3.451-3.451H51.77a1.15,1.15,0,1,1,0-2.3H67.876a3.451,3.451,0,1,0,0-6.9H48.319v2.3H67.876a1.15,1.15,0,0,1,0,2.3H51.77a3.451,3.451,0,1,0,0,6.9h1.15V56.372a3.455,3.455,0,0,1-3.451,3.451h-1.15v-2.3h-2.3v2.3h-2.3v-2.3h-2.3v2.3H5.752A3.455,3.455,0,0,1,2.3,56.372V24.159a3.455,3.455,0,0,1,3.451-3.451H9.347a18.268,18.268,0,0,0,.439,2.3H6.9a2.3,2.3,0,0,0-2.3,2.3V52.921a2.3,2.3,0,0,0,2.3,2.3H48.319a2.3,2.3,0,0,0,2.3-2.3v-6.9h-2.3v6.9H6.9V25.31h3.645a18.37,18.37,0,0,0,1.619,3.1l-2.144,2.144.731,1.461-1.55.517v6.26l1.55.517-.731,1.461L14.449,45.2l1.461-.731.517,1.55h6.26l.517-1.55,1.461.731,4.427-4.427-.731-1.461,1.55-.517V36.671a18.246,18.246,0,0,0,2.969-.624l.751,6.826,3.856-3.856,5.177,5.177,5-5L42.385,34.12,46.2,30.3l-4.134-.5a18.251,18.251,0,0,0,2.616-4.493h3.634v4.6h2.3v-4.6a2.3,2.3,0,0,0-2.3-2.3H45.441a18.346,18.346,0,0,0,.436-2.3h3.593A3.455,3.455,0,0,1,52.92,24.16v5.752h2.3V24.16a5.759,5.759,0,0,0-5.752-5.752H46.018a18.407,18.407,0,1,0-36.814,0H5.752A5.759,5.759,0,0,0,0,24.159V56.372a5.759,5.759,0,0,0,5.752,5.752h9.2v2.3h-4.6v6.9H44.867v-6.9h-4.6v-2.3h9.2A5.722,5.722,0,0,0,52.92,60.97v1.154a9.2,9.2,0,0,0,18.407,0V51.77a5.759,5.759,0,0,0-5.752-5.752ZM27.611,37.136,26.2,37.6l-.194.51c-.046.122-.1.249-.158.378l-.224.5.663,1.327L24.211,42.4l-1.327-.663-.5.224c-.13.058-.257.111-.378.158l-.51.194-.469,1.406H18.086l-.469-1.406-.51-.194c-.122-.046-.249-.1-.378-.158l-.5-.224L14.9,42.4l-2.081-2.081.663-1.327-.224-.5c-.06-.132-.111-.256-.158-.378l-.194-.51L11.5,37.136V34.192l1.406-.469.194-.51c.047-.123.1-.246.158-.378l.224-.5-.663-1.327.732-.732a18.578,18.578,0,0,0,1.61,1.678,5.75,5.75,0,1,0,10.057,4.7,18.5,18.5,0,0,0,2.389.155Zm-10.66-3.73a18.338,18.338,0,0,0,6.013,2.814,3.451,3.451,0,1,1-6.013-2.814Zm27.425,5.824-1.71,1.71-5.177-5.177-2.094,2.094-.73-6.629,6.566.792L39.1,34.151Zm-5.062-9.759L32.061,28.6l.564,5.121a15.993,15.993,0,0,1-3.863.756V18.884L39.779,7.866a16.089,16.089,0,0,1-.465,21.6ZM38.152,6.239,27.611,16.78,17.07,6.239a16.077,16.077,0,0,1,21.082,0ZM15.443,7.866,26.46,18.884V34.472A16.1,16.1,0,0,1,15.443,7.866ZM42.566,69.027H12.655v-2.3H42.566Zm-4.6-4.6H17.257v-2.3H37.965ZM69.027,51.77v1.15H65.575v-4.6A3.455,3.455,0,0,1,69.027,51.77Zm-10.354,1.15H55.221V51.77a3.455,3.455,0,0,1,3.451-3.451Zm2.3-4.6h2.3v4.6h-2.3Zm-1.15-4.6a1.152,1.152,0,0,1,1.15,1.15v1.15h-2.3a5.722,5.722,0,0,0-3.451,1.154V43.717Zm2.3,25.31a6.911,6.911,0,0,1-6.9-6.9v-6.9H69.027v6.9A6.911,6.911,0,0,1,62.124,69.027Z" transform="translate(0)" fill="#00223d"/>
        <path id="Trazado_880449" data-name="Trazado 880449" d="M64,336h2.3v2.3H64Z" transform="translate(-54.796 -287.681)" fill="#00223d"/>
        <path id="Trazado_880450" data-name="Trazado 880450" d="M96,336h16.106v2.3H96Z" transform="translate(-82.195 -287.681)" fill="#00223d"/>
      </g>
    </g>
  </g>
</svg>
