<svg xmlns="http://www.w3.org/2000/svg" width="78.501" height="73.271" viewBox="0 0 78.501 73.271">
  <g id="Grupo_1102053" data-name="Grupo 1102053" transform="translate(-1233.499 -7908.366)">
    <g id="Grupo_1101899" data-name="Grupo 1101899">
      <path id="_12068" data-name="12068" d="M72.033,71.913c-8.038-1.11-16.53-.839-23.844,2.675C38.045,79.46,31.382,90.507,31.127,101.757s5.606,22.305,14.66,28.988,21,9.051,32.068,7.045c11.165-2.023,21.645-8.583,27.469-18.322,3.735-6.245,5.48-13.956,3.417-20.934a28.6,28.6,0,0,0-6.787-11.156A50.145,50.145,0,0,0,72.033,71.913Z" transform="translate(1202.38 7843.155)" fill="#26aab7"/>
      <g id="trafico-web" transform="translate(1230.823 7898.365)">
        <g id="Grupo_1101898" data-name="Grupo 1101898" transform="translate(10.775 10.779)">
          <g id="Grupo_1101894" data-name="Grupo 1101894" transform="translate(0 0)">
            <g id="Grupo_1101893" data-name="Grupo 1101893">
              <path id="Trazado_880527" data-name="Trazado 880527" d="M19.894,16H74.408A3.9,3.9,0,0,1,78.3,19.893V62.225a3.9,3.9,0,0,1-3.894,3.894H19.894A3.9,3.9,0,0,1,16,62.225V19.893A3.9,3.9,0,0,1,19.894,16Z" transform="translate(-16 -15.999)" fill="#f9f3f1" fill-rule="evenodd"/>
              <path id="Trazado_880528" data-name="Trazado 880528" d="M74.408,16H19.894A3.9,3.9,0,0,0,16,19.893v7.413H78.3V19.893A3.9,3.9,0,0,0,74.408,16Z" transform="translate(-16 -15.999)" fill="#6bd9e7" fill-rule="evenodd"/>
              <circle id="Elipse_11858" data-name="Elipse 11858" cx="1.701" cy="1.701" r="1.701" transform="translate(4.483 3.953)" fill="#f79595"/>
              <circle id="Elipse_11859" data-name="Elipse 11859" cx="1.701" cy="1.701" r="1.701" transform="translate(11.965 3.953)" fill="#fad97f"/>
              <path id="Trazado_880529" data-name="Trazado 880529" d="M167.537,49.856a1.7,1.7,0,1,0-1.7-1.7A1.7,1.7,0,0,0,167.537,49.856Z" transform="translate(-146.388 -42.502)" fill="#d6f6b2" fill-rule="evenodd"/>
              <path id="Trazado_880530" data-name="Trazado 880530" d="M321.662,49.856a1.7,1.7,0,1,1,0-3.4h14.965a1.7,1.7,0,1,1,0,3.4Z" transform="translate(-280.508 -42.502)" fill="#f9f3f1" fill-rule="evenodd"/>
            </g>
          </g>
          <g id="Grupo_1101897" data-name="Grupo 1101897" transform="translate(9.01 14.52)">
            <g id="Grupo_1101895" data-name="Grupo 1101895" transform="translate(0 9.965)">
              <path id="Trazado_880531" data-name="Trazado 880531" d="M367.795,248.907H373a1.3,1.3,0,0,1,1.3,1.3v30.774h-7.8V250.2A1.3,1.3,0,0,1,367.795,248.907Z" transform="translate(-330.014 -243.162)" fill="#62529b" fill-rule="evenodd"/>
              <path id="Trazado_880532" data-name="Trazado 880532" d="M86.715,361.183h5.2a1.3,1.3,0,0,1,1.3,1.3v16.2h-7.8v-16.2A1.3,1.3,0,0,1,86.715,361.183Z" transform="translate(-85.417 -340.865)" fill="#ffd947" fill-rule="evenodd"/>
              <path id="Trazado_880533" data-name="Trazado 880533" d="M180.408,289.006h5.2a1.3,1.3,0,0,1,1.3,1.3v25.569h-7.8V290.3A1.3,1.3,0,0,1,180.408,289.006Z" transform="translate(-166.949 -278.056)" fill="#7d6eb2" fill-rule="evenodd"/>
              <path id="Trazado_880534" data-name="Trazado 880534" d="M274.1,329.1h5.2a1.3,1.3,0,0,1,1.3,1.3v20.365h-7.8V330.4A1.3,1.3,0,0,1,274.1,329.1Z" transform="translate(-248.481 -312.95)" fill="#59836b" fill-rule="evenodd"/>
              <path id="Trazado_880535" data-name="Trazado 880535" d="M99.117,268.613a2.438,2.438,0,1,1-2.438,2.438A2.438,2.438,0,0,1,99.117,268.613Z" transform="translate(-95.217 -260.31)" fill="#f79595" fill-rule="evenodd"/>
              <path id="Trazado_880536" data-name="Trazado 880536" d="M192.81,204.644a2.438,2.438,0,1,1-2.438,2.438A2.438,2.438,0,0,1,192.81,204.644Z" transform="translate(-176.749 -204.644)" fill="#ffd947" fill-rule="evenodd"/>
              <path id="Trazado_880537" data-name="Trazado 880537" d="M286.5,240.182a2.438,2.438,0,1,1-2.438,2.438A2.438,2.438,0,0,1,286.5,240.182Z" transform="translate(-258.281 -235.569)" fill="#b3e59f" fill-rule="evenodd"/>
            </g>
            <g id="Grupo_1101896" data-name="Grupo 1101896" transform="translate(15.507)">
              <path id="Trazado_880538" data-name="Trazado 880538" d="M218.052,132.149a7.743,7.743,0,0,1-13.06,0,.637.637,0,0,1,0-.7,7.743,7.743,0,0,1,13.06,0,.637.637,0,0,1,0,.7Z" transform="translate(-204.888 -127.868)" fill="#dbf3f7" fill-rule="evenodd"/>
              <path id="Trazado_880539" data-name="Trazado 880539" d="M237.6,142.5a2.745,2.745,0,1,0-2.745-2.745A2.75,2.75,0,0,0,237.6,142.5Z" transform="translate(-230.962 -135.822)" fill="#26aab7" fill-rule="evenodd"/>
              <path id="Trazado_880540" data-name="Trazado 880540" d="M251.447,154.283a.679.679,0,1,0-.679-.679A.681.681,0,0,0,251.447,154.283Z" transform="translate(-244.813 -149.673)" fill="#ffd947" fill-rule="evenodd"/>
            </g>
          </g>
        </g>
        <path id="Trazado_880541" data-name="Trazado 880541" d="M39.823,26.407a3.524,3.524,0,0,0,0,5.649A7.022,7.022,0,0,1,36.1,29.231,7.022,7.022,0,0,1,39.823,26.407Zm7.931,2.824a6.991,6.991,0,0,1-3.718,2.824,3.524,3.524,0,0,0,0-5.649A6.985,6.985,0,0,1,47.754,29.231Zm-5.825-1.966a1.966,1.966,0,1,1-1.966,1.966A1.97,1.97,0,0,1,41.929,27.265Zm0,6.677a8.544,8.544,0,0,0,7.418-4.327.78.78,0,0,0,0-.767,8.524,8.524,0,0,0-14.837,0,.783.783,0,0,0,0,.768A8.546,8.546,0,0,0,41.929,33.941Zm6.081,10.032a1.659,1.659,0,1,1,1.655-1.659A1.661,1.661,0,0,1,48.011,43.974ZM35.848,39.362A1.659,1.659,0,1,1,37.509,37.7,1.662,1.662,0,0,1,35.848,39.362Zm-12.163,8.3A1.66,1.66,0,1,1,25.346,46,1.661,1.661,0,0,1,23.685,47.665Zm36.6-15.346-2.644-.4a.779.779,0,0,0-.232,1.541l.818.122-8.2,6.224a3.215,3.215,0,0,0-4.659.671l-6.326-2.4a2.6,2.6,0,0,0,.024-.378,3.218,3.218,0,1,0-6.234,1.116L25.822,43.6A3.215,3.215,0,1,0,26.9,46a3.089,3.089,0,0,0-.2-1.116l7.01-4.784a3.208,3.208,0,0,0,4.775-.567l6.332,2.4a2.6,2.6,0,0,0-.024.378,3.215,3.215,0,1,0,6.173-1.266l8.151-6.183L59,35.621a.781.781,0,0,0,1.545.231l.4-2.648a.783.783,0,0,0-.659-.885ZM51.931,15.512H66.9a.921.921,0,1,1,0,1.843H51.931a.921.921,0,1,1,0-1.843Zm0,3.4H66.9a2.479,2.479,0,0,0,0-4.958H51.931a2.479,2.479,0,0,0,0,4.958Zm-20-3.4a.921.921,0,1,1-.922.921A.923.923,0,0,1,31.928,15.512Zm0,3.4a2.479,2.479,0,1,0-2.479-2.479A2.482,2.482,0,0,0,31.928,18.913Zm-7.486-3.4a.921.921,0,1,1-.922.921A.923.923,0,0,1,24.442,15.512Zm0,3.4a2.479,2.479,0,1,0-2.479-2.479A2.482,2.482,0,0,0,24.442,18.913Zm-7.48-3.4a.921.921,0,1,1-.922.921A.923.923,0,0,1,16.963,15.512Zm0,3.4a2.479,2.479,0,1,0-2.479-2.479A2.482,2.482,0,0,0,16.963,18.913ZM69.186,60.12A3.118,3.118,0,0,0,72.3,57V22.866H11.553V57a3.12,3.12,0,0,0,3.12,3.115h4.335V56.88A2.081,2.081,0,0,1,21.084,54.8h5.2a2.082,2.082,0,0,1,2.082,2.077v3.24h2.8V47.513a2.076,2.076,0,0,1,2.076-2.077h5.2a2.076,2.076,0,0,1,2.076,2.077V60.12h2.809v-7.4a2.077,2.077,0,0,1,2.076-2.077h5.2a2.081,2.081,0,0,1,2.076,2.077v7.4h2.8V42.308a2.081,2.081,0,0,1,2.076-2.077h5.208a2.081,2.081,0,0,1,2.076,2.077V60.12ZM57.047,72.3V42.308a.519.519,0,0,1,.519-.519h5.208a.523.523,0,0,1,.519.519V72.3Zm-30.242,0h-6.24V56.881a.52.52,0,0,1,.519-.519h5.2a.52.52,0,0,1,.519.519V72.3Zm12.163,0h-6.24V47.513a.519.519,0,0,1,.519-.519h5.2a.519.519,0,0,1,.519.519V72.3Zm12.163,0h-6.24V52.717a.52.52,0,0,1,.519-.519h5.2a.52.52,0,0,1,.519.519V72.3Zm1.557-10.625h2.8V72.3h-2.8Zm-12.163,0h2.809V72.3H40.525Zm-12.157,0h2.8V72.3h-2.8Zm-13.7-50.12a3.121,3.121,0,0,0-3.12,3.115v6.635H72.3V14.673a3.12,3.12,0,0,0-3.114-3.115ZM69.186,10H14.673A4.682,4.682,0,0,0,10,14.673V57.005a4.681,4.681,0,0,0,4.677,4.673h4.335V72.3H14.386a.779.779,0,1,0,0,1.558H69.473a.779.779,0,1,0,0-1.558H64.851V61.678h4.335a4.676,4.676,0,0,0,4.671-4.673V14.673A4.676,4.676,0,0,0,69.186,10Z" fill="#00223d" fill-rule="evenodd"/>
      </g>
    </g>
  </g>
</svg>
