<svg xmlns="http://www.w3.org/2000/svg" width="139.737" height="147.529" viewBox="0 0 139.737 147.529">
  <g id="Grupo_1102049" data-name="Grupo 1102049" transform="translate(-256.633 -21231)">
    <path id="_12068" data-name="12068" d="M103.949,72.366C89.64,70.39,74.525,70.874,61.5,77.128,43.447,85.8,31.588,105.464,31.133,125.491s9.978,39.705,26.1,51.6S94.6,193.2,114.312,189.632c19.875-3.6,38.53-15.279,48.9-32.614,6.648-11.116,9.755-24.842,6.082-37.264-2.217-7.5-6.75-14.14-12.082-19.858A89.263,89.263,0,0,0,103.949,72.366Z" transform="translate(225.514 21187.668)" fill="#26aab7"/>
    <g id="abonado" transform="translate(270.333 21229)">
      <path id="Trazado_881116" data-name="Trazado 881116" d="M51.75,49h-23A5.75,5.75,0,0,0,23,54.75V73.917H57.5V54.75A5.75,5.75,0,0,0,51.75,49Z" transform="translate(17.417 43.083)" fill="#7d6eb2"/>
      <circle id="Elipse_11992" data-name="Elipse 11992" cx="8.625" cy="8.625" r="8.625" transform="translate(49.042 72.917)" fill="#ffdbac"/>
      <path id="Trazado_881117" data-name="Trazado 881117" d="M33.75,46h-23A5.75,5.75,0,0,0,5,51.75V70.917H39.5V51.75A5.75,5.75,0,0,0,33.75,46Z" transform="translate(0.917 40.333)" fill="#62529b"/>
      <circle id="Elipse_11993" data-name="Elipse 11993" cx="8.625" cy="8.625" r="8.625" transform="translate(14.542 67.167)" fill="#ffcf94"/>
      <path id="Trazado_881118" data-name="Trazado 881118" d="M69.75,46h-23A5.75,5.75,0,0,0,41,51.75V70.917H75.5V51.75A5.75,5.75,0,0,0,69.75,46Z" transform="translate(33.917 40.333)" fill="#62529b"/>
      <circle id="Elipse_11994" data-name="Elipse 11994" cx="8.625" cy="8.625" r="8.625" transform="translate(83.542 67.167)" fill="#ffcf94"/>
      <path id="Trazado_881119" data-name="Trazado 881119" d="M73.5,52.833h-23L46.667,60.5l-3.833-7.667h-23A3.833,3.833,0,0,1,16,49V6.833A3.833,3.833,0,0,1,19.833,3H73.5a3.833,3.833,0,0,1,3.833,3.833V49A3.833,3.833,0,0,1,73.5,52.833Z" transform="translate(11 0.917)" fill="#e6eef3"/>
      <path id="Trazado_881120" data-name="Trazado 881120" d="M59.4,23.493,41.771,41.117,24.147,23.493A9.582,9.582,0,1,1,37.7,9.942l4.073,4.073,4.073-4.073A9.585,9.585,0,0,1,59.4,23.493Z" transform="translate(15.896 4.708)" fill="#ce4f54"/>
      <path id="Trazado_881121" data-name="Trazado 881121" d="M26,53h3.833V70.25H26Z" transform="translate(20.167 46.75)" fill="#00223d"/>
      <path id="Trazado_881122" data-name="Trazado 881122" d="M36,53h3.833V70.25H36Z" transform="translate(29.333 46.75)" fill="#00223d"/>
      <path id="Trazado_881123" data-name="Trazado 881123" d="M8,50h3.833V67.25H8Z" transform="translate(3.667 44)" fill="#00223d"/>
      <path id="Trazado_881124" data-name="Trazado 881124" d="M18,50h3.833V67.25H18Z" transform="translate(12.833 44)" fill="#00223d"/>
      <path id="Trazado_881125" data-name="Trazado 881125" d="M81.625,45.55a10.528,10.528,0,0,0,4.5,8.625H80.667a7.649,7.649,0,0,0-7.584,6.862,7.582,7.582,0,0,0-3.916-1.112H63.708a10.542,10.542,0,1,0-12.075,0H46.167a7.582,7.582,0,0,0-3.916,1.112,7.649,7.649,0,0,0-7.584-6.862H29.208a10.542,10.542,0,1,0-12.075,0H11.667A7.667,7.667,0,0,0,4,61.841V81.008H7.833V61.841a3.833,3.833,0,0,1,3.833-3.833h23A3.833,3.833,0,0,1,38.5,61.841V86.758h3.833V67.591a3.833,3.833,0,0,1,3.833-3.833h23A3.833,3.833,0,0,1,73,67.591V86.758h3.833V61.841a3.833,3.833,0,0,1,3.833-3.833h23a3.833,3.833,0,0,1,3.833,3.833V81.008h3.833V61.841a7.667,7.667,0,0,0-7.667-7.667H98.208A10.542,10.542,0,1,0,81.625,45.55ZM23.167,52.258a6.708,6.708,0,1,1,6.708-6.708,6.708,6.708,0,0,1-6.708,6.708Zm34.5,5.75A6.708,6.708,0,1,1,64.375,51.3,6.708,6.708,0,0,1,57.667,58.008Zm34.5-19.167a6.708,6.708,0,1,1-6.708,6.708,6.708,6.708,0,0,1,6.708-6.708Z" transform="translate(0 30.242)" fill="#00223d"/>
      <path id="Trazado_881126" data-name="Trazado 881126" d="M44,50h3.833V67.25H44Z" transform="translate(36.667 44)" fill="#00223d"/>
      <path id="Trazado_881127" data-name="Trazado 881127" d="M54,50h3.833V67.25H54Z" transform="translate(45.833 44)" fill="#00223d"/>
      <path id="Trazado_881128" data-name="Trazado 881128" d="M74.417,2H20.75A5.75,5.75,0,0,0,15,7.75V49.917a5.75,5.75,0,0,0,5.75,5.75H42.565l3.3,6.607a1.917,1.917,0,0,0,3.431,0l3.3-6.607H74.417a5.75,5.75,0,0,0,5.75-5.75V7.75A5.75,5.75,0,0,0,74.417,2Zm1.917,47.917a1.917,1.917,0,0,1-1.917,1.917h-23a1.917,1.917,0,0,0-1.725,1.06l-2.108,4.238-2.108-4.238a1.917,1.917,0,0,0-1.725-1.06h-23a1.917,1.917,0,0,1-1.917-1.917V7.75A1.917,1.917,0,0,1,20.75,5.833H74.417A1.917,1.917,0,0,1,76.333,7.75Z" transform="translate(10.083 0)" fill="#00223d"/>
      <path id="Trazado_881129" data-name="Trazado 881129" d="M45.5,9.6l-2.718,2.718L40.069,9.6A11.5,11.5,0,1,0,23.812,25.864L41.445,43.5a1.917,1.917,0,0,0,2.71,0L61.789,25.864A11.5,11.5,0,1,0,45.526,9.6ZM59.056,23.154,42.787,39.424,26.518,23.154A7.666,7.666,0,1,1,37.36,12.314l4.072,4.074a1.917,1.917,0,0,0,2.71,0l4.073-4.073a7.666,7.666,0,1,1,10.842,10.84Z" transform="translate(14.88 3.69)" fill="#00223d"/>
    </g>
  </g>
</svg>
