<svg xmlns="http://www.w3.org/2000/svg" width="139.737" height="167.453" viewBox="0 0 139.737 167.453">
  <g id="Grupo_1102046" data-name="Grupo 1102046" transform="translate(-312.126 -17345.076)">
    <path id="_12068" data-name="12068" d="M103.949,72.366C89.64,70.39,74.525,70.874,61.5,77.128,43.447,85.8,31.588,105.464,31.133,125.491s9.978,39.705,26.1,51.6S94.6,193.2,114.312,189.632c19.875-3.6,38.53-15.279,48.9-32.614,6.648-11.116,9.755-24.842,6.082-37.264-2.217-7.5-6.75-14.14-12.082-19.858A89.263,89.263,0,0,0,103.949,72.366Z" transform="translate(281.007 17321.668)" fill="#26aab7"/>
    <g id="Layer_38" transform="translate(295.107 17328.094)">
      <g id="Grupo_1100149" data-name="Grupo 1100149" transform="translate(11.808 0)">
        <g id="Grupo_1100121" data-name="Grupo 1100121" transform="translate(19.629 18.555)">
          <path id="Trazado_876184" data-name="Trazado 876184" d="M149.926,166.3V32.634a3.143,3.143,0,0,0-3.134-3.134H46.149a3.143,3.143,0,0,0-3.134,3.134V166.3a4.1,4.1,0,0,0,4.1,4.1H145.83A4.1,4.1,0,0,0,149.926,166.3Z" transform="translate(-43.015 -29.5)" fill="#dae6f1"/>
        </g>
        <g id="Grupo_1100122" data-name="Grupo 1100122" transform="translate(63.412 92.932)">
          <circle id="Elipse_11826" data-name="Elipse 11826" cx="9.672" cy="9.672" r="9.672" fill="#f9d0b4"/>
        </g>
        <g id="Grupo_1100123" data-name="Grupo 1100123" transform="translate(57.195 112.276)">
          <path id="Trazado_876185" data-name="Trazado 876185" d="M126.227,178.5h-15.2a8.315,8.315,0,0,0-8.29,8.29v8.163a2.891,2.891,0,0,0,2.892,2.891h26a2.891,2.891,0,0,0,2.892-2.891V186.79A8.315,8.315,0,0,0,126.227,178.5Z" transform="translate(-102.738 -178.5)" fill="#7d6eb2"/>
        </g>
        <g id="Grupo_1100124" data-name="Grupo 1100124" transform="translate(92.943 84.781)">
          <circle id="Elipse_11827" data-name="Elipse 11827" cx="7.817" cy="7.817" r="7.817" fill="#f9d0b4"/>
        </g>
        <g id="Grupo_1100125" data-name="Grupo 1100125" transform="translate(87.918 100.416)">
          <path id="Trazado_876186" data-name="Trazado 876186" d="M170.567,159.644H158.283a6.721,6.721,0,0,0-6.7,6.7v6.6a2.338,2.338,0,0,0,2.337,2.337H174.93a2.338,2.338,0,0,0,2.337-2.337v-6.6A6.72,6.72,0,0,0,170.567,159.644Z" transform="translate(-151.582 -159.644)" fill="#62529b"/>
        </g>
        <g id="Grupo_1100126" data-name="Grupo 1100126" transform="translate(37.591 84.781)">
          <circle id="Elipse_11828" data-name="Elipse 11828" cx="7.817" cy="7.817" r="7.817" fill="#f9d0b4"/>
        </g>
        <g id="Grupo_1100127" data-name="Grupo 1100127" transform="translate(32.566 100.416)">
          <path id="Trazado_876187" data-name="Trazado 876187" d="M82.567,159.644H70.283a6.721,6.721,0,0,0-6.7,6.7v6.6a2.338,2.338,0,0,0,2.337,2.337H86.93a2.338,2.338,0,0,0,2.337-2.337v-6.6a6.72,6.72,0,0,0-6.7-6.7Z" transform="translate(-63.582 -159.644)" fill="#62529b"/>
        </g>
        <g id="Grupo_1100128" data-name="Grupo 1100128" transform="translate(57.672 52.014)">
          <path id="Trazado_876188" data-name="Trazado 876188" d="M131.328,98.943a12.432,12.432,0,0,0-.136-1.835,1.049,1.049,0,0,1,.386-.971l2.349-1.881a1.06,1.06,0,0,0,.255-1.356l-2.4-4.161a1.059,1.059,0,0,0-1.3-.457l-2.807,1.1a1.042,1.042,0,0,1-1.029-.148,12.412,12.412,0,0,0-3.188-1.843,1.043,1.043,0,0,1-.64-.817l-.455-2.975a1.059,1.059,0,0,0-1.047-.9h-4.8a1.059,1.059,0,0,0-1.047.9l-.455,2.975a1.043,1.043,0,0,1-.64.817,12.375,12.375,0,0,0-3.188,1.843,1.044,1.044,0,0,1-1.029.148l-2.807-1.1a1.058,1.058,0,0,0-1.3.457l-2.4,4.161a1.059,1.059,0,0,0,.255,1.356l2.349,1.881a1.049,1.049,0,0,1,.386.971,12.4,12.4,0,0,0,0,3.67,1.05,1.05,0,0,1-.386.971l-2.349,1.881a1.06,1.06,0,0,0-.255,1.356l2.4,4.161a1.059,1.059,0,0,0,1.3.457l2.807-1.1a1.042,1.042,0,0,1,1.029.148,12.411,12.411,0,0,0,3.188,1.843,1.043,1.043,0,0,1,.64.817l.455,2.975a1.059,1.059,0,0,0,1.047.9h4.8a1.059,1.059,0,0,0,1.047-.9l.455-2.975a1.043,1.043,0,0,1,.64-.817,12.375,12.375,0,0,0,3.188-1.843,1.044,1.044,0,0,1,1.029-.148l2.807,1.1a1.058,1.058,0,0,0,1.3-.457l2.4-4.161a1.059,1.059,0,0,0-.255-1.356l-2.349-1.881a1.049,1.049,0,0,1-.386-.971A12.426,12.426,0,0,0,131.328,98.943Z" transform="translate(-103.496 -82.694)" fill="#ffd947"/>
        </g>
        <g id="Grupo_1100129" data-name="Grupo 1100129" transform="translate(19.629 18.555)">
          <path id="Trazado_876189" data-name="Trazado 876189" d="M149.926,41.359V32.634a3.143,3.143,0,0,0-3.134-3.134H46.149a3.143,3.143,0,0,0-3.134,3.134v8.725H149.926Z" transform="translate(-43.015 -29.5)" fill="#aee6e6"/>
        </g>
        <g id="Grupo_1100130" data-name="Grupo 1100130" transform="translate(19.629 18.555)">
          <path id="Trazado_876190" data-name="Trazado 876190" d="M56.381,29.5H46.149a3.143,3.143,0,0,0-3.134,3.134v8.725H56.381Z" transform="translate(-43.015 -29.5)" fill="#fc657e"/>
        </g>
        <g id="Grupo_1100136" data-name="Grupo 1100136" transform="translate(110.004 22.733)">
          <path id="Trazado_876194" data-name="Trazado 876194" d="M195.666,39.287h-7.4a1.572,1.572,0,1,1,0-3.145h7.4a1.572,1.572,0,0,1,0,3.145Z" transform="translate(-186.695 -36.142)" fill="#00223d"/>
        </g>
        <g id="Grupo_1100137" data-name="Grupo 1100137" transform="translate(38.463 22.733)">
          <path id="Trazado_876195" data-name="Trazado 876195" d="M139.111,39.287H74.531a1.572,1.572,0,0,1,0-3.145h64.581a1.572,1.572,0,1,1,0,3.145Z" transform="translate(-72.958 -36.142)" fill="#00223d"/>
        </g>
        <g id="Grupo_1100138" data-name="Grupo 1100138" transform="translate(18.579 28.842)">
          <path id="Trazado_876196" data-name="Trazado 876196" d="M148.687,49H42.918a1.572,1.572,0,1,1,0-3.145H148.687a1.572,1.572,0,0,1,0,3.145Z" transform="translate(-41.346 -45.854)" fill="#00223d"/>
        </g>
        <g id="Grupo_1100139" data-name="Grupo 1100139" transform="translate(31.422 17.575)">
          <path id="Trazado_876197" data-name="Trazado 876197" d="M63.336,41.845a1.572,1.572,0,0,1-1.572-1.572V29.513a1.572,1.572,0,0,1,3.145,0V40.273A1.572,1.572,0,0,1,63.336,41.845Z" transform="translate(-61.764 -27.941)" fill="#00223d"/>
        </g>
        <g id="Grupo_1100140" data-name="Grupo 1100140" transform="translate(18.057 16.983)">
          <path id="Trazado_876198" data-name="Trazado 876198" d="M144.9,171.041H46.184a5.675,5.675,0,0,1-5.669-5.669V31.706A4.711,4.711,0,0,1,45.221,27H145.864a4.711,4.711,0,0,1,4.706,4.706V165.371A5.674,5.674,0,0,1,144.9,171.041ZM45.222,30.145a1.563,1.563,0,0,0-1.561,1.561V165.371a2.527,2.527,0,0,0,2.524,2.524H144.9a2.527,2.527,0,0,0,2.524-2.524V31.706a1.563,1.563,0,0,0-1.561-1.561Z" transform="translate(-40.515 -27)" fill="#00223d"/>
        </g>
        <g id="Grupo_1100141" data-name="Grupo 1100141" transform="translate(61.84 91.359)">
          <path id="Trazado_876199" data-name="Trazado 876199" d="M121.368,167.735a11.245,11.245,0,1,1,11.245-11.245A11.258,11.258,0,0,1,121.368,167.735Zm0-19.344a8.1,8.1,0,1,0,8.1,8.1A8.108,8.108,0,0,0,121.368,148.391Z" transform="translate(-110.123 -145.246)" fill="#00223d"/>
        </g>
        <g id="Grupo_1100142" data-name="Grupo 1100142" transform="translate(55.622 110.704)">
          <path id="Trazado_876200" data-name="Trazado 876200" d="M130.7,198.489h-26a4.469,4.469,0,0,1-4.464-4.464v-8.163A9.874,9.874,0,0,1,110.1,176h15.2a9.874,9.874,0,0,1,9.863,9.863v8.163a4.469,4.469,0,0,1-4.465,4.464Zm-20.6-19.344a6.725,6.725,0,0,0-6.718,6.718v8.163a1.321,1.321,0,0,0,1.319,1.319h26a1.321,1.321,0,0,0,1.32-1.319v-8.163a6.725,6.725,0,0,0-6.718-6.718Z" transform="translate(-100.238 -176)" fill="#00223d"/>
        </g>
        <g id="Grupo_1100143" data-name="Grupo 1100143" transform="translate(91.37 83.209)">
          <path id="Trazado_876201" data-name="Trazado 876201" d="M166.461,151.067a9.39,9.39,0,1,1,9.39-9.39A9.4,9.4,0,0,1,166.461,151.067Zm0-15.635a6.245,6.245,0,1,0,6.245,6.245A6.252,6.252,0,0,0,166.461,135.432Z" transform="translate(-157.071 -132.288)" fill="#00223d"/>
        </g>
        <g id="Grupo_1100144" data-name="Grupo 1100144" transform="translate(86.345 98.843)">
          <path id="Trazado_876202" data-name="Trazado 876202" d="M174,175.923H152.992a3.914,3.914,0,0,1-3.91-3.91v-6.6a8.283,8.283,0,0,1,8.273-8.273h12.284a8.282,8.282,0,0,1,8.273,8.273v6.6A3.913,3.913,0,0,1,174,175.923Zm-16.648-15.634a5.134,5.134,0,0,0-5.128,5.128v6.6a.766.766,0,0,0,.765.765H174a.766.766,0,0,0,.765-.765v-6.6a5.134,5.134,0,0,0-5.128-5.128Z" transform="translate(-149.082 -157.143)" fill="#00223d"/>
        </g>
        <g id="Grupo_1100145" data-name="Grupo 1100145" transform="translate(36.019 83.208)">
          <path id="Trazado_876203" data-name="Trazado 876203" d="M78.462,151.067a9.39,9.39,0,1,1,9.39-9.39A9.4,9.4,0,0,1,78.462,151.067Zm0-15.635a6.245,6.245,0,1,0,6.245,6.245A6.252,6.252,0,0,0,78.462,135.432Z" transform="translate(-69.072 -132.287)" fill="#00223d"/>
        </g>
        <g id="Grupo_1100146" data-name="Grupo 1100146" transform="translate(30.993 98.843)">
          <path id="Trazado_876204" data-name="Trazado 876204" d="M86,175.923H64.992a3.915,3.915,0,0,1-3.91-3.91v-6.6a8.283,8.283,0,0,1,8.273-8.273H81.64a8.283,8.283,0,0,1,8.273,8.273v6.6a3.915,3.915,0,0,1-3.91,3.91ZM69.355,160.289a5.134,5.134,0,0,0-5.128,5.128v6.6a.766.766,0,0,0,.765.765H86a.766.766,0,0,0,.765-.765v-6.6a5.134,5.134,0,0,0-5.128-5.128Z" transform="translate(-61.082 -157.143)" fill="#00223d"/>
        </g>
        <g id="Grupo_1100147" data-name="Grupo 1100147" transform="translate(56.094 50.443)">
          <path id="Trazado_876205" data-name="Trazado 876205" d="M120.38,115.837h-4.8a2.616,2.616,0,0,1-2.6-2.234l-.411-2.686a13.927,13.927,0,0,1-3.049-1.762l-2.534.988a2.619,2.619,0,0,1-3.235-1.135l-2.4-4.162a2.618,2.618,0,0,1,.633-3.369l2.121-1.7a14,14,0,0,1,0-3.524l-2.12-1.7a2.617,2.617,0,0,1-.634-3.369l2.4-4.161a2.618,2.618,0,0,1,3.234-1.136l2.535.989a13.952,13.952,0,0,1,3.049-1.762l.411-2.686a2.616,2.616,0,0,1,2.6-2.234h4.8a2.617,2.617,0,0,1,2.6,2.234l.411,2.686a13.956,13.956,0,0,1,3.049,1.762l2.534-.989a2.617,2.617,0,0,1,3.236,1.137l2.4,4.161a2.616,2.616,0,0,1-.634,3.37l-2.12,1.7a13.924,13.924,0,0,1,0,3.524l2.12,1.7a2.617,2.617,0,0,1,.634,3.37l-2.4,4.161a2.617,2.617,0,0,1-3.234,1.136l-2.534-.989a13.956,13.956,0,0,1-3.049,1.762l-.411,2.686a2.618,2.618,0,0,1-2.6,2.234Zm-4.363-3.145h3.922l.388-2.539a2.624,2.624,0,0,1,1.618-2.042,10.8,10.8,0,0,0,2.784-1.61,2.623,2.623,0,0,1,2.581-.382l2.4.934,1.961-3.4-2.005-1.605a2.631,2.631,0,0,1-.957-2.429,10.878,10.878,0,0,0,0-3.208,2.63,2.63,0,0,1,.957-2.429l2.006-1.606-1.961-3.4-2.4.935a2.622,2.622,0,0,1-2.581-.382,10.819,10.819,0,0,0-2.784-1.61,2.622,2.622,0,0,1-1.619-2.044l-.388-2.539h-3.922l-.388,2.539a2.623,2.623,0,0,1-1.618,2.043,10.821,10.821,0,0,0-2.784,1.609,2.622,2.622,0,0,1-2.581.382l-2.4-.934-1.961,3.4,2.005,1.606a2.628,2.628,0,0,1,.957,2.43,10.863,10.863,0,0,0,0,3.205,2.63,2.63,0,0,1-.958,2.431l-2.005,1.606,1.961,3.4,2.4-.935a2.623,2.623,0,0,1,2.581.382,10.826,10.826,0,0,0,2.784,1.61,2.621,2.621,0,0,1,1.619,2.043Zm16-8.761h.006Z" transform="translate(-100.987 -80.195)" fill="#00223d"/>
        </g>
        <g id="Grupo_1100148" data-name="Grupo 1100148" transform="translate(67.625 64.034)">
          <path id="Trazado_876206" data-name="Trazado 876206" d="M124.231,110.838a1.572,1.572,0,0,1-1.112-.46l-3.337-3.337A1.572,1.572,0,0,1,122,104.817l2.226,2.225,4.778-4.778a1.572,1.572,0,0,1,2.224,2.224l-5.889,5.89A1.572,1.572,0,0,1,124.231,110.838Z" transform="translate(-119.32 -101.803)"/>
        </g>
      </g>
    </g>
  </g>
</svg>
