<svg xmlns="http://www.w3.org/2000/svg" width="129.737" height="112.476" viewBox="0 0 129.737 112.476">
  <g id="Grupo_1102053" data-name="Grupo 1102053" transform="translate(-1052.264 -5856.333)">
    <path id="_12068" data-name="12068" d="M98.737,72.292c-13.285-1.834-27.318-1.386-39.407,4.421-16.765,8.052-27.775,26.309-28.2,44.9S40.4,158.479,55.36,169.523s34.7,14.959,53,11.643c18.453-3.344,35.773-14.186,45.4-30.28,6.172-10.321,9.057-23.065,5.647-34.6-2.059-6.961-6.267-13.128-11.217-18.437A82.875,82.875,0,0,0,98.737,72.292Z" transform="translate(1021.145 5786.5)" fill="#26aab7"/>
    <g id="Layer_x0020_1" transform="translate(1061.132 5852.813)">
      <path id="Trazado_875972" data-name="Trazado 875972" d="M0,20V9.167A4.152,4.152,0,0,1,4.147,5.02H44.365L40.352,20H0ZM46.57,5.02h5.916L48.473,20H42.557Zm8.122,0h50.276a4.152,4.152,0,0,1,4.147,4.147V20H50.679Zm3.77,27.8a5.425,5.425,0,1,0,5.426,5.424A5.431,5.431,0,0,0,58.462,32.819ZM25.431,95.156a5.425,5.425,0,1,0,5.424,5.424A5.431,5.431,0,0,0,25.431,95.156Zm56.474,0a5.425,5.425,0,1,0,5.426,5.424A5.431,5.431,0,0,0,81.905,95.156Zm0-34.9a5.425,5.425,0,1,0,5.426,5.424A5.431,5.431,0,0,0,81.905,60.258Zm-23.443,0a5.425,5.425,0,1,0,5.426,5.424A5.431,5.431,0,0,0,58.462,60.258Zm-19.387-11.1H23.507a2.052,2.052,0,0,1-2.05-2.05V46.028a2.052,2.052,0,0,1,2.05-2.05H39.075a2.052,2.052,0,0,1,2.05,2.05V47.1A2.054,2.054,0,0,1,39.075,49.154ZM23.59,47.023h15.4v-.914H23.59ZM36.5,35.562a1.065,1.065,0,0,1-.759-.318l-4.448-4.507L26.84,35.244a1.065,1.065,0,0,1-1.824-.748V25.991H19.553a.523.523,0,0,0-.516.516V49.981a.523.523,0,0,0,.516.516H43.028a.523.523,0,0,0,.516-.516V26.506a.523.523,0,0,0-.516-.516H37.566V34.5A1.065,1.065,0,0,1,36.5,35.562Zm-9.354-9.571V31.9l3.389-3.429a1.068,1.068,0,0,1,1.517,0L35.435,31.9V25.991ZM31.735,14.64H28.882a1.066,1.066,0,0,1,0-2.131h2.854a1.066,1.066,0,0,1,0,2.131Zm-9.808,0H19.074a1.066,1.066,0,0,1,0-2.131h2.854a1.066,1.066,0,0,1,0,2.131Zm-9.808,0H9.268a1.066,1.066,0,0,1,0-2.131H12.12a1.066,1.066,0,0,1,0,2.131Z" transform="translate(0)" fill="#ff5023" stroke="#fff" stroke-width="3" fill-rule="evenodd"/>
      <path id="Trazado_875973" data-name="Trazado 875973" d="M16.907,113.152V89.677a2.651,2.651,0,0,1,2.647-2.649H43.028a2.651,2.651,0,0,1,2.647,2.649v10.671h5.307a7.556,7.556,0,1,1,8.546,8.546v12.478a7.572,7.572,0,0,1,6.415,6.415h8.482a7.556,7.556,0,1,1,8.546,8.546V156.27a7.556,7.556,0,1,1-8.546,8.546H32.912a7.555,7.555,0,1,1,0-2.131H74.425a7.577,7.577,0,0,1,6.415-6.415V136.333a7.573,7.573,0,0,1-6.415-6.415H65.943a7.555,7.555,0,1,1-8.546-8.546V108.894a7.573,7.573,0,0,1-6.415-6.415H45.675v10.673a2.649,2.649,0,0,1-2.647,2.647H19.553a2.649,2.649,0,0,1-2.647-2.647Zm92.209,57.87V85.3H0v85.72a4.152,4.152,0,0,0,4.147,4.147H104.968a4.152,4.152,0,0,0,4.147-4.145Z" transform="translate(0 -63.171)" fill="#7d6eb2" stroke="#fff" stroke-width="3" fill-rule="evenodd"/>
    </g>
  </g>
</svg>
