<svg xmlns="http://www.w3.org/2000/svg" width="139.737" height="148.529" viewBox="0 0 139.737 148.529">
  <g id="Grupo_1102052" data-name="Grupo 1102052" transform="translate(-1203 -21230)">
    <path id="_12068" data-name="12068" d="M103.949,72.366C89.64,70.39,74.525,70.874,61.5,77.128,43.447,85.8,31.588,105.464,31.133,125.491s9.978,39.705,26.1,51.6S94.6,193.2,114.312,189.632c19.875-3.6,38.53-15.279,48.9-32.614,6.648-11.116,9.755-24.842,6.082-37.264-2.217-7.5-6.75-14.14-12.082-19.858A89.263,89.263,0,0,0,103.949,72.366Z" transform="translate(1171.881 21187.668)" fill="#26aab7"/>
    <g id="de-igual-a-igual" transform="translate(1213 21220.809)">
      <g id="Grupo_1101967" data-name="Grupo 1101967" transform="translate(1.767 10.958)">
        <path id="Trazado_881181" data-name="Trazado 881181" d="M211.183,20.691V52.274H204.03V23.845H173.5l-12.6,12.6h2.9c4.679.021,4.677,7.132,0,7.153H152.272a3.576,3.576,0,0,1-3.577-3.577V28.585a3.642,3.642,0,0,1,3.407-3.673,3.576,3.576,0,0,1,3.746,3.573v2.9l12.427-12.428a7.729,7.729,0,0,1,5.465-2.264h33.444a4,4,0,0,1,4,4Z" transform="translate(-115.428 -16.692)" fill="#80d261"/>
        <path id="Trazado_881182" data-name="Trazado 881182" d="M377.7,20.691V52.272h-7.153V23.843h-.007V20.691a4,4,0,0,0-4-4H373.7a4,4,0,0,1,4,4Z" transform="translate(-281.947 -16.69)" fill="#68ca44"/>
        <path id="Trazado_881183" data-name="Trazado 881183" d="M94.894,375.876V344.293h7.153v28.429h30.528l12.6-12.6h-2.9c-4.679-.021-4.677-7.132,0-7.153h11.538a3.576,3.576,0,0,1,3.577,3.577v11.437a3.642,3.642,0,0,1-3.407,3.673,3.576,3.576,0,0,1-3.746-3.573v-2.9L137.8,377.611a7.729,7.729,0,0,1-5.465,2.264H98.893a4,4,0,0,1-4-4Z" transform="translate(-74.303 -267.106)" fill="#80d261"/>
        <path id="Trazado_881184" data-name="Trazado 881184" d="M329.389,384.687v11.439a3.643,3.643,0,0,1-3.407,3.673,3.571,3.571,0,0,1-3.134-1.572,3.726,3.726,0,0,0,.648-2.1V384.687a3.576,3.576,0,0,0-3.577-3.577h5.893A3.576,3.576,0,0,1,329.389,384.687Z" transform="translate(-246.311 -295.249)" fill="#68ca44"/>
        <g id="Grupo_1101966" data-name="Grupo 1101966" transform="translate(0 31.15)">
          <g id="Grupo_1101964" data-name="Grupo 1101964">
            <path id="Trazado_881185" data-name="Trazado 881185" d="M32.476,198.854a24.973,24.973,0,1,1,12.631-3.428A24.94,24.94,0,0,1,32.476,198.854Z" transform="translate(-7.5 -148.9)" fill="#d8ecfe"/>
            <path id="Trazado_881186" data-name="Trazado 881186" d="M98.206,148.9a24.987,24.987,0,0,0-4.716.449,24.975,24.975,0,0,1,0,49.055,24.976,24.976,0,1,0,4.715-49.5Z" transform="translate(-73.23 -148.9)" fill="#c4e2ff"/>
            <path id="Trazado_881187" data-name="Trazado 881187" d="M73.361,196.876a17.887,17.887,0,1,1-17.887-17.89,17.877,17.877,0,0,1,17.887,17.89Z" transform="translate(-30.497 -171.897)" fill="#7d6eb2"/>
            <path id="Trazado_881188" data-name="Trazado 881188" d="M161.707,196.292a24.9,24.9,0,0,1-.015,27.632,17.887,17.887,0,0,0,.015-27.632Z" transform="translate(-125.363 -185.126)" fill="#4f66d0"/>
            <path id="Trazado_881189" data-name="Trazado 881189" d="M93.21,280.487a17.9,17.9,0,0,1-18.086,0l1.1-5.739a8.089,8.089,0,0,1,15.891,0Z" transform="translate(-59.191 -240.074)" fill="#60b7ff"/>
            <path id="Trazado_881190" data-name="Trazado 881190" d="M93.21,280.487a17.9,17.9,0,0,1-18.086,0l1.1-5.739a8.089,8.089,0,0,1,15.891,0Z" transform="translate(-59.191 -240.074)" fill="#60b7ff"/>
            <path id="Trazado_881191" data-name="Trazado 881191" d="M94.09,228.352h-1a5.639,5.639,0,0,1-5.639-5.639v-2.751a3.885,3.885,0,0,1,3.885-3.885h4.506a3.885,3.885,0,0,1,3.885,3.885v2.751A5.639,5.639,0,0,1,94.09,228.352Z" transform="translate(-68.616 -200.249)" fill="#ffe5c2"/>
          </g>
          <g id="Grupo_1101965" data-name="Grupo 1101965" transform="translate(67.146)">
            <path id="Trazado_881192" data-name="Trazado 881192" d="M317.466,198.855a24.972,24.972,0,1,1,12.631-3.428A24.939,24.939,0,0,1,317.466,198.855Z" transform="translate(-292.49 -148.901)" fill="#d8ecfe"/>
            <path id="Trazado_881193" data-name="Trazado 881193" d="M383.2,148.9a24.987,24.987,0,0,0-4.716.449,24.975,24.975,0,0,1,0,49.055,24.976,24.976,0,1,0,4.715-49.5Z" transform="translate(-358.22 -148.9)" fill="#c4e2ff"/>
            <path id="Trazado_881194" data-name="Trazado 881194" d="M358.351,196.876a17.887,17.887,0,1,1-17.887-17.89,17.877,17.877,0,0,1,17.887,17.89Z" transform="translate(-315.487 -171.897)" fill="#62529b"/>
            <path id="Trazado_881195" data-name="Trazado 881195" d="M446.7,196.292a24.9,24.9,0,0,1-.015,27.632,17.887,17.887,0,0,0,.015-27.632Z" transform="translate(-410.353 -185.126)" fill="#4f66d0"/>
            <path id="Trazado_881196" data-name="Trazado 881196" d="M378.2,280.487a17.9,17.9,0,0,1-18.086,0l1.1-5.739a8.089,8.089,0,0,1,15.891,0Z" transform="translate(-344.181 -240.074)" fill="#cb97e7"/>
            <path id="Trazado_881197" data-name="Trazado 881197" d="M379.081,228.352h-1a5.639,5.639,0,0,1-5.639-5.639v-2.751a3.885,3.885,0,0,1,3.885-3.885h4.506a3.885,3.885,0,0,1,3.885,3.885v2.751A5.639,5.639,0,0,1,379.081,228.352Z" transform="translate(-353.607 -200.249)" fill="#ffbd86"/>
          </g>
        </g>
      </g>
      <g id="Grupo_1101968" data-name="Grupo 1101968" transform="translate(0 9.191)">
        <path id="Trazado_881198" data-name="Trazado 881198" d="M81.269,196.111H69.723a5.152,5.152,0,0,0-5.268,5.344,5.092,5.092,0,0,0,4.052,5.2l-9.719,9.723a1.767,1.767,0,1,0,2.5,2.5l12.6-12.6a1.767,1.767,0,0,0-1.25-3.016H69.739a1.811,1.811,0,0,1-.008-3.619H81.269a1.812,1.812,0,0,1,1.81,1.809v11.439a1.883,1.883,0,0,1-1.721,1.908,1.81,1.81,0,0,1-1.9-1.809v-2.9a1.767,1.767,0,0,0-3.017-1.249L64.016,221.272a5.914,5.914,0,0,1-4.213,1.745H26.358a2.235,2.235,0,0,1-2.234-2.231V194.759a27.831,27.831,0,0,0,3.619.109v22.764A1.767,1.767,0,0,0,29.51,219.4H51.768a1.767,1.767,0,0,0,0-3.534H31.277V194.5a26.73,26.73,0,1,0-10.687-.328v26.615a5.773,5.773,0,0,0,5.768,5.765H59.8a9.422,9.422,0,0,0,6.713-2.782l9.553-9.554a5.374,5.374,0,0,0,1.51,2.643,5.3,5.3,0,0,0,3.942,1.473,5.387,5.387,0,0,0,5.092-5.438V201.455a5.35,5.35,0,0,0-5.344-5.344ZM3.534,168.145a23.209,23.209,0,1,1,46.417,0c.208,12.375-10.642,23.43-23.209,23.209A23.206,23.206,0,0,1,3.534,168.145Z" transform="translate(0 -110.25)"/>
        <path id="Trazado_881199" data-name="Trazado 881199" d="M51.052,210.753A19.652,19.652,0,1,0,39.8,208.1,19.77,19.77,0,0,0,51.052,210.753Zm-2.144-3.514a15.321,15.321,0,0,1-6.229-1.605l.854-4.464a6.322,6.322,0,0,1,12.419,0l.854,4.463a16.057,16.057,0,0,1-7.9,1.605Zm.336-14.739a3.877,3.877,0,0,1-3.872-3.872v-2.751a2.12,2.12,0,0,1,2.118-2.118h4.506a2.12,2.12,0,0,1,2.118,2.118v2.751A3.877,3.877,0,0,1,50.24,192.5Zm-15.622-1.358a16.12,16.12,0,1,1,26.386,12.423l-.585-3.059a9.851,9.851,0,0,0-4.244-6.365,7.389,7.389,0,0,0,2.468-5.514v-2.751a5.658,5.658,0,0,0-5.652-5.652H47.489a5.658,5.658,0,0,0-5.652,5.652v2.751a7.389,7.389,0,0,0,2.468,5.514,9.85,9.85,0,0,0-4.244,6.365l-.585,3.06a16.2,16.2,0,0,1-5.853-12.424Z" transform="translate(-22.999 -133.248)"/>
        <path id="Trazado_881200" data-name="Trazado 881200" d="M207.212,40.889V14.958a5.773,5.773,0,0,0-5.765-5.767H168a9.433,9.433,0,0,0-6.713,2.782l-9.555,9.555a5.368,5.368,0,0,0-1.51-2.642,5.307,5.307,0,0,0-3.938-1.473,5.385,5.385,0,0,0-5.1,5.438V34.288a5.35,5.35,0,0,0,5.344,5.344h11.546a5.152,5.152,0,0,0,5.268-5.344,5.092,5.092,0,0,0-4.052-5.2l9.2-9.205h28.029V33.937a1.767,1.767,0,0,0,3.534,0V18.111a1.767,1.767,0,0,0-1.767-1.767H167.764a1.768,1.768,0,0,0-1.25.518l-12.6,12.6a1.767,1.767,0,0,0,1.25,3.017h2.895a1.811,1.811,0,0,1,.008,3.619H146.533a1.811,1.811,0,0,1-1.809-1.809V22.851a1.882,1.882,0,0,1,1.723-1.908,1.808,1.808,0,0,1,1.9,1.807v2.9a1.767,1.767,0,0,0,3.017,1.25l12.428-12.428A5.923,5.923,0,0,1,168,12.725h33.445a2.235,2.235,0,0,1,2.231,2.233V40.407c-.616-.043-1.238-.066-1.865-.066a26.727,26.727,0,1,0,5.4.548Zm6.336,46.221a23.211,23.211,0,1,1,11.474-20.024A23.4,23.4,0,0,1,213.548,87.11Z" transform="translate(-107.923 -9.191)"/>
        <path id="Trazado_881201" data-name="Trazado 881201" d="M334.73,171.486a19.656,19.656,0,1,0,19.654,19.657,19.678,19.678,0,0,0-19.654-19.657Zm-.834,35.753a15.34,15.34,0,0,1-6.229-1.605l.854-4.464a6.322,6.322,0,0,1,12.419,0l.854,4.463A15.408,15.408,0,0,1,333.9,207.239Zm.336-14.739a3.877,3.877,0,0,1-3.872-3.872v-2.751a2.12,2.12,0,0,1,2.118-2.118h4.506a2.12,2.12,0,0,1,2.118,2.118v2.751a3.877,3.877,0,0,1-3.872,3.872ZM345,203.566l-.585-3.059a9.85,9.85,0,0,0-4.244-6.365,7.389,7.389,0,0,0,2.468-5.514v-2.751a5.658,5.658,0,0,0-5.652-5.652h-4.506a5.658,5.658,0,0,0-5.652,5.652v2.751a7.389,7.389,0,0,0,2.468,5.514,9.849,9.849,0,0,0-4.244,6.365l-.585,3.06a16.12,16.12,0,1,1,20.532,0Z" transform="translate(-240.841 -133.248)"/>
      </g>
    </g>
  </g>
</svg>
