<svg xmlns="http://www.w3.org/2000/svg" width="78.501" height="74.27" viewBox="0 0 78.501 74.27">
  <g id="Grupo_1101734" data-name="Grupo 1101734" transform="translate(-253 -2613.602)">
    <path id="_12068" data-name="12068" d="M72.033,71.913c-8.038-1.11-16.53-.839-23.844,2.675C38.045,79.46,31.382,90.507,31.127,101.757s5.606,22.305,14.66,28.988,21,9.051,32.068,7.045c11.165-2.023,21.645-8.583,27.469-18.322,3.735-6.245,5.48-13.956,3.417-20.934a28.6,28.6,0,0,0-6.787-11.156A50.145,50.145,0,0,0,72.033,71.913Z" transform="translate(221.881 2549.391)" fill="#26aab7"/>
    <g id="Layer_33" data-name="Layer 33" transform="translate(259 2613.602)">
      <path id="Trazado_880284" data-name="Trazado 880284" d="M36.274,43.41V64.124H1V43.41a8.3,8.3,0,0,1,6.018-7.98L15.525,33H21.75l8.507,2.43A8.3,8.3,0,0,1,36.274,43.41Z" transform="translate(0.037 1.237)" fill="#7d6eb2"/>
      <path id="Trazado_880285" data-name="Trazado 880285" d="M10.13,35.43,18.637,33H15.525L7.017,35.43A8.3,8.3,0,0,0,1,43.41V64.124H4.112V43.41a8.3,8.3,0,0,1,6.018-7.98Z" transform="translate(0.037 1.237)" fill="#62529b"/>
      <path id="Trazado_880286" data-name="Trazado 880286" d="M15,28h6.225v7.262H15Z" transform="translate(0.562 1.049)" fill="#f7d1c6"/>
      <path id="Trazado_880287" data-name="Trazado 880287" d="M46.45,3A12.45,12.45,0,0,1,58.9,15.45v33.2H34V15.45A12.45,12.45,0,0,1,46.45,3Z" transform="translate(1.274 0.112)" fill="#ffd947"/>
      <path id="Trazado_880288" data-name="Trazado 880288" d="M48.006,3.1A12.374,12.374,0,0,0,34,15.45v33.2h3.112V15.45A12.443,12.443,0,0,1,48.005,3.1Z" transform="translate(1.274 0.112)" fill="#e0bc34"/>
      <path id="Trazado_880289" data-name="Trazado 880289" d="M64.274,45.41V64.049H29V45.41a8.3,8.3,0,0,1,6.018-7.98L43.525,35H49.75l8.507,2.43A8.3,8.3,0,0,1,64.274,45.41Z" transform="translate(1.087 1.312)" fill="#f2a7b1"/>
      <path id="Trazado_880290" data-name="Trazado 880290" d="M38.13,37.43,46.637,35H43.525l-8.507,2.43A8.3,8.3,0,0,0,29,45.41V64.049h3.112V45.41a8.3,8.3,0,0,1,6.018-7.98Z" transform="translate(1.087 1.312)" fill="#e8859b"/>
      <path id="Trazado_880291" data-name="Trazado 880291" d="M43,30h6.225v5.187a3.112,3.112,0,0,1-6.225,0Z" transform="translate(1.611 1.124)" fill="#f7d1c6"/>
      <path id="Trazado_880292" data-name="Trazado 880292" d="M9,11H27.675V22.412A9.337,9.337,0,0,1,9,22.412Z" transform="translate(0.337 0.412)" fill="#f7d1c6"/>
      <path id="Trazado_880293" data-name="Trazado 880293" d="M12.112,22.412V11H9V22.412a9.286,9.286,0,0,0,10.893,9.2,9.332,9.332,0,0,1-7.781-9.2Z" transform="translate(0.337 0.412)" fill="#f4b19f"/>
      <path id="Trazado_880294" data-name="Trazado 880294" d="M9.112,15v6.225a3.112,3.112,0,1,1,0-6.225Z" transform="translate(0.225 0.562)" fill="#f4b19f"/>
      <path id="Trazado_880295" data-name="Trazado 880295" d="M3.112,0V6.225A3.112,3.112,0,0,1,3.112,0Z" transform="translate(31.124 21.787) rotate(180)" fill="#f7d1c6"/>
      <path id="Trazado_880296" data-name="Trazado 880296" d="M46.337,33.75A9.337,9.337,0,0,1,37,24.412V17.15h4.15a8.3,8.3,0,0,0,6.64-3.32l.622-.83.622.83a8.3,8.3,0,0,0,6.64,3.32v7.262A9.337,9.337,0,0,1,46.337,33.75Z" transform="translate(1.387 0.487)" fill="#f7d1c6"/>
      <path id="Trazado_880297" data-name="Trazado 880297" d="M40.112,24.262V17H37v7.262a9.286,9.286,0,0,0,10.893,9.2,9.332,9.332,0,0,1-7.781-9.2Z" transform="translate(1.387 0.637)" fill="#f4b19f"/>
      <path id="Trazado_880298" data-name="Trazado 880298" d="M37.112,17v6.225a3.112,3.112,0,0,1,0-6.225Z" transform="translate(1.274 0.637)" fill="#f4b19f"/>
      <path id="Trazado_880299" data-name="Trazado 880299" d="M3.112,0V6.225A3.112,3.112,0,0,1,3.112,0Z" transform="translate(60.174 23.862) rotate(180)" fill="#f7d1c6"/>
      <path id="Trazado_880300" data-name="Trazado 880300" d="M24.675,4.1V3.075A2.075,2.075,0,0,0,22.6,1H14.626A8.626,8.626,0,0,0,6,9.626a5.9,5.9,0,0,0,5.9,5.9,18.675,18.675,0,0,0,11.665-4.092l.073-.058a4.15,4.15,0,0,0,4.15,4.15V6.175A2.075,2.075,0,0,0,25.712,4.1Z" transform="translate(0.225 0.037)" fill="#c67a60"/>
      <path id="Trazado_880301" data-name="Trazado 880301" d="M9.112,9.626A8.626,8.626,0,0,1,17.738,1H14.626A8.626,8.626,0,0,0,6,9.626a5.9,5.9,0,0,0,5.9,5.9,18.616,18.616,0,0,0,1.957-.115A5.9,5.9,0,0,1,9.112,9.626Z" transform="translate(0.225 0.037)" fill="#b26049"/>
      <path id="Trazado_880302" data-name="Trazado 880302" d="M29,51h6.225V63.437H29Z" transform="translate(1.087 1.911)" fill="#f7d1c6"/>
      <path id="Trazado_880303" data-name="Trazado 880303" d="M29,51h3.112V63.437H29Z" transform="translate(1.087 1.911)" fill="#f4b19f"/>
      <path id="Trazado_880304" data-name="Trazado 880304" d="M57,51.012h6.225V63.449H57Z" transform="translate(2.136 1.912)" fill="#f7d1c6"/>
      <path id="Trazado_880305" data-name="Trazado 880305" d="M18.187,35.112,15.075,32,13,34.075l2.075,5.187Z" transform="translate(0.487 1.199)" fill="#62529b"/>
      <path id="Trazado_880306" data-name="Trazado 880306" d="M18,35.112,21.112,32l2.075,2.075-2.075,5.187Z" transform="translate(0.675 1.199)" fill="#62529b"/>
      <path id="Trazado_880307" data-name="Trazado 880307" d="M61.211,38.366v-22.8a13.487,13.487,0,1,0-26.974,0V37.7a9.309,9.309,0,0,0-3.659-2.026l-6.8-1.951L22.52,32.465l-.013-.009a10.384,10.384,0,0,0,6.542-9.631v-.147a4.13,4.13,0,0,0,0-8.005V6.212A3.112,3.112,0,0,0,25.937,3.1,3.112,3.112,0,0,0,22.824,0H14.85A9.673,9.673,0,0,0,5.187,9.663a6.919,6.919,0,0,0,2.418,5.252A4.131,4.131,0,0,0,8.3,22.677v.147a10.384,10.384,0,0,0,6.542,9.632l-.013.009-1.263,1.263L6.773,35.669A9.376,9.376,0,0,0,0,44.647V65.361A1.037,1.037,0,0,0,1.037,66.4H65.361A1.037,1.037,0,0,0,66.4,65.361V46.722a9.38,9.38,0,0,0-5.187-8.356ZM29.049,16.879a2.075,2.075,0,0,1,0,3.592Zm7.262-1.317a11.412,11.412,0,0,1,22.824,0v1.614a4.107,4.107,0,0,0-2.075-.577,7.3,7.3,0,0,1-5.81-2.9l-.622-.83a1.075,1.075,0,0,0-1.66,0l-.622.83a7.3,7.3,0,0,1-5.81,2.9h-4.15a4.107,4.107,0,0,0-2.075.577ZM47.724,33.2a8.309,8.309,0,0,1-8.3-8.3V18.675h3.112A9.383,9.383,0,0,0,49.8,15.205a9.388,9.388,0,0,0,6.225,3.41V24.9A8.309,8.309,0,0,1,47.724,33.2ZM49.8,35.067v1.245a2.075,2.075,0,0,1-4.15,0V35.067a10.375,10.375,0,0,0,4.15,0Zm2.075-.663A10.385,10.385,0,0,0,58.1,24.9v-.147a4.115,4.115,0,0,0,1.037-.43V37.6l-7.262-2.075ZM58.1,22.547V18.954a2.075,2.075,0,0,1,0,3.592Zm-20.75-3.594v3.592a2.075,2.075,0,0,1,0-3.592Zm-1.037,5.369a4.115,4.115,0,0,0,1.037.43V24.9a10.385,10.385,0,0,0,6.225,9.5v1.128L36.312,37.6Zm-13.667,11.2L21.5,38.366l-1.46-1.957,1.743-1.743Zm-3.97-.683L16.86,33.03a9.82,9.82,0,0,0,3.631,0ZM8.3,20.47a2.075,2.075,0,0,1,0-3.592ZM7.262,9.663A7.6,7.6,0,0,1,14.85,2.075h7.974a1.037,1.037,0,0,1,1.037,1.037V4.137A1.037,1.037,0,0,0,24.9,5.175h1.037a1.037,1.037,0,0,1,1.037,1.037v8.135A3.119,3.119,0,0,1,24.9,11.412a1.037,1.037,0,0,0-.622-.907,1.108,1.108,0,0,0-1.133.155,17.7,17.7,0,0,1-11.02,3.865A4.867,4.867,0,0,1,7.262,9.663Zm3.112,13.161V16.367a6.907,6.907,0,0,0,1.749.232,19.8,19.8,0,0,0,11.025-3.379,5.2,5.2,0,0,0,3.825,3.262v6.342a8.3,8.3,0,1,1-16.6,0Zm5.187,11.842,1.743,1.743L15.84,38.363,14.7,35.524ZM29.049,46.722v17.6H8.3V46.686a1.037,1.037,0,0,0-2.075,0V64.323H2.075V44.647A7.292,7.292,0,0,1,7.342,37.66l5.37-1.534L14.6,40.843a1.037,1.037,0,0,0,.83.642,1.009,1.009,0,0,0,.134.013,1.037,1.037,0,0,0,.83-.415l2.282-3.043,2.282,3.043a1.037,1.037,0,0,0,.83.415,1.009,1.009,0,0,0,.136-.009,1.037,1.037,0,0,0,.83-.642l1.886-4.717,5.368,1.53a7.249,7.249,0,0,1,2.833,1.562,9.369,9.369,0,0,0-3.791,7.5Zm6.225,17.589h-4.15V53.949h4.15Zm29.049.012h-4.15V53.961h4.15Zm0-12.437H59.136A1.037,1.037,0,0,0,58.1,52.924v11.4H37.349V52.911a1.037,1.037,0,0,0-1.037-1.037H31.124V46.722a7.292,7.292,0,0,1,5.267-6.982l7.415-2.119a4.122,4.122,0,0,0,7.836,0l7.414,2.114a7.292,7.292,0,0,1,5.267,6.986Z" transform="translate(0 0)" fill="#00223d"/>
      <path id="Trazado_880308" data-name="Trazado 880308" d="M13.037,17A1.037,1.037,0,0,0,12,18.037v1.037a1.037,1.037,0,0,0,2.075,0V18.037A1.037,1.037,0,0,0,13.037,17Z" transform="translate(0.45 0.637)"/>
      <path id="Trazado_880309" data-name="Trazado 880309" d="M23.037,20.112a1.037,1.037,0,0,0,1.037-1.037V18.037a1.037,1.037,0,0,0-2.075,0v1.037A1.037,1.037,0,0,0,23.037,20.112Z" transform="translate(0.824 0.637)"/>
      <path id="Trazado_880310" data-name="Trazado 880310" d="M20.921,26.771A1.037,1.037,0,1,0,19.454,25.3a1.594,1.594,0,0,1-2.683,0A1.037,1.037,0,1,0,15.3,26.771a4.007,4.007,0,0,0,2.809,1.341A4.007,4.007,0,0,0,20.921,26.771Z" transform="translate(0.562 0.937)"/>
      <path id="Trazado_880311" data-name="Trazado 880311" d="M41.037,19A1.037,1.037,0,0,0,40,20.037v1.037a1.037,1.037,0,0,0,2.075,0V20.037A1.037,1.037,0,0,0,41.037,19Z" transform="translate(1.499 0.712)"/>
      <path id="Trazado_880312" data-name="Trazado 880312" d="M52.075,21.075V20.037a1.037,1.037,0,0,0-2.075,0v1.037a1.037,1.037,0,0,0,2.075,0Z" transform="translate(1.874 0.712)"/>
      <path id="Trazado_880313" data-name="Trazado 880313" d="M47.454,27.3a1.594,1.594,0,0,1-2.683,0A1.037,1.037,0,1,0,43.3,28.771a3.615,3.615,0,0,0,5.617,0A1.037,1.037,0,1,0,47.454,27.3Z" transform="translate(1.611 1.012)"/>
    </g>
  </g>
</svg>
