<svg xmlns="http://www.w3.org/2000/svg" width="78.501" height="74.27" viewBox="0 0 78.501 74.27">
  <g id="Grupo_1101790" data-name="Grupo 1101790" transform="translate(-253 -3040.996)">
    <path id="_12068" data-name="12068" d="M72.033,71.913c-8.038-1.11-16.53-.839-23.844,2.675C38.045,79.46,31.382,90.507,31.127,101.757s5.606,22.305,14.66,28.988,21,9.051,32.068,7.045c11.165-2.023,21.645-8.583,27.469-18.322,3.735-6.245,5.48-13.956,3.417-20.934a28.6,28.6,0,0,0-6.787-11.156A50.145,50.145,0,0,0,72.033,71.913Z" transform="translate(221.881 2976.785)" fill="#26aab7"/>
    <g id="computadora" transform="translate(259.249 3040.996)">
      <path id="Trazado_880392" data-name="Trazado 880392" d="M36.25,56v7.219H28V56Z" transform="translate(0.877 1.753)" fill="#62529b"/>
      <path id="Trazado_880393" data-name="Trazado 880393" d="M64.075,24.5a11.135,11.135,0,0,0-2.455-3.682A11.35,11.35,0,0,0,53.6,17.5H51.421a18.558,18.558,0,0,0-35.075-6.178l-.01-.01h-.9A14.437,14.437,0,0,0,1,25.753,14.689,14.689,0,0,0,14.407,40.21V34A3.09,3.09,0,0,1,17.5,30.908H48.44A3.09,3.09,0,0,1,51.534,34V40.19H53.6A11.339,11.339,0,0,0,64.075,24.5Z" transform="translate(0.031 0.031)" fill="#e6ecf4"/>
      <path id="Trazado_880394" data-name="Trazado 880394" d="M51.127,51v2.063a3.09,3.09,0,0,1-3.094,3.094H17.094A3.09,3.09,0,0,1,14,53.063V51Z" transform="translate(0.438 1.597)" fill="#7d6eb2"/>
      <path id="Trazado_880395" data-name="Trazado 880395" d="M51.127,39.282V51.658H14V33.094A3.09,3.09,0,0,1,17.094,30H48.033a3.09,3.09,0,0,1,3.094,3.094Z" transform="translate(0.438 0.939)" fill="#aee6e6"/>
      <g id="layer38" transform="translate(-0.001 0)">
        <g id="g32520">
          <g id="path10771" transform="translate(23.721 15.469)">
            <path id="Trazado_880396" data-name="Trazado 880396" d="M28.157,25.312H26.094A3.1,3.1,0,0,1,23,22.218V18.093A3.1,3.1,0,0,1,26.094,15h2.063a3.1,3.1,0,0,1,3.094,3.094v4.125a3.1,3.1,0,0,1-3.094,3.094Zm-2.063-8.25a1.032,1.032,0,0,0-1.031,1.031v4.125a1.032,1.032,0,0,0,1.031,1.031h2.063a1.032,1.032,0,0,0,1.031-1.031V18.093a1.032,1.032,0,0,0-1.031-1.031Z" transform="translate(-23 -14.999)" fill="#59836b"/>
          </g>
          <g id="path10775" transform="translate(34.034 15.469)">
            <path id="Trazado_880397" data-name="Trazado 880397" d="M38.157,25.312H34.031a1.031,1.031,0,0,1,0-2.063h4.125a1.031,1.031,0,0,0,0-2.063H36.094a3.094,3.094,0,0,1,0-6.188h4.125a1.031,1.031,0,0,1,0,2.063H36.094a1.031,1.031,0,0,0,0,2.063h2.063a3.094,3.094,0,0,1,0,6.188Z" transform="translate(-33 -14.999)" fill="#59836b"/>
          </g>
          <g id="path10779" transform="translate(13.406)">
            <path id="Trazado_880398" data-name="Trazado 880398" d="M51.157,20.626a1.031,1.031,0,0,1-1.031-1.031,17.532,17.532,0,1,0-35.065,0,1.031,1.031,0,0,1-2.063,0,19.595,19.595,0,0,1,39.19,0,1.031,1.031,0,0,1-1.031,1.031Z" transform="translate(-12.998 0)" fill="#00223d"/>
          </g>
          <g id="path10783" transform="translate(0 10.311)">
            <path id="Trazado_880399" data-name="Trazado 880399" d="M14.439,40.957a.853.853,0,0,1-.088,0A15.7,15.7,0,0,1,0,25.469,15.487,15.487,0,0,1,15.468,10h.9a1.031,1.031,0,0,1,0,2.063h-.9a13.421,13.421,0,0,0-13.406,13.4A13.624,13.624,0,0,0,14.525,38.9a1.031,1.031,0,0,1-.086,2.059Z" transform="translate(0.001 -9.998)" fill="#00223d"/>
          </g>
          <g id="path10787" transform="translate(50.419 16.502)">
            <path id="Trazado_880400" data-name="Trazado 880400" d="M52.1,40.752H50.035a1.031,1.031,0,0,1,0-2.063H52.1a10.313,10.313,0,1,0,0-20.626h-2.18a1.031,1.031,0,0,1,0-2.063H52.1a12.376,12.376,0,0,1,0,24.751Z" transform="translate(-48.888 -16.001)" fill="#00223d"/>
          </g>
          <g id="path10791" transform="translate(13.408 29.907)">
            <path id="Trazado_880401" data-name="Trazado 880401" d="M48.066,57.876H17.125A4.129,4.129,0,0,1,13,53.751V33.123A4.129,4.129,0,0,1,17.125,29h30.94a4.129,4.129,0,0,1,4.124,4.124V53.751a4.129,4.129,0,0,1-4.124,4.124ZM17.125,31.062a2.064,2.064,0,0,0-2.063,2.062V53.751a2.064,2.064,0,0,0,2.063,2.062h30.94a2.064,2.064,0,0,0,2.062-2.062V33.123a2.064,2.064,0,0,0-2.062-2.062Z" transform="translate(-13 -28.999)" fill="#00223d"/>
          </g>
          <g id="path10795" transform="translate(13.408 51.565)">
            <path id="Trazado_880402" data-name="Trazado 880402" d="M51.157,52.062H14.031a1.031,1.031,0,0,1,0-2.063H51.157a1.031,1.031,0,0,1,0,2.063Z" transform="translate(-13 -49.999)" fill="#00223d"/>
          </g>
          <g id="path10799" transform="translate(36.098 56.722)">
            <path id="Trazado_880403" data-name="Trazado 880403" d="M36.032,64.282A1.031,1.031,0,0,1,35,63.25V56.031a1.031,1.031,0,0,1,2.063,0V63.25a1.031,1.031,0,0,1-1.031,1.031Z" transform="translate(-35.001 -55)" fill="#00223d"/>
          </g>
          <g id="path10803" transform="translate(27.847 56.722)">
            <path id="Trazado_880404" data-name="Trazado 880404" d="M28.032,64.282A1.031,1.031,0,0,1,27,63.25V56.031a1.031,1.031,0,0,1,2.063,0V63.25a1.031,1.031,0,0,1-1.031,1.031Z" transform="translate(-27.001 -55)" fill="#00223d"/>
          </g>
          <g id="path10807" transform="translate(22.689 63.94)">
            <path id="Trazado_880405" data-name="Trazado 880405" d="M41.594,64.062H23.03a1.031,1.031,0,1,1,0-2.063H41.594a1.031,1.031,0,1,1,0,2.063Z" transform="translate(-21.999 -61.999)" fill="#00223d"/>
          </g>
          <g id="path10811" transform="translate(31.973 35.064)">
            <path id="Trazado_880406" data-name="Trazado 880406" d="M32.032,42.249A1.031,1.031,0,0,1,31,41.218V35.03a1.031,1.031,0,0,1,2.063,0v6.188a1.031,1.031,0,0,1-1.031,1.031Z" transform="translate(-31.001 -33.999)" fill="#62529b"/>
          </g>
          <g id="path10815" transform="translate(29.91 40.22)">
            <path id="Trazado_880407" data-name="Trazado 880407" d="M32.095,43.124a1.028,1.028,0,0,1-.729-.3L29.3,40.759A1.031,1.031,0,1,1,30.761,39.3l1.333,1.334L33.428,39.3a1.031,1.031,0,1,1,1.458,1.458l-2.063,2.063A1.028,1.028,0,0,1,32.095,43.124Z" transform="translate(-29.001 -38.999)" fill="#62529b"/>
          </g>
          <g id="path10819" transform="translate(25.785 41.252)">
            <path id="Trazado_880408" data-name="Trazado 880408" d="M35.274,47.219H29.166A4.136,4.136,0,0,1,26.221,46,4.19,4.19,0,0,1,25,43.054V41.031a1.031,1.031,0,0,1,2.063,0v2.022a2.117,2.117,0,0,0,.615,1.487,2.089,2.089,0,0,0,1.487.616h6.107a2.1,2.1,0,0,0,2.1-2.1V41.031a1.031,1.031,0,0,1,2.063,0v2.022a4.168,4.168,0,0,1-4.166,4.166Z" transform="translate(-25.001 -40)" fill="#62529b"/>
          </g>
        </g>
      </g>
    </g>
  </g>
</svg>
