<svg xmlns="http://www.w3.org/2000/svg" width="78.501" height="74.27" viewBox="0 0 78.501 74.27">
  <g id="Grupo_1101814" data-name="Grupo 1101814" transform="translate(-253 -3271.618)">
    <path id="_12068" data-name="12068" d="M72.033,71.913c-8.038-1.11-16.53-.839-23.844,2.675C38.045,79.46,31.382,90.507,31.127,101.757s5.606,22.305,14.66,28.988,21,9.051,32.068,7.045c11.165-2.023,21.645-8.583,27.469-18.322,3.735-6.245,5.48-13.956,3.417-20.934a28.6,28.6,0,0,0-6.787-11.156A50.145,50.145,0,0,0,72.033,71.913Z" transform="translate(221.881 3207.407)" fill="#26aab7"/>
    <g id="pantalla-tactil" transform="translate(244.627 3267.062)">
      <rect id="Rectángulo_401678" data-name="Rectángulo 401678" width="36.307" height="64.605" rx="5.002" transform="translate(28.353 5.537)" fill="#edf5ff"/>
      <path id="Trazado_880427" data-name="Trazado 880427" d="M63.33,6.307l-1.324,4.6a2.24,2.24,0,0,1-2.152,1.62H50.13a2.24,2.24,0,0,1-2.152-1.62l-1.323-4.6Z" transform="translate(-8.486 -0.77)" fill="#7d6eb2"/>
      <path id="Trazado_880428" data-name="Trazado 880428" d="M62.631,116.8H31.923a2.8,2.8,0,0,1-2.8-2.8v-3.422H65.43V114A2.8,2.8,0,0,1,62.631,116.8Z" transform="translate(-0.77 -46.661)" fill="#7d6eb2"/>
      <circle id="Elipse_11846" data-name="Elipse 11846" cx="7.121" cy="7.121" r="7.121" transform="translate(39.385 20.668)" fill="#ffd947"/>
      <path id="Trazado_880429" data-name="Trazado 880429" d="M51.518,86.056,46.487,78.51a5.6,5.6,0,0,1-.941-3.106V67.391a2.8,2.8,0,0,1,1.635-2.545l4.337-1.985V43.7a2.986,2.986,0,1,1,5.972,0V60.061a2.986,2.986,0,1,1,5.973,0v.56a2.986,2.986,0,1,1,5.972,0v.56a2.986,2.986,0,1,1,5.972,0V86.056Z" transform="translate(-7.998 -15.914)" fill="#fcced3"/>
      <g id="Grupo_1101813" data-name="Grupo 1101813" transform="translate(27.373 4.557)">
        <path id="Trazado_880430" data-name="Trazado 880430" d="M65.64,41.493V8.338a3.786,3.786,0,0,0-3.781-3.781H31.153a3.785,3.785,0,0,0-3.78,3.781v9.681a.98.98,0,1,0,1.96,0V8.338a1.823,1.823,0,0,1,1.821-1.821h6.278l1.12,3.892a3.235,3.235,0,0,0,3.094,2.329h9.723a3.235,3.235,0,0,0,3.094-2.33l1.12-3.891h6.277A1.823,1.823,0,0,1,63.68,8.338V41.373a3.956,3.956,0,0,0-2,1.034,3.962,3.962,0,0,0-5.973-.56,3.963,3.963,0,0,0-5.235-1.12V34.852a8.1,8.1,0,1,0-7.932,0V46.318l-3.765,1.723a3.788,3.788,0,0,0-2.2,3.436V59.49a6.55,6.55,0,0,0,.983,3.451H29.333V31.114a.98.98,0,0,0-1.96,0V67.34a3.785,3.785,0,0,0,3.78,3.781H43.52a.979.979,0,0,0,.815-1.523L39.3,62.052a4.6,4.6,0,0,1-.776-2.563V51.477a1.825,1.825,0,0,1,1.064-1.655l2.95-1.349v7.179a.98.98,0,0,0,1.96,0V27.789a2.006,2.006,0,1,1,4.012,0V44.147a.98.98,0,0,0,1.96,0,2.007,2.007,0,1,1,4.013,0v.56a.98.98,0,0,0,1.96,0,2.006,2.006,0,0,1,4.012,0v.56a.98.98,0,1,0,1.96,0,2.006,2.006,0,0,1,4.012,0V55.542a.98.98,0,0,0,1.96,0V45.267a3.975,3.975,0,0,0-2.75-3.773ZM52.579,9.866a1.267,1.267,0,0,1-1.211.912H41.644a1.266,1.266,0,0,1-1.211-.912l-.964-3.35H53.542ZM31.153,69.16a1.823,1.823,0,0,1-1.821-1.821V64.9h9.515l2.842,4.261ZM46.506,23.821a3.971,3.971,0,0,0-3.966,3.966v4.684a6.142,6.142,0,1,1,7.932,0V27.789a3.97,3.97,0,0,0-3.966-3.966Z" transform="translate(-27.373 -4.557)" fill="#00223d"/>
        <path id="Trazado_880431" data-name="Trazado 880431" d="M98.107,103.23a.98.98,0,0,0-.98.98v9.358a.98.98,0,1,0,1.96,0V104.21A.98.98,0,0,0,98.107,103.23Z" transform="translate(-58.071 -47.982)"/>
        <path id="Trazado_880432" data-name="Trazado 880432" d="M28.353,40.979a.98.98,0,0,0,.98-.98V37.48a.98.98,0,0,0-1.96,0V40A.98.98,0,0,0,28.353,40.979Z" transform="translate(-27.373 -18.615)"/>
        <path id="Trazado_880433" data-name="Trazado 880433" d="M77.381,47.37a.98.98,0,0,0,1.344-.336,12.11,12.11,0,0,0,0-12.481.98.98,0,0,0-1.68,1.008,10.151,10.151,0,0,1,0,10.465.98.98,0,0,0,.336,1.344Z" transform="translate(-49.172 -17.559)"/>
        <path id="Trazado_880434" data-name="Trazado 880434" d="M42.917,34.19a.98.98,0,0,0-1.344.336,12.109,12.109,0,0,0,0,12.481A.98.98,0,1,0,43.253,46a10.155,10.155,0,0,1,0-10.465.979.979,0,0,0-.336-1.344Z" transform="translate(-32.86 -17.537)"/>
      </g>
    </g>
  </g>
</svg>
