<svg xmlns="http://www.w3.org/2000/svg" width="78.501" height="74.271" viewBox="0 0 78.501 74.271">
  <g id="Grupo_1101735" data-name="Grupo 1101735" transform="translate(-847.999 -2613.601)">
    <path id="_12068" data-name="12068" d="M72.033,71.913c-8.038-1.11-16.53-.839-23.844,2.675C38.045,79.46,31.382,90.507,31.127,101.757s5.606,22.305,14.66,28.988,21,9.051,32.068,7.045c11.165-2.023,21.645-8.583,27.469-18.322,3.735-6.245,5.48-13.956,3.417-20.934a28.6,28.6,0,0,0-6.787-11.156A50.145,50.145,0,0,0,72.033,71.913Z" transform="translate(816.88 2549.391)" fill="#26aab7"/>
    <g id="igualdad-de-genero" transform="translate(850.088 2586.317)">
      <g id="Grupo_1101731" data-name="Grupo 1101731" transform="translate(1.089 28.306)">
        <path id="Trazado_880314" data-name="Trazado 880314" d="M31.121,46.135A11.811,11.811,0,1,0,17.134,57.745v4.186H13.776a2.177,2.177,0,0,0,0,4.354h3.357v3.163a2.177,2.177,0,0,0,4.354,0V66.285h3.357a2.177,2.177,0,0,0,0-4.354H21.488V57.745a11.83,11.83,0,0,0,9.634-11.609Zm-19.267,0a7.457,7.457,0,1,1,7.457,7.457,7.465,7.465,0,0,1-7.457-7.457Z" transform="translate(-7.5 -34.325)" fill="#ee6161"/>
        <path id="Trazado_880315" data-name="Trazado 880315" d="M300.443,61.727A12.687,12.687,0,0,0,293.1,64.06l-4.943-4.943h2.481a2.177,2.177,0,1,0,0-4.354H282.9a2.177,2.177,0,0,0-2.177,2.177v7.775a2.177,2.177,0,1,0,4.354,0V62.2l4.943,4.943a12.753,12.753,0,1,0,10.424-5.411Zm0,21.159a8.4,8.4,0,1,1,8.4-8.4A8.412,8.412,0,0,1,300.443,82.887Z" transform="translate(-241.068 -51.797)" fill="#62529b"/>
        <circle id="Elipse_11840" data-name="Elipse 11840" cx="5.95" cy="5.95" r="5.95" transform="translate(30.115 51.127)" fill="#ffd947"/>
        <path id="Trazado_880316" data-name="Trazado 880316" d="M243.177,386.6a5.931,5.931,0,0,0-2.177.413,5.95,5.95,0,0,1,0,11.075,5.95,5.95,0,1,0,2.177-11.488Z" transform="translate(-207.111 -335.474)" fill="#ffc344"/>
        <path id="Trazado_880317" data-name="Trazado 880317" d="M32.965,333.017h-21.9A3.562,3.562,0,0,1,7.5,329.455v-.633a1.031,1.031,0,0,1,1.031-1.031H35.5a1.031,1.031,0,0,1,1.031,1.031v.633a3.562,3.562,0,0,1-3.562,3.562Z" transform="translate(-7.5 -285.2)" fill="#ffd947"/>
        <path id="Trazado_880318" data-name="Trazado 880318" d="M159.845,327.792h-4.354a1.031,1.031,0,0,1,1.031,1.031v.633a3.562,3.562,0,0,1-3.562,3.562h4.354a3.562,3.562,0,0,0,3.562-3.562v-.633A1.031,1.031,0,0,0,159.845,327.792Z" transform="translate(-131.849 -285.2)" fill="#ffd15b"/>
        <path id="Trazado_880319" data-name="Trazado 880319" d="M329.965,333.017h-21.9a3.562,3.562,0,0,1-3.562-3.562v-.633a1.031,1.031,0,0,1,1.031-1.031H332.5a1.031,1.031,0,0,1,1.031,1.031v.633A3.562,3.562,0,0,1,329.965,333.017Z" transform="translate(-261.395 -285.2)" fill="#ffd947"/>
        <path id="Trazado_880320" data-name="Trazado 880320" d="M456.845,327.792h-4.354a1.031,1.031,0,0,1,1.031,1.031v.633a3.562,3.562,0,0,1-3.562,3.562h4.354a3.562,3.562,0,0,0,3.562-3.562v-.633A1.031,1.031,0,0,0,456.845,327.792Z" transform="translate(-385.744 -285.2)" fill="#ffd15b"/>
        <path id="Trazado_880321" data-name="Trazado 880321" d="M193.544,451.679H168v-2.9a1.451,1.451,0,0,1,1.451-1.451h22.641a1.451,1.451,0,0,1,1.451,1.451Z" transform="translate(-144.706 -387.385)" fill="#ffd947"/>
        <path id="Trazado_880322" data-name="Trazado 880322" d="M308.354,447.325H304a1.451,1.451,0,0,1,1.451,1.451v2.9h4.354v-2.9A1.451,1.451,0,0,0,308.354,447.325Z" transform="translate(-260.968 -387.385)" fill="#ffd15b"/>
      </g>
      <g id="Grupo_1101733" data-name="Grupo 1101733" transform="translate(0 27.284)">
        <g id="Grupo_1101732" data-name="Grupo 1101732" transform="translate(0 0)">
          <path id="Trazado_880323" data-name="Trazado 880323" d="M9.634,52.6v2.226H7.365a3.265,3.265,0,0,0,0,6.531H9.634v2.074a3.266,3.266,0,0,0,6.531,0V61.354h2.269a3.265,3.265,0,0,0,0-6.531H16.165V52.6A12.9,12.9,0,0,0,25.8,40.116C25.09,23,.706,23.009,0,40.116A12.9,12.9,0,0,0,9.634,52.6Zm3.266-23.2c12.995.355,14.669,18.534,1.977,21.261a1.089,1.089,0,0,0-.888,1.07v4.186A1.088,1.088,0,0,0,15.076,57h3.357a1.088,1.088,0,0,1,0,2.177H15.076a1.088,1.088,0,0,0-1.089,1.089v3.163a1.089,1.089,0,0,1-2.177,0V60.266a1.088,1.088,0,0,0-1.089-1.089H7.365a1.088,1.088,0,0,1,0-2.177h3.357a1.088,1.088,0,0,0,1.089-1.089V51.726a1.089,1.089,0,0,0-.888-1.07C-1.779,47.923-.086,29.745,12.9,29.394Z" transform="translate(0 -27.284)" fill="#00223d"/>
          <path id="Trazado_880324" data-name="Trazado 880324" d="M38.545,74.174a8.555,8.555,0,0,0,8.545-8.545c-.469-11.336-16.623-11.333-17.09,0A8.555,8.555,0,0,0,38.545,74.174Zm0-14.913a6.368,6.368,0,1,1-6.368,6.368A6.375,6.375,0,0,1,38.545,59.261Z" transform="translate(-25.646 -52.797)" fill="#00223d"/>
          <path id="Trazado_880325" data-name="Trazado 880325" d="M276.489,61.568a3.27,3.27,0,0,0,3.264-3.159l2.459,2.459c-5.649,9.05,1.142,21.144,11.821,21.048a13.889,13.889,0,0,0,12.275-20.245,1.089,1.089,0,0,0-1.929,1.01A11.7,11.7,0,0,1,294.032,79.74c-9.345.081-15-10.807-9.535-18.385a1.089,1.089,0,0,0-.119-1.4l-4.943-4.943a1.089,1.089,0,0,0-1.858.77V58.3a1.089,1.089,0,0,1-2.177,0V50.528a1.09,1.09,0,0,1,1.089-1.089h7.737a1.089,1.089,0,0,1,0,2.177h-2.482a1.089,1.089,0,0,0-.77,1.858l4.943,4.943a1.088,1.088,0,0,0,1.4.119,11.7,11.7,0,0,1,14.144.543,1.088,1.088,0,1,0,1.388-1.677,13.886,13.886,0,0,0-16.018-1.152l-2.461-2.461a3.266,3.266,0,0,0-.143-6.528h-7.737a3.269,3.269,0,0,0-3.266,3.266V58.3a3.269,3.269,0,0,0,3.266,3.266Z" transform="translate(-233.569 -44.362)" fill="#00223d"/>
          <path id="Trazado_880326" data-name="Trazado 880326" d="M360.7,125.249a9.5,9.5,0,0,0-9.491,9.491c.521,12.591,18.463,12.588,18.982,0A9.5,9.5,0,0,0,360.7,125.249Zm0,16.805a7.322,7.322,0,0,1-7.314-7.314c.4-9.7,14.228-9.7,14.628,0A7.323,7.323,0,0,1,360.7,142.054Z" transform="translate(-300.237 -111.031)" fill="#00223d"/>
          <path id="Trazado_880327" data-name="Trazado 880327" d="M72.19,320.292H45.224a2.122,2.122,0,0,0-2.119,2.119v.633a4.655,4.655,0,0,0,4.65,4.65h7.127c-2.1,1.725-5.724,3.468-11.953,4.151a7.056,7.056,0,0,0-11.554.007c-6.264-.677-9.889-2.426-11.984-4.159h7.163a4.655,4.655,0,0,0,4.65-4.65v-.633a2.122,2.122,0,0,0-2.119-2.119H12.664a1.089,1.089,0,0,0,0,2.177H29.027v.575a2.476,2.476,0,0,1-2.473,2.473H4.65a2.476,2.476,0,0,1-2.473-2.473v-.575H7.588a1.089,1.089,0,0,0,0-2.177H2.119A2.122,2.122,0,0,0,0,322.411v.633a4.655,4.655,0,0,0,4.65,4.65H16.322c1.918,2.339,5.895,5.208,14.064,6.235a7.111,7.111,0,0,0-.047,3.712H25.834a2.543,2.543,0,0,0-2.54,2.54v2.9a1.088,1.088,0,0,0,1.089,1.089H38.058a1.089,1.089,0,0,0,0-2.177H25.471V340.18a.363.363,0,0,1,.363-.363H48.475a.363.363,0,0,1,.363.363v1.814H43.1a1.089,1.089,0,0,0,0,2.177h6.821a1.088,1.088,0,0,0,1.089-1.089v-2.9a2.543,2.543,0,0,0-2.54-2.54H43.966a7.075,7.075,0,0,0-.047-3.72c8.138-1.035,12.117-3.9,14.043-6.226h11.7a4.655,4.655,0,0,0,4.65-4.65v-.633A2.121,2.121,0,0,0,72.19,320.292ZM32.626,337.64a4.863,4.863,0,1,1,9.058,0Zm39.506-14.6a2.476,2.476,0,0,1-2.473,2.473h-21.9a2.476,2.476,0,0,1-2.473-2.473v-.575h26.85Z" transform="translate(0 -277.767)" fill="#00223d"/>
        </g>
      </g>
    </g>
  </g>
</svg>
