<svg xmlns="http://www.w3.org/2000/svg" width="78.501" height="74.27" viewBox="0 0 78.501 74.27">
  <g id="Grupo_1101764" data-name="Grupo 1101764" transform="translate(-847.999 -2854.886)">
    <path id="_12068" data-name="12068" d="M72.033,71.913c-8.038-1.11-16.53-.839-23.844,2.675C38.045,79.46,31.382,90.507,31.127,101.757s5.606,22.305,14.66,28.988,21,9.051,32.068,7.045c11.165-2.023,21.645-8.583,27.469-18.322,3.735-6.245,5.48-13.956,3.417-20.934a28.6,28.6,0,0,0-6.787-11.156A50.145,50.145,0,0,0,72.033,71.913Z" transform="translate(816.88 2790.675)" fill="#26aab7"/>
    <g id="ip" transform="translate(846.435 2854.886)">
      <g id="Grupo_1101762" data-name="Grupo 1101762" transform="translate(9.72 0.973)">
        <g id="Grupo_1101743" data-name="Grupo 1101743" transform="translate(0 5.098)">
          <g id="Grupo_1101742" data-name="Grupo 1101742">
            <path id="Trazado_880350" data-name="Trazado 880350" d="M78.436,85.306H16.246V52.233A5.429,5.429,0,0,1,21.675,46.8H73.007a5.429,5.429,0,0,1,5.429,5.429V85.306Z" transform="translate(-16.246 -46.804)" fill="#d3d3d3"/>
          </g>
        </g>
        <g id="Grupo_1101745" data-name="Grupo 1101745" transform="translate(48.098 5.098)">
          <g id="Grupo_1101744" data-name="Grupo 1101744">
            <path id="Trazado_880351" data-name="Trazado 880351" d="M401.19,52.236V85.309h-8.663V52.236a5.486,5.486,0,0,0-.134-1.2,5.43,5.43,0,0,0-5.295-4.224h8.663A5.428,5.428,0,0,1,401.19,52.236Z" transform="translate(-387.098 -46.808)" fill="#abb4c0"/>
          </g>
        </g>
        <g id="Grupo_1101747" data-name="Grupo 1101747" transform="translate(0 43.599)">
          <g id="Grupo_1101746" data-name="Grupo 1101746">
            <path id="Trazado_880352" data-name="Trazado 880352" d="M16.246,343.666h62.19V347.3a5.429,5.429,0,0,1-5.429,5.429H21.675a5.429,5.429,0,0,1-5.429-5.429Z" transform="translate(-16.246 -343.666)" fill="#7d6eb2"/>
          </g>
        </g>
        <g id="Grupo_1101749" data-name="Grupo 1101749" transform="translate(48.097 43.599)">
          <g id="Grupo_1101748" data-name="Grupo 1101748">
            <path id="Trazado_880353" data-name="Trazado 880353" d="M392.52,343.666V347.3a5.429,5.429,0,0,1-5.429,5.429h8.664a5.429,5.429,0,0,0,5.429-5.429v-3.634Z" transform="translate(-387.091 -343.666)" fill="#62529b"/>
          </g>
        </g>
        <g id="Grupo_1101751" data-name="Grupo 1101751" transform="translate(24.022 52.662)">
          <g id="Grupo_1101750" data-name="Grupo 1101750">
            <rect id="Rect치ngulo_401676" data-name="Rect치ngulo 401676" width="14.147" height="8.824" fill="#7d6eb2"/>
          </g>
        </g>
        <g id="Grupo_1101753" data-name="Grupo 1101753" transform="translate(24.022 52.662)">
          <g id="Grupo_1101752" data-name="Grupo 1101752">
            <rect id="Rect치ngulo_401677" data-name="Rect치ngulo 401677" width="14.147" height="2.373" fill="#62529b"/>
          </g>
        </g>
        <g id="Grupo_1101755" data-name="Grupo 1101755" transform="translate(4.128 9.321)">
          <g id="Grupo_1101754" data-name="Grupo 1101754">
            <path id="Trazado_880354" data-name="Trazado 880354" d="M102.009,109.228H48.075V80.887a1.519,1.519,0,0,1,1.519-1.519h50.9a1.519,1.519,0,0,1,1.519,1.519v28.341Z" transform="translate(-48.075 -79.368)" fill="#aee6e6"/>
          </g>
        </g>
        <g id="Grupo_1101757" data-name="Grupo 1101757" transform="translate(53.393 9.322)">
          <g id="Grupo_1101756" data-name="Grupo 1101756">
            <path id="Trazado_880355" data-name="Trazado 880355" d="M432.591,80.892v28.34h-4.536V80.578a5.486,5.486,0,0,0-.134-1.2h3.15A1.518,1.518,0,0,1,432.591,80.892Z" transform="translate(-427.922 -79.373)" fill="#26aab7"/>
          </g>
        </g>
        <g id="Grupo_1101759" data-name="Grupo 1101759" transform="translate(15.964)">
          <g id="Grupo_1101758" data-name="Grupo 1101758">
            <path id="Trazado_880356" data-name="Trazado 880356" d="M169.594,22.63c0,11.951-12.084,21.9-14.654,23.881a.811.811,0,0,1-.968.018c-2.6-1.856-14.64-11.139-14.64-23.9a15.131,15.131,0,0,1,30.263,0Z" transform="translate(-139.331 -7.5)" fill="#ee6161"/>
          </g>
        </g>
        <g id="Grupo_1101761" data-name="Grupo 1101761" transform="translate(27.066)">
          <g id="Grupo_1101760" data-name="Grupo 1101760">
            <path id="Trazado_880357" data-name="Trazado 880357" d="M228.964,7.5a15.144,15.144,0,0,0-4.029.543,18.714,18.714,0,0,1,10.18,6.431c7.7,9.945,2.617,27.765-6.057,32.037-.121.06-.226.108-.305.144a.81.81,0,0,0,.688-.144C232.012,44.53,244.1,34.581,244.1,22.63A15.131,15.131,0,0,0,228.964,7.5Z" transform="translate(-224.935 -7.5)" fill="#d83a3a"/>
          </g>
        </g>
      </g>
      <g id="Grupo_1101763" data-name="Grupo 1101763" transform="translate(8.747)">
        <path id="Trazado_880358" data-name="Trazado 880358" d="M72.882,44.563V11.5a6.408,6.408,0,0,0-6.4-6.4H52.569a16.1,16.1,0,0,0-23.509,0H15.148a6.408,6.408,0,0,0-6.4,6.4V44.563s0,.006,0,.009v3.634a6.409,6.409,0,0,0,6.4,6.4h17.62v6.876H30.69a3.95,3.95,0,0,0-3.946,3.946.975.975,0,1,0,1.949,0,2,2,0,0,1,2-2H50.94a2,2,0,0,1,2,2,.975.975,0,1,0,1.949,0,3.95,3.95,0,0,0-3.946-3.946H48.861V54.608h17.62a6.409,6.409,0,0,0,6.4-6.4V44.572S72.882,44.566,72.882,44.563ZM40.815,1.945a14.176,14.176,0,0,1,13.076,8.721h0A14.046,14.046,0,0,1,54.974,16.1c0,4.745-2,9.723-5.933,14.794a.973.973,0,0,0,1.537,1.193c4.208-5.42,6.342-10.8,6.342-15.987a16.026,16.026,0,0,0-.722-4.777l-.018-.06H66.262a.547.547,0,0,1,.547.546V39.181H43.8a52.741,52.741,0,0,0,4.537-4.429A.973.973,0,1,0,46.9,33.446a49.766,49.766,0,0,1-6.106,5.695C38.208,37.279,26.656,28.269,26.656,16.1a14.049,14.049,0,0,1,1.082-5.435h0A14.177,14.177,0,0,1,40.815,1.945Zm-25.667,5.1H27.5A15.94,15.94,0,0,0,25.942,9.92h0s0,0,0,0h0A15.983,15.983,0,0,0,24.71,16.1c0,5.633,2.207,11.234,6.559,16.648a44.838,44.838,0,0,0,6.394,6.43H14.82V11.813a.547.547,0,0,1,.547-.546h6.512a.973.973,0,0,0,0-1.945H15.367a2.5,2.5,0,0,0-2.493,2.491V40.154a.973.973,0,0,0,.973.973H67.782a.973.973,0,0,0,.973-.973V11.813a2.5,2.5,0,0,0-2.493-2.491H55.424a15.939,15.939,0,0,0-1.3-2.279H66.481A4.461,4.461,0,0,1,70.936,11.5V43.6H10.693V11.5A4.461,4.461,0,0,1,15.148,7.042Zm51.333,45.62H46.046a.973.973,0,0,0,0,1.945h.87v6.876h-12.2V54.608h7.354a.973.973,0,1,0,0-1.945H15.148a4.461,4.461,0,0,1-4.456-4.456V45.545H70.937v2.661A4.461,4.461,0,0,1,66.481,52.662Z" transform="translate(-8.747)"/>
        <path id="Trazado_880359" data-name="Trazado 880359" d="M221.268,98.906a1.481,1.481,0,0,0,1.347,0,.492.492,0,0,0,.287-.442V88.9a.473.473,0,0,0-.28-.442,1.631,1.631,0,0,0-1.355,0,.473.473,0,0,0-.28.442v9.569A.493.493,0,0,0,221.268,98.906Z" transform="translate(-193.461 -76.854)"/>
        <path id="Trazado_880360" data-name="Trazado 880360" d="M249.648,98.906a1.481,1.481,0,0,0,1.347,0,.492.492,0,0,0,.287-.442V95.049h1.649a3.736,3.736,0,0,0,2.51-.81,3.149,3.149,0,0,0,.95-2.532v-.088a3.174,3.174,0,0,0-.913-2.51,3.548,3.548,0,0,0-2.429-.8H250.09a.757.757,0,0,0-.523.177.537.537,0,0,0-.2.412v9.569A.492.492,0,0,0,249.648,98.906Zm1.634-8.921h1.649a1.5,1.5,0,0,1,1.141.427,1.777,1.777,0,0,1,.4,1.266v.177a1.776,1.776,0,0,1-.4,1.266,1.5,1.5,0,0,1-1.141.427h-1.649Z" transform="translate(-218.161 -76.854)"/>
      </g>
    </g>
  </g>
</svg>
